<svg width="900" height="372" viewBox="0 0 900 372" xmlns="http://www.w3.org/2000/svg" xmlns:xlink="http://www.w3.org/1999/xlink">
    <defs>
        <path id="rrpzt53hia" d="M.09.084h12.725v22.235H.09z"/>
        <path id="byc02kakxc" d="M0 .075h80.87v70.541H0z"/>
    </defs>
    <g fill="none" fill-rule="evenodd">
        <path d="M102.591 58.296c-1.137-8.392-8.332-14.861-17.04-14.861-3.417 0-6.601.996-9.278 2.713C72.36 38.352 64.29 33 54.97 33c-8.26 0-15.537 4.202-19.81 10.584a11.59 11.59 0 0 0-1.855-.15c-6.357 0-11.51 5.152-11.51 11.506 0 .833.09 1.645.258 2.428C15.256 58.38 10 64.276 10 71.338c0 7.77 6.359 14.126 14.13 14.126h73.054c7.772 0 14.13-6.357 14.13-14.125 0-5.858-3.614-10.909-8.723-13.043M881.042 204.744h-.537c.002-.12.005-.24.005-.36 0-11.769-9.544-21.31-21.32-21.31-8.148 0-15.23 4.57-18.816 11.287a11.435 11.435 0 0 0-4.864-1.082c-4.36 0-8.148 2.43-10.089 6.008a11.374 11.374 0 0 0-5.57-1.449c-6.306 0-11.42 5.11-11.42 11.416 0 4.795 2.959 8.897 7.15 10.588.734 5.723 5.66 10.183 11.578 10.183h53.883c6.418 0 11.671-5.25 11.671-11.666v-1.95c0-6.415-5.253-11.665-11.67-11.665M813.645 32.575h-84.007A11.53 11.53 0 0 1 728 26.628c0-6.413 5.2-11.61 11.615-11.61 2.058 0 3.988.536 5.665 1.473a11.658 11.658 0 0 1 10.26-6.11c1.77 0 3.446.395 4.946 1.1C764.137 4.65 771.336 0 779.625 0c11.976 0 21.686 9.704 21.686 21.677 0 .122-.005.244-.005.366h.545c6.08 0 11.128 4.626 11.794 10.532" fill="#FFFFFE"/>
        <path d="M864.844 365.238c-1.715-1.116-3.603-1.823-5.555-2.372.003-.042.009-.083.009-.128 0-2.929-.012-5.858-.166-8.784-.138-2.632-.33-5.385-1.14-7.909-.576-1.789-3.401-1.024-2.822.778.77 2.394.922 4.96 1.053 7.456.138 2.625.148 5.256.148 7.884a1.636 1.636 0 0 0-.198.168 126.408 126.408 0 0 0-3.063 3.147c-.74.793-2.175 1.994-2.33 3.143-.107.79.176 1.567 1.022 1.8.687.188 1.685-.228 1.798-1.015l.026-.042c.146-.237.156-.23.357-.472.433-.527.9-1.027 1.365-1.525.36-.386.725-.766 1.092-1.144.03.132.073.263.131.39.505 1.101.427 2.47.427 3.65.002 1.887 2.928 1.888 2.927 0-.001-1.466-.06-2.921-.509-4.305 1.382.44 2.704.995 3.95 1.806 1.588 1.033 3.053-1.501 1.478-2.526M883.163 365.238c-1.715-1.116-3.604-1.823-5.555-2.372.003-.042.008-.083.008-.128 0-2.929-.011-5.858-.165-8.784-.139-2.632-.33-5.385-1.141-7.909-.575-1.789-3.401-1.024-2.822.778.77 2.394.922 4.96 1.054 7.456.138 2.625.147 5.256.148 7.884a1.637 1.637 0 0 0-.198.168 127.283 127.283 0 0 0-3.063 3.147c-.74.793-2.176 1.994-2.33 3.143-.107.79.176 1.567 1.022 1.8.687.188 1.685-.228 1.797-1.015l.027-.042c.145-.237.156-.23.356-.472.434-.527.9-1.027 1.366-1.525.36-.386.724-.766 1.092-1.144.03.132.073.263.13.39.506 1.101.427 2.47.428 3.65.001 1.887 2.927 1.888 2.926 0 0-1.466-.06-2.921-.508-4.305 1.381.44 2.704.995 3.95 1.806 1.587 1.033 3.052-1.501 1.478-2.526M898.65 310.594c-.921-1.013-2.111-1.51-3.38-1.657 1.49-1.527 2.835-3.187 3.962-5.034.427-.7.137-1.58-.525-2.002-2.026-1.29-4.16-1.542-6.158-1.071.135-.499.22-1.008.24-1.526.085-2.12-1.673-3.487-3.68-3.42-2.402.078-4.626 1.59-6.32 3.173-2.377 2.22-3.982 5.203-4.915 8.298-.251.004-.5.067-.71.19-.727.425-.875 1.285-.526 2.002a15.15 15.15 0 0 1 .955 2.56 7.454 7.454 0 0 1 .098.41c0 .015 0 .032.002.054.055 1.232 1.33 1.66 2.18 1.277 5.39 2.574 12.085 7.91 17.89 3.543 2.26-1.7 2.867-4.62.887-6.797M840.916 308.202c.26-.724.04-1.693-.878-2.058-3.888-1.547-8.677-2.518-12.751-1.14-1.473.497-3.43 1.761-2.784 3.613.072.205.165.393.275.567a8.162 8.162 0 0 0-1.332.787c-2.26 1.644-3.398 4.234-3.446 6.99-.014.81.677 1.446 1.463 1.463.8.017 1.588.124 2.376.245-.084.137-.163.28-.235.427-.426.88-.602 1.746-1.294 2.474-.73.768-.459 2.187.646 2.445 8.528 1.994 17.187-6.206 18.731-14.19.146-.754-.24-1.33-.77-1.623" fill="#2F484D"/>
        <path d="M897.103 334.99c-2.999-.465-5.853-1.575-8.092-3.533-2.194-1.918-3.674-4.374-4.864-7.047-2.697-6.058-3.612-12.909-5.002-19.361-1.39-6.452-3.116-13.105-7.234-18.406-4.058-5.222-11.127-8.102-17.692-7.583-13.655 1.08-16.966 17.756-17.967 28.724-.62 6.792-.534 13.673.053 20.464.06.7.51 1.14 1.04 1.316.893 4.027 2.958 7.734 5.89 10.805 4.553 4.769 10.803 7.801 17.114 9.46 12.248 3.221 28.15 1.659 35.896-9.587a20.015 20.015 0 0 0 1.732-3.103c.348-.766.144-1.991-.874-2.15" fill="#D9845F"/>
        <path d="M847.174 296.058c-1.887 0-1.887 2.926 0 2.926s1.887-2.926 0-2.926M865.987 294.804h-.627c-.798 0-1.463.665-1.463 1.463 0 .797.665 1.463 1.463 1.463h.627c.797 0 1.463-.666 1.463-1.463 0-.798-.666-1.463-1.463-1.463M860.015 304.545a1.344 1.344 0 0 0-.188-.135c-.022-.014-.045-.024-.068-.036a1.465 1.465 0 0 0-.132-.204c.208-.032.418-.06.628-.084-.076.155-.158.307-.24.459m2.877-2.643c-.195-.473-.625-.836-1.295-.827-2.507.032-4.875.696-7.287 1.306-.518.131-.826.451-.962.833-.676.35-1.093 1.132-.54 1.943 1.347 1.973 3.045 3.673 4.39 5.644 1.02 1.493 3.415.187 2.626-1.31.867-.36 1.503-1.452 1.962-2.16.759-1.171 1.39-2.46 1.85-3.777.28-.806-.141-1.402-.744-1.652" fill="#FFF"/>
        <g>
            <g transform="translate(37.742 176.34)">
                <mask id="n4cw07h2cb" fill="#fff">
                    <use xlink:href="#rrpzt53hia"/>
                </mask>
                <path d="M12.327 17.637c-1.413-1.402-2.932-2.704-4.223-4.224a1.303 1.303 0 0 0-.459-.341c-.004-3.803-.03-7.606-.234-11.404-.112-2.107-3.398-2.118-3.285 0 .215 4.02.233 8.047.234 12.072C2.965 15.257 1.49 16.696.361 18.44c-1.155 1.784 1.69 3.43 2.837 1.658.373-.577.797-1.114 1.244-1.632-.109.735-.174 1.47-.081 2.21.111.89.663 1.644 1.642 1.644.811 0 1.755-.752 1.643-1.643-.117-.938.02-1.875.177-2.812.726.7 1.466 1.386 2.181 2.096 1.505 1.493 3.829-.83 2.323-2.323" fill="#9EBABA" mask="url(#n4cw07h2cb)"/>
            </g>
            <path d="M63.467 191.161c-1.413-1.402-2.933-2.704-4.224-4.224a1.307 1.307 0 0 0-.459-.341c-.003-3.803-.03-7.606-.233-11.404-.113-2.107-3.4-2.118-3.286 0 .216 4.02.233 8.047.235 12.072-1.396 1.517-2.872 2.956-4 4.699-1.155 1.784 1.69 3.43 2.837 1.658.373-.577.797-1.114 1.244-1.633-.108.736-.174 1.472-.08 2.212.11.888.662 1.643 1.642 1.643.81 0 1.754-.753 1.642-1.643-.117-.938.02-1.875.177-2.812.726.7 1.466 1.386 2.182 2.096 1.505 1.493 3.828-.83 2.323-2.323" fill="#9EBABA"/>
            <g transform="translate(0 112.106)">
                <mask id="cyzbc1uj1d" fill="#fff">
                    <use xlink:href="#byc02kakxc"/>
                </mask>
                <path d="M16.29 56.515c-1.524 4.077-3.818 12.253-9.469 10.573.155-4.818 3.711-8.226 7.268-11.383a18.46 18.46 0 0 0 1.87-1.497c.385.463.781.916 1.185 1.36-.366.172-.68.479-.854.947m-12.681-1.44c1.302-3.568 6.11-3.931 9.768-3.681.033.12.066.242.096.361.01.039.023.074.034.11-.343.317-.689.633-1.037.95-2.576 1.895-5.65 2.894-8.861 2.26m-.244-15.453c4.187.505 7.001 4.119 8.708 8.03-4.078-1.192-8.134-3.859-8.708-8.03m76.453-22.406C78.456 11.438 75.148 6.21 69.99 3.14 65.343.373 59.68-.346 54.38.293 43.318 1.627 32.15 8.419 27.78 18.969c-3.27 7.894-.86 16.102 3.926 22.673-1.857 2.338-4.678 3.851-7.337 5.073-2.48 1.14-5.108 1.978-7.748 2.683a1.524 1.524 0 0 0-.68-.835C13.742 42.211 9.03 35.745 1.68 36.3c-.951.072-1.564.697-1.642 1.643-.407 4.912 2.524 8.51 6.443 10.792-.258.079-.516.163-.769.257C2.425 50.22.484 52.798.038 56.247c-.097.749.58 1.362 1.206 1.584 1.874.668 3.771.86 5.616.67-2.154 2.725-3.6 5.822-3.302 9.715.04.535.272 1.182.813 1.419 1.919.838 3.87 1.272 5.943.764 1.705-.419 3.17-1.603 4.267-2.928 2.312-2.792 3.488-6.33 4.731-9.69 4.78 4.515 10.612 7.774 17.241 8.96 8.26 1.478 16.786-.33 24.025-4.477 15.365-8.8 23.293-27.861 19.24-45.048" fill="#2F484D" mask="url(#cyzbc1uj1d)"/>
            </g>
            <path d="M60.727 126.786c-.495 1.916-1.964 2.474-3.814 2.192-1.713-.261-3.717-1.082-4.704-2.213-1.395-1.599-3.71.735-2.323 2.324 1.692 1.939 4.573 2.864 7.037 3.178 3.281.417 6.14-1.384 6.972-4.608.53-2.052-2.638-2.923-3.168-.873" fill="#BE8432"/>
            <path d="M89.519 134.157c-2.536-2.795-6.166-4.042-9.07-6.337a1.328 1.328 0 0 0-.176-.141c-.086-.07-.173-.138-.258-.21-1.547-1.317-3.775.79-2.477 2.175-.006 3.292 1.714 6.266 1.785 9.546.027 1.246 1.375 2.045 2.472 1.418 2.416-1.38 4.837-2.758 7.391-3.871 1.022-.446.973-1.874.333-2.58" fill="#333"/>
            <path d="M57.641 155.957c.016 1.435-.786 2.315-2.035 3.173-1.422.977-3.297 1.473-4.99 1.813-1.867.376-4.027.623-6.087.543 1.97-1.614 3.227-4.22 4.697-6.485 1.054-1.623 2.438-2.85 4.488-2.713 1.933.129 3.907 1.796 3.927 3.669m-3.29-6.905c-2.298-.354-4.716.541-6.321 2.19-1.522 1.565-2.455 3.551-3.596 5.386-.91 1.464-2.12 3.17-4.038 3.137-.795-.013-1.344.445-1.605 1.022-.958.645-1.17 2.378.235 2.946 3.401 1.372 7.573 1.167 11.12.628 3.527-.535 8.02-1.828 9.914-5.16 2.527-4.444-1.05-9.43-5.709-10.15" fill="#9EBABA"/>
        </g>
    </g>
</svg>
