<svg width="780" height="181" viewBox="0 0 780 181" xmlns="http://www.w3.org/2000/svg" xmlns:xlink="http://www.w3.org/1999/xlink">
    <defs>
        <path id="1ob2ktlmba" d="M0 .242H199.74v63.93H0z"/>
        <path id="4tjao42csc" d="M0 .242H199.74v63.93H0z"/>
    </defs>
    <g fill="none" fill-rule="evenodd">
        <path d="M479.405 90.099c0 49.76-40.339 90.099-90.1 90.099-49.76 0-90.098-40.339-90.098-90.099C299.207 40.339 339.545 0 389.306 0c49.76 0 90.099 40.339 90.099 90.099" fill="#2F484D"/>
        <path d="M473.464 90.099c0 46.48-37.679 84.158-84.158 84.158-46.48 0-84.159-37.678-84.159-84.158 0-46.48 37.68-84.158 84.159-84.158 46.48 0 84.158 37.678 84.158 84.158" fill="#F1F5F5"/>
        <path d="M370.335 90.606c.01.387.03.776.061 1.156l-64.951 5.399a85.35 85.35 0 0 1-.271-4.941zm103.13-.507c0 1.66-.054 3.308-.15 4.945l-65.066-3.767c.022-.388.034-.784.034-1.178zm-1.178-14.072c.272 1.619.5 3.252.678 4.9l-64.796 7.032c-.04-.374-.092-.75-.154-1.116zm-164.948-5.084 63.483 14.773c-.082.357-.156.72-.218 1.082l-64.24-11.004c.28-1.633.603-3.251.975-4.85zm158.738-15.371a83.802 83.802 0 0 1 1.89 4.563l-60.9 23.218c-.13-.341-.272-.682-.42-1.014zm-151.256-4.67 57.65 30.402c-.17.323-.334.656-.485.988l-59.35-26.944a83.666 83.666 0 0 1 2.185-4.446zm140.058-13.55a84.575 84.575 0 0 1 2.993 3.939l-53.069 37.844a19.394 19.394 0 0 0-.684-.902zm-127.762-3.954 48.155 43.926c-.256.28-.507.572-.744.865l-50.635-41.036a84.804 84.804 0 0 1 3.224-3.755zm112.349-10.88a84.61 84.61 0 0 1 3.883 3.072l-41.88 49.94c-.29-.243-.589-.479-.889-.702zm-96.052-2.97 35.589 54.603c-.312.203-.623.419-.925.642l-38.726-52.424a84.197 84.197 0 0 1 4.062-2.82zm77.396-7.506c1.536.62 3.05 1.283 4.538 1.99L397.4 72.912a18.443 18.443 0 0 0-1.002-.439zm-58.137-1.796 20.616 61.83c-.343.115-.688.242-1.025.377L358.027 11.95a83.454 83.454 0 0 1 4.646-1.704zM400.12 6.63c1.645.211 3.273.475 4.887.78l-12.084 64.044c-.36-.068-.729-.126-1.096-.173zm-16.462-.497 4.304 65.033c-.374.025-.752.061-1.123.108L378.733 6.6a84.81 84.81 0 0 1 4.925-.467z" fill="#D8E2E0"/>
        <path d="M417.112 60.995c.818-2.442 3.463-4.23 6.6-4.23.696 0 1.368.088 2.002.252 1.023-.982 2.518-1.603 4.185-1.603 1.14 0 2.2.291 3.084.79.48-.893 1.45-1.555 2.616-1.74.519-2.166 2.773-3.797 5.476-3.797 2.65 0 4.868 1.567 5.442 3.67a8.267 8.267 0 0 1 1.597-.154c3.36 0 6.168 1.999 6.87 4.673a4.2 4.2 0 0 1 1.088-.142c1.58 0 2.922.863 3.41 2.064l.198-.002c3.568 0 6.5 1.518 6.83 3.459h-55.737c.357-1.503 2.895-2.753 6.339-3.24M549.713 82.03c1.512-4.499 6.4-7.794 12.197-7.794 1.287 0 2.529.163 3.7.465 1.891-1.81 4.654-2.954 7.733-2.954 2.107 0 4.066.537 5.7 1.454.888-1.643 2.678-2.863 4.834-3.205.959-3.991 5.125-6.996 10.12-6.996 4.897 0 8.995 2.888 10.057 6.762a15.32 15.32 0 0 1 2.95-.284c6.208 0 11.4 3.684 12.695 8.61a7.784 7.784 0 0 1 2.012-.261c2.92 0 5.399 1.59 6.301 3.804.122-.002.243-.004.366-.004 6.594 0 12.013 2.798 12.622 6.373H538c.66-2.77 5.349-5.072 11.713-5.97" fill="#FFF"/>
        <path d="M765.645 36.575h-84.007A11.53 11.53 0 0 1 680 30.628c0-6.413 5.2-11.61 11.615-11.61 2.058 0 3.988.536 5.665 1.473a11.658 11.658 0 0 1 10.26-6.11c1.77 0 3.446.395 4.946 1.1C716.137 8.65 723.336 4 731.625 4c11.976 0 21.686 9.704 21.686 21.677 0 .122-.005.244-.005.366h.545c6.08 0 11.128 4.626 11.794 10.532M56 36.615h-.415c.002-.091.003-.183.003-.275 0-9.024-7.36-16.34-16.442-16.34a16.45 16.45 0 0 0-14.51 8.654 8.862 8.862 0 0 0-3.752-.829 8.85 8.85 0 0 0-7.78 4.607 8.811 8.811 0 0 0-4.297-1.112C3.945 31.32 0 35.24 0 40.073c0 3.677 2.282 6.822 5.514 8.119C6.081 52.58 9.88 56 14.444 56h41.555C60.95 56 65 51.975 65 47.055V45.56c0-4.92-4.051-8.945-9-8.945" fill="#FFFFFE"/>
        <path d="M411.324 89.899c0 11.849-9.606 21.455-21.455 21.455-11.849 0-21.454-9.606-21.454-21.455 0-11.85 9.605-21.455 21.454-21.455 11.85 0 21.455 9.606 21.455 21.455" fill="#BE8432"/>
        <path d="m307.12 108.266 89.332.976-44.385-51.272a3.812 3.812 0 0 0-5.65-.127l-40.607 42.854a83.87 83.87 0 0 0 1.31 7.569" fill="#72978D"/>
        <path d="M471.489 108.278a83.869 83.869 0 0 0 1.434-8.643l-39.602-41.792a3.812 3.812 0 0 0-5.65.127l-44.384 51.273 88.202-.965z" fill="#72978D"/>
        <path d="M336.417 68.396 346 63.512a3.263 3.263 0 0 1 3.127.09l3.287 1.92a3.263 3.263 0 0 1 1.578 2.308l.826 5.231a3.263 3.263 0 0 0 2.73 2.717l5.335.815a3.264 3.264 0 0 1 1.66.773l17.952 15.754-30.428-35.15a3.812 3.812 0 0 0-5.65-.127l-10 10.553zM443.308 68.396l-9.583-4.884a3.263 3.263 0 0 0-3.127.09l-3.287 1.92a3.263 3.263 0 0 0-1.577 2.308l-.827 5.231a3.263 3.263 0 0 1-2.73 2.717l-5.335.815a3.263 3.263 0 0 0-1.66.773L397.23 93.12l30.428-35.15a3.812 3.812 0 0 1 5.65-.127l10 10.553z" fill="#9EBABA"/>
        <path fill="#72978D" d="m396.328 109.1 4.04-.044-8.46-9.773-2.039 2.356z"/>
        <path d="M395.015 93.029c.722-2.157 3.059-3.736 5.829-3.736.615 0 1.209.078 1.768.223.904-.868 2.224-1.416 3.696-1.416 1.007 0 1.943.257 2.724.697.424-.788 1.28-1.373 2.31-1.536.458-1.913 2.45-3.353 4.837-3.353 2.34 0 4.299 1.384 4.806 3.24.453-.088.925-.136 1.41-.136 2.967 0 5.448 1.766 6.067 4.128.303-.082.626-.126.961-.126 1.396 0 2.58.762 3.012 1.823l.174-.002c3.152 0 5.742 1.341 6.033 3.055h-49.225c.315-1.328 2.556-2.431 5.598-2.861M648.83 151.403c2.172-6.478 9.197-11.223 17.526-11.223 1.85 0 3.634.234 5.315.67 2.719-2.608 6.689-4.254 11.113-4.254 3.029 0 5.843.771 8.19 2.094 1.276-2.368 3.848-4.125 6.948-4.616 1.375-5.748 7.363-10.074 14.54-10.074 7.037 0 12.925 4.159 14.45 9.737a21.982 21.982 0 0 1 4.24-.41c8.92 0 16.38 5.305 18.242 12.4a11.137 11.137 0 0 1 2.89-.377c4.195 0 7.758 2.29 9.054 5.477.175-.003.35-.005.525-.005 9.476 0 17.262 4.029 18.137 9.178H632c.948-3.989 7.685-7.305 16.83-8.597M384.587 42.464c-.86-2.565-3.637-4.443-6.932-4.443a8.4 8.4 0 0 0-2.102.265c-1.075-1.032-2.645-1.683-4.396-1.683-1.197 0-2.31.305-3.24.828-.503-.937-1.52-1.632-2.746-1.827-.545-2.275-2.913-3.987-5.752-3.987-2.783 0-5.111 1.646-5.715 3.854a8.661 8.661 0 0 0-1.677-.162c-3.528 0-6.478 2.1-7.214 4.908a4.399 4.399 0 0 0-1.143-.15c-1.66 0-3.069.907-3.582 2.169a14.472 14.472 0 0 0-.207-.002c-3.748 0-6.828 1.594-7.174 3.632h58.537c-.375-1.579-3.04-2.891-6.657-3.402M189.35 139.448c-2.407-7.198-10.19-12.47-19.42-12.47a23.49 23.49 0 0 0-5.89.743c-3.013-2.897-7.412-4.726-12.315-4.726-3.355 0-6.474.858-9.076 2.326-1.412-2.63-4.263-4.582-7.697-5.127-1.525-6.388-8.16-11.194-16.113-11.194-7.797 0-14.322 4.62-16.013 10.82a24.22 24.22 0 0 0-4.697-.457c-9.885 0-18.15 5.895-20.214 13.779a12.301 12.301 0 0 0-3.202-.42c-4.65 0-8.597 2.545-10.033 6.086a40.456 40.456 0 0 0-.582-.005C53.597 138.803 44.97 143.28 44 149h164c-1.05-4.432-8.517-8.117-18.65-9.552M349.32 74.985c-.573-1.71-2.425-2.962-4.621-2.962-.488 0-.959.062-1.402.176-.717-.688-1.764-1.122-2.93-1.122a4.4 4.4 0 0 0-2.16.552c-.337-.624-1.015-1.088-1.832-1.217-.363-1.517-1.942-2.66-3.835-2.66-1.856 0-3.408 1.099-3.81 2.57a5.766 5.766 0 0 0-1.119-.107c-2.352 0-4.319 1.4-4.81 3.272a2.95 2.95 0 0 0-.762-.1c-1.106 0-2.046.605-2.388 1.446l-.138-.001c-2.5 0-4.552 1.063-4.783 2.422h39.029c-.25-1.053-2.027-1.928-4.439-2.27" fill="#FFF"/>
        <path d="M307.112 108.232c8.294 37.763 41.94 66.025 82.194 66.025 40.617 0 74.512-28.774 82.416-67.05l-164.61 1.025z" fill="#72978D"/>
        <g transform="translate(290 115.842)">
            <mask id="4my9gde5cb" fill="#fff">
                <use xlink:href="#1ob2ktlmba"/>
            </mask>
            <path d="M199.739.242s-48.756 17.356-99.87 17.356C48.756 17.598 0 .242 0 .242l9.207 26.472L0 46.815s48.756 17.356 99.87 17.356c51.113 0 99.869-17.356 99.869-17.356l-9.207-20.101L199.74.242z" fill="#00B54C" mask="url(#4my9gde5cb)"/>
        </g>
        <g transform="translate(290 115.842)">
            <mask id="c4p5efwuhd" fill="#fff">
                <use xlink:href="#4tjao42csc"/>
            </mask>
            <path d="M199.739.242s-48.756 17.356-99.87 17.356C48.756 17.598 0 .242 0 .242l9.207 26.472L0 46.815s48.756 17.356 99.87 17.356c51.113 0 99.869-17.356 99.869-17.356l-9.207-20.101L199.74.242z" fill="#2F484D" mask="url(#c4p5efwuhd)"/>
        </g>
        <path d="M472.285 102.228c-1.17.478-2.375.963-3.638.97-1.668.008-3.21-.812-4.808-1.29-3.543-1.057-8.678-.071-11.246 2.589-2.178 2.256-5.83 2.258-8.833 1.353s-5.782-2.542-8.87-3.09c-8.567-1.52-16.85 5.61-25.453 4.312-4.809-.725-9.063-4.037-13.925-4.1-5.858-.077-10.847 4.557-16.676 5.147-6.77.686-12.86-4.142-19.594-5.118-8.765-1.27-17.344 4.09-26.18 3.494-5.396-.363-10.381-2.915-15.65-4.13-3.7-.852-7.956-.829-11.257.778a83.558 83.558 0 0 0 4.893 17.97c2.122-.179 4.327.024 6.363.493 5.27 1.215 10.255 3.767 15.651 4.13 8.836.595 17.415-4.765 26.18-3.494 6.734.976 12.824 5.803 19.594 5.118 5.83-.59 10.818-5.224 16.676-5.148 4.862.064 9.116 3.376 13.925 4.1 8.602 1.298 16.886-5.831 25.453-4.312 3.088.549 5.867 2.186 8.87 3.09 3.003.905 6.655.903 8.833-1.353 2.568-2.66 7.703-3.646 11.246-2.588 1.095.327 2.164.815 3.265 1.087a83.565 83.565 0 0 0 5.505-20.14l-.324.132" fill="#2F484D"/>
        <path d="M309.876 117.962a83.697 83.697 0 0 0 1.74 4.54c18.991 4.943 48.214 10.938 78.253 10.938 29.384 0 57.984-5.735 76.994-10.612a83.865 83.865 0 0 0 1.757-4.538c-18.977 4.967-48.45 11.067-78.75 11.067-30.973 0-61.076-6.373-79.994-11.395" fill="#72978D"/>
        <path d="M307.824 152.915c-.308-.667-.406-1.22-.293-1.66.112-.441.632-.93 1.56-1.465.537-.304 1.047-.395 1.531-.272.483.124 1.047.727 1.69 1.81.167.356.44.725.822 1.107.38.382.76.622 1.14.719 1.607.41 2.577-.042 2.912-1.355.1-.397-.035-.785-.406-1.165-.373-.38-.871-.714-1.497-1.003a14.537 14.537 0 0 1-1.975-1.124 14.402 14.402 0 0 1-1.883-1.488c-.564-.53-.966-1.243-1.206-2.142-.24-.898-.219-1.9.063-3.005.388-1.52 1.291-2.7 2.711-3.543 1.42-.842 3.105-1.015 5.057-.517 1.036.264 1.947.639 2.734 1.125.786.486 1.308.908 1.566 1.268l.522.658c.407.637.567 1.128.48 1.473-.089.346-.417.768-.986 1.267-.807.714-1.522.99-2.144.832-.362-.092-.767-.38-1.214-.861a2.993 2.993 0 0 1-.232-.335 4.19 4.19 0 0 0-.316-.44c-.305-.316-.739-.546-1.3-.69-.561-.143-1.061-.128-1.5.045-.44.173-.72.497-.842.972-.121.475.001.915.367 1.321.365.406.863.744 1.493 1.016.63.27 1.305.613 2.027 1.027.722.414 1.372.86 1.949 1.339.577.477.987 1.157 1.232 2.038.244.88.223 1.882-.063 3.005-.286 1.123-.763 2.054-1.43 2.794-.667.74-1.423 1.251-2.267 1.532-1.632.56-3.243.635-4.831.23a9 9 0 0 1-2.23-.886c-.675-.383-1.199-.779-1.573-1.187-.775-.786-1.276-1.485-1.507-2.095l-.16-.345zM332.779 149.548l-2.466 3.232 3.482.716-1.016-3.948zm3.414-5.848 4.064 16.066c.174.654.23 1.13.17 1.427-.13.628-.752 1.091-1.869 1.39-.655.173-1.152.226-1.492.156-.34-.07-.604-.206-.79-.408-.186-.202-.309-.4-.369-.594a23.3 23.3 0 0 1-.244-.87l-.78-3.108-7.253-1.492-1.943 2.548c-.247.313-.434.538-.562.676a1.905 1.905 0 0 1-.571.387c-.253.121-.549.147-.89.077-.34-.07-.776-.315-1.308-.734-.913-.697-1.304-1.36-1.174-1.988.06-.296.3-.711.72-1.244l10.08-13.182a2.335 2.335 0 0 1 1.077-.789c.443-.163.883-.2 1.32-.11.942.194 1.547.792 1.814 1.792zM358.736 146.393c.96.672 1.392 1.316 1.297 1.932-.044.283-.242.685-.593 1.207l-9.586 13.663a2.292 2.292 0 0 1-1.03.8 2.385 2.385 0 0 1-1.284.166l-.264-.04a2.431 2.431 0 0 1-1.2-.552 2.29 2.29 0 0 1-.74-1.075l-4.996-15.924c-.176-.604-.243-1.047-.2-1.33.096-.616.703-1.099 1.822-1.449.627-.208 1.095-.29 1.403-.242.308.048.536.12.684.215.147.095.278.241.392.439.125.236.234.492.327.768.092.276.318 1.06.677 2.35.359 1.291.745 2.663 1.16 4.116.415 1.453.807 2.826 1.174 4.119.368 1.292.576 2.014.625 2.166l7.078-10.751a9.21 9.21 0 0 1 .492-.736c.39-.426.815-.604 1.273-.533.458.071.955.302 1.49.691M364.692 161.626l8.2.741c.409.037.713.078.915.123.202.045.43.151.683.317.457.292.634 1.006.531 2.142-.112 1.242-.507 1.94-1.182 2.094-.312.079-.778.09-1.4.034l-10.542-.952c-1.243-.113-1.94-.516-2.092-1.21-.08-.293-.093-.75-.037-1.372l1.338-14.803c.082-.905.306-1.506.673-1.805.367-.297 1.02-.404 1.961-.319l10.49.949c.408.036.713.077.915.122.202.045.43.151.683.317.457.292.634 1.006.531 2.142-.112 1.242-.507 1.94-1.182 2.094-.312.079-.778.09-1.4.034l-8.173-.738-.243 2.689 5.272.476c.408.037.713.078.915.123.201.045.429.151.682.317.457.292.634 1.006.532 2.141-.113 1.243-.516 1.94-1.21 2.092-.311.08-.777.091-1.398.035l-5.219-.472-.243 2.69zM389.112 162.94l8.234-.073c.41-.003.717.008.922.032.205.026.442.108.71.248.484.246.73.939.74 2.079.012 1.248-.312 1.981-.969 2.2-.302.11-.765.168-1.389.173l-10.585.094c-1.248.01-1.981-.321-2.201-.997-.11-.284-.167-.738-.172-1.362l-.131-14.863c-.008-.908.156-1.529.491-1.862.335-.333.975-.503 1.92-.512l10.533-.092c.41-.004.717.007.922.032.205.025.442.107.711.248.483.245.73.938.74 2.078.01 1.248-.312 1.981-.97 2.2-.302.11-.765.168-1.388.173l-8.207.073.024 2.7 5.293-.047c.41-.003.717.007.922.032.205.025.442.108.711.248.483.245.73.938.74 2.079.01 1.247-.321 1.98-.996 2.2-.303.11-.766.168-1.389.173l-5.24.046.024 2.7zM410.46 154.952l-1.445 3.8 3.542-.305-2.098-3.495zm1.608-6.578 8.467 14.245c.354.578.544 1.018.57 1.32.055.639-.411 1.26-1.397 1.864-.578.353-1.04.545-1.386.575-.346.03-.637-.026-.873-.167a1.59 1.59 0 0 1-.522-.465 23.83 23.83 0 0 1-.482-.763l-1.632-2.758-7.377.633-1.139 2.996c-.147.37-.262.64-.346.807-.084.169-.23.347-.437.534-.208.188-.485.297-.83.326-.347.03-.835-.08-1.465-.33-1.072-.409-1.636-.933-1.69-1.572-.027-.302.085-.767.335-1.397l5.914-15.506c.16-.425.43-.78.807-1.062.379-.283.79-.444 1.234-.482.959-.082 1.708.32 2.25 1.202zM426.637 154.781l3.384-.508c.51-.076.993-.347 1.446-.812.453-.464.621-1.084.504-1.86-.116-.774-.46-1.322-1.03-1.642-.571-.32-1.13-.44-1.675-.357l-3.332.5.703 4.68zM437.8 160c.36.594.56 1.033.603 1.315.1.67-.36 1.316-1.385 1.938-.527.331-.962.523-1.306.575-.344.051-.638.01-.883-.125a1.905 1.905 0 0 1-.567-.442c-.227-.308-1.154-1.8-2.78-4.475l-.812.175-3.33.5.448 2.988c.06.406.093.712.097.918.004.207-.045.453-.146.738-.175.513-.827.854-1.955 1.023-1.234.186-2.005-.032-2.315-.652-.15-.284-.272-.734-.365-1.351l-2.202-14.672a7.715 7.715 0 0 1-.097-.919 2.137 2.137 0 0 1 .146-.738c.175-.513.826-.854 1.955-1.023l5.71-.857c1.55-.233 3.142.105 4.775 1.013.786.44 1.48 1.094 2.078 1.959.598.866.983 1.87 1.156 3.016.298 1.992-.117 3.73-1.245 5.215.527.876 1.334 2.17 2.42 3.88zM437.033 143.568l14.567-2.95c.56-.112.983-.13 1.271-.052.29.078.505.248.65.51.143.262.261.62.353 1.074.092.454.122.825.09 1.113-.033.29-.144.507-.332.654-.283.22-.712.39-1.288.506l-5.005 1.014 2.669 13.179c.08.402.128.701.14.898.013.198-.02.437-.1.716-.08.28-.275.506-.586.678-.31.172-.736.313-1.278.422-.542.11-.984.145-1.328.106-.345-.04-.608-.173-.79-.4a2.147 2.147 0 0 1-.374-.633 7.816 7.816 0 0 1-.223-.896l-2.663-13.153-5.03 1.019c-.56.113-.983.13-1.272.053a1.013 1.013 0 0 1-.648-.51c-.144-.261-.262-.62-.354-1.074-.092-.454-.122-.825-.09-1.114.033-.288.144-.506.332-.653.283-.221.712-.39 1.289-.507M466.415 137.67c.071-.295.257-.537.559-.725.3-.188.701-.347 1.202-.476.5-.13.908-.188 1.224-.178.316.01.567.057.753.137.187.08.352.222.496.424.162.272.322.709.477 1.313l3.709 14.365c.103.397.167.699.192.903.025.205.002.455-.069.75-.121.528-.735.935-1.839 1.22-1.208.312-1.997.175-2.37-.41-.178-.266-.346-.702-.502-1.306l-1.357-5.254-6.859 1.77 1.363 5.281c.103.397.167.698.192.903.025.205.002.455-.069.75-.121.528-.734.934-1.839 1.22-1.207.311-1.997.175-2.37-.41-.178-.267-.346-.702-.502-1.306l-3.709-14.366a7.729 7.729 0 0 1-.191-.903 2.141 2.141 0 0 1 .069-.75c.12-.527.734-.934 1.838-1.22 1.207-.311 2.006-.176 2.396.404.162.271.32.708.476 1.312l1.364 5.28 6.859-1.77-1.37-5.306a7.712 7.712 0 0 1-.192-.903 2.132 2.132 0 0 1 .07-.75" fill="#F1F1ED"/>
    </g>
</svg>
