<svg width="64" height="64" viewBox="0 0 64 64" xmlns="http://www.w3.org/2000/svg">
    <g fill="none" fill-rule="evenodd">
        <path d="M0 0h64v64H0z"/>
        <path fill-opacity=".7" fill="#BE8432" d="m36.5 22.38 22.532 22.88v2.7L57.38 49h-2.233L32.36 26.863z"/>
        <path fill-opacity=".7" fill="#BE8432" d="m5.952 45.5 29.506-30.008 4.066-1.684h6.423l8.05 3.457 5.035 6.52 1.095 7.45-1.095 5.489-2.675 5.116-4.695-4.13 2.335-4.769V27.3l-3.07-4.92-5.426-2.94h-5.163l-3.838 2.94L9.33 49l-2.82-.874z"/>
        <path d="m17.994 41.5 2.716 1.541 6.888 1.345h10.883c.548 0 3.196-.608 7.943-1.826l.898-1.06 4.814 4.065-4.125 1.909L40.338 49H18.994l-6.307-2.812 5.307-4.688zM32.361 18.5c-3.124-2.351-4.873-3.527-5.246-3.527-.374 0-2.509-.388-6.405-1.165l-7.116 1.684-6.658 4.922L3.91 28.5l1.057 7.632L7.92 41.84l2.526-.862 2.24-3.268-2.24-3.861v-6.025l1.41-4.266 4.864-3.304 6.188-.815 5.833 2.94 3.62-3.879z" fill-opacity=".7" fill="#BE8432"/>
        <path d="M57.836 20.725c-2.715-3.926-6.805-6.615-10.94-7.19-.221-.031-.47-.07-.74-.113-2.91-.456-8.333-1.306-12.367 2.358l-1.365 1.366-.728-.543c-2.488-1.859-5.318-3.03-8.186-3.39-2.157-.268-4.061-.063-6.255.327C8.862 15.036 3 21.907 3 30.25c0 4.4 1.494 8.678 4.222 12.143l-1.309 1.313a3.74 3.74 0 0 0-.779 4.054c.187.454.466.88.84 1.253a3.663 3.663 0 0 0 2.608 1.082h.017a3.65 3.65 0 0 0 1.798-.496c.292-.167.572-.36.813-.606l.328-.328 1.366-1.36a19.566 19.566 0 0 0 9.773 2.625h17.817a20.93 20.93 0 0 0 11.084-3.181l2.243 2.243.007.007a3.713 3.713 0 0 0 2.61 1.067c.969 0 1.943-.374 2.696-1.127a3.671 3.671 0 0 0 1.083-2.628c-.005-.99-.4-1.92-1.104-2.611l-1.99-1.99a19.268 19.268 0 0 0 3.462-7.415c1.057-4.661.08-9.48-2.75-13.57zM7.92 27.706v-1.39a.984.984 0 1 0-1.968 0v1.39a.984.984 0 1 0 1.968 0zm1.027 5.44a.985.985 0 0 0-1.38.177l-.852 1.101a.984.984 0 1 0 1.557 1.203l.85-1.101a.982.982 0 0 0-.175-1.38zm15.837-15.184a.984.984 0 0 0 1.693-1.004l-.23-.389a.984.984 0 0 0-1.694 1.003l.23.39zM14.08 19.295a.983.983 0 0 0 1.346-.352l.228-.39a.984.984 0 0 0-1.698-.994l-.229.39a.985.985 0 0 0 .353 1.346zM4.968 30.25c0-7.374 5.194-13.45 12.631-14.775 2.451-.436 3.986-.52 5.666-.31 2.53.316 5.038 1.358 7.253 3.013l.502.374-2.503 2.508c-3.72-2.926-8.65-3.445-12.955-1.325-4.284 2.108-6.83 6.345-6.648 11.06a13.313 13.313 0 0 0 2.537 7.36l-2.815 2.822c-2.364-3.084-3.668-6.85-3.668-10.727zm7.877 6.473a11.332 11.332 0 0 1-1.895-5.099 12.484 12.484 0 0 1-.07-.907c-.151-3.925 1.975-7.457 5.551-9.216a10.413 10.413 0 0 1 4.607-1.088c2.156 0 4.276.691 6.077 2.041l-14.27 14.269zm9.073 8.786-1.386-.126a.984.984 0 1 0-.177 1.96l1.385.126a.984.984 0 1 0 .177-1.96zm23.83-.64a.985.985 0 0 0-1.694 1l.23.39a.985.985 0 0 0 1.349.345.983.983 0 0 0 .346-1.347l-.23-.388zm-12.385.622a.985.985 0 0 0-1.693 1.003l.23.389a.984.984 0 0 0 1.694-1.004l-.23-.388zm7.132 2.469H22.678c-2.902 0-5.755-.726-8.324-2.105l2.969-2.961c.098.055.196.103.297.161 1.533.87 3.44 1.953 8.01 1.953h12.79c4.612 0 7.134-1.398 8.972-2.449l2.766 2.767a18.982 18.982 0 0 1-9.663 2.634zm-2.074-4.92H25.63c-3.875 0-5.495-.825-6.855-1.593l.449-.448.213-.214L32.52 27.688l13.427 13.428c-1.715.96-3.774 1.925-7.526 1.925zm.38-15.706a.984.984 0 0 0-1.209.688l-.12.435a.984.984 0 0 0 1.897.521l.12-.434a.983.983 0 0 0-.688-1.21zM44.914 34l-.381.241a.985.985 0 0 0 1.05 1.665l.382-.24A.985.985 0 0 0 44.915 34zm7.47 6.862-.45-.01c-.567-.036-.994.417-1.007.96a.984.984 0 0 0 .96 1.007l.45.01h.024a.984.984 0 0 0 .023-1.967zm5.866 5.458c.002.462-.178.898-.559 1.28-.676.677-1.786.675-2.48-.004l-1.948-1.948-5.535-5.535L33.91 26.295l2.508-2.51 14.001 14 5.465 5.465 1.847 1.847c.332.326.517.761.52 1.223zM37.825 22.409c2.376-2.198 5.63-2.766 8.894-1.465 3.341 1.332 6.632 4.863 6.451 9.753-.01.308-.034.617-.07.93-.179 1.582-.72 3.115-1.551 4.506L37.825 22.41zM10.093 43.307l-.851 1.1a.984.984 0 1 0 1.556 1.204l.852-1.1a.984.984 0 1 0-1.557-1.204zm22.286-20.444a.984.984 0 0 0-1.693 1.002l.23.389a.984.984 0 0 0 1.694-1.004l-.23-.387zm-9.839 8.855a.985.985 0 0 0-1.693 1.002l.23.389a.984.984 0 0 0 1.694-1.004l-.23-.387zm-6.544 6.028a.98.98 0 0 0-1.209.688l-.12.435a.984.984 0 0 0 1.898.521l.12-.435a.984.984 0 0 0-.689-1.209zM26.874 26.9a.981.981 0 0 0-1.209.688l-.12.435a.984.984 0 0 0 1.898.522l.12-.435a.984.984 0 0 0-.689-1.21zm30.144 5.547a.983.983 0 1 0-1.589 1.16l.266.364a.982.982 0 0 0 1.374.214.984.984 0 0 0 .216-1.374l-.267-.364zm-1.683-5.917.265.365a.98.98 0 0 0 1.375.217.982.982 0 0 0 .216-1.373l-.265-.366a.984.984 0 0 0-1.591 1.157zm-4.633-9.058-.451-.011a.981.981 0 0 0-1.007.961.984.984 0 0 0 .96 1.007l.451.01h.024a.984.984 0 0 0 .023-1.967zM40.61 15.518a.982.982 0 0 0-1.18.738l-.101.44a.984.984 0 0 0 1.918.441l.102-.44a.986.986 0 0 0-.74-1.18zM58.667 33.86a17.303 17.303 0 0 1-2.944 6.446l-2.732-2.731a13.313 13.313 0 0 0 2.147-6.805c.217-5.847-3.706-10.066-7.69-11.654-3.979-1.584-8.117-.846-11.028 1.887v-.001l-5.293 5.292.003.002-13.832 13.846-7.483 7.465a1.716 1.716 0 0 1-1.224.52c-.463-.009-.898-.178-1.28-.56-.675-.677-.673-1.79.001-2.478l.52-.523 26.366-26.411.95-.95c3.301-3 8.116-2.245 10.704-1.84.283.044.542.086.773.117 3.6.502 7.187 2.88 9.593 6.361 2.511 3.633 3.381 7.901 2.45 12.017z" fill="#2F484D"/>
    </g>
</svg>
