<svg width="64" height="64" viewBox="0 0 64 64" xmlns="http://www.w3.org/2000/svg" xmlns:xlink="http://www.w3.org/1999/xlink">
    <defs>
        <path id="kuch8jdlsa" d="M0 .039h49.966V42.28H0z"/>
    </defs>
    <g fill="none" fill-rule="evenodd">
        <path d="M0 0h64v64H0z"/>
        <path fill="#9EBABA" d="M8.008 19.897v-4.953l2.164-2.787h43.09l2.672 2.36v5.38zM27.933 39.104l7.094 2.581-4.373 3.944z"/>
        <g transform="translate(7 11.077)">
            <mask id="wqnbpil5ub" fill="#fff">
                <use xlink:href="#kuch8jdlsa"/>
            </mask>
            <path d="M1.93 9.565v1.49c0 8.562 0 17.123.002 25.685 0 .39-.009.785.044 1.17a2.816 2.816 0 0 0 2.522 2.422c.388.038.781.023 1.172.023 12.864.001 25.727.002 38.59 0 .435 0 .873.017 1.303-.03 1.154-.126 2.123-.973 2.37-2.105.11-.504.155-1.032.155-1.55.009-10.342.008-20.685 0-31.028a7.1 7.1 0 0 0-.154-1.55c-.272-1.202-1.247-2.029-2.48-2.15-.345-.033-.694-.02-1.042-.02-12.863 0-25.727 0-38.59.002-.435 0-.872-.017-1.303.024-1.256.117-2.365 1.038-2.505 2.279-.124 1.101-.026 2.228-.026 3.485h1.617c13.385 0 26.77-.002 40.155 0 .52 0 1.048-.022 1.56.053.48.07.764.42.748.92-.016.5-.309.81-.814.848-.475.036-.955.032-1.432.032H1.929zm23.028 32.669c-6.692 0-13.385-.017-20.077.01-2.068.008-3.923-1.226-4.531-3.087-.251-.766-.326-1.62-.328-2.434-.025-7.127-.015-14.253-.015-21.38 0-3.303-.023-6.606.016-9.908.01-.813.081-1.68.373-2.423.692-1.76 2.055-2.763 3.96-2.937C5.005.015 5.66.047 6.312.047h37.807c.392 0 .783-.006 1.174.008 2.52.09 4.425 1.888 4.654 4.398.028.302.018.607.018.911 0 10.517.01 21.034-.016 31.55-.002.808-.093 1.679-.4 2.412-.821 1.956-2.382 2.908-4.514 2.913-4.65.01-9.3.028-13.949.04-2.042.005-4.085 0-6.127 0v-.045z" fill="#2F484D" mask="url(#wqnbpil5ub)"/>
        </g>
        <path d="m32.46 41.714-3.029-1.101 1.122 2.974 1.907-1.873m1.288 1.854c.753.769 1.382 1.405 2.002 2.049.69.717.797 1.236.354 1.66-.438.423-1.002.323-1.674-.36-.604-.615-1.166-1.272-1.923-2.103-.33.703-.55 1.143-.743 1.594-.222.52-.377 1.103-1.101 1.104-.721.002-.896-.555-1.098-1.095-.833-2.231-1.677-4.458-2.515-6.687-.168-.447-.38-.9.017-1.338.424-.467.916-.375 1.432-.18 1.824.688 3.65 1.365 5.476 2.049.567.212 1.138.42 1.697.653.427.178.802.496.672.978-.088.325-.383.673-.681.847-.547.317-1.165.514-1.915.829M32.486 28.38c-1.953 0-3.905.004-5.858-.004-.344-.001-.747.05-1.015-.108-.29-.17-.622-.553-.626-.847-.003-.289.333-.656.615-.85.218-.15.584-.11.884-.11 4.036-.008 8.072-.009 12.107-.005.302 0 .656-.036.891.104.3.177.64.485.714.796.11.462-.224.837-.69.955-.33.083-.688.066-1.034.067-1.996.005-3.992.003-5.988.002M32.629 30.298c2.039 0 4.078-.008 6.116.003.961.006 1.462.322 1.499.89.04.636-.454.974-1.525.978-4.121.011-8.242.015-12.363.006-1.005-.002-1.432-.313-1.413-.938.017-.614.474-.924 1.44-.929 2.082-.01 4.164-.003 6.246-.003v-.007zM30.638 34.169c1.342 0 2.684-.003 4.026 0 .303.001.611-.017.906.036.476.085.792.39.798.883.006.494-.293.802-.776.896-.21.041-.43.033-.647.034-2.857.002-5.715.008-8.572-.002-1.006-.003-1.429-.288-1.434-.905-.005-.625.428-.929 1.413-.938 1.428-.014 2.857-.004 4.286-.004M12.692 15.827c.027.533-.29.91-.81.963-.512.05-1.006-.408-.996-.926.008-.444.459-.903.903-.92.458-.017.879.393.903.883M15.608 16.77a.896.896 0 0 1-.861-.944c.031-.487.478-.893.954-.868.485.027.87.461.855.964-.015.503-.428.873-.948.847M20.419 15.85c.014.48-.403.927-.88.946-.494.02-.909-.379-.924-.889-.014-.502.391-.95.861-.951.478-.001.929.426.943.894" fill="#2F484D"/>
    </g>
</svg>
