<?xml version="1.0" encoding="UTF-8"?>
<svg width="64px" height="64px" viewBox="0 0 64 64" version="1.1" xmlns="http://www.w3.org/2000/svg" xmlns:xlink="http://www.w3.org/1999/xlink">
    <title>5FC6D198-F243-443E-B9F7-F110F062A8B6</title>
    <g id="Site" stroke="none" stroke-width="1" fill="none" fill-rule="evenodd">
        <g id="icons" transform="translate(-840.000000, -3201.000000)">
            <g id="icon-arcades" transform="translate(840.000000, 3201.000000)">
                <rect id="Rectangle-Copy-2" x="0" y="0" width="64" height="64"></rect>
                <path d="M32.5,9.74964142 L51.0245145,9.74964142 L51.0245145,9.74964142 L57.0138542,11.9972044 L59.5,16.2909261 L59.5,25.8963681 L55.6878737,27.7097605 L53.1613838,31.5888506 L53.1613838,35.2015081 L55.6878737,38.7135726 L59.5,40.2108762 L59.5,47.5123447 L57.0138542,50.6309435 L53.937648,52.6963832 L46.2396537,53.7496414 L32.5,53.7496414 C31.3954305,53.7496414 30.5,52.8542109 30.5,51.7496414 L30.5,11.7496414 C30.5,10.6450719 31.3954305,9.74964142 32.5,9.74964142 Z" id="Path-50" fill="#9EBABA"></path>
                <path d="M22.7948718,11.5017948 L11.7734528,12.191927 L7.90488052,15.2275641 L5.89194489,22.1317406 L5.89194489,25.6828425 L8.71802521,26.6540413 L11.7734528,29.7831478 L12.4919548,32.4104709 L11.7734528,35.7757912 L9.31325912,38.2730446 L5.89194489,39.1380992 L6.29363632,46.5264893 L8.27140045,50.3452606 C10.606102,52.0248057 11.7734528,52.8645782 11.7734528,52.8645782 C11.7734528,52.8645782 15.4472591,53.0337092 22.7948718,53.3719711 L22.7948718,11.5017948 Z" id="Path-52" fill-opacity="0.7" fill="#BE8432"></path>
                <g id="ticket" transform="translate(3.000000, 9.000000)" fill="#2F484D" stroke="#F1F5F5" stroke-dasharray="0,0" stroke-linecap="round" stroke-width="1.5">
                    <path d="M15.9871795,46.1955128 C4.50987219,46.1955128 1.0224359,42.7080765 1.0224359,31.2307692 L1.0224359,29.9294872 C1.0224359,28.8624359 1.9073077,27.9775641 2.97435897,27.9775641 C5.47282046,27.9775641 7.52884615,25.9215384 7.52884615,23.4230769 C7.52884615,20.9246154 5.47282046,18.8685897 2.97435897,18.8685897 C1.9073077,18.8685897 1.0224359,17.9837179 1.0224359,16.9166667 L1.0224359,15.6153846 C1.0224359,4.13807732 4.50987219,0.650641026 15.9871795,0.650641026 L42.0128205,0.650641026 C53.4901278,0.650641026 56.9775641,4.13807732 56.9775641,15.6153846 L56.9775641,18.2179487 C56.9775641,19.285 56.0926923,20.1698718 55.025641,20.1698718 C52.5271795,20.1698718 50.4711538,22.2258975 50.4711538,24.724359 C50.4711538,27.2228205 52.5271795,29.2788462 55.025641,29.2788462 C56.0926923,29.2788462 56.9775641,30.163718 56.9775641,31.2307692 C56.9775641,42.7080765 53.4901278,46.1955128 42.0128205,46.1955128 L15.9871795,46.1955128 Z M15.9871795,42.2916667 L42.0128205,42.2916667 C50.7053844,42.2916667 52.8134609,40.7561534 53.0476917,32.9484611 C49.3260252,32.0635893 46.5673077,28.706282 46.5673077,24.724359 C46.5673077,20.742436 49.3520514,17.3851286 53.0737179,16.5002568 L53.0737179,15.6153846 C53.0737179,6.32423094 51.3299998,4.55448718 42.0128205,4.55448718 L15.9871795,4.55448718 C6.8261539,4.55448718 4.97833333,6.24615409 4.92628205,15.1989748 C8.64794858,16.0838466 11.4326923,19.4411539 11.4326923,23.4230769 C11.4326923,27.4049999 8.64794858,30.7623073 4.92628205,31.6471791 C4.97833333,40.5999998 6.8261539,42.2916667 15.9871795,42.2916667 Z" id="Vector"></path>
                    <path d="M21.8429487,12.8733971 L21.8429487,7.76121788 C21.8429487,6.92282049 22.7278205,6.2275641 23.7948718,6.2275641 C24.8619231,6.2275641 25.7467949,6.92282049 25.7467949,7.76121788 L25.7467949,12.8733971 C25.7467949,13.7117945 24.8619231,14.4070509 23.7948718,14.4070509 C22.7278205,14.4070509 21.8429487,13.7117945 21.8429487,12.8733971 Z" id="Vector" fill-rule="nonzero"></path>
                    <path d="M21.8429487,28.1861761 L21.8429487,18.6347656 C21.8429487,17.5677144 22.7278205,16.6828425 23.7948718,16.6828425 C24.8619231,16.6828425 25.7467949,17.5677144 25.7467949,18.6347656 L25.7467949,28.1861761 C25.7467949,29.279253 24.8619231,30.1380992 23.7948718,30.1380992 C22.7278205,30.1380992 21.8429487,29.2532274 21.8429487,28.1861761 Z" id="Vector" fill-rule="nonzero"></path>
                    <path d="M21.8429487,39.0849356 L21.8429487,33.9727563 C21.8429487,33.134359 22.7278205,32.4391026 23.7948718,32.4391026 C24.8619231,32.4391026 25.7467949,33.134359 25.7467949,33.9727563 L25.7467949,39.0849356 C25.7467949,39.923333 24.8619231,40.6185894 23.7948718,40.6185894 C22.7278205,40.6185894 21.8429487,39.923333 21.8429487,39.0849356 Z" id="Vector" fill-rule="nonzero"></path>
                </g>
            </g>
        </g>
    </g>
</svg>