<?xml version="1.0" encoding="UTF-8"?>
<svg width="64px" height="64px" viewBox="0 0 64 64" version="1.1" xmlns="http://www.w3.org/2000/svg" xmlns:xlink="http://www.w3.org/1999/xlink">
    <title>2D4A96AC-8C04-4CC2-B5CE-D95780E0B635</title>
    <g id="Site" stroke="none" stroke-width="1" fill="none" fill-rule="evenodd">
        <g id="icons" transform="translate(-840.000000, -1345.000000)">
            <g id="icon-spirits" transform="translate(840.000000, 1345.000000)">
                <rect id="Rectangle-Copy-2" x="0" y="0" width="64" height="64"></rect>
                <polygon id="Path-31" fill-opacity="0.7" fill="#BE8432" points="20.875 20.5 22.278 17.3092484 20.1014824 12.3741465 15.8020363 9.81122112 10.689415 10.8712484 7.03895569 15.1556106 7.54972076 20.9695892 11.3918266 24.5518169 17.4254494 24.5518169 13.7722359 17.5342484 17.4254494 19.7297153"></polygon>
                <path d="M20.5,28.3082484 C23.4536336,27.4892416 24.9304504,26.9689083 24.9304504,26.7472484 C24.9304504,26.5255886 27.4983003,26.3451366 32.634,26.2058926 L42.718,26.7952484 L45.1198349,28.3082484 L34.125885,41.4692307 C32.7086283,41.4692307 32,41.4692307 32,41.4692307 C32,41.4692307 28.1666667,37.0822366 20.5,28.3082484 Z" id="Path-32" fill="#9EBABA"></path>
                <path d="M53.285,8.16924843 C52.827,7.86224843 52.204,7.98424843 51.897,8.44324843 L48.313,13.7942484 C44.574,12.1982484 38.41,11.3082484 32.374,11.3082484 C28.406,11.3082484 24.599,11.6892484 21.276,12.3882484 C19.742,10.2632484 17.252,8.87224843 14.437,8.87224843 C9.785,8.87224843 6,12.6572484 6,17.3102484 C6,21.9632484 9.785,25.7482484 14.437,25.7482484 C15.375,25.7482484 16.293,25.5892484 17.177,25.2832484 C17.954,26.3732484 18.8,27.5172484 19.684,28.6832484 C19.77,28.8732484 19.906,29.0492484 20.087,29.2122484 C23.439,33.5972484 27.216,38.1652484 29.533,40.9212484 C30.145,41.6502484 30.968,42.1432484 31.874,42.3462484 L31.874,53.3202484 C28.674,53.3912484 20.874,53.8652484 20.874,56.8082484 C20.874,60.1392484 30.87,60.3082484 32.874,60.3082484 C34.878,60.3082484 44.874,60.1392484 44.874,56.8082484 C44.874,53.8652484 37.074,53.3912484 33.874,53.3202484 L33.874,42.3082484 C34.765,42.0802484 35.567,41.5762484 36.155,40.8402484 C39.688,36.4232484 42.617,32.6082484 44.965,29.3752484 C45.233,29.1542484 45.408,28.9112484 45.496,28.6432484 C49.389,23.2232484 51.508,19.5792484 51.824,17.7552484 C51.856,17.6102484 51.875,17.4622484 51.875,17.3082484 C51.875,16.3462484 51.221,15.4842484 50.093,14.7332484 L53.56,9.55724843 C53.866,9.09824843 53.743,8.47724843 53.285,8.16924843 L53.285,8.16924843 L53.285,8.16924843 L53.285,8.16924843 L53.285,8.16924843 L53.285,8.16924843 Z M22.278,14.2092484 C25.307,13.6252484 28.84,13.3082484 32.374,13.3082484 C39.155,13.3082484 44.275,14.3862484 47.175,15.4942484 L44.565,19.3912484 C41.76,19.9122484 37.764,20.3082484 32.374,20.3082484 C28.758,20.3082484 25.379,20.1162484 22.511,19.7472484 C22.532,19.6792484 22.539,19.6092484 22.558,19.5412484 C22.629,19.2852484 22.687,19.0262484 22.733,18.7652484 C22.753,18.6522484 22.776,18.5402484 22.791,18.4262484 C22.841,18.0572484 22.873,17.6862484 22.873,17.3102484 C22.873,17.0362484 22.858,16.7642484 22.832,16.4922484 C22.817,16.3262484 22.788,16.1642484 22.762,16.0002484 C22.746,15.9012484 22.736,15.8012484 22.716,15.7022484 C22.676,15.4952484 22.623,15.2922484 22.568,15.0902484 C22.554,15.0392484 22.543,14.9862484 22.528,14.9352484 C22.463,14.7142484 22.387,14.4992484 22.305,14.2872484 C22.295,14.2622484 22.288,14.2352484 22.278,14.2092484 L22.278,14.2092484 L22.278,14.2092484 L22.278,14.2092484 L22.278,14.2092484 L22.278,14.2092484 Z M44.386,26.7472484 C43.927,26.5072484 43.309,26.2822484 42.489,26.0852484 L45.764,21.1962484 C46.77,20.9832484 47.709,20.7292484 48.537,20.4272484 C47.654,21.9662484 46.304,24.0472484 44.386,26.7472484 L44.386,26.7472484 L44.386,26.7472484 L44.386,26.7472484 L44.386,26.7472484 L44.386,26.7472484 Z M41.284,27.8842484 C41.929,27.9932484 42.461,28.1082484 42.864,28.2242484 C42.359,28.3862484 41.626,28.5552484 40.73,28.7122484 L41.284,27.8842484 L41.284,27.8842484 L41.284,27.8842484 L41.284,27.8842484 L41.284,27.8842484 L41.284,27.8842484 Z M38.086,29.0632484 C36.589,29.2102484 34.846,29.3082484 32.874,29.3082484 C28.251,29.3082484 24.243,28.7532484 22.416,28.2262484 C24.161,27.7702484 27.933,27.3082484 32.874,27.3082484 C35.285,27.3082484 37.379,27.4222484 39.07,27.5932484 L38.086,29.0632484 L38.086,29.0632484 L38.086,29.0632484 L38.086,29.0632484 L38.086,29.0632484 L38.086,29.0632484 Z M40.34,25.6982484 C38.508,25.4562484 36.083,25.3072484 32.874,25.3072484 C25.692,25.3072484 22.304,26.0062484 20.765,26.7952484 C19.927,25.6802484 19.13,24.5902484 18.407,23.5612484 L18.356,23.4882484 C18.305,23.4152484 18.261,23.3502484 18.211,23.2792484 C18.027,23.0142484 17.845,22.7512484 17.671,22.4942484 C17.603,22.3942484 17.541,22.3012484 17.477,22.2042484 C17.304,21.9472484 17.136,21.6922484 16.973,21.4402484 C16.93,21.3742484 16.885,21.3052484 16.844,21.2412484 C16.68,20.9862484 16.524,20.7372484 16.376,20.4962484 C16.959,20.6962484 17.62,20.8802484 18.352,21.0502484 C18.758,21.1442484 19.182,21.2352484 19.634,21.3202484 L19.624,21.3402484 L20.964,21.5472484 L21.693,21.6592484 L21.697,21.6502484 C24.769,22.0772484 28.435,22.3052484 32.373,22.3052484 C34.52,22.3052484 38.947,22.2262484 43.041,21.6622484 L40.34,25.6982484 L40.34,25.6982484 L40.34,25.6982484 L40.34,25.6982484 L40.34,25.6982484 L40.34,25.6982484 Z M14.437,23.7472484 C10.887,23.7472484 8,20.8592484 8,17.3092484 C8,13.7592484 10.888,10.8712484 14.437,10.8712484 C16.783,10.8712484 18.834,12.1372484 19.959,14.0172484 C20.251,14.5062484 20.475,15.0282484 20.629,15.5682484 C20.638,15.5992484 20.645,15.6302484 20.653,15.6612484 C20.713,15.8852484 20.758,16.1122484 20.794,16.3412484 C20.803,16.3982484 20.813,16.4552484 20.82,16.5122484 C20.853,16.7762484 20.875,17.0412484 20.875,17.3082484 C20.875,17.6332484 20.841,17.9542484 20.793,18.2722484 C20.781,18.3512484 20.767,18.4302484 20.752,18.5092484 C20.691,18.8252484 20.615,19.1382484 20.505,19.4452484 C20.202,19.3922484 19.919,19.3392484 19.648,19.2842484 C19.471,19.2482484 19.306,19.2122484 19.141,19.1762484 C19.059,19.1582484 18.972,19.1402484 18.893,19.1222484 C18.702,19.0782484 18.521,19.0342484 18.347,18.9892484 C18.308,18.9792484 18.267,18.9692484 18.228,18.9592484 C18.044,18.9112484 17.871,18.8632484 17.706,18.8152484 C17.683,18.8082484 17.66,18.8022484 17.638,18.7952484 C17.473,18.7462484 17.317,18.6982484 17.17,18.6492484 C17.149,18.6422484 17.128,18.6352484 17.107,18.6282484 C16.969,18.5822484 16.839,18.5362484 16.717,18.4902484 C16.683,18.4772484 16.651,18.4652484 16.619,18.4522484 C16.52,18.4142484 16.426,18.3772484 16.338,18.3402484 C16.267,18.3102484 16.199,18.2802484 16.135,18.2512484 C16.096,18.2332484 16.056,18.2162484 16.019,18.1982484 C15.005,17.7132484 14.884,17.3412484 14.883,17.3342484 L14.88,17.3362484 C14.878,17.3262484 14.874,17.3152484 14.874,17.3072484 L14.866,17.3072484 C14.717,16.8232484 14.233,16.5442484 13.735,16.6432484 C13.379,16.7102484 13.111,16.9792484 12.994,17.3082484 L12.874,17.3082484 C12.874,18.0152484 13.177,19.2402484 15.192,22.3722484 C15.202,22.3882484 15.21,22.4012484 15.221,22.4182484 C15.236,22.4412484 15.253,22.4662484 15.268,22.4892484 C15.486,22.8262484 15.717,23.1782484 15.976,23.5602484 C15.473,23.6842484 14.959,23.7472484 14.437,23.7472484 L14.437,23.7472484 L14.437,23.7472484 L14.437,23.7472484 L14.437,23.7472484 L14.437,23.7472484 Z M42.718,56.8082484 C41.826,57.4012484 38.464,58.3082484 32.875,58.3082484 C27.286,58.3082484 23.923,57.4012484 23.032,56.8082484 C23.869,56.2512484 26.885,55.4182484 31.875,55.3182484 L31.875,56.4492484 C31.875,57.0022484 32.323,57.4492484 32.875,57.4492484 C33.427,57.4492484 33.875,57.0022484 33.875,56.4492484 L33.875,55.3182484 C38.865,55.4172484 41.88,56.2512484 42.718,56.8082484 L42.718,56.8082484 L42.718,56.8082484 L42.718,56.8082484 L42.718,56.8082484 L42.718,56.8082484 Z M34.593,39.5922484 C34.165,40.1272484 33.526,40.4402484 32.842,40.4482484 L32.813,40.4482484 C32.137,40.4482484 31.501,40.1522484 31.064,39.6332484 C29.215,37.4342484 26.431,34.0742484 23.686,30.5862484 C27.082,31.2542484 31.551,31.3082484 32.874,31.3082484 C34.149,31.3082484 35.432,31.2622484 36.668,31.1812484 L32.27,37.7472484 C31.963,38.2062484 32.086,38.8272484 32.544,39.1352484 C32.715,39.2492484 32.908,39.3042484 33.1,39.3042484 C33.422,39.3042484 33.739,39.1492484 33.932,38.8612484 L39.231,30.9502484 C39.897,30.8712484 40.531,30.7802484 41.118,30.6772484 C41.285,30.6482484 41.426,30.6162484 41.582,30.5862484 C39.651,33.1702484 37.341,36.1572484 34.593,39.5922484 L34.593,39.5922484 L34.593,39.5922484 L34.593,39.5922484 L34.593,39.5922484 L34.593,39.5922484 Z M49.874,17.3082484 C49.874,17.6522484 49.1,18.1822484 47.434,18.7012484 L48.998,16.3672484 C49.564,16.7222484 49.874,17.0502484 49.874,17.3082484 L49.874,17.3082484 L49.874,17.3082484 L49.874,17.3082484 L49.874,17.3082484 L49.874,17.3082484 Z" id="glass-3" fill="#2F484D"></path>
            </g>
        </g>
    </g>
</svg>