<?xml version="1.0" encoding="UTF-8"?>
<svg width="64px" height="64px" viewBox="0 0 64 64" version="1.1" xmlns="http://www.w3.org/2000/svg" xmlns:xlink="http://www.w3.org/1999/xlink">
    <title>DB597970-9FDB-441E-B100-9422B25B112F</title>
    <g id="Site" stroke="none" stroke-width="1" fill="none" fill-rule="evenodd">
        <g id="icons" transform="translate(-360.000000, -3409.000000)">
            <g id="icon-fitness" transform="translate(360.000000, 3409.000000)">
                <rect id="Rectangle" x="0" y="0" width="64" height="64"></rect>
                <rect id="Rectangle" fill="#9EBABA" x="13" y="15" width="10" height="34"></rect>
                <rect id="Rectangle" fill="#9EBABA" x="41" y="15" width="10" height="34"></rect>
                <g id="Vector" transform="translate(2.000000, 15.000000)" stroke="#2F484D" stroke-linecap="round" stroke-linejoin="round" stroke-width="2">
                    <path d="M13.247576,0 L18.7031483,0 C20.2448396,0.03742537 21.4647263,1.31677101 21.4287932,2.85849782 L21.4287932,31.4263336 C21.4647263,32.9680608 20.2448396,34.2474061 18.7031483,34.2848315 L13.247576,34.2848315 C11.7058837,34.2474061 10.4859981,32.9680608 10.5219312,31.4263336 L10.5219312,25.7136236 L2.72641778,25.7136236 C1.18472663,25.6761983 -0.0351591237,24.3968529 0.000773875744,22.8551258 L0.000773875744,11.4297057 C-0.0351591237,9.88797921 1.18472663,8.60863318 2.72641778,8.57120786 L10.5219312,8.57120786 L10.5219312,2.85849782 C10.4859981,1.31677101 11.7058837,0.03742537 13.247576,0 Z" id="Vector-83"></path>
                    <path d="M46.7524272,34.2848315 L41.2968532,34.2848315 C39.755162,34.2474061 38.5352763,32.9680608 38.5712093,31.4263336 L38.5712093,2.85849782 C38.5352763,1.31677101 39.755162,0.03742537 41.2968532,0 L46.7524272,0 C48.2941184,0.03742537 49.514004,1.31677101 49.4780709,2.85849782 L49.4780709,8.57120786 L57.2692989,8.57120786 C58.0104349,8.58806229 58.714496,8.89874251 59.2264989,9.43485785 C59.7385014,9.97097422 60.0164751,10.688578 59.9992285,11.4297057 L59.9992285,22.8551258 C60.0351616,24.3968529 58.815275,25.6761983 57.2735837,25.7136236 L49.4780709,25.7136236 L49.4780709,31.4263336 C49.514004,32.9680608 48.2941184,34.2474061 46.7524272,34.2848315 Z" id="Vector-84"></path>
                    <path d="M10.5220156,25.7136236 L10.5220156,8.57120786 M49.482441,8.57120786 L49.482441,25.7136236 M21.4288776,17.1424157 L38.5712934,17.1424157" id="Vector-85"></path>
                </g>
            </g>
        </g>
    </g>
</svg>