<?xml version="1.0" encoding="UTF-8"?>
<svg width="64px" height="64px" viewBox="0 0 64 64" version="1.1" xmlns="http://www.w3.org/2000/svg" xmlns:xlink="http://www.w3.org/1999/xlink">
    <title>F085DA2E-8BBE-4D75-A131-4CDB00BB33A7</title>
    <g id="Site" stroke="none" stroke-width="1" fill="none" fill-rule="evenodd">
        <g id="icons" transform="translate(-120.000000, -2893.000000)">
            <g id="icon-laundry" transform="translate(120.000000, 2893.000000)">
                <rect id="Rectangle" x="0" y="0" width="64" height="64"></rect>
                <polygon id="Path-42" fill="#9EBABA" points="21.3333333 37.5555556 25.1622162 35.9195167 29.5710602 35.9195167 33.2034988 38.3514709 37.0099411 39.1915925 42.1666667 38.3514709 43.5555556 37.5555556 42.8426437 41.8731689 39.7996216 45.6595612 34.6698532 48.6666667 29.5710602 48.6666667 25.1622162 45.6595612 21.3333333 41.0034485"></polygon>
                <polygon id="Path-45" fill-opacity="0.7" fill="#BE8432" points="13 10.9435272 15.0608368 7.97327805 17.614624 7 46.3333338 7 49.8523712 7.97327805 51.8888889 10.9435272 51.8888889 18.1111111 13 18.1111111"></polygon>
                <g id="Vector" transform="translate(13.000000, 7.000000)" stroke="#2F484D" stroke-linecap="round" stroke-linejoin="round" stroke-width="2">
                    <path d="M0,11.1111111 L0,44.4444449 C0,47.5126939 2.48730689,50 5.55555583,50 L33.3333338,50 C36.4015828,50 38.8888889,47.5126939 38.8888889,44.4444449 L38.8888889,11.1111111 M0,11.1111111 L0,5.55555556 C0,2.487307 2.48730689,0 5.55555583,0 L33.3333338,0 C36.4015828,0 38.8888889,2.487307 38.8888889,5.55555556 L38.8888889,11.1111111 M0,11.1111111 L38.8888889,11.1111111 M25,5.55555556 L33.3333333,5.55555556 M30.5555556,30.5555556 C30.5555556,36.6920533 25.5809413,41.6666667 19.4444444,41.6666667 C13.3079473,41.6666667 8.33333333,36.6920533 8.33333333,30.5555556 M30.5555556,30.5555556 C30.5555556,24.4190583 25.5809413,19.4444444 19.4444444,19.4444444 C13.3079473,19.4444444 8.33333333,24.4190583 8.33333333,30.5555556 M30.5555556,30.5555546 C28.0861111,31.788888 22.4083333,33.5194434 19.4444444,30.5555546 C16.4805556,27.5916658 10.8027778,29.3222212 8.33333333,30.5555546" id="Vector-15"></path>
                </g>
            </g>
        </g>
    </g>
</svg>