<svg width="64" height="64" viewBox="0 0 64 64" xmlns="http://www.w3.org/2000/svg">
    <g fill="none" fill-rule="evenodd">
        <path d="M0 0h64v64H0z"/>
        <path fill="#9EBABA" d="M15.5 33.926 29 39.542l19.128-15.29v16.167L29 54.5 15.105 49z"/>
        <ellipse fill-opacity=".7" fill="#BE8432" cx="36.5" cy="16" rx="2.5" ry="3"/>
        <path d="M48.998 20.99a.986.986 0 0 0-.078-.335c-.012-.032-.009-.068-.024-.099l-.001-.004L42 6.762V3a.997.997 0 0 0-1.206-.978l-19 4A.999.999 0 0 0 21 7v3.685l-6.819 9.742c-.006.01-.006.021-.012.03a1 1 0 0 0-.148.368c-.004.02-.005.038-.007.058-.005.04-.014.077-.014.117v33c0 .4.238.762.606.92l14 6c.011.004.022.002.033.006.116.044.236.074.361.074a1 1 0 0 0 .254-.033l19-5A1 1 0 0 0 49 55V21l-.002-.009zM35 7.24V5.284l2-.42v1.955l-2 .421zm-2 .421-2 .421V6.126l2-.42V7.66zm-4 .842-2 .421V7c0-.01-.006-.019-.006-.029L29 6.547v1.956zm-5.561 3.215 9.721-2.047 7.291-1.535 6.104 12.21-6.182 1.626-10.82 2.847-5.095-10.918-1.019-2.183zM47 23.534 30 37.85V26.77l17-4.475v1.24zm-31-1.116 12 4.286v11.78L16 33.34V22.418zm0 13.097 12 5.143v12.824L16 48.34V35.515zm14 4.95 17-14.316v13.366l-17 13.42v-12.47zM40 6.186l-1 .21V4.442l1-.21v1.955zM23 7.81l2-.42v1.955l-2 .421V7.81zm-1.174 5.181 2.628 5.63 2.627 5.63-10.51-3.754 5.255-7.506zM16 50.515l12 5.143v2.824L16 53.34v-2.824zm14 8.187v-3.218l17-13.42v12.165l-17 4.473zm4.1-38.84c.464.546 1.222 1.116 2.359 1.116.308 0 .644-.04 1.009-.137 1.714-.449 2.282-1.609 2.457-2.504.194-.993-.027-2.037-.21-2.735-.942-3.599-2.98-3.872-4.524-3.469-1.545.404-3.188 1.642-2.247 5.24.181.7.5 1.718 1.156 2.488zm1.596-5.793c.167-.044.335-.078.502-.078.57 0 1.13.392 1.582 2.117.133.51.297 1.255.182 1.846-.074.378-.246.755-1 .952-.753.198-1.088-.047-1.338-.34-.39-.46-.612-1.189-.746-1.698-.585-2.232.084-2.607.818-2.799z" fill="#2F484D"/>
    </g>
</svg>
