<svg width="64" height="64" viewBox="0 0 64 64" xmlns="http://www.w3.org/2000/svg">
    <g fill="none" fill-rule="evenodd">
        <path d="M0 0h64v64H0z"/>
        <path d="M5.947 55.21c2.842-.039 4.264-.206 4.264-.503 0-.444 1.42-1.865 1.42-1.865l4.264-1.883h30.79l4.254 1.134 3.059 2.614h3.324L59 56.632l-1.678 1.963H7.02l-1.616-1.533.542-1.851zM32 5.645l21.79 14.93-2.825 2.899-2.86-2.9-2.394.531-2.309 1.262-2.876-1.792-2.863.53-1.928.93-2.788-1.46-2.406.53-2.276.93-2.364-.93-2.427-.53-2.785 1.46-2.9-1.46h-2.335l-2.55 2.516-2.417-2.516z" fill="#9EBABA"/>
        <path fill-opacity=".7" fill="#BE8432" d="m44.316 38.025 3.79-.578L50 35.79l1.421-2.842h1.895l2.368 4.5-2.842.578v5.343h-8.526zM19.684 38.025l-3.79-.578L14 35.79l-1.421-2.842h-1.895l-2.368 4.5 2.842.578v5.343h8.526z"/>
        <path d="M32 5h.013c.016 0 .032.002.048.004L32 5a.473.473 0 0 1 .275.088l21.317 15.226A4.268 4.268 0 0 1 59 24.42v3.79a.474.474 0 0 1-.474.473H47.631v8.407a3.532 3.532 0 0 0 2.547-2.71 2.377 2.377 0 0 1 1.243-1.644V32a.474.474 0 1 1 .947 0v.478a2.361 2.361 0 0 1 2.339 1.487l1.417 3.543a.475.475 0 0 1-.44.65h-2.368v9a.474.474 0 1 1-.948 0v-3.316h-7.579v3.316a.474.474 0 1 1-.947 0v-9h-.474c-.783 0-1.42.637-1.42 1.42v.948a.474.474 0 1 1-.948 0v-.947a2.371 2.371 0 0 1 2.368-2.368l3.316-.001v-8.526H36.263v21.789h9.326c3.516 0 6.825 1.345 9.341 3.79h1.702A2.371 2.371 0 0 1 59 56.632 2.371 2.371 0 0 1 56.632 59H7.368A2.371 2.371 0 0 1 5 56.632a2.371 2.371 0 0 1 2.368-2.369H9.07l.133-.128a13.316 13.316 0 0 1 9.208-3.661l9.325-.001V28.684H17.315v8.526h3.317A2.371 2.371 0 0 1 23 39.58v.947a.474.474 0 1 1-.947 0v-.947c0-.784-.638-1.421-1.421-1.421h-.475v9a.474.474 0 1 1-.946 0l-.001-3.316h-7.579v3.316a.474.474 0 1 1-.947 0v-9H8.316a.474.474 0 0 1-.44-.65l1.417-3.543a2.36 2.36 0 0 1 2.203-1.491l.135.004V32a.474.474 0 1 1 .948 0v.737a2.377 2.377 0 0 1 1.243 1.644 3.532 3.532 0 0 0 2.546 2.71v-8.407H5.474A.474.474 0 0 1 5 28.211v-3.79a4.268 4.268 0 0 1 5.408-4.107L31.725 5.088l.03-.02a.474.474 0 0 1 .024-.013l-.054.033A.475.475 0 0 1 32 5zm24.632 50.21H7.368c-.783 0-1.42.638-1.42 1.422 0 .783.637 1.42 1.42 1.42h49.264c.783 0 1.42-.637 1.42-1.42 0-.784-.637-1.421-1.42-1.421zm-11.043-3.789H18.41a12.37 12.37 0 0 0-7.924 2.842h43.026a12.37 12.37 0 0 0-7.924-2.842zm-10.273-2.709-6.632 1.658v.104h6.632v-1.762zm-.001-3.79-6.631 1.658v2.813l6.631-1.657v-2.814zm0-3.789-6.63 1.658v2.813l6.63-1.658v-2.813zm-23.819-7.712c-.586 0-1.105.352-1.323.896L9.015 37.21h2.143c.262 0 .474.212.474.473v5.21h7.579v-4.736h-1.937c-.11 0-.22-.004-.327-.012a.472.472 0 0 1-.304-.032 4.485 4.485 0 0 1-3.75-3.547 1.429 1.429 0 0 0-1.397-1.146zm41.008 0c-.677 0-1.265.482-1.397 1.146a4.482 4.482 0 0 1-3.75 3.546.455.455 0 0 1-.304.033 4.69 4.69 0 0 1-.327.012h-1.937v4.737h7.58v-5.21c0-.262.211-.474.473-.474h2.143l-1.158-2.894a1.418 1.418 0 0 0-1.323-.896zm-17.189 3.922L28.684 39v2.813l6.631-1.657v-2.814zm0-3.789-6.63 1.658v2.813l6.63-1.658v-2.813zm0-3.79-6.631 1.658v2.813l6.631-1.657v-2.814zm0-1.08h-6.63v1.762l6.63-1.658v-.104zm19.422-7.579c-.336 0-.66.05-.966.144a.347.347 0 0 1-.095.048 3.31 3.31 0 0 0-2.255 3.124.474.474 0 0 1-.388.466l-.086.008a.474.474 0 0 1-.473-.474 3.32 3.32 0 0 0-3.128-3.31l-.188-.006c-.95 0-1.808.402-2.413 1.044a.408.408 0 0 1-.058.083 3.318 3.318 0 0 0-.837 1.972l-.008.217a.474.474 0 0 1-.388.466l-.086.008a.474.474 0 0 1-.473-.474 3.32 3.32 0 0 0-3.128-3.31l-.188-.006a3.318 3.318 0 0 0-2.845 1.615.408.408 0 0 1-.04.102c-.245.44-.387.898-.422 1.365l-.009.234a.474.474 0 0 1-.388.466l-.086.008a.474.474 0 0 1-.473-.474 3.32 3.32 0 0 0-3.128-3.31L32 21.105a3.32 3.32 0 0 0-3.316 3.316.474.474 0 0 1-.388.466l-.085.008a.474.474 0 0 1-.474-.474c0-.548-.145-1.086-.43-1.6a.474.474 0 0 1-.042-.1 3.313 3.313 0 0 0-6.16 1.7.474.474 0 0 1-.388.466l-.085.008a.474.474 0 0 1-.474-.474c0-.797-.3-1.574-.845-2.189a.475.475 0 0 1-.06-.082 3.302 3.302 0 0 0-2.41-1.045 3.32 3.32 0 0 0-3.317 3.316.474.474 0 0 1-.388.466l-.085.008a.474.474 0 0 1-.474-.474 3.283 3.283 0 0 0-.008-.234l.001.028a3.31 3.31 0 0 0-2.248-2.918.475.475 0 0 1-.096-.045 3.203 3.203 0 0 0-.965-.147 3.32 3.32 0 0 0-3.316 3.316v3.316h52.106V24.42a3.32 3.32 0 0 0-3.316-3.316zm0 2.369a.947.947 0 1 1 0 1.894.947.947 0 0 1 0-1.894zm-7.58 0a.947.947 0 1 1 .001 1.894.947.947 0 0 1 0-1.894zm-7.578 0a.947.947 0 1 1 0 1.894.947.947 0 0 1 0-1.894zm-7.579 0a.947.947 0 1 1 0 1.894.947.947 0 0 1 0-1.894zm-7.579 0a.947.947 0 1 1 0 1.894.947.947 0 0 1 0-1.894zm-7.579 0a.947.947 0 1 1 0 1.894.947.947 0 0 1 0-1.894zm-7.579 0a.947.947 0 1 1 0 1.894.947.947 0 0 1 0-1.894zM29.786 7.636 11.429 20.75a4.296 4.296 0 0 1 1.624 1.719 4.287 4.287 0 0 1 2.44-2.092 4.247 4.247 0 0 1 1.35-.22c1.06 0 2.031.39 2.778 1.033L29.786 7.636zm4.428.001L44.379 21.19a4.245 4.245 0 0 1 2.779-1.032 4.246 4.246 0 0 1 3.088 1.327c.278.292.515.623.701.984.37-.714.935-1.31 1.624-1.72L34.214 7.638zm-3.243-.003L20.275 21.896c.133.18.253.372.357.573l-.006.01a4.286 4.286 0 0 1 1.916-1.884l.014-.007a4.245 4.245 0 0 1 .572-.23l.017-.005c.063-.02.127-.038.192-.055l.109-.028a4.261 4.261 0 0 1 4.063 1.215l3.462-13.851zm2.056-.002 3.464 13.853a4.251 4.251 0 0 1 4.063-1.215l.11.028a4.224 4.224 0 0 1 .607.21l.027.012a4.245 4.245 0 0 1 1.19.787c.311.292.575.623.785.988l.095.174c.104-.2.224-.392.357-.573L33.027 7.632zM32 7.427l-3.735 14.94-.054.102c.045-.088.093-.173.144-.257l-.09.155a4.27 4.27 0 0 1 .373-.565l.011-.014a4.29 4.29 0 0 1 .017-.021l.046-.056a4.299 4.299 0 0 1 .088-.104l.017-.019a4.303 4.303 0 0 1 .104-.113l.021-.021.013-.014a4.303 4.303 0 0 1 .756-.614l.03-.02a4.271 4.271 0 0 1 1.175-.508l.067-.018a4.281 4.281 0 0 1 .57-.1v.001h.003l.074-.007a4.296 4.296 0 0 1 .37-.016 4.3 4.3 0 0 1 .453.024l.088.01.12.017a4.669 4.669 0 0 1 .356.071l.067.018a4.227 4.227 0 0 1 1.021.417l.073.043a4.271 4.271 0 0 1 .78.596l.04.04a4.303 4.303 0 0 1 .11.111l.02.022a4.303 4.303 0 0 1 .16.184l.046.056.017.021.01.014a4.293 4.293 0 0 1 .266.38l.014.024a4.357 4.357 0 0 1 .094.161L32 7.427z" fill="#2F484D" stroke="#2F484D" stroke-width=".75"/>
    </g>
</svg>
