<?xml version="1.0" encoding="UTF-8"?>
<svg width="64px" height="64px" viewBox="0 0 64 64" version="1.1" xmlns="http://www.w3.org/2000/svg" xmlns:xlink="http://www.w3.org/1999/xlink">
    <title>DE3A28DF-6080-418A-90DE-10170DEE8146</title>
    <g id="Site" stroke="none" stroke-width="1" fill="none" fill-rule="evenodd">
        <g id="icons" transform="translate(-360.000000, -3201.000000)">
            <g id="icon-performances" transform="translate(360.000000, 3201.000000)">
                <rect id="Rectangle" x="0" y="0" width="64" height="64"></rect>
                <circle id="Oval" fill="#9EBABA" cx="13" cy="47" r="6"></circle>
                <circle id="Oval" fill="#9EBABA" cx="48" cy="43" r="6"></circle>
                <g id="Vector" transform="translate(6.000000, 11.000000)" stroke="#2F484D" stroke-linecap="round" stroke-linejoin="round" stroke-width="2">
                    <path d="M6.43050151,42.4565057 C2.85690617,42.3797249 0,39.4607776 0,35.8863577 C0,32.3119378 2.85690617,29.3929902 6.43050151,29.3162097 C10.0040971,29.3929902 12.861003,32.3119378 12.861003,35.8863577 C12.861003,39.4607776 10.0040971,42.3797249 6.43050151,42.4565057 L6.43050151,42.4565057 Z" id="Vector-3"></path>
                    <path d="M42.0151008,38.7081543 C39.3472985,38.7500138 36.91898,37.174705 35.8697687,34.7215282 C34.8205574,32.2683517 35.3587329,29.4242881 37.2317263,27.5240729 C39.1047198,25.623858 41.9407218,25.0447046 44.4087816,26.0584125 C46.8768408,27.0721204 48.4870213,29.4774576 48.4836559,32.1455858 C48.5071928,35.7430484 45.6125271,38.6797849 42.0151008,38.7081543 L42.0151008,38.7081543 Z" id="Vector-4"></path>
                    <path d="M12.8959933,35.8848657 L12.8959933,10.6141325 M12.8959933,10.6141325 L12.8959933,6.06521887 C12.8959933,2.715491 15.6114842,0 18.9612116,0 L42.4184438,0 C45.7681724,0 48.4836632,2.715491 48.4836632,6.06521887 L48.4836632,10.6141325 M12.8959933,10.6141325 L48.4836632,10.6141325 M48.4836632,10.6141325 L48.4836632,32.1456584" id="Vector-5"></path>
                </g>
            </g>
        </g>
    </g>
</svg>