<svg width="130" height="64" viewBox="0 0 130 64" xmlns="http://www.w3.org/2000/svg" xmlns:xlink="http://www.w3.org/1999/xlink">
    <defs>
        <path id="o0d204ek5a" d="M.255.047h122V28.37h-122z"/>
    </defs>
    <g fill="none" fill-rule="evenodd">
        <path d="M33 0h64v64H33z"/>
        <path d="m83.147 40.94 8.706-2.909H3.705a1.661 1.661 0 0 0-.007.158c0 .966.785 2.751 1.75 2.751h77.7z" fill="#9EBABA"/>
        <g transform="translate(0 15.268)">
            <mask id="b1vhjub83b" fill="#fff">
                <use xlink:href="#o0d204ek5a"/>
            </mask>
            <path d="M32.398 13.422c-4.64 0-9.038 2.016-12.067 5.531-.194.225-.457.38-.747.44L6.091 22.208a1.758 1.758 0 0 0-1.394 1.713c0 .966.786 1.751 1.751 1.751h76.7l26.093-8.729 9.187-14.199h-6.408l-10.395 10.288a1.35 1.35 0 0 1-.95.39H32.399zM6.448 28.37A4.453 4.453 0 0 1 2 23.921a4.466 4.466 0 0 1 3.54-4.354l13.055-2.723a18.612 18.612 0 0 1 13.803-6.12h67.723L110.517.438c.253-.25.593-.39.949-.39h9.44a1.349 1.349 0 0 1 1.133 2.082l-10.79 16.676c-.166.257-.414.45-.704.546l-26.75 8.95c-.138.045-.283.068-.428.068H6.448z" fill="#2F484D" mask="url(#b1vhjub83b)"/>
        </g>
        <path d="M25.413 34.69H19.31a1.349 1.349 0 0 1 0-2.698h6.104c1.652 0 3.2-.884 4.038-2.308l1.786-3.028a1.348 1.348 0 1 1 2.323 1.37l-1.785 3.028a7.414 7.414 0 0 1-6.362 3.635M65.014 32.047a2.133 2.133 0 1 1-4.266 0 2.133 2.133 0 0 1 4.266 0M43.266 32.047a2.133 2.133 0 1 1-4.266 0 2.133 2.133 0 0 1 4.266 0M70.819 32.047a2.133 2.133 0 1 1-4.267 0 2.133 2.133 0 0 1 4.267 0M49.07 32.047a2.133 2.133 0 1 1-4.266 0 2.133 2.133 0 0 1 4.267 0M76.623 32.047a2.133 2.133 0 1 1-4.266 0 2.133 2.133 0 0 1 4.266 0M54.876 32.047a2.133 2.133 0 1 1-4.267 0 2.133 2.133 0 0 1 4.267 0" fill="#2F484D"/>
        <path fill="#9EBABA" d="m111.746 19.811 2.698 4.468 2.95-4.468z"/>
        <path d="M128.325 20.542h-15.51a1.18 1.18 0 0 1 0-2.36h15.51a1.18 1.18 0 0 1 0 2.36" fill="#2F484D"/>
        <path fill="#9EBABA" d="m93.595 32.905 2.754 3.54 10.902-3.54z"/>
        <path d="M109.892 33.228h-15.51a1.18 1.18 0 1 1 0-2.36h15.51a1.18 1.18 0 0 1 0 2.36M113.998 28.69h-13.322a1.349 1.349 0 0 1 0-2.697h13.322a1.349 1.349 0 1 1 0 2.697" fill="#2F484D"/>
    </g>
</svg>
