<?xml version="1.0" encoding="UTF-8"?>
<svg width="64px" height="64px" viewBox="0 0 64 64" version="1.1" xmlns="http://www.w3.org/2000/svg" xmlns:xlink="http://www.w3.org/1999/xlink">
    <title>22FC8A51-C9E9-4F63-A847-B4B369EA1643</title>
    <defs>
        <rect id="path-1" x="0" y="0" width="64" height="64"></rect>
    </defs>
    <g id="Site" stroke="none" stroke-width="1" fill="none" fill-rule="evenodd">
        <g id="icons" transform="translate(-600.000000, -413.000000)">
            <g id="icon-seafood" transform="translate(600.000000, 413.000000)">
                <g id="fish">
                    <mask id="mask-2" fill="white">
                        <use xlink:href="#path-1"></use>
                    </mask>
                    <g id="Mask"></g>
                    <polygon id="Path-6" fill="#9EBABA" mask="url(#mask-2)" points="30.3156281 13.4454613 32.1066518 10.1794968 36.0008668 8.48802185 41.907508 8.48802185 40.2926025 13.4454613 39.4291021 15.6876373 35.4520412 14.443737"></polygon>
                    <polygon id="Path-7" fill="#9EBABA" mask="url(#mask-2)" points="34.5561895 51.3098602 39.4291021 49 42.9379272 47.3538208 44.0848316 50.3608856 44.8943863 54.8700943 44.0848316 57.5340877 38.241127 54.8700943"></polygon>
                    <path d="M20.4282205,41.2004589 C19.1867445,39.9621634 17.1702736,39.9621634 15.930918,41.2004589 C15.3308536,41.8005233 14.9990158,42.5999024 14.9990158,43.4501703 C14.9990158,44.2993781 15.3308536,45.0987572 15.930918,45.6988216 C16.5511259,46.3190295 17.3653476,46.6286034 18.1795692,46.6286034 C18.9937909,46.6286034 19.8080126,46.3190295 20.4282205,45.6988216 C21.0282849,45.0987572 21.3601227,44.2993781 21.3601227,43.4501703 C21.3601227,42.5999024 21.0293451,41.8015835 20.4282205,41.2004589 L20.4282205,41.2004589 L20.4282205,41.2004589 L20.4282205,41.2004589 L20.4282205,41.2004589 L20.4282205,41.2004589 L20.4282205,41.2004589 Z M60.9495312,21.5096527 C60.7894434,20.7304171 60.269953,20.0752231 59.5617498,19.7624687 C59.0836066,19.5493716 58.9054956,19.0616867 58.6669541,18.2845715 C58.4241718,17.4873128 57.9820749,16.0136564 56.3133445,16.1557211 C55.7482662,16.2119109 55.2520999,16.0507628 54.9128408,15.712564 C54.574642,15.3743651 54.4166745,14.8760784 54.4696837,14.3120603 C54.5810031,13.1076907 54.206758,12.0082794 53.41374,11.2142013 C52.6652498,10.4667712 51.6421717,10.1052483 50.4643068,10.1455353 C50.4505244,10.0787437 50.436742,10.0045308 50.42508,9.94197989 C50.2734736,9.14048043 49.9607192,7.48871302 47.6558781,7.17807897 C47.2487673,7.04873647 46.132393,6.77944961 45.2057918,7.34770849 C44.7636949,7.6201759 44.2134591,8.17677274 44.097899,9.39068397 L44.0735148,16.0306193 L33.2490313,16.0306193 C31.563338,16.0306193 29.9285336,16.2352349 28.3488587,16.5925171 C27.7827202,14.4594259 26.8455171,12.4408347 25.5075643,10.5939933 L24.9817128,9.86776698 L24.178093,10.264276 C23.9766579,10.3639333 19.2280917,12.75889 17.9187639,16.8777067 C17.3886716,18.5432565 17.4893892,20.2363711 18.2145553,21.9241848 C13.7925259,25.9931728 11,31.8082846 11,38.2764701 L11,57.3756934 L29.9518576,57.3756934 C35.9344786,57.3756934 41.557697,55.0464681 45.7878331,50.8152719 C46.3009624,50.3021426 46.7844065,49.7656892 47.241346,49.2133331 C47.7078272,49.2514998 48.1912713,49.2790646 48.7107617,49.2790646 C51.7015421,49.2790646 55.5044238,48.5454169 59.2839814,45.8069604 L60.0102078,45.2811089 L59.6115784,44.4774891 C59.4896572,44.2304661 56.7639229,38.8595716 52.1213751,38.0050629 C52.2549584,37.0084895 52.3482546,36.0023744 52.3471944,34.9803566 L52.3471944,24.2194842 L59.0443797,24.2820351 L59.1291945,24.2682527 C59.6115784,24.1940398 60.0441337,23.9639797 60.3833927,23.6013966 L60.3865733,23.5982161 C60.8954618,23.0490405 61.1053783,22.2676846 60.9495312,21.5096527 L60.9495312,21.5096527 L60.9495312,21.5096527 L60.9495312,21.5096527 L60.9495312,21.5096527 Z M19.9331144,20.4685515 C19.6267211,19.4730383 19.6299016,18.5019093 19.9384153,17.52866 C20.6890259,15.1570273 23.0702002,13.4066627 24.3286392,12.6210661 C25.2393376,14.0395929 25.9093742,15.5556567 26.3313277,17.1448732 C25.3729209,17.459748 24.4505604,17.8477755 23.5536443,18.2845715 C23.3363065,18.3895298 23.114728,18.4870667 22.9016309,18.5994463 C22.6047792,18.7563536 22.3195896,18.9291637 22.0301592,19.097733 C21.7343678,19.2705431 21.4406967,19.4444133 21.1533867,19.6310058 C20.8925813,19.8006353 20.6391972,19.9776861 20.3868733,20.1579175 C20.2363271,20.2639359 20.0794198,20.3582923 19.9331144,20.4685515 L19.9331144,20.4685515 L19.9331144,20.4685515 L19.9331144,20.4685515 L19.9331144,20.4685515 Z M51.7481902,40.0819643 C54.4209152,40.5813111 56.4045204,43.264638 57.2537282,44.6269751 C54.1940358,46.5967978 51.1672091,47.1523345 48.741507,47.1576354 C50.120807,45.0383267 51.108899,42.7080412 51.6994217,40.2547743 C51.7142643,40.1964642 51.7344078,40.1402744 51.7481902,40.0819643 L51.7481902,40.0819643 L51.7481902,40.0819643 L51.7481902,40.0819643 L51.7481902,40.0819643 Z M18.9291197,44.1997207 C18.5145875,44.6142529 17.844551,44.6142529 17.4300188,44.1997207 C17.2307041,43.9993459 17.1193848,43.7332396 17.1193848,43.4501703 C17.1193848,43.1660409 17.229644,42.9009948 17.4300188,42.7006199 C17.6367548,42.4938839 17.908162,42.391046 18.1795692,42.391046 C18.4509765,42.391046 18.7223837,42.4938839 18.9291197,42.7006199 L18.9291197,42.7016801 C19.1294945,42.9009948 19.2397537,43.1660409 19.2397537,43.4501703 C19.2397537,43.7321794 19.1294945,43.9982857 18.9291197,44.1997207 L18.9291197,44.1997207 L18.9291197,44.1997207 L18.9291197,44.1997207 L18.9291197,44.1997207 Z M58.8323428,22.1595457 L50.2268255,22.0810921 L50.2268255,34.9814168 C50.2268255,36.2080502 50.1038441,37.4145401 49.8928674,38.5966458 L49.8653026,38.7461318 C49.8048721,39.0663075 49.7317193,39.3854231 49.655386,39.7024182 C49.6225203,39.839182 49.5885944,39.9748856 49.5536083,40.1105892 C48.8570671,42.7631708 47.6177115,45.2800487 45.9150552,47.4555473 L45.5047638,47.9792784 C45.1188567,48.4393984 44.7191671,48.8889167 44.2897924,49.3182914 C40.4604061,53.1476777 35.3683401,55.2574448 29.9529178,55.2574448 L13.1203689,55.2574448 L13.1203689,38.2775303 C13.1203689,32.1189187 15.9075939,26.6048992 20.2787345,22.9090962 C21.9358028,21.5096527 23.7752229,20.4006997 25.7726104,19.6045012 C25.7885132,19.5981401 25.804416,19.5938993 25.8192586,19.5875382 C26.4776331,19.3267328 27.1529706,19.0998534 27.8442109,18.90796 C29.5670107,18.4266362 31.3746252,18.1488679 33.2500915,18.1488679 L46.1864625,18.1488679 L46.2140272,9.49882278 C46.2362911,9.2719433 46.2924809,9.16804523 46.3179253,9.15320264 C46.4228836,9.08747121 46.7897074,9.11397582 47.0356702,9.2040915 L47.3007163,9.26982294 C48.1594658,9.36523954 48.2061139,9.60908197 48.3418175,10.3363685 C48.4520767,10.9099283 48.7425672,12.4302328 50.5141355,12.270145 C51.0770934,12.2171358 51.5753801,12.3751033 51.9156993,12.7133021 C52.2538982,13.0525611 52.4118657,13.5508478 52.3588564,14.114866 C52.2475371,15.3192355 52.6217822,16.4186468 53.4148002,17.2116648 C54.1844941,17.9802986 55.2520999,18.3503029 56.4236037,18.2750298 C56.4946361,18.4287566 56.5794508,18.7054647 56.6409415,18.9037192 C56.9049275,19.7688298 57.304617,21.0770974 58.70088,21.6994257 C58.8015975,21.7439534 58.8556669,21.8520923 58.8726298,21.9379672 C58.8821715,21.9814348 58.8948937,22.0895736 58.8312827,22.1584856 L58.8323428,22.1595457 L58.8323428,22.1595457 L58.8323428,22.1595457 L58.8323428,22.1595457 L58.8323428,22.1595457 Z M58.9765279,22.321754 L58.9765279,22.2920688 L59.6094581,22.8783508 L58.9765279,22.321754 L58.9765279,22.321754 L58.9765279,22.321754 L58.9765279,22.321754 L58.9765279,22.321754 Z M18.1795692,33.3932604 L18.1795692,35.5136294 C26.3641934,35.5136294 33.0221519,42.1715878 33.0221519,50.356212 L35.1425208,50.356212 C35.1425208,41.0032646 27.5325167,33.3932604 18.1795692,33.3932604 L18.1795692,33.3932604 L18.1795692,33.3932604 L18.1795692,33.3932604 L18.1795692,33.3932604 Z M21.6304697,29.9434201 L21.6304697,32.0637891 C29.8150938,32.0637891 36.4730523,38.7217476 36.4730523,46.9063717 L38.5934213,46.9063717 C38.5934213,37.5523641 30.9834171,29.9434201 21.6304697,29.9434201 L21.6304697,29.9434201 L21.6304697,29.9434201 L21.6304697,29.9434201 L21.6304697,29.9434201 Z M24.9265832,26.6462464 L24.9265832,28.7666154 C33.1112074,28.7666154 39.7691658,35.4245739 39.7691658,43.609198 L41.8895348,43.609198 C41.8895348,34.2562506 34.2805908,26.6462464 24.9265832,26.6462464 L24.9265832,26.6462464 L24.9265832,26.6462464 L24.9265832,26.6462464 L24.9265832,26.6462464 Z M28.3774837,23.195346 L28.3774837,25.3157149 C36.5621078,25.3157149 43.2200663,31.9736734 43.2200663,40.1582975 L45.3404352,40.1582975 C45.3404352,30.8053501 37.7314913,23.195346 28.3774837,23.195346 L28.3774837,23.195346 L28.3774837,23.195346 L28.3774837,23.195346 L28.3774837,23.195346 Z" fill="#2F484D" mask="url(#mask-2)" transform="translate(36.000000, 32.187847) rotate(42.000000) translate(-36.000000, -32.187847) "></path>
                </g>
            </g>
        </g>
    </g>
</svg>