<?xml version="1.0" encoding="UTF-8"?>
<svg width="64px" height="64px" viewBox="0 0 64 64" version="1.1" xmlns="http://www.w3.org/2000/svg" xmlns:xlink="http://www.w3.org/1999/xlink">
    <title>03A1AD44-F0B7-464D-94BB-7145BF51CC15</title>
    <g id="Site" stroke="none" stroke-width="1" fill="none" fill-rule="evenodd">
        <g id="icons" transform="translate(-600.000000, -1861.000000)">
            <g id="icon-other-eateries" transform="translate(600.000000, 1861.000000)">
                <rect id="Mask" x="0" y="0" width="64" height="64"></rect>
                <polygon id="Path-38" fill="#9EBABA" points="21.8942947 35.4364815 24 32.9703827 26 32.9703827 28.1079407 35.0338669 28.1079407 59.3088036 26 61 24 61 21.8942947 59.3088036"></polygon>
                <polygon id="Path-38-Copy" fill="#9EBABA" points="36 35.4364815 38.1057053 32.9703827 40.1057053 32.9703827 42.2136459 35.0338669 42.2136459 59.3088036 40.1057053 61 38.1057053 61 36 59.3088036"></polygon>
                <path d="M29,3 C28.447,3 28,3.447 28,4 L28,17 C28,18.302 27.161,19.402 26,19.816 L26,4 C26,3.447 25.553,3 25,3 C24.447,3 24,3.447 24,4 L24,19.816 C22.839,19.402 22,18.302 22,17 L22,4 C22,3.447 21.553,3 21,3 C20.447,3 20,3.447 20,4 L20,17 C20,19.414 21.721,21.434 24,21.899 L24,32.142 C22.28,32.589 21,34.141 21,36 L21,58 C21,60.206 22.794,62 25,62 C27.206,62 29,60.206 29,58 L29,36 C29,34.141 27.72,32.589 26,32.142 L26,21.899 C28.279,21.434 30,19.415 30,17 L30,4 C30,3.447 29.553,3 29,3 L29,3 L29,3 L29,3 L29,3 Z M25,39 C25.5522847,39 26,38.5522847 26,38 C26,37.4477153 25.5522847,37 25,37 C24.4477153,37 24,37.4477153 24,38 C24,38.5522847 24.4477153,39 25,39 L25,39 L25,39 L25,39 L25,39 Z M25,43 C25.5522847,43 26,42.5522847 26,42 C26,41.4477153 25.5522847,41 25,41 C24.4477153,41 24,41.4477153 24,42 C24,42.5522847 24.4477153,43 25,43 L25,43 L25,43 L25,43 L25,43 Z M27,36 L27,58 C27,59.103 26.103,60 25,60 C23.897,60 23,59.103 23,58 L23,36 C23,34.897 23.897,34 25,34 C26.103,34 27,34.897 27,36 L27,36 L27,36 L27,36 L27,36 Z M41.942,4.682 C40.816,3.55 39.203,3 37.011,3 C36.458,3 36.011,3.447 36.011,4 L36.011,33 C36.011,33.109 36.041,33.209 36.073,33.307 C35.42,34.019 35.011,34.959 35.011,36 L35.011,58 C35.011,60.206 36.805,62 39.011,62 C41.217,62 43.011,60.206 43.011,58 L43.011,36 C43.011,34.719 42.395,33.589 41.455,32.856 C44.006,29.552 44.013,24.665 44.011,17.56 L44.017,15.354 C44.041,10.582 44.062,6.813 41.942,4.682 L41.942,4.682 L41.942,4.682 L41.942,4.682 L41.942,4.682 Z M39.011,39 C39.5632847,39 40.011,38.5522847 40.011,38 C40.011,37.4477153 39.5632847,37 39.011,37 C38.4587153,37 38.011,37.4477153 38.011,38 C38.011,38.5522847 38.4587153,39 39.011,39 L39.011,39 L39.011,39 L39.011,39 L39.011,39 Z M39.011,43 C39.5632847,43 40.011,42.5522847 40.011,42 C40.011,41.4477153 39.5632847,41 39.011,41 C38.4587153,41 38.011,41.4477153 38.011,42 C38.011,42.5522847 38.4587153,43 39.011,43 L39.011,43 L39.011,43 L39.011,43 L39.011,43 Z M41.011,58 C41.011,59.103 40.114,60 39.011,60 C37.908,60 37.011,59.103 37.011,58 L37.011,36 C37.011,34.897 37.908,34 39.011,34 C40.114,34 41.011,34.897 41.011,36 L41.011,58 L41.011,58 L41.011,58 L41.011,58 L41.011,58 Z M42.017,15.344 L42.011,17.561 C42.013,24.595 42.006,29.304 39.52,32.052 C39.352,32.03 39.185,32 39.011,32 C38.664,32 38.333,32.058 38.011,32.142 L38.011,5.059 C39.121,5.183 39.954,5.519 40.524,6.092 C42.057,7.634 42.039,11.036 42.017,15.344 L42.017,15.344 L42.017,15.344 L42.017,15.344 L42.017,15.344 Z" id="cutlery" fill="#2F484D"></path>
            </g>
        </g>
    </g>
</svg>