<svg width="100" height="64" viewBox="0 0 100 64" xmlns="http://www.w3.org/2000/svg" xmlns:xlink="http://www.w3.org/1999/xlink">
    <defs>
        <path id="tnbkb238fa" d="M0 .221h10.5v8.206H0z"/>
        <path id="0lhcbvlc3c" d="M.024.126H92.74v23.188H.024z"/>
        <path id="nbxhbazs6d" d="M.053.008h7.583v7.583H.053z"/>
    </defs>
    <g fill="none" fill-rule="evenodd">
        <path d="M18 0h64v64H18z"/>
        <g transform="translate(0 29.657)">
            <mask id="g7tb5zjn2b" fill="#fff">
                <use xlink:href="#tnbkb238fa"/>
            </mask>
            <path d="M3.051 4.324c1.45.952 3.231 1.554 5.128 1.73v-3.46c-1.897.175-3.678.778-5.128 1.73M9.34 8.427c-3.424 0-6.69-1.183-8.959-3.245a1.16 1.16 0 0 1 0-1.717C2.649 1.404 5.915.221 9.34.221c.64 0 1.16.52 1.16 1.16v5.886c0 .64-.52 1.16-1.16 1.16" fill="#2F484D" mask="url(#g7tb5zjn2b)"/>
        </g>
        <path d="M5.25 41.905c-.641 0-1.16-.52-1.16-1.16v-14.21a1.16 1.16 0 0 1 2.32 0v14.21c0 .64-.52 1.16-1.16 1.16" fill="#2F484D"/>
        <path d="M8.074 32.77c1.015-4.494 5.22-3.48 18.124-3.48l4.64-7.395h15.37l4.977 7.396H79.45a6.422 6.422 0 0 0 4.88-2.249l6.633-7.756h7.394L93.08 31.161a6.423 6.423 0 0 1-5.13 3.771l-45.077 5.222H16.688c-7.309 0-9.238-4.617-8.614-7.384" fill="#F1F5F5"/>
        <path d="m8.074 32.77 1.132.256c-.202.896-.066 2.294.924 3.532.889 1.111 2.747 2.436 6.558 2.436h26.118l45.01-5.214a5.285 5.285 0 0 0 4.203-3.09l4.553-10.244h-5.076l-6.285 7.35a7.572 7.572 0 0 1-5.762 2.655H51.185a1.16 1.16 0 0 1-.962-.513l-4.633-6.883H31.48l-4.3 6.852a1.16 1.16 0 0 1-.982.544c-2.253 0-4.239-.031-5.99-.058-8.806-.137-10.418.046-11.002 2.633l-1.132-.256zm34.798 8.544H16.688c-4.733 0-7.164-1.799-8.37-3.308-1.277-1.597-1.79-3.65-1.375-5.49 1.046-4.633 4.886-4.573 13.3-4.443 1.575.024 3.34.052 5.314.057l4.299-6.852a1.16 1.16 0 0 1 .982-.543h15.37c.386 0 .746.192.962.512l4.633 6.884h27.646c1.54 0 2.998-.672 4-1.843l6.631-7.756a1.16 1.16 0 0 1 .882-.406h7.394a1.16 1.16 0 0 1 1.06 1.631L94.14 31.632a7.615 7.615 0 0 1-6.057 4.453l-45.076 5.221a1.22 1.22 0 0 1-.134.008z" fill="#2F484D"/>
        <path d="M16.219 47.63a1.16 1.16 0 0 1-1.109-1.503l1.958-6.317a1.16 1.16 0 0 1 2.216.687l-1.958 6.316a1.16 1.16 0 0 1-1.107.817" fill="#2F484D"/>
        <path d="M18.176 46.47a1.957 1.957 0 1 1-3.915 0 1.957 1.957 0 0 1 3.915 0" fill="#F1F5F5"/>
        <path d="M16.218 45.672a.799.799 0 0 0 0 1.595.798.798 0 0 0 0-1.595m0 3.915a3.12 3.12 0 0 1-3.117-3.117 3.12 3.12 0 0 1 3.117-3.118 3.12 3.12 0 0 1 3.118 3.118 3.12 3.12 0 0 1-3.118 3.117M39.103 49.735a1.16 1.16 0 0 1-1.109-1.503l2.61-8.422a1.16 1.16 0 0 1 2.217.687l-2.61 8.421a1.16 1.16 0 0 1-1.108.817" fill="#2F484D"/>
        <path d="M42.531 46.47a2.631 2.631 0 1 1-5.262 0 2.631 2.631 0 0 1 5.262 0" fill="#F1F5F5"/>
        <g transform="translate(36.056 42.67)">
            <mask id="dlgc76vrie" fill="#fff">
                <use xlink:href="#nbxhbazs6d"/>
            </mask>
            <path d="M3.845 2.328c-.812 0-1.472.66-1.472 1.471a1.473 1.473 0 0 0 2.942 0c0-.811-.659-1.47-1.47-1.47m0 5.262C1.755 7.59.053 5.89.053 3.799.053 1.71 1.754.01 3.845.01c2.09 0 3.79 1.7 3.79 3.79s-1.7 3.792-3.79 3.792" fill="#2F484D" mask="url(#dlgc76vrie)"/>
        </g>
        <path fill="#FFF" d="M51.185 29.29H26.198"/>
        <path d="M51.185 30.45H26.198a1.16 1.16 0 0 1 0-2.32h24.987a1.16 1.16 0 1 1 0 2.32" fill="#2F484D"/>
        <path d="M16.689 38.994h26.117l34.071-3.947H9.34c.49 1.531 2.096 3.947 7.35 3.947" fill="#9EBABA"/>
        <path fill="#9EBABA" d="m85.785 34.042-1.01-1.852-11.599.726 2.755 2.283z"/>
        <path fill="#FFF" d="M73.998 32.19H86.37"/>
        <path d="M86.37 33.35H73.998a1.16 1.16 0 0 1 0-2.32H86.37a1.16 1.16 0 1 1 0 2.32M40.891 29.29v-7.395M40.891 30.45c-.64 0-1.16-.519-1.16-1.16v-7.395a1.16 1.16 0 0 1 2.32 0v7.396c0 .64-.52 1.16-1.16 1.16" fill="#2F484D"/>
        <path d="M61.045 23.442H26.827a2.03 2.03 0 1 1 0-4.06h34.218a2.03 2.03 0 0 1 0 4.06" stroke="#2F484D" stroke-width="2" fill="#9EBABA"/>
        <path d="M32.24 36.685c-.64 0-1.16-.52-1.16-1.16V21.412a1.16 1.16 0 0 1 2.32 0v14.113c0 .64-.52 1.16-1.16 1.16M93.719 30.45h-14.27a1.16 1.16 0 0 1 0-2.32h14.27a1.16 1.16 0 1 1 0 2.32" fill="#2F484D"/>
    </g>
</svg>
