<?xml version="1.0" encoding="UTF-8"?>
<svg width="64px" height="64px" viewBox="0 0 64 64" version="1.1" xmlns="http://www.w3.org/2000/svg" xmlns:xlink="http://www.w3.org/1999/xlink">
    <title>73A9EFD3-84D7-468E-A972-8DBC1C1AB74D</title>
    <g id="Site" stroke="none" stroke-width="1" fill="none" fill-rule="evenodd">
        <g id="icons" transform="translate(-120.000000, -2585.000000)">
            <g id="icon-retail" transform="translate(120.000000, 2585.000000)">
                <rect id="Rectangle" x="0" y="0" width="64" height="64"></rect>
                <polygon id="Path-43" fill-opacity="0.7" fill="#BE8432" points="24.8581289 55.4345582 24.8581289 43.729702 27.5756989 41.1470018 36.6231689 41.1470018 39.1456852 43.729702 39.1456852 55.4345582"></polygon>
                <path d="M14.224615,9 L50.9204712,9 L53.4332401,10.908618 L57,21.613533 L56.6028748,25.626339 L53.4332401,29.0347259 L50.3605347,30.3634686 L45.9033624,29.9771906 L41.397522,26.2432946 L40.2529694,24.2007408 L37.5799103,28.2445908 L33.743988,30.4990497 L30.247097,30.3634686 L25.6060066,27.4943523 L23.7615582,24.2007408 L21.5110855,27.4943523 L17.6158657,30.3634686 L13.1733131,30.3634686 L8.6297226,27.4943523 L7,22.9391899 L7.73265839,17.7828083 C9.62460065,13.2000148 10.5705718,10.908618 10.5705718,10.908618 C10.5705718,10.908618 11.7885862,10.272412 14.224615,9 Z" id="Path-44" fill="#9EBABA"></path>
                <path d="M23.7615582,22.1231205 C23.7615582,26.6741395 27.4508878,30.3634686 32.0019063,30.3634686 C36.5529247,30.3634686 40.2422544,26.6741395 40.2422544,22.1231205 M23.7615589,22.1231205 L23.7972778,20.0442811 M23.7615582,22.1231205 L23.200772,24.3591231 C22.5229496,26.9551257 20.6201728,29.0565712 18.1040148,29.9880334 C15.5878571,30.9194954 12.7753908,30.5635971 10.5705718,29.0347258 M10.5705718,29.0347259 L10.3741179,48.2050547 C10.3512027,50.1145115 11.0937203,51.95366 12.4359304,53.3119773 C13.7781405,54.6702936 15.6083014,55.4345582 17.5178962,55.4345582 L24.8581285,55.4345582 M10.570572,29.0347259 C7.6937531,27.0269258 6.3792918,23.4346374 7.28086195,20.0442809 L10.2633895,12.0146745 C10.7605033,10.236637 12.3783995,9.0053437 14.224615,9 L49.775628,9 C51.621843,9.0053437 53.23974,10.236637 53.736855,12.0146745 L56.71938,20.0478531 C57.620045,23.4363303 56.307263,27.0264977 53.433243,29.0347259 M24.8581289,55.4345582 L24.8581289,44.7188909 C24.8581289,42.746191 26.457318,41.1470018 28.4300179,41.1470018 L35.5737961,41.1470018 C37.5464962,41.1470018 39.1456852,42.746191 39.1456852,44.7188909 L39.1456852,55.4345582 M24.8581289,55.4345582 L39.1456852,55.4345582 M40.2422537,22.1231205 L40.2172505,20.0442811 M40.2529694,22.1231205 L40.813756,24.3484073 C41.4901743,26.9427627 43.3899855,29.0438334 45.9033624,29.9771906 C48.4167395,30.9105476 51.2274371,30.5587516 53.4332401,29.0347259 M53.4332394,29.0347259 L53.6189775,48.2050547 C53.6418924,50.1145115 52.8993759,51.95366 51.5571646,53.3119773 C50.2149554,54.6702936 48.3847937,55.4345582 46.4751998,55.4345582 L39.1456838,55.4345582" id="Vector-55" stroke="#2F484D" stroke-width="2" stroke-linecap="round" stroke-linejoin="round"></path>
            </g>
        </g>
    </g>
</svg>