<?xml version="1.0" encoding="UTF-8"?>
<svg width="64px" height="64px" viewBox="0 0 64 64" version="1.1" xmlns="http://www.w3.org/2000/svg" xmlns:xlink="http://www.w3.org/1999/xlink">
    <title>F0F306ED-7C02-428C-8D72-F88C7A3EC8B2</title>
    <g id="Site" stroke="none" stroke-width="1" fill="none" fill-rule="evenodd">
        <g id="icons" transform="translate(-360.000000, -1345.000000)">
            <g id="icon-drinks" transform="translate(360.000000, 1345.000000)">
                <rect id="Rectangle" x="0" y="0" width="64" height="64"></rect>
                <rect id="Rectangle" fill="#9EBABA" transform="translate(23.751598, 27.636557) rotate(-44.000000) translate(-23.751598, -27.636557) " x="20.7515984" y="24.6365566" width="6" height="6"></rect>
                <rect id="Rectangle-Copy" fill="#9EBABA" transform="translate(32.000000, 33.000000) rotate(-44.000000) translate(-32.000000, -33.000000) " x="29" y="30" width="6" height="6"></rect>
                <rect id="Rectangle-Copy-3" fill="#9EBABA" transform="translate(26.000000, 40.000000) rotate(-44.000000) translate(-26.000000, -40.000000) " x="23" y="37" width="6" height="6"></rect>
                <rect id="Rectangle-Copy-4" fill="#9EBABA" transform="translate(35.000000, 54.000000) rotate(-44.000000) translate(-35.000000, -54.000000) " x="32" y="51" width="6" height="6"></rect>
                <path d="M47.5910186,18.934 C47.6330186,17.868 47.3940186,16.818 46.8810186,15.848 C46.5240186,15.174 46.1230186,14.532 45.6880186,13.921 L46.7820186,11.065 L44.9150186,10.35 L44.2290186,12.142 C41.0610186,8.773 36.6140186,6.795 31.8490186,6.795 C25.5360186,6.795 19.7760186,10.264 16.8170186,15.848 C16.3040186,16.818 16.0640186,17.868 16.1070186,18.934 C15.8420186,19.042 15.6020186,19.207 15.4140186,19.432 C15.0760186,19.837 14.9350186,20.367 15.0280186,20.875 L21.3050186,57.768 C21.7150186,60.051 23.6970186,61.707 26.0150186,61.707 L37.6830186,61.707 C40.0010186,61.707 41.9830186,60.051 42.3940186,57.759 L48.6690186,20.885 C48.7630186,20.366 48.6220186,19.837 48.2840186,19.432 C48.0960186,19.207 47.8560186,19.042 47.5910186,18.934 L47.5910186,18.934 L47.5910186,18.934 L47.5910186,18.934 L47.5910186,18.934 Z M45.1130186,16.783 C45.4480186,17.416 45.6100186,18.1 45.5930186,18.795 L43.8210186,18.795 L44.8000186,16.239 C44.9060186,16.419 45.0150186,16.597 45.1130186,16.783 L45.1130186,16.783 L45.1130186,16.783 L45.1130186,16.783 L45.1130186,16.783 Z M18.5840186,16.783 C21.1940186,11.856 26.2770186,8.795 31.8490186,8.795 C36.3890186,8.795 40.6050186,10.829 43.4220186,14.248 L41.6810186,18.795 L18.1040186,18.795 C18.0870186,18.101 18.2490186,17.417 18.5840186,16.783 L18.5840186,16.783 L18.5840186,16.783 L18.5840186,16.783 L18.5840186,16.783 Z M37.8490186,43.379 C38.4013033,43.379 38.8490186,42.9312847 38.8490186,42.379 C38.8490186,41.8267153 38.4013033,41.379 37.8490186,41.379 C37.2967338,41.379 36.8490186,41.8267153 36.8490186,42.379 C36.8490186,42.9312847 37.2967338,43.379 37.8490186,43.379 L37.8490186,43.379 L37.8490186,43.379 L37.8490186,43.379 L37.8490186,43.379 Z M40.8490186,48.379 C41.4013033,48.379 41.8490186,47.9312847 41.8490186,47.379 C41.8490186,46.8267153 41.4013033,46.379 40.8490186,46.379 C40.2967338,46.379 39.8490186,46.8267153 39.8490186,47.379 C39.8490186,47.9312847 40.2967338,48.379 40.8490186,48.379 L40.8490186,48.379 L40.8490186,48.379 L40.8490186,48.379 L40.8490186,48.379 Z M39.8490186,37.379 C40.4013033,37.379 40.8490186,36.9312847 40.8490186,36.379 C40.8490186,35.8267153 40.4013033,35.379 39.8490186,35.379 C39.2967338,35.379 38.8490186,35.8267153 38.8490186,36.379 C38.8490186,36.9312847 39.2967338,37.379 39.8490186,37.379 L39.8490186,37.379 L39.8490186,37.379 L39.8490186,37.379 L39.8490186,37.379 Z M27.7070186,44.666 L29.8990186,42.618 C30.4830186,42.073 30.8200186,41.33 30.8460186,40.527 C30.8730186,39.725 30.5880186,38.962 30.0420186,38.378 L27.9940186,36.186 C26.8640186,34.976 24.9620186,34.914 23.7540186,36.042 L21.5620186,38.09 C20.3530186,39.219 20.2890186,41.121 21.4180186,42.33 L23.4660186,44.522 C24.0560186,45.154 24.8570186,45.472 25.6580186,45.472 C26.3940186,45.473 27.1300186,45.206 27.7070186,44.666 L27.7070186,44.666 L27.7070186,44.666 L27.7070186,44.666 L27.7070186,44.666 Z M24.9280186,43.157 L22.8800186,40.965 C22.5040186,40.562 22.5260186,39.928 22.9280186,39.551 L25.1200186,37.503 C25.3120186,37.323 25.5580186,37.234 25.8030186,37.234 C26.0710186,37.234 26.3370186,37.34 26.5340186,37.55 L28.5820186,39.742 C28.7630186,39.935 28.8570186,40.19 28.8490186,40.459 C28.8390186,40.728 28.7280186,40.976 28.5350186,41.156 L26.3430186,43.204 C25.9380186,43.582 25.3060186,43.56 24.9280186,43.157 L24.9280186,43.157 L24.9280186,43.157 L24.9280186,43.157 L24.9280186,43.157 Z M23.5580186,32.705 C23.5920186,32.707 23.6270186,32.707 23.6620186,32.707 C24.4260186,32.707 25.1480186,32.424 25.7070186,31.901 L27.8990186,29.853 C29.1080186,28.724 29.1720186,26.822 28.0430186,25.613 L25.9950186,23.421 C24.8660186,22.211 22.9630186,22.149 21.7550186,23.277 L19.5630186,25.325 C18.3540186,26.454 18.2900186,28.356 19.4190186,29.565 L21.4670186,31.757 C22.0120186,32.342 22.7550186,32.679 23.5580186,32.705 L23.5580186,32.705 L23.5580186,32.705 L23.5580186,32.705 L23.5580186,32.705 Z M20.9280186,26.786 L23.1200186,24.738 C23.3120186,24.558 23.5580186,24.469 23.8030186,24.469 C24.0710186,24.469 24.3370186,24.575 24.5340186,24.785 L26.5820186,26.977 C26.9580186,27.38 26.9360186,28.014 26.5340186,28.391 L24.3420186,30.439 C24.1490186,30.62 23.8940186,30.711 23.6250186,30.706 C23.3560186,30.696 23.1080186,30.585 22.9280186,30.392 L20.8800186,28.2 C20.5040186,27.797 20.5250186,27.163 20.9280186,26.786 L20.9280186,26.786 L20.9280186,26.786 L20.9280186,26.786 L20.9280186,26.786 Z M24.8490186,51.472 C25.4013033,51.472 25.8490186,51.0242847 25.8490186,50.472 C25.8490186,49.9197153 25.4013033,49.472 24.8490186,49.472 C24.2967338,49.472 23.8490186,49.9197153 23.8490186,50.472 C23.8490186,51.0242847 24.2967338,51.472 24.8490186,51.472 L24.8490186,51.472 L24.8490186,51.472 L24.8490186,51.472 L24.8490186,51.472 Z M40.4240186,57.414 C40.1860186,58.742 39.0320186,59.707 37.6830186,59.707 L26.0150186,59.707 C24.6650186,59.707 23.5120186,58.742 23.2750186,57.423 L17.0430186,20.795 L40.9160186,20.795 L36.7080186,31.781 C36.5790186,31.359 36.3650186,30.957 36.0440186,30.613 L33.9960186,28.421 C32.8660186,27.211 30.9630186,27.149 29.7560186,28.277 L27.5640186,30.325 C26.3550186,31.454 26.2910186,33.356 27.4200186,34.565 L29.4680186,36.757 C30.0130186,37.341 30.7560186,37.678 31.5590186,37.704 C31.5930186,37.706 31.6280186,37.706 31.6630186,37.706 C32.4270186,37.706 33.1490186,37.423 33.7080186,36.9 L35.3260186,35.389 L32.1580186,43.66 C31.9690186,43.842 27.5300186,55.745 27.5300186,55.745 C27.3510186,55.577 27.1140186,55.47 26.8500186,55.47 C26.2980186,55.47 25.8500186,55.918 25.8500186,56.47 C25.8500186,57.022 26.2980186,57.47 26.8500186,57.47 C26.9390186,57.47 27.0200186,57.441 27.1020186,57.419 L28.7830186,58.063 L29.9810186,54.935 C30.1010186,55.157 30.2390186,55.372 30.4200186,55.564 L32.4680186,57.756 C33.0130186,58.34 33.7560186,58.677 34.5590186,58.703 C34.5930186,58.705 34.6280186,58.705 34.6630186,58.705 C35.4270186,58.705 36.1490186,58.422 36.7080186,57.899 L38.9000186,55.851 C40.1090186,54.722 40.1730186,52.82 39.0440186,51.611 L36.9960186,49.419 C35.8670186,48.209 33.9640186,48.147 32.7560186,49.275 L31.8100186,50.158 C31.8100186,50.158 36.8210186,37.21 36.8000186,37.13 L43.0570186,20.793 L46.6570186,20.793 L40.4240186,57.414 L40.4240186,57.414 L40.4240186,57.414 L40.4240186,57.414 L40.4240186,57.414 Z M34.5340186,33.393 L32.3420186,35.441 C32.1480186,35.622 31.8990186,35.709 31.6250186,35.708 C31.3560186,35.698 31.1080186,35.587 30.9280186,35.394 L28.8800186,33.2 C28.5040186,32.797 28.5260186,32.163 28.9280186,31.786 L31.1200186,29.738 C31.3120186,29.558 31.5580186,29.469 31.8030186,29.469 C32.0710186,29.469 32.3370186,29.575 32.5340186,29.785 L34.5820186,31.977 C34.9580186,32.382 34.9370186,33.016 34.5340186,33.393 L34.5340186,33.393 L34.5340186,33.393 L34.5340186,33.393 L34.5340186,33.393 Z M31.9280186,52.786 L34.1200186,50.738 C34.3120186,50.558 34.5580186,50.469 34.8030186,50.469 C35.0710186,50.469 35.3370186,50.575 35.5340186,50.785 L37.5820186,52.977 C37.9580186,53.38 37.9360186,54.014 37.5340186,54.391 L35.3420186,56.439 C35.1480186,56.62 34.8980186,56.711 34.6250186,56.706 C34.3560186,56.696 34.1080186,56.585 33.9280186,56.392 L31.8800186,54.2 C31.5040186,53.797 31.5250186,53.163 31.9280186,52.786 L31.9280186,52.786 L31.9280186,52.786 L31.9280186,52.786 L31.9280186,52.786 Z M46.5550186,7.999 L48.5550186,9.999 L47.1410186,11.413 L45.1410186,9.413 L46.5550186,7.999 L46.5550186,7.999 L46.5550186,7.999 L46.5550186,7.999 L46.5550186,7.999 Z M49.1420186,9.415 L47.1420186,7.415 L48.5560186,6.001 L50.5560186,8.001 L49.1420186,9.415 L49.1420186,9.415 L49.1420186,9.415 L49.1420186,9.415 L49.1420186,9.415 Z M51.1420186,7.415 L49.1420186,5.415 L50.5560186,4.001 L52.5560186,6.001 L51.1420186,7.415 L51.1420186,7.415 L51.1420186,7.415 L51.1420186,7.415 L51.1420186,7.415 Z M51.1410186,3.414 L52.5550186,2 L54.5550186,4 L53.1410186,5.414 L51.1410186,3.414 L51.1410186,3.414 L51.1410186,3.414 L51.1410186,3.414 L51.1410186,3.414 Z" id="frappe" fill="#2F484D"></path>
            </g>
        </g>
    </g>
</svg>