<svg width="64" height="64" viewBox="0 0 64 64" xmlns="http://www.w3.org/2000/svg">
    <g fill="none" fill-rule="evenodd">
        <path d="M0 0h64v64H0z"/>
        <path d="m19.114 23.212 4.309-2.09 8.249-.876 6.949.877 5.952 2.09v5.766l-2.359 5.835-4.928 3.795-5.443 1.637-7.912-2.88-4.817-6.748-.541-3.96.541-3.446z" fill="#D9845F"/>
        <path d="M32.683 54.643V40.89a14.593 14.593 0 0 0 10.04-5.035 14.614 14.614 0 0 0 3.373-11.73L43.218 5.137a.973.973 0 0 0-.181-.42C41.654 2.036 32.07 2 31.63 2c-.437 0-9.94.036-11.388 2.683a1.05 1.05 0 0 0-.203.478L17.357 22.86a1.569 1.569 0 0 0-.086.496c0 .012.005.023.006.035l-.111.735A14.598 14.598 0 0 0 30.578 40.89v13.753c-3.368.075-11.579.574-11.579 3.672C19 61.822 29.521 62 31.631 62c2.109 0 12.63-.178 12.63-3.684 0-3.099-8.21-3.598-11.578-3.673zm7.903-49.308a7.692 7.692 0 0 1-.512.147l-.048.012c-.19.047-.4.094-.636.14l-.023.006c-.233.046-.495.09-.774.134l-.129.02a27.703 27.703 0 0 1-1.048.135c-.335.038-.689.073-1.07.105-.016 0-.03.003-.044.004a47.71 47.71 0 0 1-1.228.082l-.235.013a60.12 60.12 0 0 1-1.618.057 68.789 68.789 0 0 1-3.174.002l-.275-.007c-.476-.012-.928-.03-1.356-.051l-.235-.013c-.424-.023-.831-.05-1.208-.081l-.029-.002a35.309 35.309 0 0 1-1.08-.106l-.18-.02c-.32-.038-.62-.077-.895-.12-.046-.006-.087-.013-.13-.02-.274-.042-.53-.086-.759-.131l-.016-.003a14.205 14.205 0 0 1-.631-.14l-.085-.021a7.884 7.884 0 0 1-.474-.135l-.018-.006c1.321-.56 4.538-1.23 8.955-1.23 4.415 0 7.633.67 8.955 1.229zM21.85 7.267l.04.013c.182.067.38.133.6.197l.02.006c.224.064.468.125.734.184.017.003.032.008.049.012.26.057.545.11.85.162l.115.02a27.797 27.797 0 0 0 1.133.157c.347.04.717.078 1.11.111l.198.016c.404.033.832.061 1.286.084l.201.01c.475.023.972.042 1.504.055l.159.003a85.967 85.967 0 0 0 3.565-.001l.159-.003c.531-.013 1.03-.032 1.504-.055l.2-.01a51.95 51.95 0 0 0 1.286-.084l.198-.016c.394-.033.764-.07 1.112-.111l.166-.02a23.505 23.505 0 0 0 1.08-.157c.305-.052.59-.105.851-.162.017-.003.031-.008.048-.01a13.1 13.1 0 0 0 .735-.185l.02-.005a8.43 8.43 0 0 0 .6-.197c.012-.004.028-.008.04-.013l2.073 13.686c-3.308-1.335-9.125-1.69-11.888-1.69-2.743 0-8.497.348-11.817 1.66L21.85 7.267zM43.616 23.32c-1.03.56-4.673 1.416-12.02 1.416-7.345 0-10.987-.855-12.018-1.416 1.145-.784 5.581-1.952 12.019-1.952 6.439 0 10.873 1.168 12.019 1.952zM22.134 34.483a12.499 12.499 0 0 1-2.978-9.1c2.707 1.16 7.876 1.459 12.44 1.459 4.604 0 9.818-.305 12.506-1.488a12.501 12.501 0 0 1-2.975 9.13 12.514 12.514 0 0 1-9.496 4.357 12.511 12.511 0 0 1-9.497-4.358zm9.497 25.41c-5.883 0-9.423-.954-10.361-1.578.88-.587 4.055-1.463 9.308-1.569v1.19a1.052 1.052 0 1 0 2.105 0v-1.19c5.254.106 8.427.982 9.308 1.569-.937.624-4.477 1.579-10.36 1.579z" fill="#2F484D"/>
    </g>
</svg>
