<svg width="64" height="64" viewBox="0 0 64 64" xmlns="http://www.w3.org/2000/svg">
    <g fill="none" fill-rule="evenodd">
        <path d="M0 0h64v64H0z"/>
        <path d="m4.226 40.775 4.921-2.489c11.175-11.079 16.81-16.832 16.904-17.26.095-.428 1.17-2.262 3.224-5.5L48.97 35.007l-5.422 2.976-16.905 17.044-2.89 5.698c-1.643-.851-2.602-1.277-2.875-1.277-.274 0-.745-1.03-1.414-3.09l-2.83-1.33-.703-2.233-2.83-1.046L12.01 49l-2.343-1.155-1.323-2.119-3.804-2.829-.314-2.122z" fill-opacity=".7" fill="#BE8432"/>
        <path d="m20.169 39.6-.706-3.925L21.497 32l2.255 4.753 2.847-.571 2.698-.993-2.43 5.586 5.52 2.122-3.09 2.12-4.313-.9-4.815-4.517z" fill="#F1F5F5"/>
        <path d="M28.606 40.114a6.254 6.254 0 0 0 1.048-2.59l.99-3.588-3.587.991a6.244 6.244 0 0 0-2.587 1.046 6.235 6.235 0 0 0-1.136-2.884l-1.836-3.238-1.836 3.238a6.203 6.203 0 0 0 0 7.327l1.432 2.525.544.546 2.53 1.435a6.226 6.226 0 0 0 3.664 1.196 6.227 6.227 0 0 0 3.664-1.196l3.237-1.836-3.237-1.837a6.251 6.251 0 0 0-2.89-1.135zm-1.191-3.218.363-.093-.093.363a4.216 4.216 0 0 1-3.57 3.57l-.363.093.093-.364a4.216 4.216 0 0 1 3.57-3.569zm-6.11-2.667.192-.323.19.323a4.215 4.215 0 0 1 0 5.048l-.19.323-.191-.323a4.215 4.215 0 0 1 0-5.048zm9.052 9.05a4.224 4.224 0 0 1-5.05 0l-.323-.191.323-.192a4.224 4.224 0 0 1 5.05 0l.323.192-.323.191zM23.59 32.405a.997.997 0 0 0 1.414 0l3.509-3.509a.999.999 0 1 0-1.414-1.414l-3.51 3.509a.999.999 0 0 0 0 1.414zm3.345.898a.997.997 0 0 0 1.414 0l4.386-4.387a.999.999 0 1 0-1.414-1.414l-4.386 4.387a1 1 0 0 0 0 1.414zm8.97-1.901-4.386 4.387a.999.999 0 1 0 1.414 1.414l4.387-4.387a.999.999 0 1 0-1.414-1.414zm-4.322 1.478a.997.997 0 0 0 1.414 0l3.948-3.947a.999.999 0 1 0-1.414-1.414l-3.948 3.947a.999.999 0 0 0 0 1.414zm4 3.088-3.508 3.509a.999.999 0 1 0 1.414 1.414l3.509-3.509a.999.999 0 1 0-1.414-1.414zm-24.605 6.221 1.414-1.414 1.414 1.414-1.414 1.414-1.414-1.414zm2.123 2.123 1.414-1.415 1.415 1.414-1.414 1.415-1.415-1.414zm2.119 2.119 1.414-1.414 1.414 1.414-1.414 1.414-1.414-1.414zm2.12 2.122 1.415-1.414 1.414 1.414-1.414 1.414-1.414-1.414zm2.123 2.121 1.414-1.414 1.414 1.414-1.414 1.414-1.414-1.414zm3.535 3.536-1.414-1.414 1.414-1.414 1.414 1.414-1.414 1.414zm4.443-37.4a25.384 25.384 0 0 1-4.762 6.606L8.633 37.464l-5.541 2.523-.067.558c-.148 1.239.373 2.632 1.43 3.822.915 1.028 2.058 1.7 3.147 1.869.104.942.497 1.79 1.134 2.427.633.632 1.475 1.023 2.41 1.129.106.938.498 1.779 1.132 2.412.633.634 1.475 1.025 2.412 1.131.105.938.497 1.779 1.13 2.413.637.636 1.483 1.028 2.426 1.132.168 1.088.84 2.23 1.869 3.146 1.057.938 2.273 1.455 3.4 1.455.143 0 .283-.008.422-.024l.56-.067 2.493-5.512 14.076-14.076a25.367 25.367 0 0 1 6.606-4.761l3.063-1.531L28.97 13.746l-1.53 3.064zm2.079.313L47.357 34.96l-.581.291a27.354 27.354 0 0 0-7.126 5.136L25.827 54.21l-.707-.707-1.414 1.414 1.048 1.048-1.576 3.484c-.554-.099-1.18-.425-1.735-.919-.755-.67-1.241-1.526-1.24-2.178a1.442 1.442 0 0 0-.426-1.021 1.442 1.442 0 0 0-1.027-.424c-.617 0-1.142-.198-1.517-.573-.378-.378-.576-.906-.574-1.528a1.428 1.428 0 0 0-.415-1.027 1.429 1.429 0 0 0-1.037-.414c-.617 0-1.142-.198-1.518-.574-.378-.378-.576-.906-.574-1.528a1.426 1.426 0 0 0-.414-1.025 1.43 1.43 0 0 0-1.021-.415h-.006a1.954 1.954 0 0 1-1.527-.573c-.378-.378-.576-.906-.574-1.528a1.442 1.442 0 0 0-.424-1.016 1.465 1.465 0 0 0-1.02-.426h-.002c-.653 0-1.508-.486-2.178-1.24-.495-.557-.821-1.183-.92-1.736l4.76-2.168-.933.931 1.414 1.414 1.415-1.414-1.414-1.414-.043.043L24.093 24.83a27.394 27.394 0 0 0 5.137-7.126l.29-.581zm13.782-13.97 1.393 1.436-11.923 11.566-1.393-1.436L43.302 3.153zm6.472 29.944-1.451-1.377 10.949-11.54 1.45 1.377-10.948 11.54zm-.022-29.683-14.85 14.85-1.414-1.414L48.338 2l1.414 1.414zm4.244 0-16.97 16.97-1.414-1.414L52.58 2l1.415 1.414zm2.827 1.414L39.146 22.506l-1.414-1.414L55.409 3.414l1.414 1.414zm2.122 2.121L41.268 24.627l-1.414-1.414L57.53 5.535l1.414 1.414zm-15.556 19.8-1.414-1.414 16.97-16.97 1.414 1.414-16.97 16.97zm2.12 2.122-1.413-1.414 16.263-16.263 1.414 1.414L45.51 28.871zm2.137 2.114-1.432-1.397 14.069-14.421 1.432 1.397-14.07 14.421z" fill="#2F484D"/>
    </g>
</svg>
