<?xml version="1.0" encoding="UTF-8"?>
<svg width="64px" height="64px" viewBox="0 0 64 64" version="1.1" xmlns="http://www.w3.org/2000/svg" xmlns:xlink="http://www.w3.org/1999/xlink">
    <title>F4A89449-B3B8-401B-B1BA-773B0F88D79E</title>
    <g id="Site" stroke="none" stroke-width="1" fill="none" fill-rule="evenodd">
        <g id="icons" transform="translate(-120.000000, -3201.000000)">
            <g id="icon-movies" transform="translate(120.000000, 3201.000000)">
                <rect id="Rectangle" x="0" y="0" width="64" height="64"></rect>
                <path d="M9,22.5 L12.3509789,17.5017394 L15.76091,15.1154601 L19.6663054,14.7143239 L35.034668,14.7143239 L39.1850891,16.8297407 L42.4221992,20.3170338 L43.6662335,24.2042599 L43.666237,25.4577339 L49.5817184,22.1605339 L52.4208107,21.6484261 L54.5593033,22.5 L56.59655,24.7506638 L57,27.0812411 L57,35.0945053 L55.9491196,37.9878807 L53.4413681,39.6461792 L50.9513321,40.073513 L47.3600998,37.9878807 L43.666237,36.1875021 L42.8334732,39.6461792 L41.2182617,43.1935349 L37.6715965,45.8895073 L33.0325511,46.9153701 C25.2468403,46.9153701 21.3539848,46.9153701 21.3539848,46.9153701 C21.3539848,46.9153701 19.0425123,46.4677576 14.4195671,45.5725327 L9.71990585,40.6366043 L9,35.8445462 L9,22.5 Z" id="Path-48" fill="#9EBABA"></path>
                <g id="Vector" transform="translate(9.000000, 4.000000)" stroke="#2F484D" stroke-linecap="round" stroke-linejoin="round" stroke-width="2">
                    <path d="M0,32.1806442 L0,21.4492465 C-0.00104603294,18.0813543 1.57799434,14.9080422 4.26518544,12.8778436 C2.14523971,10.0933837 2.07573096,6.25577101 4.09345219,3.39636789 C6.11117376,0.536964685 9.75010368,-0.683809872 13.0840488,0.38023671 C16.4179944,1.44428325 18.6769344,4.54739447 18.6651422,8.04700127 C18.6685368,5.68505151 20.2246541,3.60649146 22.4900237,2.93797362 C24.7553928,2.269455 27.190693,3.17013411 28.4759074,5.15181051 C29.7611218,7.1334876 29.590272,9.72437979 28.0559712,11.5201338 C32.0692896,13.1903214 34.6791888,17.1159988 34.666237,21.462961 L34.666237,21.805817 L39.8399376,18.5315415 C41.487936,17.5000154 43.5667934,17.4473736 45.2648909,18.3941703 C46.962984,19.3409649 48.0110544,21.137064 48,23.0812411 L48,30.5486488 C48.0110544,32.4928272 46.962984,34.2889254 45.2648909,35.2357191 C43.5667934,36.1825159 41.487936,36.1298758 39.8399376,35.0983484 L34.666237,31.8446461 L34.666237,32.1875021 C34.6814088,38.0945832 29.9070576,42.8965593 23.9999842,42.9154678 L10.666309,42.9154678 C7.82834544,42.9063895 5.11022472,41.7702986 3.10991088,39.7571254 C1.10959714,37.7439505 -0.00905251056,35.0186055 0,32.1806442 L0,32.1806442 Z" id="Vector-19"></path>
                    <path d="M10.6663055,26.814847 L23.9999798,26.814847 M34.6662335,21.7851478 L34.6662335,31.8445462 M17.3999996,56.2113302 L17.3999996,42.9153701 M17.3999996,42.9153701 L30.6651026,56.2113302 M17.3999996,42.9153701 L4.00118263,56.2113302 M4.26518183,12.8606031 C6.10714106,11.4651296 8.3554289,10.711285 10.6663054,10.7143238 L18.20914,10.7143238 M19.3782794,10.7143239 C18.9090511,9.89757682 18.663096,8.97169827 18.6651386,8.02976048 C18.6660839,8.94396615 18.5118959,9.85170473 18.20914,10.7143239 M19.3782794,10.714324 L23.9999797,10.714324 C25.391589,10.7123284 26.7699134,10.9849641 28.0559676,11.5166073 M19.3817079,10.7143239 L18.2125686,10.7143239" id="Vector-20"></path>
                </g>
            </g>
        </g>
    </g>
</svg>