<?xml version="1.0" encoding="UTF-8"?>
<svg width="64px" height="64px" viewBox="0 0 64 64" version="1.1" xmlns="http://www.w3.org/2000/svg" xmlns:xlink="http://www.w3.org/1999/xlink">
    <title>7C2F78EB-16A3-417D-9F3D-E6E35E2CA096</title>
    <g id="Site" stroke="none" stroke-width="1" fill="none" fill-rule="evenodd">
        <g id="icons" transform="translate(-120.000000, -3409.000000)">
            <g id="icon-casinos" transform="translate(120.000000, 3409.000000)">
                <rect id="Rectangle" x="0" y="0" width="64" height="64"></rect>
                <g id="Vector" transform="translate(9.000000, 7.000000)">
                    <polygon id="Path-51" fill-opacity="0.7" fill="#BE8432" points="22.9989944 0 31.4276047 0 32.9139938 2.12784576 28.7977007 13.3329377 31.4276047 13.3329377 36.6777007 17.3069611 44.8571701 29.5859604 46.6720667 35.2695541 46.6720667 40.5604324 43.5733337 45.6962891 39.4934387 48.7857285 36.6777007 50 10.011034 50 2.65923309 45.6962891 0 38.7952524 0 34.1918827 4.24621582 25 11.6388016 16.0390549 15.4258194 13.3329377 17.1863785 12.4998022 13.750473 3.45326233 14.6496506 0"></polygon>
                    <g id="Group_2603" stroke="#2F484D" stroke-linecap="round" stroke-linejoin="round" stroke-width="2">
                        <path d="M22.999513,37.7337363 C23.9904591,37.7337363 25.9708666,37.2612915 25.9708666,35.3715102 C25.9708666,32.8993435 22.999513,33.1073388 20.7709976,30.9427074 C20.2874813,30.6054815 20.0078301,30.046179 20.0281592,29.4570306 C20.0281592,27.2285153 22.0085664,27.1230322 22.999513,27.1230322 M22.9995129,37.735222 C22.1201161,37.6992399 21.2965887,37.2943648 20.7310582,36.6199697 C20.1655277,35.9455747 19.9103511,35.0640952 20.0281592,34.1918827 M22.9995129,37.7337363 L22.9995129,39.8567685 M22.9995129,27.1230322 C23.850283,27.0750806 24.6776409,27.4115912 25.2534136,28.0397591 C25.8291864,28.667927 26.0925476,29.5213913 25.9708667,30.3647791 M22.9995129,27.1230322 L22.9995129,25" id="Vector-2"></path>
                        <path d="M16.1276997,0 L30.5610326,0 C34.2576983,0 32.2277014,5.5466665 30.7310333,8.93 L29.0276989,12.81 L28.7976994,13.333334 C30.4110613,13.255045 32.0063405,13.701816 33.3443656,14.6066665 C38.3491649,19.186095 42.4108342,24.699411 45.3010327,30.836665 C46.427421,33.1061185 46.8742221,35.652645 46.5877008,38.17 C46.2438477,44.5863275 41.0961992,49.6994 34.6777002,50 L12.011034,50 C5.59086273,49.708292 0.435548487,44.600525 0.0843670367,38.183335 C-0.20215518,35.66598 0.244644892,33.119452 1.37103368,30.85 C4.26468389,24.70655 8.33217317,19.188489 13.3443672,14.6066665 C14.6823928,13.701816 16.2776687,13.255045 17.8910334,13.333334 L17.6243665,12.73 L15.9577009,8.93 C14.4676994,5.5466665 12.4277002,0 16.1276997,0 Z" id="Vector-12"></path>
                        <path d="M28.7977007,13.3333333 L17.891034,13.3333333 M36.6777007,9.99999996 C34.2939663,11.3388441 31.711298,12.2875105 29.0277007,12.8099999 C25.2582407,13.53269 21.3833167,13.5055053 17.6243673,12.73 C14.96421,12.206345 12.3978004,11.2860781 10.011034,9.99999996" id="Vector-13"></path>
                    </g>
                </g>
            </g>
        </g>
    </g>
</svg>