<?xml version="1.0" encoding="UTF-8"?>
<svg width="64px" height="64px" viewBox="0 0 64 64" version="1.1" xmlns="http://www.w3.org/2000/svg" xmlns:xlink="http://www.w3.org/1999/xlink">
    <title>FF6916CD-75F4-4AA1-94D4-96ECEE0DDE7F</title>
    <g id="Site" stroke="none" stroke-width="1" fill="none" fill-rule="evenodd">
        <g id="icons" transform="translate(-360.000000, -621.000000)">
            <g id="icon-cheese" transform="translate(360.000000, 621.000000)">
                <rect id="Rectangle" x="0" y="0" width="64" height="64"></rect>
                <circle id="Oval" fill="#9EBABA" cx="32" cy="26" r="3"></circle>
                <circle id="Oval-Copy" fill="#9EBABA" cx="47" cy="42" r="3"></circle>
                <circle id="Oval-Copy-2" fill="#9EBABA" cx="18" cy="41" r="3"></circle>
                <circle id="Oval-Copy-3" fill="#9EBABA" cx="13" cy="26" r="2"></circle>
                <circle id="Oval-Copy-4" fill="#9EBABA" cx="39" cy="36" r="2"></circle>
                <circle id="Oval-Copy-5" fill="#9EBABA" cx="40" cy="49" r="2"></circle>
                <path d="M33.1175987,35.7035871 C33.0180764,35.4440085 32.9000861,35.1905859 32.7697838,34.9443453 C32.6856516,34.7853149 32.5881814,34.6344925 32.4917371,34.4805921 C32.422995,34.3708099 32.3542528,34.2620536 32.2803806,34.1553493 C32.1695723,33.9963189 32.0536341,33.8434446 31.9305138,33.6926222 C31.8597196,33.606438 31.7837954,33.5243578 31.7099232,33.4412516 C31.4780466,33.182699 31.23078,32.9426144 30.9650454,32.7179198 C30.8696272,32.6368656 30.7783129,32.5506814 30.6787907,32.4747572 C30.5536184,32.379339 30.4243421,32.2962328 30.2940398,32.2090226 C30.1411654,32.1064223 29.985213,32.0099781 29.8261826,31.9207159 C29.7174264,31.8601817 29.6096961,31.8006736 29.4978618,31.7462955 C29.2136591,31.6077851 28.9253524,31.4836388 28.6288377,31.3923246 C28.3867011,31.3174264 28.1466165,31.2661263 27.9075579,31.2261122 C27.8583098,31.2179042 27.8090617,31.2107221 27.7598136,31.2045661 C27.2714364,31.137876 26.7943452,31.143006 26.3418781,31.2199562 C26.3316181,31.2220082 26.3203321,31.2240602 26.310072,31.2261122 C25.7139646,31.3328164 25.1609492,31.555459 24.6879621,31.9042998 C24.640766,31.9391839 24.6079339,31.987406 24.5617638,32.0233161 C24.4345395,32.1259164 24.3186012,32.2418547 24.2057409,32.361897 C24.1267387,32.4460292 24.0405545,32.5219534 23.9707863,32.6132676 C23.822016,32.804104 23.6896616,33.0103305 23.5757754,33.2350251 C23.5737234,33.2391291 23.5747494,33.2432331 23.5726973,33.2473371 C23.2761826,33.8372886 23.1120222,34.5154762 23.1120222,35.262406 C23.1120222,38.0336388 25.2686795,40.8736137 28.0214442,41.7262218 C28.5416275,41.8873042 29.0597587,41.9663064 29.558396,41.9663064 C30.4530701,41.9663064 31.2872102,41.7108318 31.9623198,41.2132206 C32.9780623,40.4642387 33.5382597,39.2709978 33.5382597,37.8551144 C33.5382597,37.1297306 33.3843593,36.4022948 33.1165727,35.7046131 C33.1175987,35.7046131 33.1175987,35.7046131 33.1175987,35.7035871 L33.1175987,35.7035871 L33.1175987,35.7035871 L33.1175987,35.7035871 L33.1175987,35.7035871 Z M25.7016525,33.7582864 C25.7991228,33.6556861 25.9109571,33.5705279 26.0309994,33.4966557 C26.0997415,33.4535636 26.1746397,33.4207315 26.2505639,33.3878995 C26.3552161,33.3417294 26.4629464,33.2996632 26.5788847,33.2719612 C26.6640429,33.2524671 26.7533051,33.2442591 26.8435933,33.2350251 C26.9769737,33.2206611 27.110354,33.207323 27.2529683,33.215531 C27.2909304,33.217583 27.3299185,33.2206611 27.3689066,33.2257911 C27.5792371,33.2463111 27.7967497,33.2842732 28.0224702,33.3540414 C28.2348527,33.4197055 28.4410792,33.5099938 28.6442277,33.610542 C28.6862938,33.6310621 28.7273339,33.6526081 28.768374,33.6741542 C29.180827,33.8957707 29.568656,34.1820254 29.9133928,34.5175282 C29.9308349,34.5349703 29.9493029,34.5513863 29.966745,34.5698544 C30.3001958,34.9022792 30.5895285,35.2798481 30.8265351,35.6799891 C30.8614191,35.7405232 30.8963032,35.8000314 30.9291353,35.8615915 C30.9506814,35.9016056 30.9660714,35.9436717 30.9876175,35.9836858 C30.4766682,36.5541432 29.6158521,36.7224076 28.6288377,36.4197369 C27.4068687,36.0401159 26.284422,35.0397635 25.6575344,33.8013785 C25.6718985,33.7849624 25.6872885,33.7726504 25.7016525,33.7582864 L25.7016525,33.7582864 L25.7016525,33.7582864 L25.7016525,33.7582864 L25.7016525,33.7582864 Z M55.3028508,40.2898183 C55.3192669,40.2190241 55.3500469,40.15849 55.374671,40.0928258 C55.3982691,40.0292137 55.4146851,39.9614975 55.4444392,39.9040414 C55.4464912,39.8999374 55.4505952,39.8968594 55.4526472,39.8927553 C55.5090773,39.7870771 55.5788455,39.6926849 55.6578477,39.6075267 C55.7614739,39.4956924 55.8856202,39.4074562 56.0251566,39.338714 C56.0528587,39.32435 56.0836387,39.3140899 56.1123668,39.3017779 C56.2457471,39.2463738 56.3904135,39.2084117 56.5473919,39.1909696 C56.5689379,39.1889176 56.588432,39.1827616 56.611004,39.1807096 C56.7423323,39.1694236 56.8808427,39.1766056 57.022431,39.1930216 C57.0388471,39.1950736 57.0542371,39.1930216 57.0706531,39.1950736 L57.0716791,39.1950736 C57.0829652,39.1960996 57.0973292,39.2022557 57.1096412,39.2043077 C57.2368655,39.2248277 57.3630639,39.2556078 57.5026002,39.3007519 C57.5846804,39.327428 57.6749686,39.3664161 57.7642308,39.4033522 C57.818609,39.4259242 57.8740131,39.4443923 57.9283912,39.4679903 C57.9868734,39.4946664 58.0474075,39.5090304 58.1089677,39.5233944 C58.1305137,39.5285245 58.1510338,39.5387845 58.1725798,39.5428885 C58.247478,39.5562265 58.3223762,39.5582785 58.3972744,39.5552005 C58.4065084,39.5552005 58.4157424,39.5572525 58.4249764,39.5562265 C58.5050046,39.5510965 58.5840068,39.5346805 58.660957,39.5100564 C58.665061,39.5090304 58.669165,39.5090304 58.6742951,39.5080044 C58.7245692,39.4915884 58.7707393,39.4638863 58.8179354,39.4392622 C58.8476895,39.4238722 58.8794956,39.4146382 58.9071976,39.3961701 C59.1165021,39.2617638 59.2621945,39.0565633 59.3319627,38.8257127 C59.3596647,38.7313205 59.3781328,38.6348763 59.3781328,38.534328 L59.3781328,36.2422384 C59.3781328,34.034281 58.3408442,31.9104559 56.60177,30.5510025 L38.7749765,13.6876254 C38.3984335,13.3316025 37.8166901,13.3110824 37.4186012,13.6404292 C37.0974624,13.9051379 36.6224232,13.959516 36.0776159,13.7902256 C34.8033208,13.3952146 33.7270441,12.0008772 33.7270441,10.7450502 C33.7270441,10.4854715 33.7773183,10.254621 33.8758145,10.0596805 C34.079989,9.65440952 33.9938048,9.16398032 33.665484,8.85207556 L30.6079965,5.9608005 C30.5813205,5.93617644 30.5536184,5.91257838 30.5248903,5.89103233 C28.1373825,4.07090388 25.2081453,3.50147249 23.021734,4.45975883 L7.84715695,11.7802867 C6.12142074,12.5261905 5.00513001,14.2744988 5.001026,16.2475016 L5,16.2516056 L5,16.2608396 L5,32.4162751 C5,32.7209978 5.13543233,33.0093045 5.3693609,33.205271 C5.60328947,33.3991855 5.90903822,33.4792137 6.21068296,33.4258616 C6.55234179,33.3612234 6.91657268,33.3889255 7.28901159,33.5048637 C8.82904135,33.9819549 10.1300125,35.668703 10.1300125,37.1902647 C10.1300125,37.7771382 9.92789003,38.2501253 9.56058114,38.52099 C9.15018013,38.8236607 8.56022869,38.8770129 7.89537907,38.6707864 C7.48805607,38.5445881 7.07457707,38.3147635 6.66930608,37.9884947 C6.36047932,37.7422541 5.93879229,37.690954 5.58174342,37.8633224 C5.22572055,38.0336388 5,38.3937657 5,38.7877506 L5,41.0069941 C5,43.2139255 6.49488565,45.1294721 8.59511278,45.6517074 L53.4150062,58.8543076 C53.8048872,58.9528039 54.1988721,59 54.5897791,59 C55.6455357,59 56.6766682,58.6501331 57.5333803,57.9811795 C58.7071271,57.0649593 59.3791588,55.6870379 59.3791588,54.1983083 L59.3791588,45.6414474 C59.3791588,45.3890508 59.2878446,45.1561482 59.1339442,44.9765978 C58.9800438,44.7960213 58.7645833,44.667771 58.5152647,44.6277569 C58.4937186,44.6246789 58.4721726,44.6154449 58.4506265,44.6113409 C57.5415883,44.4410245 56.6428101,43.7997729 56.0292606,42.9635808 C55.7358239,42.5624139 55.5193374,42.1171288 55.386983,41.6595317 C55.3500469,41.5302553 55.3090068,41.402005 55.2874608,41.2717027 C55.2577067,41.0880483 55.2453947,40.9095238 55.2484727,40.7422854 C55.2505247,40.6540492 55.2669407,40.575047 55.2772008,40.4929668 C55.2854088,40.4252506 55.2874608,40.3534305 55.3028508,40.2898183 L55.3028508,40.2898183 L55.3028508,40.2898183 L55.3028508,40.2898183 Z M8.69976503,13.6455593 L23.8784461,6.32297938 C25.3466557,5.68172782 27.4458568,6.14035094 29.2382832,7.48954423 L31.7725094,9.88628608 C31.7078712,10.1612548 31.6760651,10.4475095 31.6760651,10.7450502 C31.6760651,12.8924734 33.3433192,15.0901708 35.4722744,15.7498904 C36.3351425,16.0176771 37.1898026,15.995105 37.9182644,15.7006423 L54.2481202,31.149162 L36.5967731,25.8919252 C36.146358,24.1446429 34.7202146,22.550235 32.9636983,22.0074797 C31.8135495,21.6514568 30.6726347,21.8043312 29.8272086,22.4250627 C29.4116776,22.7308114 29.0936168,23.1299264 28.8791823,23.5947056 L8.20625783,17.4417685 C7.57116228,17.3196742 7.20180138,16.8825972 7.11048715,16.1407974 C7.10433114,16.0946272 7.08175908,16.0525611 7.06842105,16.007417 C7.15152725,14.9598685 7.75584273,14.0539083 8.69976503,13.6455593 L8.69976503,13.6455593 L8.69976503,13.6455593 L8.69976503,13.6455593 Z M34.7068765,27.0123199 C34.7068765,27.3375627 34.6319784,27.7818218 34.2728775,28.0455044 C33.9568687,28.279433 33.4931156,28.3173951 32.9636983,28.1542607 C32.8046679,28.1050126 32.6476895,28.0403744 32.4968671,27.9613722 C31.5888549,27.4914631 30.8542371,26.5403587 30.6623747,25.5872024 C30.6305686,25.430224 30.6141525,25.2732457 30.6141525,25.1183193 C30.6182566,25.0957472 30.6315946,24.9839129 30.6336466,24.9623669 C30.6356986,24.9377428 30.6264646,24.9151708 30.6274906,24.8915727 C30.6592967,24.605318 30.7629229,24.2852052 31.0471256,24.0759007 C31.2348841,23.9373904 31.4749686,23.8676222 31.7499373,23.8676222 C31.9387218,23.8676222 32.1439223,23.9004543 32.3583568,23.9671445 C33.5505717,24.3365054 34.5560542,25.5779684 34.6832785,26.7650533 C34.6843045,26.7742873 34.6822525,26.7824953 34.6822525,26.7917294 L34.7068765,27.0123199 L34.7068765,27.0123199 L34.7068765,27.0123199 L34.7068765,27.0123199 Z M30.7444549,39.5634085 C30.2160636,39.9532895 29.4650297,40.0240837 28.6288377,39.767583 C27.3196585,39.361286 26.1664317,38.2337093 25.5785322,36.9594142 C26.30802,37.6037438 27.1421601,38.105459 28.0214442,38.3783756 C28.5406015,38.538432 29.0536027,38.6164082 29.5450579,38.6164082 C30.2396616,38.6164082 30.8891212,38.4542998 31.4585526,38.1598371 C31.3959664,38.7651786 31.1548559,39.2617638 30.7444549,39.5634085 L30.7444549,39.5634085 L30.7444549,39.5634085 L30.7444549,39.5634085 Z M47.2220551,38.7149045 C46.1078164,38.3701676 45.0048637,38.518938 44.1902177,39.1201755 C43.4094298,39.6957629 42.9620927,40.6427632 42.9620927,41.7190398 C42.9620927,43.7864349 44.5667606,45.902052 46.6156876,46.5361216 C47.0106986,46.6582159 47.4036575,46.71875 47.7843045,46.71875 C48.4758302,46.71875 49.1222117,46.5197055 49.647525,46.1318766 C50.4283129,45.5562892 50.87565,44.6103149 50.87565,43.5340382 C50.874624,41.4656172 49.2699561,39.347948 47.2220551,38.7149045 L47.2220551,38.7149045 L47.2220551,38.7149045 L47.2220551,38.7149045 Z M48.428634,44.4800125 C48.1393013,44.6934211 47.7094063,44.7283052 47.2210291,44.5764568 C46.0236842,44.2060699 45.0130717,42.8968907 45.0130717,41.7190398 C45.0130717,41.4194471 45.0807879,41.0121241 45.4070567,40.7710135 C45.5783991,40.6458412 45.7969376,40.581203 46.0483082,40.581203 C46.2237547,40.581203 46.4135651,40.6119831 46.6146616,40.6745693 C47.8120065,41.0449562 48.822619,42.3541354 48.822619,43.5330122 C48.822619,43.832605 48.7549028,44.239928 48.428634,44.4800125 L48.428634,44.4800125 L48.428634,44.4800125 L48.428634,44.4800125 Z M18.4939849,36.6628995 C17.3807722,36.3181626 16.2767935,36.466933 15.4621475,37.0681705 C14.6813596,37.6437579 14.2340225,38.5907582 14.2340225,39.6670348 C14.2340225,41.7344298 15.8386905,43.850047 17.8876175,44.4841166 C18.2826284,44.6062109 18.6755874,44.666745 19.0562343,44.666745 C19.74776,44.666745 20.3941416,44.4677005 20.9194549,44.0798716 C21.7002428,43.5042842 22.1475799,42.5583099 22.1475799,41.4820332 C22.1465539,39.4136122 20.5418859,37.295943 18.4939849,36.6628995 L18.4939849,36.6628995 L18.4939849,36.6628995 L18.4939849,36.6628995 Z M19.7005639,42.4280075 C19.4112312,42.6414161 18.9813361,42.6752741 18.4929589,42.5244518 C17.295614,42.1540649 16.2850016,40.8448857 16.2850016,39.6670348 C16.2850016,39.3674421 16.3527177,38.9601191 16.6789865,38.7190085 C16.8503289,38.5938362 17.0688675,38.529198 17.3202381,38.529198 C17.4956845,38.529198 17.685495,38.5599781 17.8865915,38.6225642 C19.0839364,38.9929511 20.0945489,40.3021303 20.0945489,41.4810072 C20.0945489,41.7806 20.0268327,42.187923 19.7005639,42.4280075 L19.7005639,42.4280075 L19.7005639,42.4280075 L19.7005639,42.4280075 Z M40.0400376,45.8312578 C39.2089755,45.5757832 38.3738095,45.6876175 37.75,46.1482926 C37.1497885,46.5915257 36.8060777,47.3117795 36.8060777,48.1264255 C36.8060777,49.6192591 37.9603305,51.1449248 39.4336701,51.6014959 C39.7250548,51.6917842 40.0164395,51.7369283 40.2996162,51.7369283 C40.8249295,51.7369283 41.3184367,51.5840539 41.7237077,51.2854872 C42.3239191,50.8422541 42.668656,50.1209743 42.668656,49.3063283 C42.666604,47.8124687 41.5123512,46.286803 40.0400376,45.8312578 L40.0400376,45.8312578 L40.0400376,45.8312578 L40.0400376,45.8312578 Z M40.5048167,49.6315711 C40.4145285,49.6982613 40.23703,49.7013393 40.0400376,49.6408051 C39.420332,49.4489427 38.8580827,48.7266369 38.8580827,48.1253994 C38.8580827,48.0515273 38.8693687,47.8719768 38.9678649,47.8001567 C39.0140351,47.7652726 39.0848292,47.7478305 39.1710134,47.7478305 C39.2489896,47.7478305 39.3382518,47.7621946 39.4326441,47.7909226 C40.0523496,47.9827851 40.614599,48.7040649 40.614599,49.3053023 C40.614599,49.3791745 40.6033129,49.5576989 40.5048167,49.6315711 L40.5048167,49.6315711 L40.5048167,49.6315711 L40.5048167,49.6315711 Z M38.7011043,39.4023261 C38.992489,39.4926144 39.2838737,39.5377585 39.5680764,39.5377585 C40.0923637,39.5377585 40.5868969,39.3848841 40.9921679,39.0863174 C41.5923793,38.6430843 41.9360902,37.9228305 41.9360902,37.1081845 C41.9360902,35.6153509 40.7818374,34.0896852 39.3084978,33.6331141 C38.4743577,33.3755874 37.6412437,33.4904997 37.0194862,33.9501488 C36.4192747,34.3933819 36.0745379,35.1146617 36.0745379,35.9293077 C36.0735119,37.4200893 37.2277647,38.946781 38.7011043,39.4023261 L38.7011043,39.4023261 L38.7011043,39.4023261 L38.7011043,39.4023261 Z M38.2363252,35.6020129 C38.2835213,35.5671288 38.3543154,35.5496867 38.4394736,35.5496867 C38.5174498,35.5496867 38.6067121,35.5640508 38.7011043,35.5927788 C39.3208098,35.7846413 39.8830592,36.5069471 39.8830592,37.1081845 C39.8830592,37.1820567 39.8717731,37.3616072 39.7732769,37.4334273 C39.6850407,37.5001175 39.5054903,37.5021695 39.3084978,37.4426614 C38.6887923,37.2507989 38.1265429,36.5295191 38.1265429,35.9282817 C38.1255169,35.8544095 38.1368029,35.674859 38.2363252,35.6020129 L38.2363252,35.6020129 L38.2363252,35.6020129 L38.2363252,35.6020129 Z M16.2850016,26.3331062 C16.2850016,24.7356203 15.0486685,23.1011983 13.4696507,22.6107692 C12.5842105,22.3347745 11.6997964,22.4589208 11.0431548,22.94422 C10.4101112,23.4110511 10.0458803,24.173371 10.0458803,25.0362391 C10.0458803,26.634751 11.2832393,28.269173 12.8622572,28.7575502 C13.173136,28.8539944 13.4829887,28.9011905 13.7836074,28.9011905 C14.3386748,28.9011905 14.8619361,28.7401081 15.2887531,28.4251253 C15.9228227,27.9582942 16.2850016,27.1959743 16.2850016,26.3331062 L16.2850016,26.3331062 L16.2850016,26.3331062 L16.2850016,26.3331062 Z M14.0708881,26.7722353 C13.9446898,26.8656015 13.7169173,26.8758616 13.4696507,26.7978854 C12.7391369,26.5711388 12.0978853,25.7493108 12.0978853,25.0362391 C12.0978853,24.9161968 12.1194314,24.6997103 12.2599937,24.595058 C12.3297619,24.5437579 12.4292841,24.5181078 12.5462484,24.5181078 C12.6416667,24.5181078 12.7483709,24.5355499 12.8622572,24.5704339 C13.592771,24.7971805 14.2329965,25.6200345 14.2329965,26.3331062 C14.2329965,26.4531485 14.2124765,26.6696351 14.0708881,26.7722353 L14.0708881,26.7722353 L14.0708881,26.7722353 L14.0708881,26.7722353 Z M57.3251018,54.1993343 C57.3251018,55.0509164 56.9403508,55.8409383 56.2683192,56.3641996 C55.5962875,56.8905388 54.7395754,57.0700893 53.9516055,56.8761748 L9.13273809,43.6735746 C7.9076911,43.3667998 7.05200501,42.2710292 7.05200501,41.0069941 L7.05200501,40.550423 C7.1310072,40.579151 7.2100094,40.6068531 7.28901159,40.6304511 C8.57151472,41.0285401 9.84170582,40.8602757 10.7774201,40.171828 C11.6823543,39.5049264 12.1809915,38.4450658 12.1809915,37.1902647 C12.1809915,34.7688988 10.2982769,32.2890508 7.89537907,31.545199 C7.61425438,31.4579888 7.33107769,31.3974546 7.05097901,31.3666745 L7.05097901,19.2300909 C7.26130952,19.3203791 7.48497807,19.3880953 7.71890664,19.4322134 L28.5939536,25.6508146 C28.6001096,25.7000627 28.6165257,25.7482848 28.6247337,25.7975329 C28.6421757,25.9052632 28.6678258,26.0119675 28.6924498,26.1196977 C28.7263079,26.2674421 28.765296,26.4121084 28.8135181,26.5578008 C28.8494282,26.6675831 28.8904683,26.7742873 28.9345864,26.8809916 C28.9910166,27.0195019 29.0525767,27.1559602 29.1213189,27.2903666 C29.174671,27.3970708 29.2311012,27.5006971 29.2916353,27.6032973 C29.3685855,27.7335997 29.4506657,27.857746 29.5378759,27.9818923 C29.6066181,28.0803885 29.6753602,28.1778587 29.7502584,28.273277 C29.8456767,28.3933193 29.9482769,28.5051535 30.0529292,28.6169878 C30.1339834,28.704198 30.2129856,28.7924342 30.2991698,28.8734884 C30.4140821,28.9832707 30.5372024,29.081767 30.6613487,29.1812892 C30.7485589,29.2520834 30.8326911,29.3259555 30.9240053,29.3916197 C31.0666196,29.493194 31.217442,29.5793782 31.3692904,29.6655624 C31.4513706,29.7127585 31.5293468,29.7671366 31.614505,29.8102287 C31.8545896,29.931297 32.1018562,30.0349233 32.3573308,30.1139255 C32.6148574,30.1939537 32.8713581,30.2390978 33.1247807,30.2678258 C33.1935228,30.2760339 33.260213,30.2791119 33.3279292,30.2842419 C33.4069314,30.2893719 33.4879856,30.3027099 33.5669878,30.3027099 C33.7075501,30.3027099 33.8440084,30.2883459 33.9804668,30.2729559 C34.0061168,30.2698779 34.0327929,30.2709039 34.058443,30.2667998 C34.2933975,30.2339678 34.5180921,30.1724076 34.7345786,30.0934054 C34.7848527,30.0749374 34.8341008,30.0544173 34.883349,30.0328713 C35.0977835,29.941557 35.305036,29.8358788 35.4927945,29.6973685 C35.6743969,29.5629621 35.8313753,29.4059837 35.9750156,29.2387453 C36.0129777,29.1956532 36.0478618,29.1505091 36.0837719,29.105365 C36.2079182,28.9442826 36.3197525,28.7729402 36.4100407,28.5872337 C36.4182487,28.5708177 36.4285087,28.5574797 36.4367168,28.5410636 C36.5116149,28.3810072 36.5752271,28.2147948 36.6244752,28.0393484 L55.1551065,33.5551379 C56.4140115,33.8249765 57.3271538,34.9535793 57.3271538,36.2412124 L57.3271538,37.1594847 C57.010119,37.1174186 56.7033442,37.1122886 56.4068295,37.1379386 C56.1523809,37.1605107 55.9092183,37.2107848 55.6763157,37.279527 C55.5952615,37.303125 55.5183113,37.3369831 55.4403352,37.3667372 C55.2782268,37.4272713 55.1212484,37.4970395 54.971452,37.5811717 C54.8986058,37.6222118 54.8278117,37.6642779 54.7580435,37.710448 C54.6010651,37.8151003 54.4563988,37.9330906 54.3178884,38.0633929 C54.2830043,38.096225 54.2409382,38.117771 54.2070801,38.1526551 C54.1957941,38.1639411 54.1896381,38.1793312 54.1783521,38.1916432 C54.159884,38.2111372 54.138338,38.2244753 54.1198699,38.2449953 L54.1178179,38.2470473 C54.0203477,38.3547776 53.9505795,38.4881579 53.8664473,38.6092262 C53.7987311,38.7077225 53.719729,38.7980107 53.6622728,38.9036889 C53.6520128,38.922157 53.6376488,38.935495 53.6284147,38.9529371 C53.5453085,39.1119674 53.4960604,39.2874139 53.4365523,39.4587563 C53.4067982,39.5459665 53.3626801,39.6259947 53.339082,39.7162829 C53.2785479,39.9420035 53.2508458,40.1831141 53.2303258,40.4262766 C53.2241697,40.4950188 53.2057017,40.558631 53.2026237,40.6283991 C53.2026237,40.6396852 53.1985197,40.6499452 53.1985197,40.6612312 C53.1913377,40.9249139 53.2169877,41.2009085 53.2559758,41.4789552 C53.2621318,41.5210213 53.2570018,41.5600094 53.2631578,41.6020755 C53.31138,41.8944862 53.3883301,42.1817669 53.4837484,42.4649436 C53.4909304,42.4854637 53.4919564,42.5059837 53.4991384,42.5254778 C53.5329965,42.623974 53.5781406,42.7255483 53.6550908,42.8917607 C53.7074169,43.014881 53.757691,43.1380013 53.8182252,43.2580436 C53.8397712,43.3042137 53.8572133,43.3514098 53.8818374,43.3975799 C53.9403195,43.5073622 54.0100877,43.6099624 54.0767778,43.7135887 C54.13526,43.8090069 54.1937421,43.9033991 54.2563283,43.9957394 L54.2553023,43.9967654 C54.2963424,44.0655075 54.3394345,44.1342497 54.3815006,44.1896538 C54.548739,44.4184524 54.7344454,44.6328869 54.8914238,44.7970473 C54.9129699,44.8226974 54.958114,44.8770755 54.982738,44.9016996 C55.0535322,44.9745458 55.1304824,45.0361059 55.2033286,45.1048481 C55.2371867,45.1366542 55.2720707,45.1684602 55.3069548,45.2002663 C55.4782972,45.3551927 55.6547697,45.497807 55.8373981,45.6311874 C55.8702302,45.6547854 55.9020363,45.6794095 55.9348684,45.7030075 C56.1267308,45.8374139 56.3237233,45.9584822 56.5248198,46.0672384 C56.5555999,46.0836545 56.584328,46.1031485 56.615108,46.1185385 C56.8490366,46.2396068 57.0870692,46.3483631 57.3292058,46.4335213 L57.3292058,54.1993343 L57.3251018,54.1993343 L57.3251018,54.1993343 L57.3251018,54.1993343 L57.3251018,54.1993343 Z" id="cheese-1" fill="#2F484D"></path>
            </g>
        </g>
    </g>
</svg>