<?xml version="1.0" encoding="UTF-8"?>
<svg width="64px" height="64px" viewBox="0 0 64 64" version="1.1" xmlns="http://www.w3.org/2000/svg" xmlns:xlink="http://www.w3.org/1999/xlink">
    <title>DD12BD4D-3A09-42B2-97A6-E3C8D84AE6DD</title>
    <g id="Site" stroke="none" stroke-width="1" fill="none" fill-rule="evenodd">
        <g id="icons" transform="translate(-600.000000, -1345.000000)">
            <g id="icon-beer" transform="translate(600.000000, 1345.000000)">
                <rect id="Mask" x="0" y="0" width="64" height="64"></rect>
                <path d="M22.0794373,11.9481087 L31.6745872,13.4961433 L32,18.3210201 L33.5,19.9297428 L36.0077591,19.9297428 L38,17.6160774 L38,13.165 L44.8514252,11.9481087 L44.8514252,21.874342 L43.22089,32.0005 L41.1559623,41.7122612 L40.4397812,50.3296127 L40.7681236,53.957 L33.9146538,54.968 L25.3890803,53.957 C25.6481006,50.0010933 25.7776108,47.6820933 25.7776108,47 C25.7776108,46.3179067 25.4863281,44.0047658 24.9037628,40.0605774 L22.7802824,29.9140358 L21.7048569,19 L22.0794373,11.9481087 Z" id="Path-29" fill-opacity="0.7" fill="#BE8432"></path>
                <path d="M33.5,23.9210892 L36.9388657,26.4404926 L38.9275589,32.7231941 L38.5479698,38.9576874 L35.2349014,45.3457184 C33.6916835,46.023852 32.9200745,46.3629189 32.9200745,46.3629189 C32.9200745,46.3629189 31.4963328,44.370575 28.6488495,40.3858871 L27.9580421,33.4580543 L29.5762215,27.2910767 L33.5,23.9210892 Z" id="Path-30" fill="#9EBABA"></path>
                <path d="M45.774,15.963 L46,9 C46,6.596 42.99,5 41,5 C40.194,5 39.443,5.239 38.815,5.65 C38.225,3.547 36.29,2 34,2 C31.87,2 30.324,2.692 29.554,3.923 C28.86,3.347 27.97,3 27,3 C25.86,3 24.938,3.347 24.26,4.03 C23.884,4.408 23.619,4.851 23.433,5.323 C22.964,5.07 22.391,4.97 21.719,5.001 C19.563,5.118 18,6.799 18,9 L18,14 C18,15.907 19.142,17.407 20.772,17.852 C20.85,22.675 21.504,30.274 24.031,40.191 C24.052,40.304 26.21,51.64 23.718,56.586 C23.375,57.269 23.296,58.04 23.496,58.759 C23.709,59.524 24.212,60.139 24.912,60.49 C25.56,60.816 26.39,61.107 27.377,61.356 C29.077,61.784 30.931,62.001 32.887,62.001 L33.658,62.001 C35.614,62.001 37.468,61.784 39.168,61.356 C40.155,61.107 40.984,60.816 41.633,60.49 C42.333,60.138 42.836,59.523 43.049,58.759 C43.249,58.04 43.17,57.269 42.827,56.586 C40.396,51.763 42.392,40.836 42.509,40.218 C45.398,28.861 45.841,20.557 45.774,15.963 L45.774,15.963 L45.774,15.963 L45.774,15.963 L45.774,15.963 L45.774,15.963 Z M20,14 L20,9 C20,7.861 20.734,7.058 21.826,6.999 C22.393,6.97 22.723,6.948 22.998,8.105 C22.996,8.321 22.997,8.526 22.999,8.718 L23,9 C23,9.553 23.447,10 24,10 C24.553,10 25,9.553 25,9 L25,8.033 C25.017,7.095 25.122,5.999 25.679,5.439 C25.972,5.144 26.404,5 27,5 C28.103,5 29,5.897 29,7 C29,7.553 29.447,8 30,8 C30.553,8 31,7.553 31,7 L31,6 C31,5.505 31,4 34,4 C35.654,4 37,5.346 37,7 L37,9 C37,9.553 37.447,10 38,10 C38.553,10 39,9.553 39,9 C39,7.897 39.897,7 41,7 C42.212,7 44,8.054 44.001,8.968 L43.932,11.088 L40.267,11.712 C39.502,11.842 38.676,11.953 37.665,12.062 L36.772,12.158 L36.772,13.056 L36.772,17 C36.772,18.103 35.875,19 34.772,19 C33.669,19 32.772,18.103 32.772,17 L32.772,13.284 L32.772,12.314 L31.802,12.284 C29.585,12.217 27.402,11.985 25.313,11.596 L21.172,10.825 L21.023,11.855 C21.021,11.869 21.017,11.894 21.013,11.928 C21.012,11.935 21.011,11.941 21.01,11.95 C20.963,12.307 20.816,13.574 20.774,15.683 C20.264,15.31 20,14.652 20,14 L20,14 L20,14 L20,14 L20,14 L20,14 Z M41.122,58.222 C41.08,58.373 40.978,58.58 40.734,58.702 C40.216,58.963 39.525,59.203 38.679,59.416 C37.14,59.804 35.45,60 33.658,60 L32.887,60 C31.095,60 29.406,59.804 27.866,59.416 C27.02,59.203 26.329,58.963 25.811,58.702 C25.567,58.58 25.465,58.373 25.423,58.222 C25.358,57.987 25.387,57.718 25.505,57.486 C25.876,56.749 26.157,55.903 26.368,54.992 C26.738,55.108 27.155,55.227 27.646,55.35 C29.241,55.752 30.983,55.956 32.823,55.956 L33.546,55.956 C35.386,55.956 37.128,55.752 38.746,55.344 C39.249,55.218 39.735,55.095 40.173,54.968 C40.385,55.888 40.667,56.742 41.041,57.485 C41.158,57.718 41.187,57.986 41.122,58.222 L41.122,58.222 L41.122,58.222 L41.122,58.222 L41.122,58.222 L41.122,58.222 Z M40.563,39.753 L40.55,39.81 C40.476,40.192 39.138,47.242 39.83,52.984 C39.361,53.127 38.762,53.277 38.232,53.411 C36.795,53.773 35.218,53.957 33.544,53.957 L32.821,53.957 C31.146,53.957 29.569,53.773 28.133,53.411 C27.499,53.252 27.042,53.116 26.711,53.004 C27.409,47.256 26.065,40.179 25.981,39.754 C22.388,25.65 22.672,16.201 22.901,13.184 L24.948,13.565 C26.831,13.915 28.786,14.143 30.772,14.246 L30.772,17 C30.772,19.206 32.566,21 34.772,21 C36.978,21 38.772,19.206 38.772,17 L38.772,13.947 C39.441,13.865 40.036,13.779 40.602,13.682 L43.643,13.165 C43.875,16.158 44.171,25.59 40.563,39.753 L40.563,39.753 L40.563,39.753 L40.563,39.753 L40.563,39.753 Z M33.5,23 C29.532,23 27,29.812 27,34.5 C27,39.477 29.593,47 33.5,47 C37.407,47 40,39.477 40,34.5 C40,29.812 37.468,23 33.5,23 L33.5,23 L33.5,23 L33.5,23 L33.5,23 Z M33.5,45 C31.481,45 29,39.21 29,34.5 C29,29.972 31.355,25 33.5,25 C35.645,25 38,29.972 38,34.5 C38,39.21 35.519,45 33.5,45 L33.5,45 L33.5,45 L33.5,45 L33.5,45 Z" id="glass-6" fill="#2F484D"></path>
            </g>
        </g>
    </g>
</svg>