<?xml version="1.0" encoding="UTF-8"?>
<svg width="64px" height="64px" viewBox="0 0 64 64" version="1.1" xmlns="http://www.w3.org/2000/svg" xmlns:xlink="http://www.w3.org/1999/xlink">
    <title>470DA799-D054-4EC1-A9E1-8D1D1EC8B510</title>
    <g id="Site" stroke="none" stroke-width="1" fill="none" fill-rule="evenodd">
        <g id="icons" transform="translate(-840.000000, -2377.000000)">
            <g id="icon-ecommerce" transform="translate(840.000000, 2377.000000)">
                <rect id="Rectangle-Copy-2" x="0" y="0" width="64" height="64"></rect>
                <rect id="Rectangle" stroke="#2F484D" stroke-width="2" fill="#9EBABA" x="38" y="32" width="12" height="12" rx="4"></rect>
                <g id="monitor-mobbile" transform="translate(7.000000, 9.000000)" fill="#2F484D" stroke="#F1F5F5" stroke-dasharray="0,0" stroke-width="1.5">
                    <path d="M11.9725001,35.8250682 C3.42250019,35.8250682 0.8125,33.2150659 0.8125,24.665066 L0.8125,11.165066 C0.8125,2.61506611 3.42250019,0.00506591797 11.9725001,0.00506591797 L35.6649995,0.00506591797 C44.2149994,0.00506591797 46.8250017,2.61506611 46.8250017,11.165066 C46.8250017,12.087566 46.0600017,12.852566 45.1375017,12.852566 C44.2150017,12.852566 43.4500017,12.087566 43.4500017,11.165066 C43.4500017,4.55006588 42.2799996,3.38006592 35.6649995,3.38006592 L11.9725001,3.38006592 C5.35749996,3.38006592 4.1875,4.55006588 4.1875,11.165066 L4.1875,24.665066 C4.1875,31.2800661 5.35749996,32.4500682 11.9725001,32.4500682 L20.5,32.4500682 C21.4225,32.4500682 22.1875,33.2150682 22.1875,34.1375682 C22.1875,35.0600682 21.4225,35.8250682 20.5,35.8250682 L11.9725001,35.8250682 Z" id="Vector" fill-rule="nonzero"></path>
                    <path d="M18.8125,44.3073654 L18.8125,34.1148682 C18.8125,33.1923682 19.5775,32.4273682 20.5,32.4273682 C21.4225,32.4273682 22.1875,33.1923682 22.1875,34.1148682 L22.1875,44.3073654 C22.1875,45.2523654 21.4225,45.9948654 20.5,45.9948654 C19.5775,45.9948654 18.8125,45.2298654 18.8125,44.3073654 Z" id="Vector" fill-rule="nonzero"></path>
                    <path d="M7.23355263,26.8248901 C6.45671053,26.8248901 5.8125,26.0598901 5.8125,25.1373901 C5.8125,24.2148901 6.45671053,23.4498901 7.23355263,23.4498901 L22.3914474,23.4498901 C23.1682895,23.4498901 23.8125,24.2148901 23.8125,25.1373901 C23.8125,26.0598901 23.1682895,26.8248901 22.3914474,26.8248901 L7.23355263,26.8248901 Z" id="Vector" fill-rule="nonzero"></path>
                    <path d="M13.1655273,45.9949341 C12.2430274,45.9949341 11.4780273,45.2299341 11.4780273,44.3074341 C11.4780273,43.3849341 12.2430274,42.6199341 13.1655273,42.6199341 L20.5005279,42.6199341 C21.4230279,42.6199341 22.1880279,43.3849341 22.1880279,44.3074341 C22.1880279,45.2299341 21.4230279,45.9949341 20.5005279,45.9949341 L13.1655273,45.9949341 Z" id="Vector" fill-rule="nonzero"></path>
                    <path d="M32.8531153,45.9951959 C26.6206154,45.9951959 24.5056152,43.8801979 24.5056152,37.6476979 L24.5056152,24.8001978 C24.5056152,18.5676979 26.6206154,16.4526978 32.8531153,16.4526978 L40.8406179,16.4526978 C47.0731179,16.4526978 49.1881158,18.5676979 49.1881158,24.8001978 L49.1881158,37.6476979 C49.1881158,43.9026979 47.0731179,45.9951959 40.8406179,45.9951959 L32.8531153,45.9951959 Z M27.8806152,24.8001978 L27.8806152,37.6476979 C27.8806152,42.057698 28.4431152,42.6201959 32.8531153,42.6201959 L40.8406179,42.6201959 C45.250618,42.6201959 45.8131158,42.057698 45.8131158,37.6476979 L45.8131158,24.8001978 C45.8131158,20.3901978 45.250618,19.8276978 40.8406179,19.8276978 L32.8531153,19.8276978 C28.4431152,19.8276978 27.8806152,20.3901978 27.8806152,24.8001978 Z" id="Vector"></path>
                    <path d="M35.3270626,41.0301031 C35.1245626,40.8276031 34.9670604,40.5801038 34.8545604,40.3101038 C34.7420604,40.0176038 34.6745605,39.7251009 34.6745605,39.4326009 C34.6745605,38.8476009 34.9220626,38.2626035 35.3270626,37.8576035 C35.8445626,37.3401035 36.6320622,37.092602 37.3745623,37.227602 C37.5095623,37.272602 37.644563,37.3176008 37.779563,37.3626008 C37.9145629,37.4301008 38.0495631,37.4976011 38.1620631,37.5651011 C38.2970631,37.6551011 38.4095628,37.7451035 38.5220628,37.8576035 C38.9270628,38.2626035 39.1745605,38.8476009 39.1745605,39.4326009 C39.1745605,39.7251009 39.1070607,40.0176038 38.9945607,40.3101038 C38.8820607,40.5801038 38.7245628,40.8276031 38.5220628,41.0301031 C38.4095628,41.1426031 38.2970631,41.2326007 38.1620631,41.3001007 C38.0495631,41.3901007 37.9145629,41.4576016 37.779563,41.5251016 C37.644563,41.5701016 37.5095623,41.6151042 37.3745623,41.6376042 C37.2170623,41.6826009 37.0820605,41.6826009 36.9245605,41.6826009 C36.3395606,41.6826009 35.7545626,41.4576031 35.3270626,41.0301031 Z" id="Vector" fill-rule="nonzero"></path>
                </g>
            </g>
        </g>
    </g>
</svg>