<svg width="64" height="64" viewBox="0 0 64 64" xmlns="http://www.w3.org/2000/svg">
    <g fill="none" fill-rule="evenodd">
        <path d="M0 0h64v64H0z"/>
        <path fill-opacity=".7" fill="#BE8432" d="M19.5 20.5h25.502v38.35l-1.588 2.338H21.5l-2.668-2.338z"/>
        <path fill="#F1F5F5" d="m22.5 40 9.417-9.826L42.5 40 32 49.833z"/>
        <path d="M43.379 13h-4.714L34.05 2h-4.1l-4.615 11h-4.714A2.624 2.624 0 0 0 18 15.621v43.248A3.134 3.134 0 0 0 21.131 62h21.738A3.134 3.134 0 0 0 46 58.869V15.621A2.624 2.624 0 0 0 43.379 13zM44 15.621V19h-3v-4h2.379c.343 0 .621.278.621.621zM25 15h3v4h-3v-4zm5 0h3v4h-3v-4zm5 0h4v4h-4v-4zM31.28 4h1.439l3.776 9h-8.992l3.777-9zM20.621 15H23v4h-3v-3.379c0-.343.278-.621.621-.621zm22.248 45H21.131A1.132 1.132 0 0 1 20 58.869V21h24v37.869c0 .624-.507 1.131-1.131 1.131zM20.586 40 32 51.414 43.414 40 32 28.586 20.586 40zM32 48.586 23.414 40 32 31.414 40.586 40 32 48.586z" fill="#2F484D"/>
    </g>
</svg>
