<?xml version="1.0" encoding="UTF-8"?>
<svg width="64px" height="64px" viewBox="0 0 64 64" version="1.1" xmlns="http://www.w3.org/2000/svg" xmlns:xlink="http://www.w3.org/1999/xlink">
    <title>D966CD1E-B227-4521-941C-ACF3E5844E95</title>
    <g id="Site" stroke="none" stroke-width="1" fill="none" fill-rule="evenodd">
        <g id="icons" transform="translate(-360.000000, -2377.000000)">
            <g id="icon-healthcare" transform="translate(360.000000, 2377.000000)">
                <rect id="Rectangle" x="0" y="0" width="64" height="64"></rect>
                <polygon id="Path-41" fill="#9EBABA" points="20.5 15.7142773 42.71429 15.7142773 48.5668564 16.8710632 53.5780716 20.7074585 57 26.6011581 57 46.9574966 53.5780716 52.9246521 47.4889526 57.5946655 42.71429 58.5453901 20.5 59 15.3241882 56.8855133 10.30867 52.9246521 7 46.9574966 7 27.746376 9.43312073 21.5171356 15.3241882 16.8710632"></polygon>
                <g id="Vector" transform="translate(7.000000, 5.000000)" stroke="#2F484D" stroke-linecap="round" stroke-linejoin="round" stroke-width="2">
                    <path d="M24.9999804,24.9642304 L24.9999804,32.1070819 M24.9999804,32.1070819 L24.9999804,39.2499334 M24.9999804,32.1070819 L17.8571288,32.1070819 M24.9999804,32.1070819 L32.1428319,32.1070819"></path>
                    <path d="M14.2857352,10.7142773 C14.2857352,6.88643459 16.3278649,3.34936215 19.6428739,1.43544102 C22.957883,-0.478480338 27.042143,-0.478480338 30.3571511,1.43544102 C33.6721593,3.34936215 35.7142898,6.88643459 35.7142898,10.7142773 M14.285736,10.7142773 C7.1912065,10.9844385 1.266259,16.2092606 0.1107474,23.2142773 C0.035715085,23.7945616 -0.00126864015,24.3791438 0,24.9642656 L0,39.2499708 C0.31375403,47.4389326 7.1960235,53.8291548 15.385735,53.5356734 L34.61429,53.5356734 C42.804,53.8291548 49.68627,47.4389326 50,39.2499708 L50,24.9642656 C50.000675,24.38391 49.96369,23.8041198 49.889275,23.2285532 C48.7398535,16.2178993 42.813355,10.985737 35.71429,10.7142773 M14.2857352,10.7142773 L35.7142898,10.7142773" id="Rectangle_1546"></path>
                </g>
            </g>
        </g>
    </g>
</svg>