<svg width="64" height="64" viewBox="0 0 64 64" xmlns="http://www.w3.org/2000/svg">
    <g fill="none" fill-rule="evenodd">
        <path d="M0 0h64v64H0z"/>
        <path fill-opacity=".7" fill="#BE8432" d="M15.999 28.85h32.966l-2.204 7.592-2.325.404-2.634 22.382-2.13.746H24.465l-1.5-1.822-2.599-21.306-3.273-1.682z"/>
        <path d="M50.965 25.583c0-1.736-.905-3.396-2.626-4.829.036-.237.054-.477.054-.714 0-2.218-1.495-4.274-4.225-5.836-.091-1.67-.618-6.336-3.658-9.106-1.788-1.629-4.104-2.316-6.893-2.038a1.003 1.003 0 0 0-.753 1.52c.559.912 1.155 2.498.82 3.105-.186.336-.839.393-1.212.396-6.762.07-11.861 2.605-11.861 5.898 0 .347.137.604.337.802-2.184 1.3-4.376 3.07-4.376 5.26 0 .525.316.876.681 1.135C15.603 22.42 14 23.827 14 25.583c0 1.033.32 2.032.946 2.982a.973.973 0 0 0-.041.488l.905 4.78c.051 2.082 1.698 3.77 3.79 3.99l2.467 20.538a2.848 2.848 0 0 0 2.827 2.506h15.142a2.84 2.84 0 0 0 2.568-1.638l.069-.069-.028-.028c.103-.243.185-.497.218-.77l2.467-20.539c2.093-.22 3.739-1.908 3.79-3.99l.905-4.78a.98.98 0 0 0-.024-.454c.64-.96.964-1.97.964-3.016zm-31.782-3.349.376-.277c.337-.25.483-.684.365-1.086-.167-.566-.671-.845-1.158-1.114l-.142-.078c.219-.778 1.216-2.118 4.802-3.984a1 1 0 0 0 .474-1.24c-.198-.525-.683-.732-1.198-.95.632-1.663 4.476-3.368 9.79-3.423 1.791-.019 2.589-.789 2.944-1.433.618-1.12.297-2.552-.128-3.63 1.529.097 2.819.616 3.849 1.553 3.013 2.74 3.029 8.177 3.029 8.231-.001.374.207.72.539.892 2.365 1.23 3.667 2.774 3.667 4.346 0 .274-.042.554-.123.83a1 1 0 0 0 .364 1.087c1.063.787 2.332 2.056 2.332 3.626 0 .767-.305 1.533-.906 2.284H16.905c-.602-.75-.906-1.518-.906-2.284 0-1.01 1.84-2.363 3.184-3.35zm8.075 32.926 1.414 1.414 1.293-1.293 1.293 1.293 1.414-1.414-2.707-2.707-2.707 2.707zm7 0 1.414 1.414 1.293-1.293 1.293 1.293 1.414-1.414-2.707-2.707-2.707 2.707zm-4.293-9.879 1.293 1.293 1.414-1.414-2.707-2.707-2.707 2.707 1.414 1.414 1.293-1.293zm7 0 1.293 1.293 1.414-1.414-2.707-2.707-2.707 2.707 1.414 1.414 1.293-1.293zm-8.293 4.88-2.707-2.708-2.707 2.707 1.414 1.414 1.293-1.293 1.293 1.293 1.414-1.414zm7 0-2.707-2.708-2.707 2.707 1.414 1.414 1.293-1.293 1.293 1.293 1.414-1.414zm4.293 6.292-2.414 2.414h-2.172l-2.414-2.414-2.414 2.414h-2.172l-2.414-2.414-1.855 1.855c-.022-.06-.05-.119-.058-.185l-.24-1.995.446.446 1.414-1.414-2-2-.193.193-.952-7.925.145.146.293-.293 1.293 1.293 1.414-1.414-2.707-2.707-.711.71-.636-5.296h3.933l-2.293 2.293 1.414 1.414 1.293-1.293 1.293 1.293 1.414-1.414-2.293-2.293h6.172l-2.293 2.293 1.414 1.414 1.293-1.293 1.293 1.293 1.414-1.414-2.293-2.293h6.172l-2.293 2.293 1.414 1.414 1.293-1.293 1.293 1.293 1.414-1.414-2.293-2.293h2.93l-.787 6.556-.263-.263-1 1 1.049 1.05-.384 3.201-1.957-1.958-2.707 2.707 1.414 1.414 1.293-1.293 1.293 1.293.46-.46-.76 6.331-.995-.992zm7.173-22.906a.961.961 0 0 0-.018.186c0 1.177-1.008 2.135-2.248 2.135H20.055c-1.24 0-2.248-.958-2.248-2.135a.961.961 0 0 0-.018-.186l-.696-3.68h30.741l-.696 3.68zm-20.173-17.68h3a1 1 0 1 0 0-2h-3a1 1 0 1 0 0 2zm10 0h2a1 1 0 1 0 0-2h-2a1 1 0 1 0 0 2zm-7.004 4h-.996a1 1 0 1 0 0 2h.996a1 1 0 1 0 0-2zm4.58 2h1.833a1 1 0 1 0 0-2h-1.833a1 1 0 1 0 0 2zm6.428 0h.996a1 1 0 1 0 0-2h-.996a1 1 0 1 0 0 2zm-17.004 0h1a1 1 0 1 0 0-2h-1a1 1 0 1 0 0 2z" fill="#2F484D"/>
    </g>
</svg>
