<?xml version="1.0" encoding="UTF-8"?>
<svg width="64px" height="64px" viewBox="0 0 64 64" version="1.1" xmlns="http://www.w3.org/2000/svg" xmlns:xlink="http://www.w3.org/1999/xlink">
    <title>26D278B0-CB34-45BA-913B-A715C6C77811</title>
    <g id="Site" stroke="none" stroke-width="1" fill="none" fill-rule="evenodd">
        <g id="icons" transform="translate(-840.000000, -413.000000)">
            <g id="icon-bread" transform="translate(840.000000, 413.000000)">
                <rect id="Rectangle-Copy-2" x="0" y="0" width="64" height="64"></rect>
                <polygon id="Path-8" fill-opacity="0.7" fill="#BE8432" points="4.81976318 38.5 6.69076729 33.5499535 13.1165161 25.5931931 18.5775108 19.1046753 23.9111166 13.50914 31.2509193 8.09896851 36.8142601 4.40883255 40.9113822 3.93506432 42.760788 5.63793182 42.760788 8.09896851 41.8249788 12.2116318 39.6168022 14.8854999 35.4550101 18.467 28.8052601 24.1349831 21.5566711 31.4831009 15.6502686 38.5 10.7048416 42.2828674 8.44912338 43.1 5.99725441 41.1505"></polygon>
                <polygon id="Path-9" fill-opacity="0.7" fill="#BE8432" points="50.5 23.9378529 53.8018494 21.68975 56.2847137 20.845 58.2602005 21.9031549 59.878006 23.526 59.878006 26.6251831 57.8746338 30.4665756 49.546669 41.1505 38.9662601 51.3027191 30.5868378 57.6096153 25.7031212 59.8448486 22.6862601 58.7098679 21.7700958 55.9142666 22.6862601 52.2287827 25.1627502 48.72425 33.9175101 41.841 41.8249788 33.8212891"></polygon>
                <path d="M60.7040101,23.97 C60.3530101,22.397 59.2680101,21.168 57.4790101,20.316 C56.6000101,19.601 55.2130101,19.798 53.0650101,20.968 C53.8360101,19.698 54.5720101,18.422 55.2470101,17.136 C56.2620101,15.206 56.5960101,12.129 55.2700101,9.979 C54.6410101,8.959 53.3600101,7.752 50.9440101,7.794 C48.3700101,7.841 45.4950101,9.454 42.7770101,11.388 C42.8800101,11.199 42.9860101,11.009 43.0860101,10.819 C43.9300101,9.214 44.2050101,6.649 43.0990101,4.854 C42.3450101,3.63 41.0280101,3.008 39.4420101,3 C36.2360101,3.058 32.5080101,6.025 29.5140101,8.41 C28.7380101,9.028 28.0040101,9.611 27.3980101,10.045 C21.8840101,13.987 16.7470101,19.04 12.5400101,24.656 C12.0890101,25.26 11.4450101,26.016 10.7000101,26.892 C7.54301009,30.605 3.22001009,35.69 4.12101009,39.738 C4.47201009,41.311 5.55601009,42.54 7.34601009,43.392 C7.69201009,43.673 8.11301009,43.817 8.62701009,43.817 C9.21301009,43.817 9.92801009,43.62 10.7830101,43.237 C8.45301009,46.548 6.72301009,50.048 7.39001009,53.045 C7.81001009,54.929 9.12101009,56.402 11.2900101,57.427 C11.5900101,57.668 12.0610101,57.902 12.7620101,57.902 C12.7760101,57.902 12.7890101,57.902 12.8030101,57.901 C14.6750101,57.877 17.9100101,55.975 21.5560101,53.295 C20.8650101,54.902 20.7050101,57.199 21.7240101,58.853 C22.4630101,60.053 23.7240101,60.709 25.2830101,60.709 C25.3160101,60.709 25.3500101,60.708 25.3840101,60.708 C28.5900101,60.65 32.3180101,57.683 35.3120101,55.298 C36.0880101,54.68 36.8220101,54.097 37.4280101,53.663 C42.9400101,49.723 48.0770101,44.67 52.2860101,39.052 C52.7370101,38.448 53.3810101,37.692 54.1260101,36.816 C57.2830101,33.103 61.6060101,28.018 60.7040101,23.97 L60.7040101,23.97 L60.7040101,23.97 Z M28.4240101,15.197 C29.1510101,14.47 30.3320101,14.47 31.0590101,15.197 C31.8120101,15.95 32.8010101,16.327 33.7900101,16.327 C34.7790101,16.327 35.7690101,15.95 36.5210101,15.197 C36.9120101,14.806 36.9120101,14.174 36.5210101,13.783 C36.1300101,13.392 35.4980101,13.392 35.1070101,13.783 C34.3800101,14.51 33.1990101,14.51 32.4720101,13.783 C30.9660101,12.277 28.5150101,12.277 27.0090101,13.783 C26.6180101,14.174 26.6180101,14.806 27.0090101,15.197 C27.4000101,15.588 28.0340101,15.588 28.4240101,15.197 L28.4240101,15.197 L28.4240101,15.197 Z M22.4050101,22.397 C23.1580101,23.15 24.1470101,23.526 25.1360101,23.526 C26.1250101,23.526 27.1150101,23.15 27.8670101,22.397 C28.2580101,22.007 28.2580101,21.374 27.8670101,20.983 C27.4760101,20.592 26.8440101,20.592 26.4530101,20.983 C25.7260101,21.708 24.5450101,21.708 23.8180101,20.983 C22.3120101,19.477 19.8610101,19.477 18.3550101,20.983 C17.9640101,21.374 17.9640101,22.006 18.3550101,22.397 C18.7460101,22.788 19.3780101,22.788 19.7690101,22.397 C20.4960101,21.672 21.6770101,21.67 22.4050101,22.397 L22.4050101,22.397 L22.4050101,22.397 Z M14.3680101,38.658 C9.65901009,42.096 8.58901009,41.811 8.60801009,41.841 L8.48001009,41.713 L8.31601009,41.638 C7.02501009,41.05 6.29201009,40.286 6.07301009,39.304 C5.52201009,36.829 8.07601009,33.216 10.5130101,30.23 C10.4790101,30.523 10.5580101,30.827 10.7840101,31.052 C11.1750101,31.443 11.8070101,31.443 12.1980101,31.052 C12.9040101,30.346 14.1280101,30.348 14.8320101,31.052 C15.5860101,31.805 16.5740101,32.181 17.5630101,32.181 C18.5520101,32.181 19.5420101,31.805 20.2940101,31.052 C20.6850101,30.661 20.6850101,30.029 20.2940101,29.638 C19.9030101,29.247 19.2710101,29.247 18.8800101,29.638 C18.1540101,30.364 16.9730101,30.366 16.2450101,29.638 C14.9810101,28.372 12.9030101,28.207 11.4210101,29.136 C11.6960101,28.809 11.9670101,28.49 12.2230101,28.189 C12.9900101,27.288 13.6520101,26.508 14.1410101,25.856 C18.2250101,20.401 23.2120101,15.497 28.5610101,11.672 C29.2090101,11.209 29.9620101,10.609 30.7590101,9.975 C33.3720101,7.894 36.9500101,5.045 39.4770101,5 C39.5010101,4.999 39.5250101,4.999 39.5480101,4.999 C40.4170101,4.999 41.0230101,5.296 41.3970101,5.903 C42.0690101,6.993 41.8780101,8.82 41.3180101,9.888 C40.4880101,11.466 39.5530101,13.044 38.4580101,14.706 C38.4060101,14.748 38.3540101,14.789 38.3020101,14.83 C38.1840101,14.924 38.0680101,15.016 37.9550101,15.105 C37.8370101,15.198 37.7220101,15.288 37.6080101,15.378 C37.5120101,15.453 37.4160101,15.529 37.3230101,15.6 C37.1690101,15.72 37.0200101,15.834 36.8730101,15.945 C36.8230101,15.983 36.7710101,16.024 36.7220101,16.06 C36.5240101,16.209 36.3320101,16.351 36.1500101,16.481 C29.3360101,21.353 22.9850101,27.598 17.7840101,34.543 C17.3950101,35.063 16.8870101,35.678 16.3090101,36.364 C16.0500101,36.671 15.7810101,36.989 15.4950101,37.325 C15.1630101,37.715 14.8190101,38.122 14.4710101,38.535 C14.4350101,38.579 14.4030101,38.616 14.3680101,38.658 L14.3680101,38.658 L14.3680101,38.658 Z M22.3930101,46.565 C22.0020101,46.174 21.3700101,46.174 20.9790101,46.565 C20.1040101,47.44 18.6780101,47.44 17.8030101,46.565 C16.1490101,44.909 13.4530101,44.909 11.7990101,46.565 C11.4080101,46.956 11.4080101,47.588 11.7990101,47.979 C12.1900101,48.37 12.8220101,48.37 13.2130101,47.979 C14.0880101,47.104 15.5140101,47.104 16.3890101,47.979 C17.2170101,48.806 18.3040101,49.22 19.3910101,49.22 C20.4780101,49.22 21.5650101,48.806 22.3930101,47.979 C22.7840101,47.59 22.7840101,46.956 22.3930101,46.565 L22.3930101,46.565 L22.3930101,46.565 Z M19.3330101,41.859 C20.1820101,41.009 21.6580101,41.009 22.5080101,41.859 C23.3350101,42.687 24.4230101,43.1 25.5100101,43.1 C26.5970101,43.1 27.6850101,42.687 28.5120101,41.859 C28.9030101,41.468 28.9030101,40.836 28.5120101,40.445 C28.1210101,40.054 27.4890101,40.054 27.0980101,40.445 C26.2230101,41.32 24.7970101,41.32 23.9220101,40.445 C23.1200101,39.642 22.0550101,39.201 20.9210101,39.201 C19.7860101,39.201 18.7210101,39.642 17.9190101,40.445 C17.5280101,40.836 17.5280101,41.469 17.9190101,41.859 C18.3100101,42.25 18.9430101,42.25 19.3330101,41.859 L19.3330101,41.859 L19.3330101,41.859 Z M25.4530101,35.74 C26.3280101,34.865 27.7540101,34.865 28.6290101,35.74 C29.4560101,36.568 30.5440101,36.981 31.6310101,36.981 C32.7180101,36.981 33.8060101,36.568 34.6330101,35.74 C35.0240101,35.349 35.0240101,34.717 34.6330101,34.326 C34.2420101,33.935 33.6100101,33.935 33.2190101,34.326 C32.3440101,35.201 30.9180101,35.201 30.0430101,34.326 C28.3890101,32.67 25.6930101,32.67 24.0390101,34.326 C23.6480101,34.717 23.6480101,35.349 24.0390101,35.74 C24.4300101,36.131 25.0620101,36.131 25.4530101,35.74 L25.4530101,35.74 L25.4530101,35.74 Z M31.5720101,29.62 C32.4470101,28.745 33.8730101,28.745 34.7480101,29.62 C35.5750101,30.448 36.6630101,30.861 37.7500101,30.861 C38.8370101,30.861 39.9250101,30.448 40.7520101,29.62 C41.1430101,29.229 41.1430101,28.597 40.7520101,28.206 C40.3610101,27.815 39.7290101,27.815 39.3380101,28.206 C38.4630101,29.081 37.0370101,29.081 36.1620101,28.206 C34.5080101,26.55 31.8120101,26.55 30.1580101,28.206 C29.7670101,28.597 29.7670101,29.229 30.1580101,29.62 C30.5490101,30.011 31.1810101,30.011 31.5720101,29.62 L31.5720101,29.62 L31.5720101,29.62 Z M37.6920101,23.501 C38.5670101,22.626 39.9930101,22.626 40.8680101,23.501 C41.6710101,24.304 42.7360101,24.745 43.8700101,24.745 C45.0040101,24.745 46.0690101,24.304 46.8710101,23.501 C47.2620101,23.11 47.2620101,22.477 46.8710101,22.087 C46.4800101,21.696 45.8480101,21.696 45.4570101,22.087 C44.6050101,22.937 43.1300101,22.936 42.2820101,22.087 C40.6280101,20.431 37.9320101,20.431 36.2780101,22.087 C35.8870101,22.478 35.8870101,23.11 36.2780101,23.501 C36.6690101,23.892 37.3010101,23.892 37.6920101,23.501 L37.6920101,23.501 L37.6920101,23.501 Z M43.8110101,17.381 C44.4740101,16.717 45.5570101,16.715 46.2220101,17.381 C46.9210101,18.081 47.8520101,18.467 48.8410101,18.467 C49.8300101,18.467 50.7610101,18.081 51.4600101,17.381 C51.8510101,16.99 51.8510101,16.357 51.4600101,15.967 C51.0690101,15.576 50.4370101,15.576 50.0460101,15.967 C49.4010101,16.612 48.2800101,16.612 47.6360101,15.967 C46.1930101,14.526 43.8440101,14.524 42.3970101,15.967 C42.0060101,16.357 42.0060101,16.99 42.3970101,17.381 C42.7880101,17.772 43.4200101,17.771 43.8110101,17.381 L43.8110101,17.381 L43.8110101,17.381 Z M12.5460101,55.871 L12.4200101,55.745 L12.2560101,55.67 C10.5830101,54.907 9.63001009,53.906 9.34101009,52.61 C8.55601009,49.085 12.6130101,43.857 15.9150101,39.926 C16.2530101,39.523 16.5840101,39.132 16.9050101,38.756 C16.9420101,38.712 16.9820101,38.666 17.0180101,38.623 C17.9650101,37.509 18.7840101,36.547 19.3850101,35.744 C20.6550101,34.048 21.9950101,32.396 23.3940101,30.796 C27.5920101,25.997 32.3260101,21.676 37.3140101,18.11 C37.5060101,17.972 37.7060101,17.824 37.9130101,17.669 C37.9890101,17.612 38.0690101,17.55 38.1460101,17.491 C38.2750101,17.392 38.4050101,17.294 38.5410101,17.188 C38.6530101,17.101 38.7690101,17.01 38.8840101,16.919 C39.0010101,16.827 39.1190101,16.735 39.2420101,16.638 C39.3260101,16.572 39.4110101,16.504 39.4960101,16.437 C39.6070101,16.349 39.7120101,16.266 39.8270101,16.175 L39.8290101,16.173 C39.8970101,16.119 39.9620101,16.068 40.0300101,16.013 C43.2960101,13.412 47.7670101,9.852 50.9810101,9.794 C52.2350101,9.764 53.0440101,10.176 53.5700101,11.028 C54.4470101,12.451 54.2060101,14.823 53.4790101,16.206 C52.0600101,18.905 50.4100101,21.572 48.5640101,24.197 L48.5610101,24.2 C47.9650101,25.048 47.3480101,25.89 46.7120101,26.726 C46.7050101,26.735 46.6990101,26.744 46.6920101,26.753 C46.0870101,27.547 45.4630101,28.334 44.8240101,29.115 C44.7740101,29.176 44.7260101,29.236 44.6770101,29.297 C44.0890101,30.012 43.4830101,30.718 42.8680101,31.419 C42.7700101,31.531 42.6760101,31.644 42.5770101,31.755 C41.8810101,32.541 41.1700101,33.318 40.4420101,34.084 C40.3720101,34.158 40.2680101,34.264 40.1350101,34.398 C40.1230101,34.41 40.1060101,34.427 40.0930101,34.44 C39.9820101,34.552 39.8450101,34.687 39.6950101,34.835 C38.0980101,36.406 34.5520101,39.763 30.5430101,43.308 C28.3300101,45.263 26.2370101,47.045 24.3230101,48.6 L24.1970101,48.703 L24.1960101,48.705 C14.3330101,56.701 12.6370101,55.923 12.5460101,55.871 L12.5460101,55.871 L12.5460101,55.871 Z M37.2600101,48.017 C36.5340101,48.744 35.3530101,48.744 34.6250101,48.017 C33.1190101,46.511 30.6680101,46.511 29.1620101,48.017 C28.7710101,48.407 28.7710101,49.04 29.1620101,49.431 C29.5530101,49.822 30.1850101,49.822 30.5760101,49.431 C31.3030101,48.706 32.4840101,48.706 33.2110101,49.431 C33.9640101,50.184 34.9530101,50.561 35.9420101,50.561 C36.9310101,50.561 37.9210101,50.184 38.6730101,49.431 C39.0640101,49.04 39.0640101,48.408 38.6730101,48.017 C38.2820101,47.626 37.6510101,47.626 37.2600101,48.017 L37.2600101,48.017 L37.2600101,48.017 Z M55.1100101,32.477 C55.0610101,32.363 54.9940101,32.255 54.9010101,32.163 C54.5100101,31.772 53.8780101,31.772 53.4870101,32.163 C52.7820101,32.868 51.5570101,32.868 50.8520101,32.163 C49.3900101,30.701 46.8470101,30.703 45.3890101,32.163 C44.9980101,32.554 44.9980101,33.187 45.3890101,33.577 C45.7800101,33.968 46.4120101,33.968 46.8030101,33.577 C47.5080101,32.872 48.7330101,32.872 49.4380101,33.577 C50.1670101,34.307 51.1370101,34.71 52.1690101,34.71 C52.6290101,34.71 53.0730101,34.618 53.4930101,34.464 C53.1860101,34.83 52.8840101,35.185 52.6000101,35.519 C51.8330101,36.42 51.1710101,37.2 50.6820101,37.852 C46.5950101,43.308 41.6090101,48.212 36.2620101,52.036 C35.6140101,52.499 34.8610101,53.099 34.0640101,53.733 C31.4510101,55.814 27.8730101,58.663 25.3460101,58.708 C24.4100101,58.737 23.8100101,58.428 23.4250101,57.804 C22.7530101,56.714 22.9440101,54.888 23.5050101,53.82 C24.1070101,52.676 24.8040101,51.483 25.6890101,50.082 C27.8530101,48.322 30.0370101,46.441 32.0720101,44.631 C33.6420101,43.375 35.1780101,42.053 36.6660101,40.675 C36.6910101,40.708 36.7040101,40.747 36.7340101,40.777 C37.1250101,41.168 37.7570101,41.168 38.1480101,40.777 C38.8750101,40.051 40.0560101,40.049 40.7830101,40.777 C41.5120101,41.507 42.4820101,41.91 43.5140101,41.91 C44.5450101,41.91 45.5150101,41.508 46.2450101,40.777 C46.6360101,40.386 46.6360101,39.754 46.2450101,39.363 C45.8540101,38.972 45.2220101,38.972 44.8310101,39.363 C44.1260101,40.068 42.9010101,40.068 42.1960101,39.363 C41.3630101,38.531 40.2450101,38.176 39.1550101,38.263 C39.7970101,37.617 40.4320101,36.967 41.0500101,36.303 C41.4440101,35.916 41.7410101,35.618 41.8910101,35.459 C42.6370101,34.673 43.3610101,33.881 44.0690101,33.083 C44.1780101,32.96 44.2810101,32.836 44.3890101,32.713 C45.0100101,32.006 45.6170101,31.295 46.2070101,30.58 C46.2660101,30.509 46.3220101,30.437 46.3800101,30.366 C47.0270101,29.577 47.6550101,28.783 48.2650101,27.984 C48.2670101,27.981 48.2700101,27.978 48.2720101,27.975 C48.9270101,27.118 49.5580101,26.255 50.1690101,25.387 L50.4520101,25.052 C54.8240101,21.861 56.0590101,21.888 56.2510101,21.906 L56.5060101,22.072 C57.7970101,22.66 58.5300101,23.424 58.7490101,24.406 C59.2430101,26.608 57.2690101,29.715 55.1100101,32.477 L55.1100101,32.477 L55.1100101,32.477 Z" id="bread" fill="#2F484D"></path>
            </g>
        </g>
    </g>
</svg>