<?xml version="1.0" encoding="UTF-8"?>
<svg width="64px" height="64px" viewBox="0 0 64 64" version="1.1" xmlns="http://www.w3.org/2000/svg" xmlns:xlink="http://www.w3.org/1999/xlink">
    <title>74339CFB-7FF4-4FD4-AA90-92002B1F76CD</title>
    <g id="Site" stroke="none" stroke-width="1" fill="none" fill-rule="evenodd">
        <g id="icons" transform="translate(-360.000000, -1861.000000)">
            <g id="icon-restaurant" transform="translate(360.000000, 1861.000000)">
                <rect id="Rectangle" x="0" y="0" width="64" height="64"></rect>
                <path d="M6.99158096,50.0318069 C7.67319365,45.369372 8.014,42.9149386 8.014,42.6685066 C8.014,42.4220746 9.00944088,40.3376948 11.0003226,36.4153671 L16.3318596,30.70825 L22.6604547,26.8982086 L27.9740524,25.3600807 C27.9740524,24.1935269 27.9740524,23.47225 27.9740524,23.19625 C27.9740524,22.92025 28.5402767,22.0813526 29.6727252,20.6795578 L32.058875,20.0732803 L35,21.19625 L35.972702,23.19625 L35.972702,25.3600807 L42.4510498,27.4634666 L49.6491165,32.098125 L55.0805664,40.0634384 L57.1773834,48.36825 L56.8636017,50.0318069 L46.8177185,52.139 L33,53.279274 L21.058875,52.78225 L6.99158096,50.0318069 Z" id="Path-37" fill="#9EBABA"></path>
                <path d="M20.35,22.90325 C20.545,23.09825 20.801,23.19625 21.057,23.19625 C21.313,23.19625 21.569,23.09825 21.764,22.90325 C22.155,22.51225 22.155,21.88025 21.764,21.48925 C20.749,20.47325 20.749,18.82125 21.764,17.80525 C22.634,16.93525 23.114,15.77925 23.114,14.54925 C23.114,13.31925 22.635,12.16325 21.764,11.29325 C21.373,10.90225 20.741,10.90225 20.35,11.29325 C19.959,11.68425 19.959,12.31625 20.35,12.70725 C20.842,13.19925 21.114,13.85325 21.114,14.54925 C21.114,15.24525 20.843,15.89925 20.35,16.39125 C18.555,18.18625 18.555,21.10825 20.35,22.90325 L20.35,22.90325 L20.35,22.90325 L20.35,22.90325 L20.35,22.90325 Z M42.35,22.90325 C42.545,23.09825 42.801,23.19625 43.057,23.19625 C43.313,23.19625 43.569,23.09825 43.764,22.90325 C44.155,22.51225 44.155,21.88025 43.764,21.48925 C42.749,20.47325 42.749,18.82125 43.764,17.80525 C44.634,16.93525 45.114,15.77925 45.114,14.54925 C45.114,13.31925 44.635,12.16325 43.764,11.29325 C43.373,10.90225 42.741,10.90225 42.35,11.29325 C41.959,11.68425 41.959,12.31625 42.35,12.70725 C42.842,13.19925 43.114,13.85325 43.114,14.54925 C43.114,15.24525 42.843,15.89925 42.35,16.39125 C40.555,18.18625 40.555,21.10825 42.35,22.90325 L42.35,22.90325 L42.35,22.90325 L42.35,22.90325 L42.35,22.90325 Z M31.35,16.90325 C31.545,17.09825 31.801,17.19625 32.057,17.19625 C32.313,17.19625 32.569,17.09825 32.764,16.90325 C33.155,16.51225 33.155,15.88025 32.764,15.48925 C31.749,14.47325 31.749,12.82125 32.764,11.80525 C33.634,10.93525 34.114,9.77925 34.114,8.54925 C34.114,7.31925 33.635,6.16325 32.764,5.29325 C32.373,4.90225 31.741,4.90225 31.35,5.29325 C30.959,5.68425 30.959,6.31625 31.35,6.70725 C31.842,7.19925 32.114,7.85325 32.114,8.54925 C32.114,9.24525 31.843,9.89925 31.35,10.39125 C29.555,12.18625 29.555,15.10825 31.35,16.90325 L31.35,16.90325 L31.35,16.90325 L31.35,16.90325 L31.35,16.90325 Z M57.624,45.81925 C55.812,35.17825 47.517,26.72325 36.957,24.67525 C36.974,24.51525 37,24.35425 37,24.19525 C37,21.43825 34.757,19.19525 32,19.19525 C29.243,19.19525 27,21.43825 27,24.19525 C27,24.35425 27.025,24.51525 27.043,24.67525 C16.483,26.72325 8.188,35.17825 6.376,45.81925 C4.286,47.00225 2,48.74325 2,50.69625 C2,55.78125 17.512,59.19625 32,59.19625 C46.488,59.19625 62,55.78125 62,50.69625 C62,48.74325 59.714,47.00225 57.624,45.81925 L57.624,45.81925 L57.624,45.81925 L57.624,45.81925 L57.624,45.81925 Z M29.006,24.36825 C29.002,24.31025 29,24.25225 29,24.19625 C29,22.54225 30.346,21.19625 32,21.19625 C33.654,21.19625 35,22.54225 35,24.19625 C35,24.25325 34.998,24.31025 34.994,24.36825 C34.947,24.36325 34.9,24.36125 34.854,24.35625 C34.51,24.31825 34.164,24.29125 33.816,24.26725 C33.688,24.25825 33.561,24.24525 33.433,24.23825 C32.959,24.21225 32.482,24.19725 32.001,24.19725 C31.52,24.19725 31.043,24.21225 30.569,24.23825 C30.441,24.24525 30.314,24.25825 30.186,24.26725 C29.838,24.29125 29.492,24.31925 29.148,24.35625 C29.1,24.36125 29.053,24.36225 29.006,24.36825 L29.006,24.36825 L29.006,24.36825 L29.006,24.36825 L29.006,24.36825 Z M27.345,30.70825 C27.418,30.70825 27.492,30.70025 27.566,30.68425 C29.004,30.36025 30.491,30.19625 31.987,30.19625 L32,30.19625 C32.552,30.19625 33,29.74925 33,29.19725 C33,28.64425 32.553,28.19625 32,28.19625 L31.986,28.19625 C30.343,28.19625 28.708,28.37725 27.126,28.73325 C26.587,28.85425 26.249,29.38925 26.37,29.92825 C26.476,30.39325 26.888,30.70825 27.345,30.70825 L27.345,30.70825 L27.345,30.70825 L27.345,30.70825 L27.345,30.70825 Z M11.821,47.17925 C11.882,47.19125 11.942,47.19625 12.001,47.19625 C12.475,47.19625 12.896,46.85825 12.984,46.37625 C14.023,40.67825 17.457,35.60825 22.17,32.81625 C22.645,32.53525 22.802,31.92125 22.521,31.44625 C22.239,30.97125 21.626,30.81425 21.151,31.09525 C15.947,34.17825 12.159,39.75625 11.017,46.01625 C10.917,46.56025 11.277,47.08025 11.821,47.17925 L11.821,47.17925 L11.821,47.17925 L11.821,47.17925 L11.821,47.17925 Z M28.399,26.46625 C28.936,26.38625 29.476,26.32825 30.018,26.28425 C30.129,26.27525 30.24,26.26725 30.351,26.25925 C31.449,26.18525 32.552,26.18525 33.65,26.25925 C33.761,26.26725 33.872,26.27525 33.983,26.28425 C34.525,26.32825 35.065,26.38625 35.602,26.46625 C46.02,28.04125 54.259,36.33825 55.754,46.78225 C55.8,47.10325 55.837,47.42525 55.87,47.74725 C55.881,47.85825 55.896,47.96825 55.906,48.07925 C55.945,48.52225 55.974,48.96525 55.988,49.40825 C40.278,53.04925 23.724,53.04925 8.014,49.40825 C8.029,48.96525 8.057,48.52225 8.096,48.07925 C8.106,47.96825 8.12,47.85825 8.132,47.74725 C8.165,47.42425 8.202,47.10225 8.248,46.78225 C9.742,36.33825 17.981,28.04025 28.399,26.46625 L28.399,26.46625 L28.399,26.46625 L28.399,26.46625 L28.399,26.46625 Z M32,57.19625 C14.904,57.19625 4,52.92725 4,50.69625 C4,50.31325 4.474,49.46925 6.064,48.36825 C6.06,48.42525 6.062,48.48125 6.058,48.53825 C6.024,49.08625 6,49.63825 6,50.19625 L6,50.98425 L6.767,51.16925 C15.021,53.14925 23.511,54.14125 32,54.14125 C40.489,54.14125 48.979,53.15025 57.233,51.16925 L58,50.98425 L58,50.19625 C58,49.63825 57.976,49.08725 57.942,48.53825 C57.938,48.48125 57.94,48.42525 57.936,48.36825 C59.526,49.46925 60,50.31325 60,50.69625 C60,52.92725 49.096,57.19625 32,57.19625 L32,57.19625 L32,57.19625 L32,57.19625 L32,57.19625 Z" id="food" fill="#2F484D"></path>
            </g>
        </g>
    </g>
</svg>