<svg width="64" height="64" viewBox="0 0 64 64" xmlns="http://www.w3.org/2000/svg">
    <g fill="none" fill-rule="evenodd">
        <path d="M0 0h64v64H0z"/>
        <path d="M18.933 54.667c-4.533 0-8.266-3.475-8.266-7.75v-34.5c0-4.25 3.706-7.75 8.266-7.75h26.134c4.533 0 8.266 3.475 8.266 7.75v34.5c0 4.275-3.706 7.75-8.266 7.75H18.933z" stroke="#2F484D" stroke-width="2" stroke-linecap="round" stroke-linejoin="round" stroke-dasharray="0,0"/>
        <path d="M14.667 32.667c-2.214 0-4-2.68-4-6v-8c0-3.32 1.786-6 4-6h34.666c2.214 0 4 2.68 4 6v8c0 3.32-1.786 6-4 6H14.667z" stroke="#2F484D" stroke-width="2" fill="#9EBABA" fill-rule="nonzero" stroke-linecap="round" stroke-linejoin="round" stroke-dasharray="0,0"/>
        <path stroke="#BE8432" stroke-width="4" stroke-linecap="round" stroke-linejoin="round" stroke-dasharray="0,0" d="M22.652 43.201h.024M41.319 43.201h.024"/>
        <path d="M21.585 54.547v3.07a2.941 2.941 0 0 1-2.79 3.07 2.941 2.941 0 0 1-2.792-3.07V54M43.003 54.547v3.07a2.941 2.941 0 0 0 2.79 3.07 2.941 2.941 0 0 0 2.792-3.07V54" stroke="#2F484D" stroke-width="2"/>
    </g>
</svg>
