<?xml version="1.0" encoding="UTF-8"?>
<svg width="64px" height="64px" viewBox="0 0 64 64" version="1.1" xmlns="http://www.w3.org/2000/svg" xmlns:xlink="http://www.w3.org/1999/xlink">
    <title>A97E543B-F2D4-4A2A-80D1-CDB1738BD8B5</title>
    <g id="Site" stroke="none" stroke-width="1" fill="none" fill-rule="evenodd">
        <g id="icons" transform="translate(-360.000000, -2169.000000)">
            <g id="icon-books" transform="translate(360.000000, 2169.000000)">
                <rect id="Rectangle" x="0" y="0" width="64" height="64"></rect>
                <path d="M31,16.5 L20.5784607,12.3316345 L12.0627174,10.3554306 L8.36526489,11.1748734 L7.00397491,13.4277153 L7.00397491,46.0611038 L8.36526489,48.6415253 C10.5350172,49.5471751 12.2396512,50 13.4791667,50 C15.3384399,50 24.7526093,53.4549764 25.4336548,53.4549764 C25.8876851,53.4549764 27.7431335,54.2507206 31,55.8422089 L31,16.5 Z" id="Path-40" fill="#9EBABA"></path>
                <g id="book" transform="translate(4.000000, 6.000000)" fill="#2F484D" stroke-dasharray="0,0" stroke-width="1.5">
                    <path d="M25.7878195,52.6104067 C20.9210246,49.9557913 12.3585898,47.1450199 6.99730787,46.4423275 L6.24256438,46.3382226 C2.83320555,45.9218124 0.0224358974,42.7206604 0.0224358974,39.25925 L0.0224358974,7.82027587 C0.0224358974,5.76425017 0.829231086,3.89040503 2.31269261,2.53707175 C3.79615413,1.18373846 5.72205081,0.533096899 7.75205074,0.715276387 C13.4776919,1.15771229 22.1182048,4.02053311 27.0110253,7.09155862 L27.6356401,7.45591724 C27.8178196,7.5600198 28.208206,7.5600204 28.3643599,7.48194348 L28.7807697,7.22168608 C33.6735902,4.15066057 42.3141001,1.23578949 48.0657668,0.741302313 C48.1178181,0.741302313 48.3260254,0.741302313 48.3780767,0.741302313 C50.2779486,0.559122825 52.229874,1.23578969 53.6873099,2.58912298 C55.1707714,3.94245626 55.9775641,5.8163014 55.9775641,7.8723271 L55.9775641,39.2852763 C55.9775641,42.7727123 53.166796,45.9478386 49.7314112,46.3642488 L48.8725653,46.4683538 C43.5112834,47.1710461 34.9228204,50.0078382 30.160128,52.6364279 C29.5355126,53.0007869 28.7807693,53.1569427 28,53.1569427 C27.2192307,53.1569427 26.4384605,52.9747656 25.7878195,52.6104067 Z M4.94128232,5.42591763 C4.2906413,6.02450738 3.92628205,6.88335275 3.92628205,7.82027587 L3.92628205,39.25925 C3.92628205,40.7947628 5.25358956,42.2782238 6.73705108,42.4864289 L7.51782081,42.5905339 C13.37359,43.3713031 22.3524357,46.3122016 27.5575639,49.1489966 C27.7917947,49.2530992 28.1301292,49.2791216 28.2602574,49.2270703 C33.4653856,46.3382242 42.4962819,43.3713031 48.3780767,42.5905339 L49.2629489,42.4864289 C50.7464104,42.3042494 52.0737179,40.7947628 52.0737179,39.25925 L52.0737179,7.84630211 C52.0737179,6.88335338 51.7093606,6.050533 51.0587195,5.42591763 C50.3820529,4.82732787 49.5232041,4.54104601 48.5602554,4.59309729 C48.5082041,4.59309729 48.3000018,4.59309729 48.2479505,4.59309729 C43.2770532,5.03553319 35.2611528,7.71617402 30.8888453,10.4488662 L30.4724354,10.7351486 C29.0410251,11.6200204 27.011026,11.6200198 25.6316671,10.7611736 L25.0070523,10.396815 C20.5566676,7.66412279 12.5407691,5.00950753 7.43974334,4.59309729 C7.33564078,4.59309729 7.23153851,4.59309729 7.12743595,4.59309729 C6.29461545,4.59309729 5.53987208,4.87937918 4.94128232,5.42591763 Z" id="Vector" stroke="#F1F5F5"></path>
                    <path d="M26.0480769,47.2382263 L26.0480769,12.9724921 C26.0480769,12.0358953 26.9329487,11.2592054 28,11.2592054 C29.0670513,11.2592054 29.9519231,12.0358953 29.9519231,12.9724921 L29.9519231,47.2382263 C29.9519231,48.1976669 29.0670513,48.951513 28,48.951513 C26.9329487,48.951513 26.0480769,48.1748231 26.0480769,47.2382263 Z" id="Vector" stroke="#F1F5F5" fill-rule="nonzero"></path>
                    <path d="M11.0833333,19.7399746 C10.0162821,19.7399746 9.13141026,18.8551028 9.13141026,17.7880515 C9.13141026,16.7210002 10.0162821,15.8361284 11.0833333,15.8361284 L16.9391026,15.8361284 C18.0061538,15.8361284 18.8910256,16.7210002 18.8910256,17.7880515 C18.8910256,18.8551028 18.0061538,19.7399746 16.9391026,19.7399746 L11.0833333,19.7399746 Z" id="Vector" stroke="#9EBABA" fill-rule="nonzero"></path>
                    <path d="M11.0833333,27.5476669 C10.0162821,27.5476669 9.13141026,26.6627951 9.13141026,25.5957438 C9.13141026,24.5286925 10.0162821,23.6438207 11.0833333,23.6438207 L18.8910256,23.6438207 C19.9580769,23.6438207 20.8429487,24.5286925 20.8429487,25.5957438 C20.8429487,26.6627951 19.9580769,27.5476669 18.8910256,27.5476669 L11.0833333,27.5476669 Z" id="Vector" stroke="#9EBABA" fill-rule="nonzero"></path>
                </g>
            </g>
        </g>
    </g>
</svg>