<?xml version="1.0" encoding="UTF-8"?>
<svg width="64px" height="64px" viewBox="0 0 64 64" version="1.1" xmlns="http://www.w3.org/2000/svg" xmlns:xlink="http://www.w3.org/1999/xlink">
    <title>F2140C72-92A8-436C-A25D-4360814D0BAE</title>
    <g id="Site" stroke="none" stroke-width="1" fill="none" fill-rule="evenodd">
        <g id="icons" transform="translate(-360.000000, -2893.000000)">
            <g id="icon-cable" transform="translate(360.000000, 2893.000000)">
                <rect id="Rectangle" x="0" y="0" width="64" height="64"></rect>
                <g id="Vector" transform="translate(7.000000, 3.000000)" stroke="#2F484D" stroke-linecap="round" stroke-linejoin="round" stroke-width="2">
                    <path d="M18.8178072,48.2141241 L31.1820607,48.2141241 C36.5427457,48.3136826 40.9697039,44.0497979 41.07132,38.6891494 L41.07132,29.1677448 C40.9697039,23.8070974 36.5427457,19.5432116 31.1820607,19.6427699 L18.8178072,19.6427699 C13.4571211,19.5432116 9.03016249,23.8070974 8.92854783,29.1677448 L8.92854783,38.6927209 C9.03210727,44.0519621 13.4584895,48.3136969 18.8178072,48.2141241 Z" id="Vector-8" fill="#9EBABA"></path>
                    <path d="M14.2857372,0 L20.4714352,10.7142574 M35.714252,0 L29.5285541,10.7142574 M29.528555,10.7142574 L34.614255,10.7142574 C43.13579,10.7398621 50.023635,17.667679 50,26.1892159 L50,41.6641749 C50.01226,45.7570298 48.3982,49.6871469 45.5128225,52.5899371 C42.627445,55.4927319 38.70711,57.1304119 34.614255,57.1427061 L15.385735,57.1427061 C6.864203,57.1171027 -0.02364302,50.1892845 0,41.6677467 L0,26.1892159 C-0.02364302,17.667679 6.864203,10.7398621 15.385735,10.7142574 L20.471436,10.7142574 M29.5285541,10.7142574 L20.4714352,10.7142574" id="Vector-9"></path>
                </g>
            </g>
        </g>
    </g>
</svg>