<?xml version="1.0" encoding="UTF-8"?>
<svg width="64px" height="64px" viewBox="0 0 64 64" version="1.1" xmlns="http://www.w3.org/2000/svg" xmlns:xlink="http://www.w3.org/1999/xlink">
    <title>4FCC1904-DFF9-4F22-9F08-5F23674B0257</title>
    <g id="Site" stroke="none" stroke-width="1" fill="none" fill-rule="evenodd">
        <g id="icons" transform="translate(-120.000000, -1861.000000)">
            <g id="icon-fastfood" transform="translate(120.000000, 1861.000000)">
                <rect id="Rectangle" x="0" y="0" width="64" height="64"></rect>
                <polygon id="Path-34" fill-opacity="0.7" fill="#BE8432" points="38.3900763 29.5 51.1727448 29.5 44.3589153 38.2835083"></polygon>
                <path d="M8.57940102,25.5 C8.57940102,25.5 9.81966782,22.6048475 12.3002014,16.8145424 L17.7057152,11.5633688 L25.1503792,7.96610169 L31.9865999,6.60142803 L39.5458983,7.96610169 L45.7627119,11.5633688 L51.4994812,16.8145424 L54.7752304,22.7108814 L55.4856567,25.5 C24.2148196,25.5 8.57940102,25.5 8.57940102,25.5 Z" id="Path-35" fill-opacity="0.7" fill="#BE8432"></path>
                <polygon id="Path-36" fill-opacity="0.7" fill="#BE8432" points="9.11937714 45.5 55.037117 45.5 51.883812 54.5582581 48.5369034 57.0140114 15.433033 57.0140114 11.9580688 54.1694915"></polygon>
                <path d="M56.0847458,32.5423729 L50.1402373,32.5423729 L51.6541356,30.5762712 L55.1016949,30.5762712 C55.644339,30.5762712 56.0847458,30.1368475 56.0847458,29.5932203 C56.0847458,29.0495932 55.644339,28.6101695 55.1016949,28.6101695 L51.1694915,28.6101695 L37.548339,28.6101695 L8.89830508,28.6101695 C8.35566102,28.6101695 7.91525424,29.0495932 7.91525424,29.5932203 C7.91525424,30.1368475 8.35566102,30.5762712 8.89830508,30.5762712 L37.0636949,30.5762712 L38.5775932,32.5423729 L7.91525424,32.5423729 C5.20498305,32.5423729 3,34.7473559 3,37.4576271 C3,40.1678983 5.20498305,42.3728814 7.91525424,42.3728814 L56.0847458,42.3728814 C58.7950169,42.3728814 61,40.1678983 61,37.4576271 C61,34.7473559 58.7950169,32.5423729 56.0847458,32.5423729 L56.0847458,32.5423729 L56.0847458,32.5423729 L56.0847458,32.5423729 L56.0847458,32.5423729 L56.0847458,32.5423729 L56.0847458,32.5423729 Z M49.1719322,30.5762712 L47.3641017,32.9247797 L44.3589153,36.8284746 L41.3537288,32.9247797 L39.5458983,30.5762712 L49.1719322,30.5762712 L49.1719322,30.5762712 L49.1719322,30.5762712 L49.1719322,30.5762712 L49.1719322,30.5762712 L49.1719322,30.5762712 L49.1719322,30.5762712 L49.1719322,30.5762712 Z M36.7117627,36.7626102 C36.2811864,37.1931864 35.5832203,37.1931864 35.1526441,36.7626102 C33.9562712,35.5662373 32.0098305,35.5662373 30.8134576,36.7626102 C30.3828814,37.1931864 29.6849153,37.1931864 29.254339,36.7626102 C28.0579661,35.5662373 26.1115254,35.5662373 24.9151525,36.7626102 C24.4973559,37.1794237 23.7738305,37.1794237 23.3560339,36.7626102 C22.159661,35.5662373 20.2132203,35.5662373 19.0168475,36.7626102 C18.5990508,37.1794237 17.8755254,37.1794237 17.4577288,36.7626102 C16.2613559,35.5662373 14.3149153,35.5662373 13.1185424,36.7626102 C12.6879661,37.1931864 11.99,37.1931864 11.5594237,36.7626102 C10.3994237,35.6026102 8.38023729,35.6026102 7.22023729,36.7626102 C6.83586441,37.1469831 6.83586441,37.7682712 7.22023729,38.1526441 C7.60461017,38.5370169 8.22589831,38.5370169 8.61027119,38.1526441 C9.04084746,37.7220678 9.73881356,37.7220678 10.1693898,38.1526441 C11.3657627,39.3490169 13.3122034,39.3490169 14.5085763,38.1526441 C14.9391525,37.7220678 15.6371186,37.7220678 16.0676949,38.1526441 C17.2640678,39.3490169 19.2105085,39.3490169 20.4068814,38.1526441 C20.824678,37.7358305 21.5482034,37.7358305 21.966,38.1526441 C23.1623729,39.3490169 25.1088136,39.3490169 26.3051864,38.1526441 C26.7229831,37.7358305 27.4465085,37.7358305 27.8643051,38.1526441 C29.060678,39.3490169 31.0071186,39.3490169 32.2034915,38.1526441 C32.6340678,37.7220678 33.3320339,37.7220678 33.7626102,38.1526441 C34.3426102,38.7326441 35.113322,39.0521356 35.9322034,39.0521356 C36.7510847,39.0521356 37.5217966,38.7326441 38.1017966,38.1526441 C38.4861695,37.7682712 38.4861695,37.1469831 38.1017966,36.7626102 C37.7174237,36.3782373 37.0961356,36.3782373 36.7117627,36.7626102 L36.7117627,36.7626102 L36.7117627,36.7626102 L36.7117627,36.7626102 L36.7117627,36.7626102 L36.7117627,36.7626102 L36.7117627,36.7626102 Z M55.3897288,36.7626102 C54.9719322,37.1794237 54.2484068,37.1794237 53.8306102,36.7626102 C52.6342373,35.5662373 50.6877966,35.5662373 49.4914237,36.7626102 C49.1070508,37.1469831 49.1070508,37.7682712 49.4914237,38.1526441 C49.8757966,38.5370169 50.4970847,38.5370169 50.8814576,38.1526441 C51.2992542,37.7358305 52.0227797,37.7358305 52.4405763,38.1526441 C53.0382712,38.750339 53.8247119,39.0501695 54.6101695,39.0501695 C55.3956271,39.0501695 56.1820678,38.750339 56.7797627,38.1526441 C57.1641356,37.7682712 57.1641356,37.1469831 56.7797627,36.7626102 C56.3953898,36.3782373 55.7741017,36.3782373 55.3897288,36.7626102 L55.3897288,36.7626102 L55.3897288,36.7626102 L55.3897288,36.7626102 L55.3897288,36.7626102 L55.3897288,36.7626102 L55.3897288,36.7626102 Z M56.0847458,40.4067797 L7.91525424,40.4067797 C6.28928814,40.4067797 4.96610169,39.0835932 4.96610169,37.4576271 C4.96610169,35.831661 6.28928814,34.5084746 7.91525424,34.5084746 L40.0905085,34.5084746 L43.5793559,39.040339 C43.7651525,39.2811864 44.0531864,39.4237288 44.3579322,39.4237288 C44.662678,39.4237288 44.9507119,39.2811864 45.1365085,39.040339 L48.6253559,34.5084746 L56.0847458,34.5084746 C57.7107119,34.5084746 59.0338983,35.831661 59.0338983,37.4576271 C59.0338983,39.0835932 57.7107119,40.4067797 56.0847458,40.4067797 L56.0847458,40.4067797 L56.0847458,40.4067797 L56.0847458,40.4067797 L56.0847458,40.4067797 L56.0847458,40.4067797 L56.0847458,40.4067797 Z M55.0751525,44.3389831 L8.89830508,44.3389831 C8.58274576,44.3389831 8.28586441,44.4903729 8.10105085,44.7459661 C7.91623729,45.0025424 7.86511864,45.3318644 7.96440678,45.6307119 L10.4456271,53.1205763 C11.4463729,56.1444407 14.2598644,58.1764068 17.4459322,58.1764068 L46.5442373,58.1764068 C49.7362034,58.1764068 52.550678,56.1395254 53.5484746,53.1068136 L56.0090508,45.6297288 C56.108339,45.3298983 56.0562373,45.0015593 55.8714237,44.7469492 C55.6866102,44.492339 55.3907119,44.3389831 55.0751525,44.3389831 L55.0751525,44.3389831 L55.0751525,44.3389831 L55.0751525,44.3389831 L55.0751525,44.3389831 L55.0751525,44.3389831 L55.0751525,44.3389831 Z M20.149322,52.0382373 C20.3164407,52.149322 20.5061695,52.2033898 20.6939322,52.2033898 C21.0114576,52.2033898 21.3230847,52.0500339 21.5128136,51.7659322 C21.8136271,51.3137288 21.6917288,50.7042373 21.2405085,50.4024407 L18.2913559,48.436339 C17.8391525,48.1345424 17.229661,48.2564407 16.9278644,48.7086441 C16.6270508,49.1608475 16.7489492,49.770339 17.2001695,50.0721356 L20.149322,52.0382373 L20.149322,52.0382373 L20.149322,52.0382373 L20.149322,52.0382373 L20.149322,52.0382373 L20.149322,52.0382373 L20.149322,52.0382373 Z M25.1707458,52.0991864 C25.3123051,52.1689831 25.4617288,52.2024068 25.6091864,52.2024068 C25.9699661,52.2024068 26.3169831,52.0038305 26.49,51.6587797 L27.4730508,49.692678 C27.7158644,49.2070508 27.5192542,48.6162373 27.0336271,48.3734237 C26.5460339,48.1315932 25.9571864,48.3272203 25.7143729,48.8128475 L24.731322,50.7789492 C24.4875254,51.2665424 24.6851186,51.8563729 25.1707458,52.0991864 L25.1707458,52.0991864 L25.1707458,52.0991864 L25.1707458,52.0991864 L25.1707458,52.0991864 L25.1707458,52.0991864 L25.1707458,52.0991864 Z M30.6286441,54.6089153 C30.800678,54.9539661 31.1476949,55.1525424 31.5094576,55.1525424 C31.6569153,55.1525424 31.807322,55.1191186 31.9478983,55.049322 C32.4335254,54.8065085 32.6301356,54.2156949 32.387322,53.7300678 L31.4042712,51.7639661 C31.1614576,51.278339 30.5726102,51.0827119 30.0850169,51.3245424 C29.5993898,51.5673559 29.4027797,52.1581695 29.6455932,52.6437966 L30.6286441,54.6089153 L30.6286441,54.6089153 L30.6286441,54.6089153 L30.6286441,54.6089153 L30.6286441,54.6089153 L30.6286441,54.6089153 L30.6286441,54.6089153 Z M35.0012542,51.1161356 C35.1428136,51.1859322 35.2922373,51.2193559 35.4396949,51.2193559 C35.8004746,51.2193559 36.1474915,51.0207797 36.3205085,50.6757288 L37.3035593,48.7096271 C37.5463729,48.224 37.3497627,47.6331864 36.8641356,47.3903729 C36.3765424,47.1495254 35.7876949,47.3451525 35.5448814,47.8297966 L34.5618305,49.7958983 C34.3180339,50.2834915 34.5156271,50.873322 35.0012542,51.1161356 L35.0012542,51.1161356 L35.0012542,51.1161356 L35.0012542,51.1161356 L35.0012542,51.1161356 L35.0012542,51.1161356 L35.0012542,51.1161356 Z M41.4422034,53.6258644 C41.6142373,53.9709153 41.9612542,54.1694915 42.3230169,54.1694915 C42.4704746,54.1694915 42.6208814,54.1360678 42.7614576,54.0662712 C43.2470847,53.8234576 43.4436949,53.2326441 43.2008814,52.7470169 L42.2178305,50.7809153 C41.9740339,50.2962712 41.3861695,50.1006441 40.8985763,50.3414915 C40.4129492,50.5843051 40.216339,51.1751186 40.4591525,51.6607458 L41.4422034,53.6258644 L41.4422034,53.6258644 L41.4422034,53.6258644 L41.4422034,53.6258644 L41.4422034,53.6258644 L41.4422034,53.6258644 L41.4422034,53.6258644 Z M45.8148136,51.1161356 C45.9563729,51.1859322 46.1057966,51.2193559 46.2532542,51.2193559 C46.6140339,51.2193559 46.9610508,51.0207797 47.1340678,50.6757288 L48.1171186,48.7096271 C48.3599322,48.224 48.163322,47.6331864 47.6776949,47.3903729 C47.1910847,47.1495254 46.6012542,47.3451525 46.3584407,47.8297966 L45.3753898,49.7958983 C45.1315932,50.2834915 45.3291864,50.873322 45.8148136,51.1161356 L45.8148136,51.1161356 L45.8148136,51.1161356 L45.8148136,51.1161356 L45.8148136,51.1161356 L45.8148136,51.1161356 L45.8148136,51.1161356 Z M51.681661,52.4924068 C50.9492881,54.7170508 48.8858644,56.2103051 46.5442373,56.2103051 L17.4459322,56.2103051 C15.1092203,56.2103051 13.0457966,54.72 12.3124407,52.5032203 L10.2598305,46.3050847 L53.7175593,46.3050847 L51.681661,52.4924068 L51.681661,52.4924068 L51.681661,52.4924068 L51.681661,52.4924068 L51.681661,52.4924068 L51.681661,52.4924068 L51.681661,52.4924068 Z M8.53162712,26.6440678 L55.4673898,26.6440678 C55.7672203,26.6440678 56.0493559,26.5074237 56.2361356,26.2734576 C56.4229153,26.0394915 56.4927119,25.7327797 56.4248814,25.4408136 C53.7981695,13.9941695 43.754339,6 32,6 C20.245661,6 10.2018305,13.9941695 7.57413559,25.4408136 C7.50728814,25.7327797 7.57610169,26.0385085 7.76288136,26.2734576 C7.94966102,26.5084068 8.23277966,26.6440678 8.53162712,26.6440678 L8.53162712,26.6440678 L8.53162712,26.6440678 L8.53162712,26.6440678 L8.53162712,26.6440678 L8.53162712,26.6440678 L8.53162712,26.6440678 Z M44.8337288,16.9787119 C44.3805424,16.6769153 43.7710508,16.7988136 43.4702373,17.2510169 C43.1694237,17.7032203 43.291322,18.3127119 43.7425424,18.6145085 L46.6916949,20.5806102 C46.8588136,20.6916949 47.0485424,20.7457627 47.2363051,20.7457627 C47.5538305,20.7457627 47.8654576,20.5924068 48.0551864,20.3083051 C48.356,19.8561017 48.2341017,19.2466102 47.7828814,18.9448136 L44.8337288,16.9787119 L44.8337288,16.9787119 L44.8337288,16.9787119 L44.8337288,16.9787119 L44.8337288,16.9787119 L44.8337288,16.9787119 L44.8337288,16.9787119 Z M39.8123051,17.8998305 C39.3247119,17.658 38.7358644,17.8536271 38.4930508,18.3392542 L37.51,20.3053559 C37.2671864,20.7909831 37.4637966,21.3817966 37.9494237,21.6246102 C38.0909831,21.6944068 38.2404068,21.7278305 38.3878644,21.7278305 C38.7486441,21.7278305 39.095661,21.5292542 39.268678,21.1842034 L40.2517288,19.2181017 C40.4955254,18.7334576 40.2979322,18.1426441 39.8123051,17.8998305 L39.8123051,17.8998305 L39.8123051,17.8998305 L39.8123051,17.8998305 L39.8123051,17.8998305 L39.8123051,17.8998305 L39.8123051,17.8998305 Z M36.3205085,13.4249831 C36.0776949,12.940339 35.4878644,12.7447119 35.0012542,12.9855593 C34.5156271,13.2283729 34.3190169,13.8191864 34.5618305,14.3048136 L35.5448814,16.2709153 C35.7169153,16.6159661 36.0639322,16.8145424 36.4256949,16.8145424 C36.5731525,16.8145424 36.7235593,16.7811186 36.8641356,16.711322 C37.3497627,16.4685085 37.5463729,15.8776949 37.3035593,15.3920678 L36.3205085,13.4249831 L36.3205085,13.4249831 L36.3205085,13.4249831 L36.3205085,13.4249831 L36.3205085,13.4249831 L36.3205085,13.4249831 L36.3205085,13.4249831 Z M29.9817966,18.8828814 C29.4942034,18.6410508 28.9053559,18.837661 28.6625424,19.3223051 L27.6794915,21.2884068 C27.436678,21.7740339 27.6332881,22.3648475 28.1189153,22.607661 C28.2604746,22.6774576 28.4098983,22.7108814 28.5573559,22.7108814 C28.9181356,22.7108814 29.2651525,22.5123051 29.4381695,22.1672542 L30.4212203,20.2011525 C30.6650169,19.7165085 30.4674237,19.1256949 29.9817966,18.8828814 L29.9817966,18.8828814 L29.9817966,18.8828814 L29.9817966,18.8828814 L29.9817966,18.8828814 L29.9817966,18.8828814 L29.9817966,18.8828814 Z M30.9648475,10.0354237 C30.4782373,9.79457627 29.8884068,9.99020339 29.6455932,10.4748475 L28.6625424,12.4409492 C28.4197288,12.9265763 28.616339,13.5173898 29.1019661,13.7602034 C29.2435254,13.83 29.3929492,13.8634237 29.5404068,13.8634237 C29.9011864,13.8634237 30.2482034,13.6648475 30.4212203,13.3197966 L31.4042712,11.3536949 C31.6480678,10.8690508 31.4504746,10.2782373 30.9648475,10.0354237 L30.9648475,10.0354237 L30.9648475,10.0354237 L30.9648475,10.0354237 L30.9648475,10.0354237 L30.9648475,10.0354237 L30.9648475,10.0354237 Z M23.5408475,15.3910847 C23.2980339,14.9054576 22.7082034,14.7098305 22.2215932,14.951661 C21.7359661,15.1944746 21.5393559,15.7852881 21.7821695,16.2709153 L22.7652203,18.2370169 C22.9372542,18.5820678 23.2842712,18.7806441 23.6460339,18.7806441 C23.7934915,18.7806441 23.9438983,18.7472203 24.0844746,18.6774237 C24.5701017,18.4346102 24.7667119,17.8437966 24.5238983,17.3581695 L23.5408475,15.3910847 L23.5408475,15.3910847 L23.5408475,15.3910847 L23.5408475,15.3910847 L23.5408475,15.3910847 L23.5408475,15.3910847 L23.5408475,15.3910847 Z M19.1682373,18.8828814 C18.6806441,18.6410508 18.0917966,18.837661 17.8489831,19.3223051 L16.8659322,21.2884068 C16.6231186,21.7740339 16.8197288,22.3648475 17.3053559,22.607661 C17.4469153,22.6774576 17.596339,22.7108814 17.7437966,22.7108814 C18.1045763,22.7108814 18.4515932,22.5123051 18.6246102,22.1672542 L19.607661,20.2011525 C19.8514576,19.7165085 19.6538644,19.1256949 19.1682373,18.8828814 L19.1682373,18.8828814 L19.1682373,18.8828814 L19.1682373,18.8828814 L19.1682373,18.8828814 L19.1682373,18.8828814 L19.1682373,18.8828814 Z M32,7.96610169 C42.4154237,7.96610169 51.3739661,14.776678 54.2002373,24.6779661 L9.79976271,24.6779661 C12.6260339,14.776678 21.5845763,7.96610169 32,7.96610169 L32,7.96610169 L32,7.96610169 L32,7.96610169 L32,7.96610169 L32,7.96610169 L32,7.96610169 Z" id="hamburguer" fill="#2F484D"></path>
            </g>
        </g>
    </g>
</svg>