<svg width="64" height="64" viewBox="0 0 64 64" xmlns="http://www.w3.org/2000/svg">
    <g fill="none" fill-rule="evenodd">
        <path d="M0 0h64v64H0z"/>
        <g transform="translate(2 2)">
            <path fill="#D9845F" d="m8.654 36.257 7.425-.41 4.367-2.09 3.988-4.91.97-6.236-1.847-5.482v-4.553l4.324-4.285 7.931-2.596 4.702.365 5.976 3.298 4.993 7.143 2.572 7.816-.458 9.44-2.765 7.65-5.168 6.223-7.01 3.754-9.435 2.014H18.82L9.184 47.63 5.478 41.8l.55-4.201z"/>
            <path fill="#F1F5F5" d="m30 53.398-1.447-4.936-5.73-4.125-2.377-5.681-1.625-3.308-4.804.909H8.853l-1.93.397-1.445 2.002 1.445 4.893 3.696 4.913 7.12 4.936h7.734z"/>
            <path fill="#F1F5F5" d="m24.808 28.846 8.03 2.954 9.854-4.032 11.363-1.18V31.8l-1.19 4.457-4.722-.909-7.244.909-8.06 3.532-5.021 1.138-4.243-1.138-3.902-3.135-.852-1.306z"/>
            <circle fill="#F1F5F5" cx="38.654" cy="15.577" r="4.038"/>
            <path d="M57.224 15.99c-2.129-5.243-6.1-12.062-12.934-14.781C39.277-.788 33.467-.31 27.024 2.628 18.968 6.3 16.333 12.883 19.607 21.164c1.016 2.569.63 5.374-1.032 7.504-1.665 2.133-4.3 3.184-7.045 2.831-4.375-.573-7.733.408-9.715 2.84-1.517 1.863-2.86 5.422-.646 11.791l.041.104c.158.345 3.996 8.48 13.845 11.737 2.128.704 4.332.899 6.463 1.087l.337.03c.71.063 1.938.145 3.532.145 3.977 0 10.238-.509 16.456-3.082 9.059-3.747 14.806-10.421 17.082-19.837 1.599-6.615 1.01-13.644-1.701-20.323zm-.542 19.782C54.59 44.431 49.3 50.57 40.96 54.02c-8.222 3.4-16.542 2.978-18.9 2.77l-.338-.03c-2.092-.185-4.067-.36-5.94-.98-8.513-2.814-12.147-9.846-12.454-10.47-1.433-4.156-1.335-7.533.277-9.514 1.45-1.779 4.087-2.471 7.623-2.009 3.574.472 6.994-.913 9.166-3.699 2.17-2.782 2.677-6.435 1.358-9.772-2.834-7.169-.738-12.413 6.229-15.588C33.83 2.062 39.03 1.6 43.437 3.352c6.077 2.419 9.687 8.68 11.648 13.506 2.53 6.231 3.082 12.77 1.597 18.914zm-1.545-8.081c-.147-3.3-.861-6.63-2.177-9.87C47.95 5.486 39.723 1.734 28.554 6.819c-2.236 1.02-9.039 4.121-5.36 13.428 1.34 3.39.953 7.034-1.062 9.994-2.281 3.354-6.229 5.109-10.31 4.57-3.041-.406-5.322.197-6.375 1.68-1.115 1.57-1.105 4.29.03 7.656l.067.158c.576 1.124 3.822 6.851 11.179 9.285 1.672.552 3.498.714 5.43.885l.326.029c.979.087 2.029.131 3.123.131 21.796 0 27.426-13.561 28.835-19.393.58-2.396.8-4.86.709-7.34.007-.073-.001-.141-.01-.211zM29.512 8.919c2.923-1.333 5.615-2.008 8-2.008 5.658 0 10.136 3.963 13.31 11.777a27.868 27.868 0 0 1 1.843 7.1c-5.168-1.459-14.322 3.075-15.85 3.862-6.9 2.194-10.097-.952-10.973-2.066.71-2.65.566-5.483-.502-8.185-2.53-6.405.688-8.893 4.172-10.48zm9.096 12.474a5.776 5.776 0 0 0 5.769-5.77 5.776 5.776 0 0 0-5.77-5.769 5.776 5.776 0 0 0-5.769 5.77 5.776 5.776 0 0 0 5.77 5.769zm0-9.23a3.466 3.466 0 0 1 3.461 3.46 3.466 3.466 0 0 1-3.461 3.462 3.466 3.466 0 0 1-3.462-3.461 3.466 3.466 0 0 1 3.462-3.462zM24.042 31.538c.347-.51.643-1.041.911-1.581 1.349 1.236 3.75 2.75 7.446 2.75 1.516 0 3.25-.256 5.216-.89.062-.02.12-.044.178-.074 4.545-2.368 12.421-5.243 15.066-3.376a24.648 24.648 0 0 1-.664 6.333l-.037.145c-2.513-.708-8.607-1.417-18.665 3.407-3.44 1.65-6.41 1.972-8.825.96-2.335-.979-3.643-3.01-4.222-4.153a12.932 12.932 0 0 0 3.596-3.521zm-1.356 20.665-.328-.029c-1.796-.158-3.493-.308-4.91-.776-6.424-2.126-9.35-7.2-9.812-8.074-.989-2.977-.809-4.79-.307-5.498.502-.707 2.122-1.003 4.191-.73a13.15 13.15 0 0 0 6.625-.84c.07.375.142.8.21 1.257a14.667 14.667 0 0 0 6.146 9.918c2.374 1.637 3.98 3.114 4.052 4.795-.95.061-1.926.1-2.951.1a33.615 33.615 0 0 1-2.916-.123zm8.175-.183c-.186-3.127-3.274-5.264-5.05-6.49a12.3 12.3 0 0 1-4.461-5.662 9.708 9.708 0 0 0 2.397 1.46c3.057 1.293 6.67.959 10.745-.996 9.449-4.532 14.972-3.825 16.991-3.274-1.917 5.28-7.045 13.302-20.622 14.962z" fill="#2F484D"/>
        </g>
    </g>
</svg>
