<svg width="64" height="64" viewBox="0 0 64 64" xmlns="http://www.w3.org/2000/svg">
    <g fill="none" fill-rule="evenodd">
        <path d="M0 0h64v64H0z"/>
        <path fill="#9EBABA" d="M11 5h43v6H11zM11 52h43v7H11z"/>
        <g stroke="#2F484D" stroke-linecap="round" stroke-linejoin="round" stroke-width="2">
            <path d="M32.396 34.24V42.2M32.396 30.96v-7.958M30.302 24.6l2.094 2.094L34.49 24.6M30.302 41.353l2.094-2.094 2.094 2.094M31.236 33.76l-3.282 3.282-2.08 2.08M33.556 31.44l3.282-3.282 2.611-2.611"/>
            <path d="M36.838 25.197v2.961h2.961M24.992 37.043h2.962v2.961M30.756 32.6h-7.959M34.036 32.6h7.959M40.396 30.506 38.302 32.6l2.094 2.094M23.643 30.506l2.094 2.094-2.094 2.094M25.874 26.079l2.08 2.08 3.282 3.281M39.45 39.654l-2.612-2.612-3.282-3.281"/>
            <path d="M39.8 37.043h-2.962v2.961M27.954 25.197v2.961h-2.962M34.036 32.6a1.64 1.64 0 1 1-3.28 0 1.64 1.64 0 0 1 3.28 0z"/>
            <path d="M11 13.16a62.731 62.731 0 0 1 0 38.77v8.057h42.792V51.93a62.73 62.73 0 0 1 0-38.77V5.103H11v8.057zM11 13.16h42.792M11 10.647h42.792M11 51.93h42.792"/>
        </g>
    </g>
</svg>
