<?xml version="1.0" encoding="UTF-8"?>
<svg width="64px" height="64px" viewBox="0 0 64 64" version="1.1" xmlns="http://www.w3.org/2000/svg" xmlns:xlink="http://www.w3.org/1999/xlink">
    <title>CE6E0F33-F043-41D9-8620-3AEA4949F021</title>
    <g id="Site" stroke="none" stroke-width="1" fill="none" fill-rule="evenodd">
        <g id="icons" transform="translate(-120.000000, -1345.000000)">
            <g id="icon-coffee" transform="translate(120.000000, 1345.000000)">
                <rect id="Rectangle" x="0" y="0" width="64" height="64"></rect>
                <polygon id="Path-28" fill="#9EBABA" points="21.5 45.5 11 49 9.94470978 50.99825 13.7752151 55.5758972 23.2882919 58.00025 33.224625 58.9792633 42.4475 58.00025 51.6110229 54.7377777 54.8319702 52.2396317 54.8319702 50.3284225 49.7552377 47.00025 43.6909103 45.5 39 50.3284225 33.224625 52.2396317 27.4475 50.99825"></polygon>
                <path d="M32.518,18.52125 C32.713,18.71625 32.969,18.81425 33.225,18.81425 C33.481,18.81425 33.737,18.71625 33.932,18.52125 C34.323,18.13025 34.323,17.49825 33.932,17.10725 C32.693,15.86825 32.693,13.85325 33.932,12.61425 C35.95,10.59525 35.95,7.31125 33.932,5.29325 C33.541,4.90225 32.909,4.90225 32.518,5.29325 C32.127,5.68425 32.127,6.31625 32.518,6.70725 C33.756,7.94525 33.756,9.96225 32.518,11.20025 C30.499,13.21925 30.499,16.50325 32.518,18.52125 L32.518,18.52125 L32.518,18.52125 L32.518,18.52125 L32.518,18.52125 Z M24,16.06725 C24,16.99425 24.361,17.86625 25.018,18.52125 C25.213,18.71625 25.469,18.81425 25.725,18.81425 C25.981,18.81425 26.237,18.71625 26.433,18.52125 C26.823,18.13025 26.823,17.49825 26.433,17.10725 C26.153,16.82925 26,16.46025 26,16.06725 C26,15.67325 26.153,15.30425 26.432,15.02625 C27.786,13.67225 27.786,11.47025 26.432,10.11725 C26.041,9.72625 25.409,9.72625 25.018,10.11725 C24.627,10.50825 24.627,11.14025 25.018,11.53125 C25.592,12.10525 25.592,13.03825 25.018,13.61225 C24.361,14.26825 24,15.14025 24,16.06725 L24,16.06725 L24,16.06725 L24,16.06725 L24,16.06725 Z M39,16.06725 C39,16.99425 39.361,17.86625 40.018,18.52125 C40.213,18.71625 40.469,18.81425 40.725,18.81425 C40.981,18.81425 41.237,18.71625 41.433,18.52125 C41.823,18.13025 41.823,17.49825 41.433,17.10725 C41.153,16.82925 41,16.46025 41,16.06725 C41,15.67325 41.153,15.30425 41.432,15.02625 C42.786,13.67225 42.786,11.47025 41.432,10.11725 C41.041,9.72625 40.409,9.72625 40.018,10.11725 C39.627,10.50825 39.627,11.14025 40.018,11.53125 C40.592,12.10525 40.592,13.03825 40.018,13.61225 C39.361,14.26825 39,15.14025 39,16.06725 L39,16.06725 L39,16.06725 L39,16.06725 L39,16.06725 Z M45.332,45.11925 C45.26,45.10725 45.186,45.10225 45.114,45.09125 C45.124,45.07525 45.133,45.06025 45.143,45.04425 C45.279,45.05225 45.404,45.07725 45.546,45.07725 C48.975,45.07725 53.67,42.76525 54.849,37.76425 C55.399,35.43425 55.264,33.69925 54.437,32.45825 C53.414,30.92425 51.635,30.53525 49.986,30.25725 C50.062,26.99525 49.407,24.58625 48.816,23.41825 C48.637,23.06725 48.097,22.00025 47.126,22.00025 L18.033,22.00025 C17.062,22.00025 16.522,23.06725 16.344,23.41825 C15.042,25.99025 13.422,34.56925 20.03,45.06725 C19.96,45.07725 19.89,45.08225 19.82,45.09425 C15.779,45.81525 9,47.55125 9,51.06525 C9,55.57425 20.64,60.00025 32.5,60.00025 C44.36,60.00025 56,55.57425 56,51.06525 C56,47.57925 49.316,45.84425 45.332,45.11925 L45.332,45.11925 L45.332,45.11925 L45.332,45.11925 L45.332,45.11925 Z M49.851,32.26225 C51.107,32.48025 52.233,32.75925 52.772,33.56825 C53.268,34.31025 53.311,35.56825 52.902,37.30425 C52.036,40.97725 48.785,42.70025 46.331,43.01825 C48.507,39.01625 49.511,35.34925 49.851,32.26225 L49.851,32.26225 L49.851,32.26225 L49.851,32.26225 L49.851,32.26225 Z M23.001,35.00025 C23.205,35.00025 23.412,34.93725 23.589,34.80825 C24.035,34.48325 24.133,33.85725 23.807,33.41125 C22.762,31.97925 22.331,30.08425 22.654,28.34025 C22.755,27.79725 22.396,27.27625 21.853,27.17525 C21.307,27.07125 20.788,27.43425 20.687,27.97725 C20.26,30.28525 20.809,32.69525 22.192,34.59125 C22.388,34.85725 22.692,35.00025 23.001,35.00025 L23.001,35.00025 L23.001,35.00025 L23.001,35.00025 L23.001,35.00025 Z M18.306,24.00025 L46.853,24.00025 C47.914,25.37725 50.075,34.35625 42.624,45.24325 L42.619,45.24425 L42.301,45.69825 C42.161,45.89725 42.024,46.09525 41.877,46.29525 C39.719,49.23425 36.246,50.99225 32.586,50.99825 L32.579,50.99825 C28.917,50.99425 25.442,49.23525 23.283,46.29525 C23.131,46.08825 22.989,45.88325 22.846,45.67825 L22.527,45.22025 L22.521,45.21925 C15.087,34.34325 17.246,25.37625 18.306,24.00025 L18.306,24.00025 L18.306,24.00025 L18.306,24.00025 L18.306,24.00025 Z M32.5,58.00025 C20.079,58.00025 11,53.43925 11,51.06525 C11,50.11425 13.442,48.26325 20.173,47.06225 C20.402,47.02125 20.632,47.00025 20.865,47.00025 C21.026,47.00025 21.188,47.01025 21.35,47.02925 C21.454,47.17825 21.56,47.32825 21.67,47.47825 C21.968,47.88425 22.29,48.26625 22.629,48.63225 C22.735,48.74725 22.851,48.85125 22.962,48.96225 C23.203,49.20525 23.447,49.44425 23.705,49.66825 C23.843,49.78725 23.986,49.89725 24.128,50.01025 C24.376,50.20825 24.627,50.39925 24.887,50.57925 C25.041,50.68525 25.198,50.78625 25.357,50.88625 C25.622,51.05325 25.892,51.21125 26.168,51.35925 C26.33,51.44625 26.493,51.53325 26.658,51.61325 C26.949,51.75525 27.246,51.88225 27.547,52.00225 C27.707,52.06625 27.864,52.13425 28.026,52.19225 C28.366,52.31425 28.712,52.41525 29.062,52.51025 C29.192,52.54525 29.319,52.58925 29.45,52.62025 C29.932,52.73525 30.419,52.82925 30.914,52.89125 L30.914,53.00025 L32.568,53.00025 L32.593,53.00025 L34.247,53.00025 L34.247,52.89525 C34.74,52.83325 35.227,52.74025 35.707,52.62525 C35.848,52.59225 35.983,52.54525 36.123,52.50725 C36.462,52.41425 36.799,52.31625 37.129,52.19825 C37.298,52.13725 37.462,52.06725 37.629,52.00025 C37.922,51.88225 38.212,51.75825 38.496,51.62025 C38.668,51.53725 38.835,51.44725 39.003,51.35725 C39.273,51.21225 39.537,51.05825 39.796,50.89425 C39.959,50.79125 40.121,50.68825 40.28,50.57825 C40.535,50.40225 40.781,50.21425 41.025,50.02025 C41.171,49.90425 41.319,49.79125 41.46,49.66825 C41.713,49.44925 41.952,49.21425 42.189,48.97625 C42.303,48.86125 42.423,48.75325 42.534,48.63325 C42.864,48.27525 43.178,47.90125 43.47,47.50625 C43.476,47.49725 43.484,47.49025 43.49,47.48225 C43.595,47.33925 43.696,47.19725 43.795,47.05525 C44.191,47.00625 44.587,47.01825 44.976,47.08825 C51.596,48.29125 54,50.12625 54,51.06525 C54,53.43925 44.921,58.00025 32.5,58.00025 L32.5,58.00025 L32.5,58.00025 L32.5,58.00025 L32.5,58.00025 Z" id="cup" fill="#2F484D"></path>
            </g>
        </g>
    </g>
</svg>