<svg width="64" height="64" viewBox="0 0 64 64" xmlns="http://www.w3.org/2000/svg">
    <g fill="none" fill-rule="evenodd">
        <path d="M0 0h64v64H0z"/>
        <path fill="#9EBABA" d="m26.5 51.5-6.37 2.785-4.733-2.785-4.405-5.924-3.01-10.694 1.268-9.998 2.42-6.51 2.92-4.223 5.54 2.266 2.603 1.956-3.304 8.947v5.94l1.526 4.973 4.51 2.801 3.618.78-1.927 3.762z"/>
        <path fill="#9EBABA" d="m49.5 23.5-7.81 2.411-8.168 7.35-5.199 10.011-1.167 7.63 1.927 3.383 9.97 5.692 6.365-2.294 7.198-8.015 2.439-7.854 1.109-8.553-1.11-5.568-10.385 8.714z"/>
        <path d="m56.504 27.517-.427-1.713-1.593 1.29c-.572-1.59-1.17-2.548-1.445-2.939l-.305-.434-.528-.04c-.353-.027-1.13-.05-2.24.09l.702-2.149-1.964.479a23.1 23.1 0 0 0-1.797.519l.001-.01c.25-12.935-5.197-18.676-5.818-19.289-.011-.011-.027-.013-.04-.023-.013-.013-.019-.03-.032-.04-.074-.063-.161-.092-.244-.131-.042-.02-.076-.05-.12-.065a1.108 1.108 0 0 0-.463-.057l-.006-.001c-.868.089-8.711 1.166-16.656 11.486-.45.695-.87 1.417-1.273 2.152-3.606-2.586-6.367-3.252-7.18-3.393a1.12 1.12 0 0 0-.924.253c-.413.353-2.832 2.564-4.756 7.323a1.125 1.125 0 0 0-.063.162C8.196 23.85 7.242 27.611 7 32.43a36.24 36.24 0 0 0 1.298 8.456 36.235 36.235 0 0 0 3.25 8.015c3.24 4.878 6.195 6.093 8.605 6.093 1.435 0 2.676-.431 3.667-.775.523-.18 2.786-.816 3.153-.9 1.12 2.28 3.057 3.222 4.466 3.904.497.24 2.9 1.609 3.36 1.913C36.001 59.93 37.62 61 39.855 61c2.124 0 4.806-.965 8.217-4.052a36.164 36.164 0 0 0 5.062-6.897 36.168 36.168 0 0 0 3.37-7.965c1.343-6.663.741-11.6 0-14.57zm-7.327-1.335c1.024-.21 1.809-.264 2.31-.27.295.512.73 1.395 1.129 2.692l-5.754 4.657 2.315-7.08zM37.5 6.014c-.895 1.34-1.788 2.86-2.75 4.685a1.127 1.127 0 0 0 .995 1.65c.404 0 .796-.218.997-.601 1.272-2.415 2.413-4.27 3.596-5.849 1.528 2.018 4.502 7.168 4.322 16.575-.036.353-.081.706-.13 1.057l-.09.042a28.129 28.129 0 0 0-1.88.921 33.785 33.785 0 0 0-3.417 2.09c-.075.05-.148.102-.222.154-.26.182-.52.369-.778.561-.108.08-.216.164-.326.246-.238.181-.477.364-.716.553-.153.121-.307.25-.461.376-.2.164-.402.325-.602.495-.36.305-.722.62-1.087.95-.48.51-.944 1.037-1.396 1.582a36.276 36.276 0 0 0-2.608 3.575l-.004.004c-.367.57-.718 1.15-1.053 1.737-.045.08-.086.165-.13.245a36.785 36.785 0 0 0-1.105 2.138l-.025.054c-.011.024-.021.049-.034.073h-.001l-.001.005c-.04.082-.076.165-.114.248.888-7.24 2.513-14.037 4.855-20.223a1.126 1.126 0 1 0-2.106-.798c-2.48 6.55-4.174 13.76-5.063 21.437-.203-.062-.397-.125-.614-.186-2.478-.687-5.56-1.545-5.418-9.055.264-2.608.86-5.241 1.77-7.827a35.037 35.037 0 0 1 1.744-4.096c.004-.005.003-.012.006-.018a32.186 32.186 0 0 1 1.711-3.025c4.716-6.123 9.277-8.694 12.135-9.775zM26.279 51.165c-.43.107-2.465.672-3.196.926-2.43.845-5.452 1.896-9.61-4.358a33.918 33.918 0 0 1-3.002-7.444c-.727-2.642-1.137-5.31-1.22-7.838.212-4.195.987-7.49 1.926-10.042a25.943 25.943 0 0 0 5.022-.717 1.124 1.124 0 1 0-.54-2.185c-1.145.282-2.316.47-3.495.58 1.184-2.416 2.415-3.856 3.057-4.502 1.023.264 3.228 1.025 6.008 3.077-.034.071-.062.143-.095.215a36.715 36.715 0 0 0-1.353 3.306 36.267 36.267 0 0 0-1.892 8.438c-.182 9.346 4.353 10.607 7.062 11.36.532.149 2.118.823 2.157.823a.636.636 0 0 0 .048-.002c-.021.062-.04.126-.06.188a28.965 28.965 0 0 0-.552 1.703l-.023.09a25.092 25.092 0 0 0-.285 1.717c-.024.187-.035.36-.053.541-.037.357-.072.712-.087 1.043-.01.177-.008.345-.01.518-.006.342-.004.673.012.987a12.73 12.73 0 0 0 .177 1.54c0 .011.002.025.004.036zm28.04-9.613a33.922 33.922 0 0 1-3.14 7.385c-1.355 2.382-2.953 4.56-4.682 6.405-5.639 5.1-8.31 3.333-10.456 1.915-.645-.427-2.924-1.724-3.62-2.062-1.373-.665-2.938-1.436-3.68-3.482-.007-.02 0-.04-.009-.06-.54-1.57-.545-3.714-.014-6.371.14-.481.3-.96.462-1.438a36.067 36.067 0 0 1 1.537-3.74l.001-.005.001-.002c.355-.745.73-1.469 1.126-2.162l.002-.002a36.426 36.426 0 0 1 2.077-3.226c.004-.004.008-.008.01-.012l.005-.01a32.584 32.584 0 0 1 2.588-3.157c.467-.422.928-.815 1.385-1.192.134-.11.268-.216.402-.324a38.92 38.92 0 0 1 1.404-1.079c.349-.254.692-.494 1.032-.723l.304-.208a31.379 31.379 0 0 1 2.587-1.538c.168-.089.336-.168.504-.252.236-.118.473-.24.702-.348.283-.133.567-.255.852-.376a25.24 25.24 0 0 1 1.534-.604l-4.878 14.922 12.331-9.98c.464 2.782.635 6.736-.368 11.726zm-14.49-9.695c-.349.21-8.552 5.257-9.064 15.45a1.126 1.126 0 1 0 2.249.113c.45-8.967 7.903-13.589 7.977-13.635a1.125 1.125 0 0 0-1.162-1.928z" fill="#2F484D"/>
    </g>
</svg>
