<?xml version="1.0" encoding="UTF-8"?>
<svg width="64px" height="64px" viewBox="0 0 64 64" version="1.1" xmlns="http://www.w3.org/2000/svg" xmlns:xlink="http://www.w3.org/1999/xlink">
    <title>4B2C2548-C5EC-458F-92F4-02B96783A867</title>
    <g id="Site" stroke="none" stroke-width="1" fill="none" fill-rule="evenodd">
        <g id="icons" transform="translate(-600.000000, -2377.000000)">
            <g id="icon-merchandise" transform="translate(600.000000, 2377.000000)">
                <rect id="Mask" x="0" y="0" width="64" height="64"></rect>
                <circle id="Oval" fill="#9EBABA" cx="18.5" cy="55.5" r="2.5"></circle>
                <circle id="Oval-Copy-6" fill="#9EBABA" cx="34.5" cy="55.5" r="2.5"></circle>
                <g id="Vector" transform="translate(8.000000, 6.000000)" stroke="#2F484D" stroke-linecap="round" stroke-width="2">
                    <path d="M13.2966074,49.3878552 C13.2870336,50.8377841 12.1055712,52.0063374 10.6556248,51.9999972 C9.20567845,51.9936055 8.03452196,50.8147238 8.03768267,49.3647667 C8.04085619,47.9148097 9.21715148,46.7410239 10.6671118,46.7410239 C12.1237303,46.7467611 13.300438,47.9312304 13.2966074,49.3878552 L13.2966074,49.3878552 Z" id="Vector-43" stroke-linejoin="round"></path>
                    <path d="M29.0734331,49.3878552 C29.0638592,50.8377841 27.8823968,52.0063374 26.4324504,51.9999972 C24.9825041,51.9936055 23.8113476,50.8147238 23.8145083,49.3647667 C23.8176819,47.9148097 24.9939771,46.7410239 26.4439375,46.7410239 C27.9005559,46.7467611 29.0772637,47.9312304 29.0734331,49.3878552 Z" id="Vector-44" stroke-linejoin="round"></path>
                    <path d="M33.7567668,32.1331504 C37.9256073,32.4939267 41.8280122,30.0457191 43.317274,26.1352842 L46.5399562,17.872176 L48.3126034,12.4501612 C48.5313225,11.8720292 48.606319,11.2494183 48.5311487,10.635885 C48.0559001,7.84335665 45.2772472,8.1382199 41.9227441,8.1382199 L7.76370407,8.1382199 L9.26924117,32.1331504 L33.7567668,32.1331504 Z" id="Vector-45" stroke-linejoin="round"></path>
                    <path d="M7.76357572,8.14169446 L5.48792549,1.71367574 C5.49347932,1.26469092 5.32043022,0.831892409 5.00685342,0.510508424 C4.69327561,0.189124381 4.2648631,0.00548637469 3.8158772,0 L0,0 M9.26911322,32.1331554 C6.96636778,32.2919653 5.17954482,34.2062614 5.17954482,36.5144763 C5.17954482,38.8226911 6.96636778,40.7369875 9.26911322,40.8957972 L33.9578399,40.8957972" id="Vector-46" stroke-linejoin="round"></path>
                    <line x1="15.5" y1="14.5" x2="38.5" y2="14.5" id="Line-2"></line>
                    <line x1="15.5" y1="20" x2="35.5" y2="20" id="Line-2-Copy"></line>
                </g>
            </g>
        </g>
    </g>
</svg>