<?xml version="1.0" encoding="UTF-8"?>
<svg width="64px" height="64px" viewBox="0 0 64 64" version="1.1" xmlns="http://www.w3.org/2000/svg" xmlns:xlink="http://www.w3.org/1999/xlink">
    <title>669748BB-5D3B-40C7-9C31-ADDA990ADDC0</title>
    <g id="Site" stroke="none" stroke-width="1" fill="none" fill-rule="evenodd">
        <g id="icons" transform="translate(-840.000000, -2169.000000)">
            <g id="icon-sports" transform="translate(840.000000, 2169.000000)">
                <rect id="Rectangle-Copy-2" x="0" y="0" width="64" height="64"></rect>
                <circle id="Oval" fill-opacity="0.7" fill="#BE8432" cx="32" cy="32" r="25"></circle>
                <g id="Vector" transform="translate(7.000000, 7.000000)" stroke="#2F484D" stroke-linecap="round" stroke-linejoin="round" stroke-width="2">
                    <path d="M37.4204266,3.33841305 L24.9837367,24.8752048 L12.5470468,46.4191025 C20.2471091,50.9332369 29.7755793,50.9754926 37.5153773,46.5298356 C45.2551765,42.0841817 50.0195631,33.8322632 50.0000014,24.9065739 C49.9803188,15.9808851 45.179696,7.74999443 37.4204266,3.33841305 Z" id="Vector-3"></path>
                    <path d="M3.44694356,12.4385613 C6.85810597,6.51530025 12.562536,2.26236911 19.2131122,0.684113245 M3.44694356,12.4385619 C0.0185522052,18.3573131 -0.813353792,25.4291574 1.14793286,31.9819307 M3.44694356,12.4385619 L24.9837356,24.8752515 L31.1416739,28.4285909 M19.2131115,0.684113245 C22.6469184,7.17028971 22.5032875,14.9666144 18.8329043,21.3219093 C15.1667601,27.683415 8.48522519,31.7108628 1.14793286,31.9819301 M19.213113,0.684113228 C25.3979926,-0.799787894 31.9166271,0.150528369 37.4204254,3.33845786 L12.5470461,46.4191503 C7.03627908,43.2469073 2.95529467,38.0782533 1.14793286,31.9819311 M48.8266446,17.7685715 C41.4893519,18.0396392 34.807816,22.0670868 31.1416724,28.4285909 M31.1416735,28.4285874 C27.4699826,34.7847962 27.3263453,42.582824 30.7614663,49.0699382 M31.1416724,28.4285874 L46.5276337,37.3119368" id="Vector-4"></path>
                </g>
            </g>
        </g>
    </g>
</svg>