<?xml version="1.0" encoding="UTF-8"?>
<svg width="64px" height="64px" viewBox="0 0 64 64" version="1.1" xmlns="http://www.w3.org/2000/svg" xmlns:xlink="http://www.w3.org/1999/xlink">
    <title>F45D849D-F48E-4FE8-9AE9-760B330C502A</title>
    <g id="Site" stroke="none" stroke-width="1" fill="none" fill-rule="evenodd">
        <g id="icons" transform="translate(-360.000000, -1037.000000)">
            <g id="icon-all-other-food" transform="translate(360.000000, 1037.000000)">
                <rect id="Rectangle" x="0" y="0" width="64" height="64"></rect>
                <polygon id="Path-25" fill-opacity="0.7" fill="#BE8432" points="34.5 32 35.2831685 28.6326068 41.0491995 14.0581068 45.5494248 6.43510678 48.6025162 4.78881454 51.2487494 6.00374289 53.1552582 10.547246 52.0013137 16.9701068 49.8291685 30.6511068 44.5610809 32.4120534 40.2972488 30.6511068"></polygon>
                <path d="M16.5,22.5 C16.1716334,20.9606298 16.0074501,20.1909447 16.0074501,20.1909447 C16.0074501,20.1909447 16.3296896,19.6489381 16.9741685,18.5649248 L16.5,15.0756832 L18.5011685,12.9861764 L20.5011685,11.3988914 L21.8324585,8.36265945 L24.7480288,6.00374289 L27.9493217,6.00374289 L30.4341685,5.4804554 L32.3627014,7.69629097 L36.1666107,11.3988914 L39.8009338,16.4179192 L37.4037476,19.6654824 L33.8405457,16.4179192 L34.5,14.3936577 L33.8405457,12.9861764 L26.4746001,14.3936577 L26.0759659,16.4179192 L27.904192,18.5649248 L26.0759659,21.175621 L25.0011685,25.3864288 L21.8324585,22.0547085 L18.9217606,21.5734196 L16.5,22.5 Z" id="Path-26" fill="#9EBABA"></path>
                <path d="M10.486145,30.5 L9.88435745,27.6097832 C10.9999275,26.1275469 11.5577126,25.3864288 11.5577126,25.3864288 C11.5577126,25.3864288 12.9186172,24.6976548 15.6404266,23.3201068 L19.5011685,21.1784897 C21.3887503,22.0415507 22.4439791,22.4730812 22.6668549,22.4730812 C22.8897306,22.4730812 23.9499774,24.1853152 25.8475952,27.6097832 L25.8475952,32 L22.6668549,31.4071068 L20.1457748,30.5 L16.0074501,32 L10.486145,30.5 Z" id="Path-27" fill="#9EBABA"></path>
                <path d="M51.3361685,29.2341068 C51.1621685,29.1151068 50.9661685,29.0471068 50.7661685,29.0211068 C52.7531685,22.5641068 53.8431685,16.2381068 53.9991685,10.2131068 C54.0481685,8.31810678 53.1221685,5.78810678 51.2551685,4.61710678 C50.3591685,4.05410678 48.8911685,3.59010678 46.9851685,4.57110678 C43.9981685,6.11210678 41.8621685,10.6451068 40.1461685,14.2891068 C40.0471685,14.4991068 39.9501685,14.7041068 39.8541685,14.9071068 C39.4751685,13.1641068 38.3231685,11.6731068 36.6851685,10.8951068 C36.2991685,9.03910678 34.8271685,7.58510678 32.9771685,7.20810678 C32.9571685,7.10410678 32.9321685,7.00210678 32.9011685,6.89910678 C32.5201685,5.59710678 31.3711685,4.61710678 30.0421685,4.45910678 C29.2931685,4.37010678 28.5511685,4.52510678 27.9171685,4.89610678 C27.3771685,4.59510678 26.7711685,4.43510678 26.1491685,4.43510678 C24.4101685,4.43510678 22.9491685,5.64810678 22.5681685,7.27110678 C20.6671685,7.78910678 19.2731685,9.53410678 19.2581685,11.5621068 C17.0891685,12.1221068 15.5091685,14.0821068 15.5091685,16.4131068 C15.5091685,17.0311068 15.6251685,17.6431068 15.8481685,18.2201068 C15.2851685,18.9151068 14.9731685,19.7851068 14.9731685,20.6981068 C14.9731685,21.2461068 15.0861685,21.7741068 15.2991685,22.2621068 C14.3001685,21.1721068 12.8941685,20.2811068 11.3151685,20.3391068 C10.7631685,20.3571068 10.3291685,20.8181068 10.3461685,21.3701068 C10.3631685,21.9111068 10.8071685,22.3391068 11.3451685,22.3391068 C11.3791685,22.3401068 11.4101685,22.3371068 11.4421685,22.3371068 C12.3791685,22.3371068 13.2501685,22.9571068 13.8841685,23.6771068 C12.2981685,24.1341068 10.3861685,24.8781068 9.49416846,26.5601068 C8.95716846,27.5751068 8.89416846,28.8201068 9.25216846,30.2461068 C9.07916846,30.5351068 8.98416846,30.8711068 9.00216846,31.2291068 L10.7041685,55.4161068 C10.8591685,58.4491068 13.3591685,60.8241068 16.3951685,60.8241068 L44.4661685,60.8241068 C47.5021685,60.8241068 50.0021685,58.4491068 50.1561685,55.4341068 L51.9011685,30.4061068 C51.9011685,30.4001068 51.9021685,30.3941068 51.9021685,30.3881068 C51.9301685,29.9271068 51.7171685,29.4961068 51.3361685,29.2341068 L51.3361685,29.2341068 L51.3361685,29.2341068 L51.3361685,29.2341068 L51.3361685,29.2341068 L51.3361685,29.2341068 Z M39.3621685,29.3081068 C39.4681685,29.3441068 39.5771685,29.3611068 39.6831685,29.3611068 C40.1001685,29.3611068 40.4891685,29.0991068 40.6301685,28.6821068 C40.9431685,27.7641068 41.9441685,27.2711068 42.8621685,27.5821068 C44.8241685,28.2461068 46.9651685,27.1931068 47.6301685,25.2301068 C47.8081685,24.7081068 47.5281685,24.1391068 47.0051685,23.9611068 C46.4801685,23.7841068 45.9141685,24.0641068 45.7361685,24.5871068 C45.4241685,25.5061068 44.4231685,25.9991068 43.5041685,25.6871068 C41.5451685,25.0261068 39.4021685,26.0771068 38.7361685,28.0391068 C38.5591685,28.5611068 38.8391685,29.1301068 39.3621685,29.3081068 L39.3621685,29.3081068 L39.3621685,29.3081068 L39.3621685,29.3081068 L39.3621685,29.3081068 L39.3621685,29.3081068 Z M41.7281685,22.3401068 C41.8341685,22.3761068 41.9431685,22.3931068 42.0491685,22.3931068 C42.4661685,22.3931068 42.8551685,22.1311068 42.9961685,21.7141068 C43.1471685,21.2691068 43.4621685,20.9091068 43.8841685,20.7011068 C44.3061685,20.4931068 44.7831685,20.4631068 45.2281685,20.6141068 C47.1901685,21.2781068 49.3301685,20.2251068 49.9961685,18.2611068 C50.1741685,17.7391068 49.8931685,17.1701068 49.3711685,16.9921068 C48.8481685,16.8121068 48.2801685,17.0951068 48.1031685,17.6181068 C47.7911685,18.5381068 46.7921685,19.0311068 45.8711685,18.7191068 C44.9191685,18.3961068 43.9001685,18.4621068 43.0001685,18.9071068 C42.1001685,19.3511068 41.4261685,20.1201068 41.1031685,21.0711068 C40.9241685,21.5941068 41.2051685,22.1621068 41.7281685,22.3401068 L41.7281685,22.3401068 L41.7281685,22.3401068 L41.7281685,22.3401068 L41.7281685,22.3401068 L41.7281685,22.3401068 Z M44.0921685,15.3721068 C44.1991685,15.4081068 44.3071685,15.4251068 44.4141685,15.4251068 C44.8311685,15.4251068 45.2201685,15.1631068 45.3611685,14.7461068 C45.5911685,14.0681068 46.3321685,13.7031068 47.0091685,13.9331068 C47.8441685,14.2161068 48.7391685,14.1581068 49.5301685,13.7691068 C50.3201685,13.3791068 50.9111685,12.7051068 51.1951685,11.8701068 C51.3731685,11.3481068 51.0931685,10.7791068 50.5701685,10.6011068 C50.0451685,10.4221068 49.4791685,10.7041068 49.3011685,11.2271068 C49.1891685,11.5561068 48.9561685,11.8221068 48.6451685,11.9751068 C48.3341685,12.1281068 47.9821685,12.1511068 47.6521685,12.0381068 C45.9301685,11.4571068 44.0511685,12.3811068 43.4671685,14.1021068 C43.2901685,14.6261068 43.5691685,15.1941068 44.0921685,15.3721068 L44.0921685,15.3721068 L44.0921685,15.3721068 L44.0921685,15.3721068 L44.0921685,15.3721068 L44.0921685,15.3721068 Z M40.6701685,17.7671068 C41.0661685,17.0281068 41.4981685,16.1121068 41.9551685,15.1411068 C43.4581685,11.9491068 45.5181685,7.57810678 47.9011685,6.34810678 C48.7711685,5.90010678 49.5201685,5.89110678 50.1921685,6.31010678 C51.3511685,7.03810678 52.0331685,8.87510678 52.0001685,10.1611068 C51.8471685,16.0731068 50.7671685,22.2951068 48.7891685,28.6551068 C48.7241685,28.8641068 48.5801685,29.2861068 48.3751685,29.8651068 L46.6711685,30.6221068 C46.6341685,30.6391068 46.5981685,30.6571068 46.5631685,30.6791068 C46.0711685,30.9741068 45.5191685,31.1201068 44.9671685,31.1261068 C44.4151685,31.1201068 43.8641685,30.9741068 43.3721685,30.6791068 L42.6591685,30.2511068 C41.8391685,29.7591068 40.9201685,29.5131068 40.0011685,29.5131068 C39.9901685,29.5131068 39.9791685,29.5151068 39.9671685,29.5151068 C39.0371685,29.5091068 38.1051685,29.7521068 37.2751685,30.2511068 L36.5631685,30.6791068 C36.1661685,30.9171068 35.7271685,31.0331068 35.2831685,31.0831068 C35.3081685,30.9961068 35.3371685,30.9111068 35.3631685,30.8251068 C35.6371685,29.8941068 35.9311685,28.9761068 36.2391685,28.0651068 C36.3561685,27.7191068 36.4781685,27.3751068 36.6001685,27.0321068 C36.8571685,26.3091068 37.1261685,25.5951068 37.4041685,24.8861068 C37.5281685,24.5691068 37.6491685,24.2491068 37.7771685,23.9351068 C38.6491685,21.8081068 39.6111685,19.7451068 40.6701685,17.7671068 L40.6701685,17.7671068 L40.6701685,17.7671068 L40.6701685,17.7671068 L40.6701685,17.7671068 L40.6701685,17.7671068 Z M27.9221685,20.1391068 C28.0391685,19.9891068 28.1531685,19.8431068 28.2611685,19.7011068 C28.2611685,19.6991068 28.2621685,19.6981068 28.2631685,19.6971068 C28.3421685,19.5921068 28.4111685,19.4831068 28.4691685,19.3741068 C28.7151685,18.9111068 28.7731685,18.3911068 28.6591685,17.8831068 L32.8331685,16.9701068 C32.8611685,17.0981068 32.8911685,17.2251068 32.9391685,17.3431068 C33.1261685,17.8011068 33.4601685,18.1821068 33.9251685,18.4481068 C34.0771685,18.5321068 34.2361685,18.6161068 34.4001685,18.7031068 C34.5351685,18.7741068 34.6701685,18.8481068 34.8061685,18.9221068 C34.8711685,18.9571068 34.9371685,18.9921068 35.0021685,19.0281068 C35.1211685,19.0951068 35.2361685,19.1691068 35.3521685,19.2421068 C35.4511685,19.3031068 35.5491685,19.3661068 35.6451685,19.4331068 C35.7561685,19.5101068 35.8621685,19.5951068 35.9681685,19.6811068 C36.0611685,19.7571068 36.1501685,19.8401068 36.2381685,19.9251068 C36.3331685,20.0181068 36.4271685,20.1131068 36.5141685,20.2171068 C36.6681685,20.4011068 36.8161685,20.5921068 36.9371685,20.8211068 C36.5131685,21.7571068 36.1141685,22.7121068 35.7281685,23.6751068 C35.6681685,23.8241068 35.6041685,23.9691068 35.5451685,24.1181068 C34.4491685,24.3961068 33.3901685,24.9161068 32.0821685,25.8471068 C30.4341685,27.0181068 29.2071685,27.3291068 27.1851685,27.0361068 L26.5781685,24.2571068 C26.1661685,22.3781068 27.0591685,21.2401068 27.9221685,20.1391068 L27.9221685,20.1391068 L27.9221685,20.1391068 L27.9221685,20.1391068 L27.9221685,20.1391068 L27.9221685,20.1391068 Z M32.8811685,14.0661068 C32.9071685,14.0611068 32.9331685,14.0581068 32.9591685,14.0581068 C33.1481685,14.0581068 33.3251685,14.1931068 33.3661685,14.3831068 C33.3981685,14.5271068 33.3441685,14.6401068 33.3081685,14.6951068 C33.2731685,14.7491068 33.1941685,14.8441068 33.0511685,14.8751068 L27.5271685,16.0841068 C27.3071685,16.1321068 27.0831685,15.9861068 27.0351685,15.7681068 C26.9871685,15.5491068 27.1321685,15.3241068 27.3511685,15.2761068 L30.2861685,14.6341068 L32.8811685,14.0661068 L32.8811685,14.0661068 L32.8811685,14.0661068 L32.8811685,14.0661068 L32.8811685,14.0661068 L32.8811685,14.0661068 Z M29.6491685,29.5331068 C29.5731685,29.5381068 29.4961685,29.5401068 29.4201685,29.5481068 C28.8751685,29.6031068 28.3371685,29.7411068 27.8261685,29.9711068 L27.6351685,29.0961068 C27.9231685,29.1201068 28.2101685,29.1441068 28.4791685,29.1441068 C30.2231685,29.1441068 31.6271685,28.6251068 33.2411685,27.4771068 C33.7491685,27.1151068 34.1991685,26.8411068 34.6271685,26.6141068 C34.5351685,26.8751068 34.4441685,27.1351068 34.3551685,27.3971068 C34.2911685,27.5851068 34.2221685,27.7701068 34.1601685,27.9591068 C33.8661685,28.8491068 33.5861685,29.7461068 33.3251685,30.6511068 L32.6601685,30.2531068 C31.8401685,29.7611068 30.9211685,29.5151068 30.0021685,29.5151068 C29.9901685,29.5151068 29.9771685,29.5171068 29.9651685,29.5171068 C29.8591685,29.5151068 29.7541685,29.5271068 29.6491685,29.5331068 L29.6491685,29.5331068 L29.6491685,29.5331068 L29.6491685,29.5331068 L29.6491685,29.5331068 L29.6491685,29.5331068 Z M17.6881685,19.1921068 L18.3431685,18.6521068 L17.9181685,17.9191068 C17.6521685,17.4591068 17.5111685,16.9391068 17.5111685,16.4131068 C17.5111685,14.7931068 18.7801685,13.4721068 20.4001685,13.4041068 L21.6141685,13.3531068 L21.3311685,12.1711068 C21.2831685,11.9731068 21.2591685,11.7781068 21.2591685,11.5931068 C21.2591685,10.3051068 22.2651685,9.22010678 23.5491685,9.12210678 L24.4731685,9.05210678 L24.4731685,8.05710678 C24.5021685,7.15810678 25.2431685,6.43510678 26.1501685,6.43510678 C26.6721685,6.43510678 27.0461685,6.67310678 27.2671685,6.87310678 L27.9681685,7.50610678 L28.6401685,6.84210678 C28.9481685,6.53810678 29.3711685,6.39610678 29.8071685,6.44610678 C30.3431685,6.50910678 30.8271685,6.92710678 30.9831685,7.46410678 C31.0361685,7.64410678 31.0511685,7.81810678 31.0301685,7.99510678 L30.9131685,9.11210678 L32.0391685,9.11210678 C33.4761685,9.11210678 34.6781685,10.2351068 34.7771685,11.6691068 L34.8221685,12.3261068 L35.4431685,12.5441068 C37.0061685,13.0931068 38.0341685,14.5721068 37.9991685,16.2271068 C37.9841685,16.9341068 37.7561685,17.6151068 37.3431685,18.2121068 C36.6741685,17.6441068 35.9531685,17.2611068 35.3471685,16.9421068 C35.1901685,16.8591068 35.0381685,16.7791068 34.8851685,16.6941068 C34.8421685,16.6701068 34.7901685,16.6281068 34.7721685,16.5231068 C34.7481685,16.3791068 34.8021685,16.2061068 34.9111685,16.0791068 C35.3471685,15.5731068 35.5221685,14.8831068 35.3811685,14.2321068 L35.2601685,13.6811068 C35.1391685,13.1251068 34.8071685,12.6501068 34.3271685,12.3421068 C33.8481685,12.0351068 33.2781685,11.9321068 32.7231685,12.0541068 L32.4551685,12.1131068 C32.4521685,12.1141068 32.4491685,12.1131068 32.4461685,12.1141068 L29.5111685,12.7561068 L26.6471685,13.3811068 C26.0921685,13.5021068 25.6171685,13.8331068 25.3091685,14.3141068 C25.0011685,14.7931068 24.8991685,15.3641068 25.0201685,15.9191068 L25.0801685,16.1911068 L25.0801685,16.1941068 C25.0801685,16.1951068 25.0811685,16.1961068 25.0811685,16.1981068 L25.1401685,16.4691068 C25.2851685,17.1351068 25.7481685,17.6961068 26.3771685,17.9661068 C26.5331685,18.0331068 26.6631685,18.1601068 26.7081685,18.2891068 C26.7341685,18.3631068 26.7191685,18.4011068 26.6611685,18.4971068 C26.6611685,18.4971068 26.6611685,18.4971068 26.6611685,18.4981068 C26.5621685,18.6311068 26.4551685,18.7661068 26.3461685,18.9051068 C26.2361685,19.0451068 26.1221685,19.1921068 26.0061685,19.3441068 C25.9671685,19.3951068 25.9301685,19.4481068 25.8911685,19.5001068 C25.8081685,19.6131068 25.7251685,19.7281068 25.6431685,19.8481068 C25.5981685,19.9131068 25.5551685,19.9801068 25.5111685,20.0481068 C25.4351685,20.1651068 25.3621685,20.2861068 25.2901685,20.4101068 C25.2481685,20.4821068 25.2071685,20.5531068 25.1671685,20.6281068 C25.0921685,20.7681068 25.0241685,20.9151068 24.9571685,21.0651068 C24.9281685,21.1291068 24.8971685,21.1901068 24.8711685,21.2571068 C24.7831685,21.4751068 24.7051685,21.7031068 24.6431685,21.9431068 C24.6331685,21.9811068 24.6291685,22.0221068 24.6201685,22.0611068 C24.5721685,22.2651068 24.5331685,22.4761068 24.5081685,22.6961068 C24.4981685,22.7841068 24.4961685,22.8761068 24.4901685,22.9671068 C24.4821685,23.0851068 24.4671685,23.1971068 24.4671685,23.3201068 C24.4631685,23.3151068 24.4591685,23.3101068 24.4551685,23.3051068 C24.4411685,23.2871068 24.4271685,23.2711068 24.4141685,23.2531068 C24.2401685,23.0241068 24.0661685,22.8131068 23.8911685,22.6131068 C23.8361685,22.5501068 23.7801685,22.4891068 23.7241685,22.4291068 C23.5771685,22.2701068 23.4301685,22.1211068 23.2821685,21.9811068 C23.2341685,21.9361068 23.1861685,21.8871068 23.1371685,21.8431068 C22.9501685,21.6761068 22.7621685,21.5231068 22.5731685,21.3871068 C22.5201685,21.3491068 22.4661685,21.3171068 22.4131685,21.2811068 C22.2711685,21.1861068 22.1291685,21.0981068 21.9851685,21.0201068 C21.9151685,20.9821068 21.8461685,20.9451068 21.7751685,20.9111068 C21.6261685,20.8381068 21.4761685,20.7761068 21.3251685,20.7221068 C21.2751685,20.7041068 21.2251685,20.6801068 21.1751685,20.6641068 C21.0111685,20.6121068 20.8461685,20.5701068 20.6801685,20.5391068 C20.6611685,20.5351068 20.6421685,20.5371068 20.6231685,20.5341068 C20.5891685,20.5281068 20.5561685,20.5151068 20.5221685,20.5101068 C20.4061685,20.4931068 20.2961685,20.5001068 20.1821685,20.4921068 C20.1021685,20.4871068 20.0231685,20.4701068 19.9431685,20.4701068 C19.9191685,20.4701068 19.8941685,20.4761068 19.8691685,20.4761068 C19.7141685,20.4781068 19.5641685,20.4961068 19.4131685,20.5151068 C19.3381685,20.5251068 19.2631685,20.5311068 19.1881685,20.5451068 C18.9911685,20.5811068 18.8001685,20.6311068 18.6111685,20.6911068 C18.5821685,20.7001068 18.5541685,20.7071068 18.5251685,20.7171068 C18.0271685,20.8861068 17.5551685,21.1251068 17.1131685,21.4141068 C17.0221685,21.1891068 16.9741685,20.9471068 16.9741685,20.6981068 C16.9751685,20.1131068 17.2351685,19.5641068 17.6881685,19.1921068 L17.6881685,19.1921068 L17.6881685,19.1921068 L17.6881685,19.1921068 L17.6881685,19.1921068 L17.6881685,19.1921068 Z M11.2631685,27.4951068 C11.6861685,26.6981068 12.7131685,26.0901068 14.4961685,25.5801068 C15.3301685,25.3421068 16.1041685,24.8971068 16.7321685,24.2971068 C17.0171685,24.0241068 17.2841685,23.7931068 17.5421685,23.5831068 C18.3481685,22.9281068 19.0431685,22.5721068 19.6721685,22.4911068 C19.6861685,22.4891068 19.7001685,22.4871068 19.7141685,22.4861068 C19.9131685,22.4641068 20.1061685,22.4701068 20.2931685,22.5031068 C20.3421685,22.5121068 20.3921685,22.5291068 20.4421685,22.5421068 C20.5351685,22.5651068 20.6271685,22.5881068 20.7201685,22.6251068 C20.7801685,22.6481068 20.8401685,22.6831068 20.9011685,22.7111068 C20.9881685,22.7531068 21.0741685,22.7911068 21.1611685,22.8441068 C21.2291685,22.8851068 21.2971685,22.9381068 21.3651685,22.9851068 C21.4461685,23.0421068 21.5271685,23.0941068 21.6091685,23.1601068 C21.6851685,23.2211068 21.7611685,23.2951068 21.8371685,23.3641068 C21.9131685,23.4331068 21.9891685,23.4961068 22.0651685,23.5731068 C22.1491685,23.6581068 22.2341685,23.7571068 22.3191685,23.8521068 C22.3881685,23.9291068 22.4571685,24.0001068 22.5271685,24.0831068 C22.6221685,24.1971068 22.7181685,24.3271068 22.8141685,24.4531068 C22.8751685,24.5331068 22.9351685,24.6051068 22.9961685,24.6901068 C23.1051685,24.8421068 23.2151685,25.0111068 23.3251685,25.1791068 C23.3731685,25.2531068 23.4221685,25.3191068 23.4701685,25.3951068 C23.6291685,25.6461068 23.7891685,25.9131068 23.9501685,26.1971068 C24.6861685,27.4961068 24.9301685,29.4151068 24.6101685,31.0861068 C24.5571685,31.0811068 24.5051685,31.0731068 24.4521685,31.0651068 C24.0711685,31.0001068 23.7041685,30.8781068 23.3701685,30.6781068 L22.6571685,30.2501068 C21.8371685,29.7581068 20.9181685,29.5121068 19.9991685,29.5121068 C19.9881685,29.5121068 19.9771685,29.5141068 19.9651685,29.5141068 C19.0351685,29.5081068 18.1031685,29.7511068 17.2731685,30.2501068 L16.9261685,30.4581068 C16.3211685,30.8211068 15.6431685,31.0041068 14.9651685,31.0101068 C14.2861685,31.0041068 13.6091685,30.8221068 13.0041685,30.4581068 L11.6591685,29.6501068 C11.6591685,29.6501068 11.6581685,29.6501068 11.6581685,29.6491068 C11.4811685,29.5441068 11.2901685,29.4721068 11.0941685,29.4361068 C10.9371685,28.6451068 10.9931685,28.0051068 11.2631685,27.4951068 L11.2631685,27.4951068 L11.2631685,27.4951068 L11.2631685,27.4951068 L11.2631685,27.4951068 L11.2631685,27.4951068 Z M48.1641685,55.3131068 C48.0631685,57.2811068 46.4401685,58.8231068 44.4701685,58.8231068 L16.3981685,58.8231068 C14.4271685,58.8231068 12.8051685,57.2811068 12.7031685,55.2941068 L11.0391685,31.6521068 L11.9091685,32.1741068 C12.8521685,32.7401068 13.9111685,33.0181068 14.9671685,33.0121068 C16.0241685,33.0181068 17.0821685,32.7401068 18.0251685,32.1741068 L18.3721685,31.9661068 C18.8641685,31.6701068 19.4151685,31.5241068 19.9671685,31.5181068 C20.5191685,31.5241068 21.0701685,31.6701068 21.5631685,31.9661068 L22.2761685,32.3941068 C23.1781685,32.9351068 24.2001685,33.1671068 25.2101685,33.1121068 C25.3001685,33.1081068 25.3901685,33.1081068 25.4811685,33.1001068 C25.4921685,33.0991068 25.5021685,33.0931068 25.5141685,33.0921068 C26.1971685,33.0151068 26.8671685,32.8001068 27.4851685,32.4481068 C27.5431685,32.4271068 27.6051685,32.4261068 27.6591685,32.3941068 L28.3721685,31.9661068 C28.8641685,31.6701068 29.4151685,31.5241068 29.9671685,31.5181068 C30.5191685,31.5241068 31.0701685,31.6701068 31.5631685,31.9661068 L32.2761685,32.3941068 C33.0331685,32.8471068 33.8751685,33.0821068 34.7221685,33.1171068 C34.7391685,33.1181068 34.7571685,33.1201068 34.7741685,33.1201068 C35.0661685,33.1291068 35.3581685,33.1201068 35.6481685,33.0791068 C35.8141685,33.0581068 35.9751685,33.0161068 36.1381685,32.9791068 C36.2171685,32.9601068 36.2961685,32.9431068 36.3741685,32.9201068 C36.8181685,32.7971068 37.2531685,32.6361068 37.6581685,32.3931068 L38.3711685,31.9651068 C38.8631685,31.6691068 39.4141685,31.5231068 39.9661685,31.5171068 C40.5181685,31.5231068 41.0691685,31.6691068 41.5621685,31.9651068 L42.2751685,32.3931068 C43.1011685,32.8881068 44.0281685,33.1311068 44.9541685,33.1271068 C44.9691685,33.1271068 44.9851685,33.1301068 45.0001685,33.1301068 C45.8981685,33.1301068 46.7971685,32.8961068 47.6031685,32.4261068 L49.5651685,31.5541068 C49.6071685,31.5351068 49.6371685,31.4991068 49.6761685,31.4751068 L49.8291685,31.4071068 L48.1641685,55.3131068 L48.1641685,55.3131068 L48.1641685,55.3131068 L48.1641685,55.3131068 L48.1641685,55.3131068 L48.1641685,55.3131068 Z M15.0011685,47.0041068 L22.0011685,47.0041068 C22.5531685,47.0041068 23.0011685,46.5571068 23.0011685,46.0041068 C23.0011685,45.4511068 22.5531685,45.0041068 22.0011685,45.0041068 L15.0011685,45.0041068 C14.4491685,45.0041068 14.0011685,45.4511068 14.0011685,46.0041068 C14.0011685,46.5571068 14.4491685,47.0041068 15.0011685,47.0041068 L15.0011685,47.0041068 L15.0011685,47.0041068 L15.0011685,47.0041068 L15.0011685,47.0041068 L15.0011685,47.0041068 Z M15.0011685,51.0041068 L24.0011685,51.0041068 C24.5531685,51.0041068 25.0011685,50.5571068 25.0011685,50.0041068 C25.0011685,49.4511068 24.5531685,49.0041068 24.0011685,49.0041068 L15.0011685,49.0041068 C14.4491685,49.0041068 14.0011685,49.4511068 14.0011685,50.0041068 C14.0011685,50.5571068 14.4491685,51.0041068 15.0011685,51.0041068 L15.0011685,51.0041068 L15.0011685,51.0041068 L15.0011685,51.0041068 L15.0011685,51.0041068 L15.0011685,51.0041068 Z M26.0011685,53.0041068 L15.0011685,53.0041068 C14.4491685,53.0041068 14.0011685,53.4511068 14.0011685,54.0041068 C14.0011685,54.5571068 14.4491685,55.0041068 15.0011685,55.0041068 L26.0011685,55.0041068 C26.5531685,55.0041068 27.0011685,54.5571068 27.0011685,54.0041068 C27.0011685,53.4511068 26.5531685,53.0041068 26.0011685,53.0041068 L26.0011685,53.0041068 L26.0011685,53.0041068 L26.0011685,53.0041068 L26.0011685,53.0041068 L26.0011685,53.0041068 Z M32.0011685,53.0041068 L30.0011685,53.0041068 C29.4491685,53.0041068 29.0011685,53.4511068 29.0011685,54.0041068 C29.0011685,54.5571068 29.4491685,55.0041068 30.0011685,55.0041068 L32.0011685,55.0041068 C32.5531685,55.0041068 33.0011685,54.5571068 33.0011685,54.0041068 C33.0011685,53.4511068 32.5531685,53.0041068 32.0011685,53.0041068 L32.0011685,53.0041068 L32.0011685,53.0041068 L32.0011685,53.0041068 L32.0011685,53.0041068 L32.0011685,53.0041068 Z" id="groceries" fill="#2F484D"></path>
            </g>
        </g>
    </g>
</svg>