<?xml version="1.0" encoding="UTF-8"?>
<svg width="64px" height="64px" viewBox="0 0 64 64" version="1.1" xmlns="http://www.w3.org/2000/svg" xmlns:xlink="http://www.w3.org/1999/xlink">
    <title>2F61B246-3CC0-4FC8-9961-8B879F7CF116</title>
    <g id="Site" stroke="none" stroke-width="1" fill="none" fill-rule="evenodd">
        <g id="icons" transform="translate(-600.000000, -3201.000000)">
            <g id="icon-museums" transform="translate(600.000000, 3201.000000)">
                <rect id="Mask" x="0" y="0" width="64" height="64"></rect>
                <path d="M8.64311028,18.828476 L9.77226448,17.4589157 L32,8.68505955 L54.4547424,17.7784157 L55.3491821,19.2807558 L55.3491821,27.9044876 L53.5875626,29.6448174 L9.77226448,29.6448174 C9.01949501,28.7505074 8.64311028,28.1703974 8.64311028,27.9044876 C8.64311028,27.6385778 8.64311028,24.6132406 8.64311028,18.828476 Z" id="Path-49" fill-opacity="0.7" fill="#BE8432"></path>
                <rect id="Rectangle" fill-opacity="0.7" fill="#BE8432" x="9" y="47" width="46" height="8"></rect>
                <g id="vuesax/outline/bank" transform="translate(4.000000, 7.000000)" fill="#2F484D" stroke="#F1F5F5" stroke-dasharray="0,0" stroke-linecap="round" stroke-width="1.5">
                    <g id="bank">
                        <g>
                            <path d="M7,24.4169804 C4.76000005,24.4169804 2.91666667,22.573647 2.91666667,20.3336471 L2.91666667,12.5869633 C2.91666667,11.0002967 4.01327638,9.39030751 5.48327637,8.80697417 L26.4832764,0.40703126 C27.369943,0.0570312465 28.630057,0.0570312465 29.5167236,0.40703126 L50.5167236,8.80697417 C51.9867236,9.39030751 53.0833333,11.02363 53.0833333,12.5869633 L53.0833333,20.3336471 C53.0833333,22.573647 51.2399999,24.4169804 49,24.4169804 L7,24.4169804 Z M27.7667236,3.65025624 L6.78993734,12.0503422 C6.64993734,12.1203422 6.41666667,12.42363 6.41666667,12.5869633 L6.41666667,20.3336471 C6.41666667,20.6603138 6.67333333,20.9169804 7,20.9169804 L49,20.9169804 C49.3266667,20.9169804 49.5833333,20.6603138 49.5833333,20.3336471 L49.5833333,12.5869633 C49.5833333,12.42363 49.373396,12.1203422 49.2100627,12.0503422 L28.2100627,3.65025624 C28.163396,3.6269229 28.0933333,3.62704253 28,3.62704253 C27.9066667,3.62704253 27.8133903,3.6269229 27.7667236,3.65025624 Z" id="Vector"></path>
                            <path d="M4.66666667,50.0833333 C3.71000001,50.0833333 2.91666667,49.29 2.91666667,48.3333333 L2.91666667,41.3333333 C2.91666667,39.0933334 4.76000005,37.25 7,37.25 L49,37.25 C51.2399999,37.25 53.0833333,39.0933334 53.0833333,41.3333333 L53.0833333,48.3333333 C53.0833333,49.29 52.29,50.0833333 51.3333333,50.0833333 L4.66666667,50.0833333 Z M49.5833333,46.5833333 L49.5833333,41.3333333 C49.5833333,41.0066667 49.3266667,40.75 49,40.75 L7,40.75 C6.67333333,40.75 6.41666667,41.0066667 6.41666667,41.3333333 L6.41666667,46.5833333 L49.5833333,46.5833333 Z" id="Vector"></path>
                            <path d="M7.58333333,35.6911765 L7.58333333,25.8088235 C7.58333333,25.23 8.37666668,24.75 9.33333333,24.75 C10.29,24.75 11.0833333,25.23 11.0833333,25.8088235 L11.0833333,35.6911765 C11.0833333,36.27 10.29,36.75 9.33333333,36.75 C8.37666668,36.75 7.58333333,36.27 7.58333333,35.6911765 Z" id="Vector" fill-rule="nonzero"></path>
                            <path d="M16.9166667,35.6911765 L16.9166667,25.8088235 C16.9166667,25.23 17.71,24.75 18.6666667,24.75 C19.6233333,24.75 20.4166667,25.23 20.4166667,25.8088235 L20.4166667,35.6911765 C20.4166667,36.27 19.6233333,36.75 18.6666667,36.75 C17.71,36.75 16.9166667,36.27 16.9166667,35.6911765 Z" id="Vector" fill-rule="nonzero"></path>
                            <path d="M26.25,35.6911765 L26.25,25.8088235 C26.25,25.23 27.0433333,24.75 28,24.75 C28.9566667,24.75 29.75,25.23 29.75,25.8088235 L29.75,35.6911765 C29.75,36.27 28.9566667,36.75 28,36.75 C27.0433333,36.75 26.25,36.27 26.25,35.6911765 Z" id="Vector" fill-rule="nonzero"></path>
                            <path d="M35.5833333,35.6911765 L35.5833333,25.8088235 C35.5833333,25.23 36.3766667,24.75 37.3333333,24.75 C38.29,24.75 39.0833333,25.23 39.0833333,25.8088235 L39.0833333,35.6911765 C39.0833333,36.27 38.29,36.75 37.3333333,36.75 C36.3766667,36.75 35.5833333,36.27 35.5833333,35.6911765 Z" id="Vector" fill-rule="nonzero"></path>
                            <path d="M44.9166667,35.6911765 L44.9166667,25.8088235 C44.9166667,25.23 45.71,24.75 46.6666667,24.75 C47.6233333,24.75 48.4166667,25.23 48.4166667,25.8088235 L48.4166667,35.6911765 C48.4166667,36.27 47.6233333,36.75 46.6666667,36.75 C45.71,36.75 44.9166667,36.27 44.9166667,35.6911765 Z" id="Vector" fill-rule="nonzero"></path>
                            <path d="M2.33333333,50.0833333 C1.37666668,50.0833333 0.583333333,49.29 0.583333333,48.3333333 C0.583333333,47.3766667 1.37666668,46.5833333 2.33333333,46.5833333 L53.6666667,46.5833333 C54.6233333,46.5833333 55.4166667,47.3766667 55.4166667,48.3333333 C55.4166667,49.29 54.6233333,50.0833333 53.6666667,50.0833333 L2.33333333,50.0833333 Z" id="Vector" fill-rule="nonzero"></path>
                            <path d="M22.75,13.3333333 C22.75,10.44 25.1066666,8.08333333 28,8.08333333 C30.8933334,8.08333333 33.25,10.44 33.25,13.3333333 C33.25,16.2266667 30.8933334,18.5833333 28,18.5833333 C25.1066666,18.5833333 22.75,16.2266667 22.75,13.3333333 Z M26.25,13.3333333 C26.25,14.29 27.0433333,15.0833333 28,15.0833333 C28.9566667,15.0833333 29.75,14.29 29.75,13.3333333 C29.75,12.3766667 28.9566667,11.5833333 28,11.5833333 C27.0433333,11.5833333 26.25,12.3766667 26.25,13.3333333 Z" id="Vector"></path>
                        </g>
                    </g>
                </g>
            </g>
        </g>
    </g>
</svg>