<svg width="64" height="64" viewBox="0 0 64 64" xmlns="http://www.w3.org/2000/svg" xmlns:xlink="http://www.w3.org/1999/xlink">
    <defs>
        <path id="90emfzn5ka" d="M0 .032h39.073v52.857H0z"/>
        <path id="tk6jj1ovzc" d="M.023.05H21.68V10.6H.023z"/>
        <path id="qvn74ybw0e" d="M.023.05H21.68V10.6H.023z"/>
    </defs>
    <g fill="none" fill-rule="evenodd">
        <path d="M0 0h64v64H0z"/>
        <path d="m13 19.5 4.677 1.828 6.74 1.584h8.089c3.942-.468 6.078-.702 6.406-.702.327 0 2.882-1.047 7.664-3.141l-.624 25.003-3.963 1.484-3.077 1.5L38.11 49v2.526l-2.276 1.68-.753 1.895-11.822-.463-6.156-1.844-3.667-3.145L13 19.5z" fill-opacity=".7" fill="#BE8432"/>
        <path d="m13 25.5 2.976 1.626 4.524 1.419 5.076.618h6.095l5.343-.618v16.6l-4.26.71-5.473.451-10.177-1.986-3.643-1.735L13 25.5z" fill="#F1F5F5"/>
        <path fill="#9EBABA" d="m37.624 51.66.648-3.294 1.76-1.8L53.645 43.2l2.21.985 1.72 2.38V49l-1.181 1.808-2.749 1.986-2.083-1.573z"/>
        <g transform="translate(10 3.088)">
            <mask id="hqsi1esq6b" fill="#fff">
                <use xlink:href="#90emfzn5ka"/>
            </mask>
            <path d="M3.845 24.76c.122 4.259.265 8.518.35 12.779.015.766.295 1.236.91 1.637 1.545 1.006 3.247 1.61 5.022 2.023 4.193.977 8.438 1.095 12.705.678 1.084-.106 2.156-.336 3.24-.51V26.48c-14.015 1.059-14.807.208-22.228-2.442 0 .258-.006.49 0 .721zm21.584-6.095c2.87-.334 5.702-.91 8.324-2.182.946-.46 1.82-1.098 2.651-1.75.644-.504.92-1.243.9-2.099-.032-1.5-.026-3.002-.005-4.503.011-.76-.237-1.403-.769-1.919a9.358 9.358 0 0 0-1.275-1.049c-1.56-1.05-3.32-1.642-5.119-2.118C25.464 1.81 20.7 1.603 15.91 1.915c-2.92.19-5.804.674-8.594 1.604-1.428.476-2.8 1.072-4.022 1.975-1.049.774-1.663 1.732-1.582 3.114.076 1.299.04 2.606.008 3.909-.024.94.32 1.702.998 2.31.408.367.833.757 1.322.986 1.318.617 2.639 1.265 4.021 1.7 3.685 1.158 7.498 1.496 11.348 1.61 2.007-.148 4.022-.226 6.02-.458zm9.497 22.338c-.141-3.58.142-9.113.2-12.646.055-3.5.165-7 .255-10.653-5.146 2.41-10.454 3.067-15.863 3.074-5.402.006-10.697-.686-15.73-3 0 1.261-.041 2.395.028 3.521.018.279.34.639.615.783 1.114.584 2.225 1.22 3.41 1.616 4.253 1.42 8.648 1.825 13.102 1.494 1.846-.137 3.679-.463 5.513-.734 1.06-.156 1.403.06 1.43 1.13.037 1.421.013 2.845.013 4.267v10.908c0 .237.005.474 0 .71-.03 1.154-.158 1.368-1.33 1.562-1.712.285-3.432.592-5.16.704-3.918.254-7.83.127-11.653-.862-1.52-.393-2.977-1.025-4.46-1.558-.288-.104-.56-.251-1.01-.456.044 1.896-.087 3.668.25 5.401.108.557.576 1.167 1.055 1.502.96.672 1.995 1.29 3.083 1.72 3.05 1.203 6.275 1.544 9.524 1.664 1.14.042 5.283.007 6.516.007v1.564c-.107.043-.211.117-.319.121-4.007.156-10.99-.04-14.848-1.224-1.421-.437-2.809-1.062-4.106-1.79-.798-.447-1.456-1.199-2.064-1.91-.547-.64-.714-1.47-.734-2.329-.169-7.19-.348-14.378-.53-21.568-.057-2.251-.148-4.502-.184-6.754-.01-.56-.189-.962-.586-1.346-.958-.927-1.388-2.063-1.34-3.416.053-1.46.039-2.925.003-4.386-.03-1.27.397-2.367 1.324-3.176.853-.746 1.79-1.438 2.791-1.963C6.957 1.492 10.057.863 13.201.445c4.214-.56 8.433-.542 12.646-.001 2.87.369 5.694.964 8.34 2.166 1.067.485 2.078 1.137 3.025 1.835 1.246.919 1.865 2.215 1.854 3.79-.01 1.423-.02 2.846.006 4.268.025 1.338-.4 2.495-1.355 3.42-.404.391-.58.807-.58 1.353-.002.75-.055 1.5-.074 2.251-.157 6.123-.31 12.245-.47 18.368-.008.345-.06 2.69-.097 3.108h-1.57z" fill="#2F484D" mask="url(#hqsi1esq6b)"/>
        </g>
        <g transform="rotate(-15 192.809 -113.521)">
            <mask id="pt5at2s43d" fill="#fff">
                <use xlink:href="#tk6jj1ovzc"/>
            </mask>
            <path d="M9.94 8.85V1.783c-1.814.034-3.58-.17-5.323.115-1.723.283-2.929 1.889-2.845 3.555.093 1.824 1.438 3.265 3.324 3.378 1.565.093 3.14.019 4.845.019zm1.836-.011c1.739 0 3.352.006 4.965-.007.231-.002.465-.085.692-.15a3.475 3.475 0 0 0 1.74-5.535c-.744-.922-1.733-1.348-2.9-1.363-1.223-.015-2.447-.01-3.67.003-.26.002-.52.07-.827.115V8.84zm-.95 1.72c-1.975 0-3.953.052-5.926-.015-1.786-.062-3.163-.958-4.086-2.469-2.121-3.47.262-7.883 4.34-7.989C7.96.014 10.767.071 13.572.071c.989 0 1.977-.021 2.964.005 2.888.078 5.084 2.283 5.143 5.142.06 2.91-2.096 5.24-5.043 5.347-1.934.07-3.872.013-5.809.013v-.02z" fill="#2F484D" mask="url(#pt5at2s43d)"/>
        </g>
        <path fill="#9EBABA" d="m35.082 55.976.753-2.77 2.182-1.985h13.546l3.187 2.699v3.573l-2.54 2.519H37.624z"/>
        <g transform="translate(34.177 50.369)">
            <mask id="a58lj3f2bf" fill="#fff">
                <use xlink:href="#qvn74ybw0e"/>
            </mask>
            <path d="M9.94 8.85V1.783c-1.814.034-3.58-.17-5.323.115-1.723.283-2.929 1.889-2.845 3.555.093 1.824 1.438 3.265 3.324 3.378 1.565.093 3.14.019 4.845.019zm1.836-.011c1.739 0 3.352.006 4.965-.007.231-.002.465-.085.692-.15a3.475 3.475 0 0 0 1.74-5.535c-.744-.922-1.733-1.348-2.9-1.363-1.223-.015-2.447-.01-3.67.003-.26.002-.52.07-.827.115V8.84zm-.95 1.72c-1.975 0-3.953.052-5.926-.015-1.786-.062-3.163-.958-4.086-2.469-2.121-3.47.262-7.883 4.34-7.989C7.96.014 10.767.071 13.572.071c.989 0 1.977-.021 2.964.005 2.888.078 5.084 2.283 5.143 5.142.06 2.91-2.096 5.24-5.043 5.347-1.934.07-3.872.013-5.809.013v-.02z" fill="#2F484D" mask="url(#a58lj3f2bf)"/>
        </g>
    </g>
</svg>
