<svg width="106" height="64" viewBox="0 0 106 64" xmlns="http://www.w3.org/2000/svg" xmlns:xlink="http://www.w3.org/1999/xlink">
    <defs>
        <path id="pvlvo8oqga" d="M0 .046h105.452v27.662H0z"/>
    </defs>
    <g fill="none" fill-rule="evenodd">
        <path d="M21 0h64v64H21z"/>
        <g transform="translate(0 14.246)">
            <mask id="hq5g6h3x7b" fill="#fff">
                <use xlink:href="#pvlvo8oqga"/>
            </mask>
            <path d="m3.546 21.232.473.298a23.971 23.971 0 0 0 12.775 3.682h34.308c5.028 0 10.02-.73 14.837-2.171l27.095-8.107 8.76-12.392h-6.65l-9.412 9.161a1.248 1.248 0 0 1-.871.354H35.423c-.513 0-.995.2-1.358.562l-4.272 4.27a1.247 1.247 0 0 1-.882.365H16.779a23.924 23.924 0 0 0-13.233 3.978m47.556 6.476H16.794A26.46 26.46 0 0 1 2.69 23.642L.584 22.318a1.249 1.249 0 0 1-.027-2.096l1.552-1.032a26.414 26.414 0 0 1 14.67-4.432h11.615l3.907-3.904a4.388 4.388 0 0 1 3.122-1.293h48.931L93.766.4c.233-.227.546-.354.87-.354h9.568a1.248 1.248 0 0 1 1.02 1.968l-10.4 14.712a1.247 1.247 0 0 1-.661.476l-27.509 8.23a54.23 54.23 0 0 1-15.552 2.276" fill="#2F484D" mask="url(#hq5g6h3x7b)"/>
        </g>
        <path d="M31.925 29.004h5.358l2.027-2.701h-3.887c-.513 0-.995.2-1.358.562l-2.14 2.139zm5.982 2.496H28.91a1.248 1.248 0 0 1-.882-2.13L32.3 25.1a4.389 4.389 0 0 1 3.122-1.293h6.384a1.248 1.248 0 0 1 .998 1.997L38.905 31a1.248 1.248 0 0 1-.998.499zM46.858 31.75h-2.06a.963.963 0 0 1-.964-.964v-1.948c0-.532.432-.963.964-.963h2.06c.532 0 .964.431.964.963v1.948a.963.963 0 0 1-.964.963M52.396 31.75h-2.06a.963.963 0 0 1-.964-.964v-1.948c0-.532.431-.963.963-.963h2.061c.532 0 .963.431.963.963v1.948a.963.963 0 0 1-.963.963M57.934 31.75h-2.06a.963.963 0 0 1-.964-.964v-1.948c0-.532.431-.963.963-.963h2.061c.532 0 .963.431.963.963v1.948a.963.963 0 0 1-.963.963" fill="#2F484D"/>
        <path d="M5.728 36.755a24.056 24.056 0 0 0 11.066 2.703h34.308c5.028 0 10.02-.73 14.837-2.172l1.776-.531H5.728zM79.206 28.682l2.73 3.744 9.71-2.847-1.247-1.301z" fill="#9EBABA"/>
        <path d="M91.257 29.37H80.18a1.092 1.092 0 1 1 0-2.184h11.076a1.092 1.092 0 0 1 0 2.184M97.478 26.303H84.861a1.248 1.248 0 0 1 0-2.496h12.617a1.248 1.248 0 1 1 0 2.496" fill="#2F484D"/>
    </g>
</svg>
