<svg width="64" height="64" viewBox="0 0 64 64" xmlns="http://www.w3.org/2000/svg">
    <g fill="none" fill-rule="evenodd">
        <path d="M0 0h64v64H0z"/>
        <path fill-opacity=".7" fill="#BE8432" d="m34.5 32 .783-3.367 5.766-14.575 4.5-7.623 3.054-1.646 2.646 1.215 1.906 4.543-1.154 6.423-2.172 13.681-5.268 1.761-4.264-1.76z"/>
        <path d="m16.5 22.5-.493-2.31.967-1.625-.474-3.49 2.001-2.089 2-1.587 1.331-3.036 2.916-2.36h3.201l2.485-.523 1.929 2.216 3.804 3.703 3.634 5.019-2.397 3.247-3.563-3.247.659-2.024-.66-1.408-7.365 1.408-.399 2.024 1.828 2.147-1.828 2.61-1.075 4.211-3.169-3.331-2.91-.482-2.422.927z" fill="#9EBABA"/>
        <path d="m10.486 30.5-.602-2.89 1.674-2.224 4.082-2.066 3.861-2.142c1.888.864 2.943 1.295 3.166 1.295.223 0 1.283 1.712 3.18 5.137V32l-3.18-.593-2.521-.907-4.139 1.5-5.52-1.5z" fill="#D9845F"/>
        <path d="M51.336 29.234a1.3 1.3 0 0 0-.57-.213c1.987-6.457 3.077-12.783 3.233-18.808.05-1.895-.877-4.425-2.744-5.596-.896-.563-2.364-1.027-4.27-.046-2.987 1.541-5.123 6.074-6.839 9.718l-.292.618a5.79 5.79 0 0 0-3.169-4.012 4.77 4.77 0 0 0-3.708-3.687 3.093 3.093 0 0 0-.076-.309c-.38-1.302-1.53-2.282-2.859-2.44a3.4 3.4 0 0 0-2.125.437 3.626 3.626 0 0 0-1.768-.46 3.684 3.684 0 0 0-3.58 2.835c-1.902.518-3.296 2.263-3.31 4.291a5 5 0 0 0-3.41 6.658 3.928 3.928 0 0 0-.55 4.042c-.999-1.09-2.405-1.98-3.984-1.923a1.001 1.001 0 0 0 .03 2c.034.001.065-.002.097-.002.937 0 1.808.62 2.442 1.34-1.586.457-3.498 1.201-4.39 2.883-.537 1.015-.6 2.26-.242 3.686a1.734 1.734 0 0 0-.25.983l1.702 24.187a5.696 5.696 0 0 0 5.691 5.408h28.071c3.036 0 5.536-2.375 5.69-5.39l1.745-25.028.001-.018a1.296 1.296 0 0 0-.566-1.154zm-11.974.074a1 1 0 0 0 1.268-.626 1.764 1.764 0 0 1 2.232-1.1 3.765 3.765 0 0 0 4.768-2.352 1 1 0 1 0-1.894-.643 1.761 1.761 0 0 1-2.232 1.1 3.77 3.77 0 0 0-4.768 2.352 1.002 1.002 0 0 0 .626 1.27zm2.366-6.968a1 1 0 0 0 1.268-.626c.151-.445.466-.805.888-1.013a1.748 1.748 0 0 1 1.344-.087 3.765 3.765 0 0 0 4.768-2.353 1.001 1.001 0 0 0-.625-1.269.998.998 0 0 0-1.268.626 1.76 1.76 0 0 1-2.232 1.101 3.729 3.729 0 0 0-2.87.188 3.738 3.738 0 0 0-1.898 2.164 1 1 0 0 0 .625 1.27zm2.364-6.968a1 1 0 0 0 1.269-.626 1.302 1.302 0 0 1 1.648-.813c.835.283 1.73.225 2.521-.164a3.282 3.282 0 0 0 1.665-1.899 1 1 0 1 0-1.894-.643 1.292 1.292 0 0 1-.656.748 1.288 1.288 0 0 1-.993.063 3.308 3.308 0 0 0-4.185 2.064 1.002 1.002 0 0 0 .625 1.27zm-3.422 2.395c.396-.739.828-1.655 1.285-2.626 1.503-3.192 3.563-7.563 5.946-8.793.87-.448 1.62-.457 2.291-.038 1.16.728 1.841 2.565 1.808 3.851-.153 5.912-1.233 12.134-3.21 18.494-.066.21-.21.631-.415 1.21l-1.704.757a.93.93 0 0 0-.108.057 3.165 3.165 0 0 1-1.596.447 3.16 3.16 0 0 1-1.595-.447l-.713-.428a5.16 5.16 0 0 0-2.658-.738l-.034.002a5.152 5.152 0 0 0-2.692.736l-.712.428c-.397.238-.836.354-1.28.404.025-.087.054-.172.08-.258a72.685 72.685 0 0 1 2.041-5.939c.124-.317.245-.637.373-.95a66.563 66.563 0 0 1 2.893-6.169zM27.922 20.14l.34-.438.001-.004c.08-.105.148-.214.206-.323.246-.463.304-.983.19-1.49l4.174-.914c.028.128.058.255.106.373.187.458.521.84.986 1.105.152.084.311.168.475.255.135.071.27.145.406.22l.196.105c.12.067.234.141.35.214.1.061.197.124.293.191.111.077.217.162.323.248.093.076.182.16.27.244.095.093.19.188.276.292.154.184.302.375.423.604a70.356 70.356 0 0 0-1.209 2.854c-.06.15-.124.294-.183.443-1.096.278-2.155.798-3.463 1.73-1.648 1.17-2.875 1.481-4.897 1.188l-.607-2.779c-.412-1.879.481-3.017 1.344-4.118zm4.96-6.073a.413.413 0 0 1 .17.81l-5.525 1.208a.42.42 0 0 1-.492-.316.419.419 0 0 1 .316-.492l2.935-.642 2.595-.568zm-3.233 15.467c-.076.005-.153.007-.229.015a5.13 5.13 0 0 0-1.594.423l-.19-.875c.287.024.574.048.843.048 1.744 0 3.148-.519 4.762-1.667.508-.362.958-.636 1.386-.863a72.43 72.43 0 0 0-.272.783c-.064.188-.133.373-.195.562a73.64 73.64 0 0 0-.835 2.692l-.665-.398a5.16 5.16 0 0 0-2.658-.738l-.037.002c-.106-.002-.21.01-.316.016zm-11.96-10.34.654-.54-.425-.734a3.006 3.006 0 0 1 2.482-4.515l1.214-.05-.283-1.183a2.464 2.464 0 0 1-.072-.578 2.49 2.49 0 0 1 2.29-2.47l.924-.07v-.996a1.68 1.68 0 0 1 1.677-1.622c.522 0 .896.238 1.117.438l.701.633.672-.664a1.416 1.416 0 0 1 1.167-.396c.536.063 1.02.481 1.176 1.018.053.18.068.354.047.531l-.117 1.117h1.126a2.753 2.753 0 0 1 2.738 2.557l.045.657.621.218A3.812 3.812 0 0 1 38 16.227a3.61 3.61 0 0 1-.656 1.985c-.669-.568-1.39-.95-1.996-1.27-.157-.083-.309-.163-.462-.248-.043-.024-.095-.066-.113-.17a.57.57 0 0 1 .14-.445 2.147 2.147 0 0 0 .47-1.847l-.122-.55a2.117 2.117 0 0 0-.933-1.34 2.114 2.114 0 0 0-1.604-.288l-.268.06h-.009l-2.935.642-2.864.625a2.113 2.113 0 0 0-1.338.933 2.116 2.116 0 0 0-.289 1.605l.06.272v.003l.001.004.06.271a2.127 2.127 0 0 0 1.236 1.497.606.606 0 0 1 .331.323c.026.074.011.112-.047.208v.001c-.099.133-.206.268-.315.407-.11.14-.224.287-.34.44-.039.05-.076.103-.115.155-.083.113-.166.228-.248.348-.045.065-.088.132-.132.2a8.492 8.492 0 0 0-.344.58 6.79 6.79 0 0 0-.21.437c-.029.064-.06.125-.086.192a5.515 5.515 0 0 0-.228.686c-.01.038-.014.08-.023.118a5.454 5.454 0 0 0-.112.635c-.01.088-.012.18-.018.271-.008.118-.023.23-.023.353l-.012-.015c-.014-.018-.028-.034-.04-.052a11.905 11.905 0 0 0-.69-.824 9.393 9.393 0 0 0-.443-.448c-.048-.045-.096-.094-.145-.138a6.915 6.915 0 0 0-.564-.456c-.053-.038-.107-.07-.16-.106a5.387 5.387 0 0 0-.638-.37 4.344 4.344 0 0 0-.45-.189c-.05-.018-.1-.042-.15-.058a4.17 4.17 0 0 0-.495-.125c-.019-.004-.038-.002-.057-.005-.034-.006-.067-.019-.1-.024-.117-.017-.227-.01-.34-.018-.08-.005-.16-.022-.24-.022-.024 0-.049.006-.074.006-.155.002-.305.02-.456.04-.075.01-.15.015-.225.03a4.685 4.685 0 0 0-.577.145c-.029.01-.057.016-.086.026-.498.17-.97.408-1.412.697a1.906 1.906 0 0 1-.139-.716 1.947 1.947 0 0 1 .714-1.506zm-6.426 8.302c.423-.797 1.45-1.405 3.233-1.915a5.397 5.397 0 0 0 2.236-1.283c.285-.273.552-.504.81-.714.806-.655 1.501-1.01 2.13-1.092a2.031 2.031 0 0 1 .621.012c.05.01.1.026.15.04.092.022.184.045.277.082.06.023.12.058.181.086.087.042.173.08.26.133.068.041.136.094.204.141.081.057.162.11.244.175.076.061.152.135.228.204.076.07.152.132.228.21.084.084.17.183.254.278.07.077.138.148.208.231.095.114.191.244.287.37.061.08.121.152.182.237.11.152.22.321.33.49.047.073.096.14.144.215.16.251.32.518.48.802.736 1.3.98 3.218.66 4.89-.053-.006-.105-.014-.158-.022a3.106 3.106 0 0 1-1.082-.387l-.713-.428A5.16 5.16 0 0 0 20 29.512l-.034.002a5.152 5.152 0 0 0-2.692.736l-.347.208a3.874 3.874 0 0 1-1.96.552 3.862 3.862 0 0 1-1.962-.552l-1.345-.808a1.713 1.713 0 0 0-.565-.214c-.157-.79-.1-1.43.17-1.94zm36.901 27.818a3.698 3.698 0 0 1-3.694 3.51H16.398a3.702 3.702 0 0 1-3.695-3.529L11.04 31.652l.87.522a5.871 5.871 0 0 0 3.058.838 5.869 5.869 0 0 0 3.058-.838l.347-.208a3.152 3.152 0 0 1 1.595-.448 3.158 3.158 0 0 1 1.596.448l.713.428a5.143 5.143 0 0 0 2.934.718c.09-.004.18-.004.271-.012.011 0 .021-.007.033-.008a5.142 5.142 0 0 0 1.971-.644c.058-.02.12-.022.174-.054l.713-.428a3.152 3.152 0 0 1 1.595-.448 3.158 3.158 0 0 1 1.596.448l.713.428a5.166 5.166 0 0 0 2.446.723l.052.003c.292.01.584 0 .874-.04.166-.022.327-.064.49-.1.08-.02.158-.037.236-.06a5.127 5.127 0 0 0 1.284-.527l.713-.428a3.152 3.152 0 0 1 1.595-.448 3.158 3.158 0 0 1 1.596.448l.713.428a5.16 5.16 0 0 0 2.68.734l.045.003c.898 0 1.797-.234 2.603-.704l1.962-.872c.042-.019.072-.055.111-.079l.153-.068-1.665 23.906zm-33.163-8.309h7a1 1 0 1 0 0-2h-7a1 1 0 1 0 0 2zm0 4h9a1 1 0 1 0 0-2h-9a1 1 0 1 0 0 2zm11 2h-11a1 1 0 1 0 0 2h11a1 1 0 1 0 0-2zm6 0h-2a1 1 0 1 0 0 2h2a1 1 0 1 0 0-2z" fill="#2F484D"/>
    </g>
</svg>
