<?xml version="1.0" encoding="UTF-8"?>
<svg width="64px" height="64px" viewBox="0 0 64 64" version="1.1" xmlns="http://www.w3.org/2000/svg" xmlns:xlink="http://www.w3.org/1999/xlink">
    <title>5E4B2FD6-5899-4642-B1FF-68753AC10F3D</title>
    <g id="Site" stroke="none" stroke-width="1" fill="none" fill-rule="evenodd">
        <g id="icons" transform="translate(-600.000000, -2169.000000)">
            <g id="icon-games" transform="translate(600.000000, 2169.000000)">
                <rect id="Mask" x="0" y="0" width="64" height="64"></rect>
                <g id="Vector" transform="translate(7.000000, 3.000000)" stroke="#2F484D" stroke-linecap="round" stroke-linejoin="round" stroke-width="2">
                    <path d="M12.5007885,22.1164388 C5.487119,22.2299333 -0.10777458,28.0054624 0.001575985,35.0191974 L0.001575985,44.2364727 C-0.10777458,51.2502092 5.487119,57.0257375 12.5007885,57.1392324 L37.499213,57.1392324 C44.51288,57.0257375 50.107775,51.2502092 49.9984235,44.2364727 L49.9984235,35.0191974 C50.107775,28.0054624 44.51288,22.2299333 37.499213,22.1164388 L12.5007885,22.1164388 Z" id="Vector-23" fill="#9EBABA"></path>
                    <path d="M24.9998337,22.1164638 C24.9998337,17.2132018 26.0354829,10.4100585 21.4286291,9.21727648 C19.9751235,8.87949637 18.4850929,8.72473442 16.9931943,8.75659142 C9.64365705,8.75659142 10.7150182,3.57120358 10.7150182,0 M16.0718235,44.24007 L16.0718235,38.7118469 M16.0718235,38.7118469 L16.0718235,33.1800525 M16.0718235,38.7118469 L21.4286289,38.7118469 M16.0718236,38.7118469 L10.7150182,38.7118469 M32.1422408,36.8691058 L35.7134443,33.1836237 M35.7134443,44.2543548 L39.2846479,40.5688727" id="Vector-24"></path>
                </g>
            </g>
        </g>
    </g>
</svg>