<?xml version="1.0" encoding="UTF-8"?>
<svg width="64px" height="64px" viewBox="0 0 64 64" version="1.1" xmlns="http://www.w3.org/2000/svg" xmlns:xlink="http://www.w3.org/1999/xlink">
    <title>334A8EAB-6C88-4768-AD2A-633FD4E00CDA</title>
    <g id="Site" stroke="none" stroke-width="1" fill="none" fill-rule="evenodd">
        <g id="icons" transform="translate(-360.000000, -413.000000)">
            <g id="icon-poultry" transform="translate(360.000000, 413.000000)">
                <rect id="Rectangle" x="0" y="0" width="64" height="64"></rect>
                <polygon id="Path-5" fill-opacity="0.7" fill="#BE8432" points="14.5 30 21.49049 28.7991886 29.6011314 25.0654793 35.3227692 20.2312136 38.5685539 20.2312136 36.0424156 26.8196945 39.420372 25.6771164 39.7664528 30 44.1845245 30 37.3323135 38.8584747 34.6653061 45.8166962 31.6536331 54.6633148 25.704689 59.2216187 17.6797333 60.8297615 9.23904991 57.7618637 3.72118759 50.2701638 3.395504 40.5304875 8.16638565 33.0434837"></polygon>
                <circle id="Oval" fill="#F1F5F5" cx="14" cy="37" r="2"></circle>
                <path d="M14.0534772,33.3808884 C12.2377022,33.3808884 10.7600521,34.8585385 10.7600521,36.6743135 C10.7600521,38.4900886 12.2377022,39.9677387 14.0534772,39.9677387 C15.8692523,39.9677387 17.3469024,38.4900886 17.3469024,36.6743135 C17.3469024,34.8574406 15.8692523,33.3808884 14.0534772,33.3808884 L14.0534772,33.3808884 L14.0534772,33.3808884 L14.0534772,33.3808884 L14.0534772,33.3808884 L14.0534772,33.3808884 L14.0534772,33.3808884 L14.0534772,33.3808884 L14.0534772,33.3808884 Z M61.0967619,9.33339582 C60.4117295,8.30365155 59.4324844,7.55494624 58.2655141,7.17181112 C58.0503437,7.10155138 57.8977483,6.94895601 57.8274886,6.73158995 C57.4443535,5.56571746 56.696746,4.58757019 55.6648061,3.90143995 C53.7030225,2.60053702 51.0529131,2.71800252 49.2173775,4.18687013 C47.8275521,5.30114564 47.0799445,6.95444506 47.1644758,8.72411216 C47.2270509,10.0316019 46.830742,11.1821051 46.0502003,11.9626469 L39.2953853,18.7174618 L38.0834049,18.7361246 C36.2072504,18.7635698 34.4551482,19.4969058 33.149854,20.8022 C28.9112159,25.0419359 23.2882413,27.6580133 16.8880185,28.3671975 C13.0819168,28.7898537 9.5008659,30.5232932 6.80135509,33.2480536 C0.597639938,39.513246 0.375882645,49.9072957 6.30953694,56.4162016 C9.44597548,59.8578309 13.7296238,61.8119298 18.3711576,61.919515 C18.506188,61.9228084 18.6401207,61.9250041 18.7751511,61.9250041 C23.2684808,61.9250041 27.4785759,60.1827822 30.6666115,56.9947466 C33.1092351,54.552123 34.7208178,51.4705749 35.3279058,48.0805426 C36.4026602,42.0865088 39.4413938,36.4459694 44.1169597,31.7715013 C44.4210527,31.4674084 44.6955047,31.1270878 44.9820327,30.7000403 L46.1270469,28.9907527 L42.7732423,28.9907527 C43.106976,28.7887559 43.4275361,28.5604118 43.7107706,28.2771772 L53.0377506,18.951295 C53.8171946,18.1707533 54.9479372,17.7832269 56.2773832,17.8370195 C58.060224,17.9061815 59.6992519,17.1739433 60.8135274,15.78302 C62.2834928,13.9463866 62.3987627,11.2951794 61.0967619,9.33339582 L61.0967619,9.33339582 L61.0967619,9.33339582 L61.0967619,9.33339582 L61.0967619,9.33339582 L61.0967619,9.33339582 L61.0967619,9.33339582 L61.0967619,9.33339582 Z M14.0534772,37.7721219 C13.447487,37.7721219 12.9556689,37.2803037 12.9556689,36.6743135 C12.9556689,36.0683233 13.447487,35.5765051 14.0534772,35.5765051 C14.6594675,35.5765051 15.1512856,36.0683233 15.1512856,36.6743135 C15.1512856,37.2803037 14.6594675,37.7721219 14.0534772,37.7721219 L14.0534772,37.7721219 L14.0534772,37.7721219 L14.0534772,37.7721219 L14.0534772,37.7721219 L14.0534772,37.7721219 L14.0534772,37.7721219 L14.0534772,37.7721219 Z M33.1652233,47.6908206 C32.6382753,50.6384361 31.236374,53.3170886 29.1132126,55.4413478 C26.2567152,58.2967474 22.4912325,59.8095273 18.420559,59.7238983 C14.3850154,59.6305845 10.6601515,57.9300794 7.93099992,54.9363559 C2.77239834,49.2771537 2.9645148,40.2410929 8.36024299,34.79267 C10.7402916,32.3895674 13.7724383,30.9217976 17.1273407,30.5496406 C24.0281642,29.7844681 30.1045336,26.9510247 34.6999594,22.354501 C35.2225162,21.833042 35.8504626,21.4444179 36.5398863,21.2050956 L34.3497586,28.5033257 L38.2052616,27.2188899 L38.2052616,29.3486382 L38.2052616,31.1841738 L41.6293259,31.1841738 C37.1634415,35.983792 34.2465646,41.6638526 33.1652233,47.6908206 L33.1652233,47.6908206 L33.1652233,47.6908206 L33.1652233,47.6908206 L33.1652233,47.6908206 L33.1652233,47.6908206 L33.1652233,47.6908206 L33.1652233,47.6908206 Z M59.0987507,14.408564 C58.4301854,15.2439961 57.4344732,15.7006844 56.3805771,15.6414028 C54.4352607,15.5513825 52.7051147,16.172742 51.483254,17.3967984 L42.1573718,26.7226806 C41.6853142,27.195836 41.0628568,27.4637012 40.4008784,27.4988311 L40.4008784,24.1724717 L37.6695311,25.0836526 L38.3710307,22.7464186 L47.6025013,13.5149479 C48.8254599,12.2930872 49.4501128,10.5541587 49.3578969,8.61872256 C49.3062999,7.55933747 49.7553036,6.56911431 50.5896379,5.8994512 C51.6698814,5.03328039 53.29354,4.96082504 54.4495322,5.73038871 C54.9984364,6.09486109 55.4013321,6.60095076 55.6472411,7.19266947 C54.5384547,7.45943691 53.5196885,8.05335124 52.7479292,8.91403301 C52.3428379,9.36523226 52.3801634,10.060145 52.8313626,10.4641384 C53.041044,10.6529615 53.3034203,10.7451774 53.5646986,10.7451774 C53.8644003,10.7451774 54.1651998,10.6222229 54.3814681,10.380705 C55.0214904,9.66712956 55.9359647,9.24666895 56.891058,9.22800621 C57.0414578,9.22471279 57.1841729,9.19177853 57.3137143,9.13359469 C57.4048324,9.1742136 57.487168,9.22581059 57.5826773,9.25764704 C58.2764922,9.48489337 58.8594285,9.93170138 59.268911,10.5486697 C60.036279,11.7046619 59.9638237,13.3283205 59.0987507,14.408564 L59.0987507,14.408564 L59.0987507,14.408564 L59.0987507,14.408564 L59.0987507,14.408564 L59.0987507,14.408564 L59.0987507,14.408564 L59.0987507,14.408564 Z M31.1452559,43.5103663 C30.5359723,43.3961942 29.9771878,43.8023833 29.8717982,44.3984933 C29.666508,45.5489965 29.3064269,46.6709566 28.8003372,47.7369286 C28.5401566,48.2847349 28.7739898,48.9390287 29.3217962,49.1992093 C29.4743916,49.2705669 29.6335738,49.3056967 29.7916582,49.3056967 C30.2022385,49.3056967 30.5963517,49.0740592 30.784077,48.6788481 C31.3736001,47.4372269 31.7940607,46.1275415 32.0333829,44.7849218 C32.1398703,44.1866163 31.7413659,43.6168537 31.1452559,43.5103663 L31.1452559,43.5103663 L31.1452559,43.5103663 L31.1452559,43.5103663 L31.1452559,43.5103663 L31.1452559,43.5103663 L31.1452559,43.5103663 L31.1452559,43.5103663 Z M26.9318674,50.6702725 C24.5924377,53.5070094 21.1650799,55.4819667 17.5291386,56.0890547 C16.930833,56.1889553 16.5268395,56.7543266 16.6267401,57.3515343 C16.7156626,57.8883626 17.1811333,58.2693022 17.7080813,58.2693022 C17.7684608,58.2693022 17.8277425,58.2649109 17.8892197,58.2539328 C22.041131,57.5612157 25.9559157,55.3052195 28.6257857,52.065587 C29.0122142,51.5979206 28.9452479,50.9063013 28.4764837,50.5209706 C28.0099152,50.1345421 27.3161003,50.2026062 26.9318674,50.6702725 L26.9318674,50.6702725 L26.9318674,50.6702725 L26.9318674,50.6702725 L26.9318674,50.6702725 L26.9318674,50.6702725 L26.9318674,50.6702725 L26.9318674,50.6702725 Z" id="meat" fill="#2F484D"></path>
            </g>
        </g>
    </g>
</svg>