<svg width="64" height="64" viewBox="0 0 64 64" xmlns="http://www.w3.org/2000/svg">
    <g fill="none" fill-rule="evenodd">
        <path d="M0 0h64v64H0z"/>
        <path fill="#9EBABA" d="M28.241 9.1h8.276v8.993l2.07 7.451 3.75 7.97v27.781H22.025V34.327l4.148-10.13 2.07-5.462z"/>
        <path d="M26.172 42.5s.284-2.772.66-3.132c.25-.24 1.973-1.427 5.168-3.559l4.517 1.764 2.07 3.854v15.404H26.171V42.5z" fill="#F1F5F5"/>
        <g fill="#2F484D">
            <path d="M28.241 8.207h8.276V4.069h-8.276v4.138zm9.31 2.069H27.208a1.035 1.035 0 0 1-1.035-1.035V3.034c0-.571.464-1.034 1.035-1.034h10.345c.571 0 1.034.463 1.034 1.034v6.207c0 .572-.463 1.035-1.034 1.035z"/>
            <path d="M23.069 59.931h18.62V38.332c0-3.955-1.075-7.838-3.11-11.23a21.737 21.737 0 0 1-3.096-11.178v-5.648h-6.207v5.648a21.73 21.73 0 0 1-3.096 11.177 21.832 21.832 0 0 0-3.111 11.231v21.599zM42.724 62h-20.69A1.034 1.034 0 0 1 21 60.966V38.332c0-4.33 1.177-8.582 3.406-12.294a19.667 19.667 0 0 0 2.8-10.114V9.241c0-.571.464-1.034 1.035-1.034h8.276c.572 0 1.035.463 1.035 1.034v6.683c0 3.561.969 7.058 2.8 10.113a23.9 23.9 0 0 1 3.407 12.295v22.634c0 .571-.463 1.034-1.035 1.034z"/>
            <path d="M27.207 55.793h10.345V42.345a5.178 5.178 0 0 0-5.173-5.173 5.178 5.178 0 0 0-5.172 5.173v13.448zm11.38 2.07H26.171a1.035 1.035 0 0 1-1.034-1.035V42.345c0-3.993 3.248-7.242 7.241-7.242 3.993 0 7.242 3.25 7.242 7.242v14.483c0 .571-.463 1.034-1.035 1.034z"/>
        </g>
    </g>
</svg>
