<svg width="75" height="37" viewBox="0 0 75 37" xmlns="http://www.w3.org/2000/svg" xmlns:xlink="http://www.w3.org/1999/xlink">
    <defs>
        <path id="g28xbj7boa" d="M.047.059h12.771v12.773H.048z"/>
        <path id="apbuifhuwc" d="M0 35.93h74.305V0H0z"/>
    </defs>
    <g fill="none" fill-rule="evenodd">
        <path d="M14.905 28.762a.78.78 0 0 0-.78.781.78.78 0 0 0 .78.782.783.783 0 1 0 0-1.563m0 3.345a2.565 2.565 0 0 1-2.562-2.564 2.565 2.565 0 0 1 2.562-2.563 2.568 2.568 0 0 1 2.565 2.563 2.569 2.569 0 0 1-2.565 2.564" fill="#72978D"/>
        <g transform="translate(55.604 23.097)">
            <mask id="fgelsbq8fb" fill="#fff">
                <use xlink:href="#g28xbj7boa"/>
            </mask>
            <path d="M6.435 1.841A4.61 4.61 0 0 0 1.83 6.446a4.609 4.609 0 0 0 4.605 4.604 4.608 4.608 0 0 0 4.601-4.604 4.609 4.609 0 0 0-4.601-4.605m0 10.99A6.393 6.393 0 0 1 .047 6.447 6.394 6.394 0 0 1 6.435.06c3.519 0 6.383 2.865 6.383 6.387a6.393 6.393 0 0 1-6.383 6.386" fill="#72978D" mask="url(#fgelsbq8fb)"/>
        </g>
        <path d="M62.039 28.762a.783.783 0 1 0-.001 1.565.783.783 0 0 0 0-1.565m0 3.345a2.569 2.569 0 0 1-2.565-2.564 2.568 2.568 0 0 1 2.566-2.563 2.565 2.565 0 0 1 2.561 2.563 2.565 2.565 0 0 1-2.561 2.564M6.617 14.07h6.774V7.3c-3.7.076-6.694 3.071-6.774 6.77m7.665 1.782H5.726a.892.892 0 0 1-.891-.891v-.744c0-4.798 3.902-8.702 8.702-8.702h.745c.49 0 .89.399.89.892v8.554c0 .492-.4.89-.89.89" fill="#72978D"/>
        <mask id="hw62h1q7vd" fill="#fff">
            <use xlink:href="#apbuifhuwc"/>
        </mask>
        <path d="M20.565 14.07h6.77V7.298h-6.77v6.772zm7.66 1.782h-8.552a.892.892 0 0 1-.89-.891V6.407c0-.493.4-.892.89-.892h8.553c.49 0 .89.399.89.892v8.554c0 .492-.4.89-.89.89zM34.324 14.07h6.774V7.298h-6.774v6.772zm7.665 1.782h-8.556a.892.892 0 0 1-.89-.891V6.407c0-.493.4-.892.89-.892h8.556c.491 0 .891.399.891.892v8.554c0 .492-.4.89-.89.89zM48.21 14.07h6.773V7.298h-6.774v6.772zm7.664 1.782h-8.556a.892.892 0 0 1-.89-.891V6.407c0-.493.4-.892.89-.892h8.556c.491 0 .891.399.891.892v8.554c0 .492-.4.89-.89.89zM61.969 14.07h6.774V7.298h-6.774v6.772zm7.665 1.782h-8.556a.892.892 0 0 1-.891-.891V6.407c0-.493.4-.892.89-.892h8.557c.49 0 .89.399.89.892v8.554c0 .492-.4.89-.89.89zM14.905 24.938a4.609 4.609 0 0 0-4.602 4.606 4.608 4.608 0 0 0 4.602 4.603 4.609 4.609 0 0 0 4.605-4.603 4.61 4.61 0 0 0-4.605-4.606m0 10.991a6.393 6.393 0 0 1-6.384-6.385c0-3.523 2.865-6.388 6.384-6.388a6.394 6.394 0 0 1 6.387 6.388 6.393 6.393 0 0 1-6.387 6.385" fill="#72978D" mask="url(#hw62h1q7vd)"/>
        <path d="M68.36 28.652h1.149a3.017 3.017 0 0 0 3.014-3.014V4.795c0-1.66-1.35-3.013-3.014-3.013H14.376c-6.944 0-12.594 5.648-12.594 12.59v11.266a3.017 3.017 0 0 0 3.015 3.014h3.787c.435-3.1 3.105-5.496 6.32-5.496 3.22 0 5.89 2.395 6.326 5.496h34.484c.435-3.1 3.105-5.496 6.325-5.496 3.216 0 5.886 2.395 6.32 5.496m1.15 1.783H67.53a.892.892 0 0 1-.89-.891 4.609 4.609 0 0 0-4.602-4.606 4.61 4.61 0 0 0-4.605 4.606c0 .492-.4.89-.892.89H20.401a.892.892 0 0 1-.891-.89 4.61 4.61 0 0 0-4.605-4.606 4.609 4.609 0 0 0-4.602 4.606c0 .492-.4.89-.89.89H4.796A4.801 4.801 0 0 1 0 25.639V14.373C0 6.448 6.45 0 14.376 0h55.133a4.8 4.8 0 0 1 4.796 4.795v20.843a4.801 4.801 0 0 1-4.796 4.797" fill="#72978D" mask="url(#hw62h1q7vd)"/>
    </g>
</svg>
