<?xml version="1.0" encoding="UTF-8"?>
<svg width="64px" height="64px" viewBox="0 0 64 64" version="1.1" xmlns="http://www.w3.org/2000/svg" xmlns:xlink="http://www.w3.org/1999/xlink">
    <title>E4921785-98BB-4024-B762-77503103AB2B</title>
    <g id="Site" stroke="none" stroke-width="1" fill="none" fill-rule="evenodd">
        <g id="icons" transform="translate(-600.000000, -2893.000000)">
            <g id="icon-repair" transform="translate(600.000000, 2893.000000)">
                <rect id="Mask" x="0" y="0" width="64" height="64"></rect>
                <circle id="Oval" fill-opacity="0.7" fill="#BE8432" cx="19" cy="44" r="5"></circle>
                <circle id="Oval-Copy-6" fill-opacity="0.7" fill="#BE8432" cx="46" cy="44" r="5"></circle>
                <polygon id="Path-46" fill="#9EBABA" points="27.0312727 14 39.0622406 14 42.522522 15.4989319 45.2256927 18.3068314 48.0666504 24.6907349 49.0418182 27.3610145 27.0312727 27.3610909"></polygon>
                <polygon id="Path-47" fill="#9EBABA" points="10.1090909 27 11.7067108 22.9287491 15.2295837 16.3005371 18.5701818 14 27.0312727 14 27.0312727 27.3610909"></polygon>
                <g id="Vector" transform="translate(4.000000, 14.000000)" stroke="#2F484D" stroke-linecap="round" stroke-linejoin="round" stroke-width="2">
                    <path d="M20.2059182,30.1024988 C20.214123,32.3507902 18.8661297,34.3822883 16.7913399,35.2483895 C14.7165512,36.1144907 12.324266,35.6443387 10.7315561,34.0574684 C9.1388462,32.4705981 8.6599097,30.0800559 9.51838467,28.0020994 C10.3768596,25.9241427 12.4033923,24.5686713 14.651699,24.5686713 C16.12206,24.5659778 17.5332718,25.1474855 18.5748841,26.1852782 C19.6164953,27.2230709 20.2031833,28.6321378 20.2059182,30.1024988 Z" id="Vector-12"></path>
                    <path d="M47.4855047,30.1024988 C47.4937094,32.3507902 46.1457162,34.3822883 44.0709264,35.2483895 C41.9961377,36.1144907 39.6038524,35.6443387 38.0111425,34.0574684 C36.4184327,32.4705981 35.9394962,30.0800559 36.7979711,28.0020994 C37.6564461,25.9241427 39.6829788,24.5686713 41.9312855,24.5686713 C43.4016464,24.5659778 44.8128583,25.1474855 45.8544706,26.1852782 C46.8960817,27.2230709 47.4827698,28.6321378 47.4855047,30.1024988 Z" id="Vector-13"></path>
                    <path d="M6.10909091,13.3610909 L8.06145455,8.17854554 C10.0138182,3.33963647 12.3632726,0 17.6679996,0 L23.0312727,0 M6.10909091,13.3610904 L2.77709101,13.3610904 C2.04595544,13.3556697 1.34261403,13.6409237 0.821804134,14.1540957 C0.300994207,14.6672677 0.00538086956,15.3663182 0,16.097454 L0,20.3636356 M6.10909091,13.3610909 L23.0312727,13.3610909 M45.0418182,13.3610909 L43.0894542,8.17854554 C41.1370911,3.33963647 38.7876361,0 33.4829094,0 L23.0312727,0 M45.0418182,13.3610909 L23.0312727,13.3610909 M45.0418182,13.3610316 L53.2254541,13.3610316 C54.746979,13.351215 55.9887924,14.5759395 56,16.0974546 L56,20.3636364 M36.3770909,30.1025455 L20.2058182,30.1025455 M47.4854545,30.1026213 L53.222909,30.1026213 C53.9540446,30.1079661 54.6573861,29.8227122 55.1781957,29.3095402 C55.6990061,28.7963683 55.9946188,28.0973176 56,27.3661818 L56,20.3636364 M9.09745455,30.1026213 L2.77709079,30.1026213 C2.04595539,30.1079661 1.34261417,29.8227122 0.821804182,29.3095402 C0.300994196,28.7963683 0.00538086962,28.0973176 0,27.3661818 L0,20.3636364 M23.0312727,0 L23.0312727,13.3610909 M0,20.3636364 L5.07309091,20.3636364 M56,20.3636364 L50.7130909,20.3636364" id="Vector-14"></path>
                </g>
            </g>
        </g>
    </g>
</svg>