<svg width="64" height="64" viewBox="0 0 64 64" xmlns="http://www.w3.org/2000/svg">
    <g fill="none" fill-rule="evenodd">
        <path d="M0 0h64v64H0z"/>
        <path d="M17.02 28V12.213l3.657-2.79.56-1.349h21.765l1.467 2.295L47.152 13v5.037L17.02 28zM17.5 50.5l29.652-10.848v12.814l-2.636 2.055-1.678 2.268h-21.45l-1.866-2.268-2.022-2.055z" fill="#9EBABA"/>
        <path d="M45.277 9.896C44.608 9.63 44 8.73 44 8a1 1 0 0 0-1-1H21c-.553 0-1 .458-1 1.011 0 .72-.608 1.619-1.277 1.886A4.31 4.31 0 0 0 16 13.918v37.469l.022-.007a4.3 4.3 0 0 0 2.7 3.723C19.392 55.37 20 56.27 20 57a1 1 0 0 0 1 1h22c.553 0 1-.458 1-1.011 0-.72.608-1.619 1.277-1.886A4.31 4.31 0 0 0 48 51.082V13.918a4.312 4.312 0 0 0-2.723-4.022zM18 32.721l28-9.333V35.28l-28 9.333V32.721zm28 18.361c0 .959-.575 1.809-1.465 2.164-1.115.445-2.04 1.553-2.388 2.754H21.854c-.347-1.197-1.273-2.308-2.39-2.754a2.318 2.318 0 0 1-1.465-2.164v-.361l28-9.333v9.694H46zm0-11.803-28 9.333v-1.891l28-9.333v1.891zm-28-8.666v-1.892l28-9.333v1.891l-28 9.334zm0-4V13.918c0-.959.575-1.809 1.465-2.164 1.115-.445 2.04-1.553 2.388-2.754h20.293c.347 1.197 1.273 2.308 2.39 2.754a2.318 2.318 0 0 1 1.465 2.164v3.361L18 26.613zM26 13h-5a1 1 0 1 0 0 2h5a1 1 0 1 0 0-2zm17 0H30a1 1 0 1 0 0 2h13a1 1 0 1 0 0-2zM21 53h5a1 1 0 1 0 0-2h-5a1 1 0 1 0 0 2zm9 0h13a1 1 0 1 0 0-2H30a1 1 0 1 0 0 2z" fill="#2F484D"/>
    </g>
</svg>
