<?xml version="1.0" encoding="UTF-8"?>
<svg width="64px" height="64px" viewBox="0 0 64 64" version="1.1" xmlns="http://www.w3.org/2000/svg" xmlns:xlink="http://www.w3.org/1999/xlink">
    <title>C60A996E-AA83-474F-874E-654C4A7B16ED</title>
    <g id="Site" stroke="none" stroke-width="1" fill="none" fill-rule="evenodd">
        <g id="icons" transform="translate(-120.000000, -621.000000)">
            <g id="icon-cereal" transform="translate(120.000000, 621.000000)">
                <rect id="Rectangle" x="0" y="0" width="64" height="64"></rect>
                <path d="M25.5,30.5 L21.2237625,29.8066711 L17.5113335,26.5123215 L17.5113335,21.221441 C19.3516172,20.8470732 20.271759,20.6598892 20.271759,20.6598892 C20.271759,20.6598892 21.4739672,20.9526545 23.8783836,21.5381851 L24.8018532,19.5059738 L24.8018532,16.1405983 L28.8851334,12.3489285 L33.2774315,17.3050194 L32.6739082,21.4244642 C34.3106427,20.9147476 35.3013197,20.6598892 35.6459392,20.6598892 C35.9905587,20.6598892 37.5488268,20.6598892 40.3207435,20.6598892 L40.3207435,25.494342 L38.3285522,29.1303009 L33.8012009,30.5 L31.0057869,30.5 L31.380127,24.0254146 L28.8851334,25.1459961 L26.8831558,24.0254146 L26.8831558,30.5 L25.5,30.5 Z" id="Path-10" fill-opacity="0.7" fill="#BE8432"></path>
                <polygon id="Path-11" fill="#9EBABA" points="21.1289177 41.8790116 26.5627327 44.799206 37.762207 45.8173294 50.3649635 44.799206 58.1843719 42.3984343 57.6281204 45.8173294 54.0886154 53.3138504 47.701889 57.8180428 41.3606278 59.9488754 34.0985069 58.9223092 28.0590553 55.9034245 23.185936 50.0445862"></polygon>
                <path d="M26.8157533,31.2079917 C27.389196,31.2079917 27.8545987,30.7436278 27.8545987,30.1691463 L27.8545987,26.3690498 C27.8545987,26.2142619 27.8421326,26.0615516 27.8317441,25.9098802 L28.1517085,26.2298445 C28.3542834,26.4324194 28.6202278,26.5342262 28.8861722,26.5342262 C29.1521166,26.5342262 29.4180611,26.4324194 29.6206359,26.2298445 L29.9572218,25.8932586 C29.9457945,26.0511631 29.9333284,26.2090676 29.9333284,26.3700887 L29.9333284,30.1701851 C29.9333284,30.7446666 30.3987311,31.2090305 30.9721738,31.2090305 L34.7722702,31.2090305 C38.4051126,31.2090305 41.3606278,28.2535154 41.3606278,24.6217119 L41.3606278,20.8205766 C41.3606278,20.2460951 40.895225,19.7817312 40.3217824,19.7817312 L36.5216859,19.7817312 C35.6615219,19.7817312 34.8418729,19.9521018 34.0876711,20.253367 C34.532297,18.1455497 33.9422328,15.8600898 32.308129,14.225986 L29.6206359,11.5384929 C29.2144474,11.1323044 28.5578971,11.1323044 28.1517085,11.5384929 L25.4631766,14.2249471 C23.8311505,15.8569732 23.2400475,18.1393166 23.6825956,20.2450562 C22.9335881,19.9479464 22.1201722,19.7796535 21.2662412,19.7796535 L17.4661448,19.7796535 C16.8927021,19.7796535 16.4272994,20.2440174 16.4272994,20.8184989 L16.4272994,24.6196342 C16.4272994,28.2514377 19.3828145,31.2069528 23.0156569,31.2069528 L26.8157533,31.2069528 L26.8157533,31.2079917 L26.8157533,31.2079917 L26.8157533,31.2079917 Z M39.2818981,21.8583831 L39.2818981,24.620673 C39.2818981,27.1076689 37.2582273,29.1303009 34.7712314,29.1303009 L32.0099803,29.1303009 L32.0099803,26.3690498 C32.0099803,23.8810151 34.0336512,21.8583831 36.5206471,21.8583831 L39.2818981,21.8583831 L39.2818981,21.8583831 L39.2818981,21.8583831 L39.2818981,21.8583831 Z M26.932104,15.6938745 L28.8851334,13.7408452 L30.8381627,15.6938745 C32.5958891,17.4516009 32.5958891,20.31362 30.8381627,22.0723853 L28.8851334,24.0254146 L26.932104,22.0723853 C25.1743776,20.31362 25.1743776,17.4516009 26.932104,15.6938745 L26.932104,15.6938745 L26.932104,15.6938745 L26.932104,15.6938745 Z M48.1276667,36.3710533 L51.7127221,22.9283939 C51.7355767,22.8411309 51.7480429,22.7507513 51.7480429,22.6603718 C51.7480429,21.5145253 50.8161986,20.582681 49.6703521,20.582681 L47.5926613,20.582681 C47.2134827,20.582681 46.8602753,20.6907209 46.5538159,20.8683634 L46.5538159,6.0388454 C46.5538159,5.46436389 46.0884132,5 45.5149705,5 L13.3169963,5 C13.311802,5 13.3066078,5.00311654 13.3014136,5.00311654 C13.2962193,5.00311654 13.2910251,5 13.2858309,5 L6.0388454,5 C5.46540274,5 5,5.46436389 5,6.0388454 L5,53.8257337 C5,54.240233 5.2472452,54.616295 5.62850147,54.7804326 L12.875487,57.8969688 C13.0074203,57.9530664 13.1466256,57.9811153 13.2858309,57.9811153 C13.292064,57.9811153 13.298297,57.9790376 13.3045301,57.9790376 C13.3086855,57.9790376 13.3128409,57.9811153 13.3169963,57.9811153 L29.2258747,57.9811153 C32.2364486,59.8822024 35.7892999,61 39.6060179,61 C50.3663785,61 59.1217675,52.2456498 59.1217675,41.4852892 L59.1217675,41.3772493 C59.1217675,38.2762958 52.707936,36.9341075 48.1276667,36.3710533 L48.1276667,36.3710533 L48.1276667,36.3710533 Z M32.0099803,39.2818981 C30.29173,39.2818981 28.8934441,40.680184 28.8934441,42.3984343 L30.9711349,42.3984343 C30.9711349,41.8249917 31.4375765,41.3595889 32.0099803,41.3595889 C32.5823842,41.3595889 33.0488257,41.8249917 33.0488257,42.3984343 L35.1265165,42.3984343 C35.1265165,40.680184 33.7282306,39.2818981 32.0099803,39.2818981 L32.0099803,39.2818981 L32.0099803,39.2818981 Z M40.3207435,40.3207435 C38.6024932,40.3207435 37.2042073,41.7190294 37.2042073,43.4372797 L39.2818981,43.4372797 C39.2818981,42.863837 39.7483397,42.3984343 40.3207435,42.3984343 C40.8931473,42.3984343 41.3595889,42.863837 41.3595889,43.4372797 L43.4372797,43.4372797 C43.4372797,41.7190294 42.0389938,40.3207435 40.3207435,40.3207435 L40.3207435,40.3207435 L40.3207435,40.3207435 Z M47.5926613,22.6603718 L49.6339925,22.6603718 L45.8100026,37.0016325 L45.8100026,37.0037102 C45.8100026,37.0057879 45.8089638,37.0068267 45.8089638,37.0068267 L45.1898119,39.3847438 C45.0454124,39.9394873 45.3778429,40.5066968 45.9336252,40.6521352 C46.0208882,40.673951 46.1091901,40.6853783 46.1954142,40.6853783 C46.6566616,40.6853783 47.0784328,40.3758023 47.1999777,39.9083219 L47.5916225,38.4040738 C54.6827811,39.2403443 57.0440767,40.88172 57.0440767,41.3782881 C57.0440767,42.400512 51.1112307,44.799206 39.6060179,44.799206 C28.1008051,44.799206 22.167959,42.400512 22.167959,41.3782881 C22.167959,40.3550254 28.1008051,37.9563314 39.6060179,37.9563314 C40.2210144,37.9563314 40.8100397,37.9802248 41.4084146,37.9958075 L41.2141506,38.7687085 C41.0739064,39.3255296 41.4115312,39.8896227 41.9683523,40.0298668 C42.0535376,40.0516826 42.138723,40.0610322 42.2228694,40.0610322 C42.6872333,40.0610322 43.1100434,39.746262 43.2295106,39.275665 L43.7385449,37.2540719 L47.5583794,22.9283939 C47.581234,22.8411309 47.5926613,22.7507513 47.5926613,22.6603718 L47.5926613,22.6603718 L47.5926613,22.6603718 Z M12.2469855,55.3642637 L7.0776908,53.1411346 L7.0776908,7.0776908 L12.2469855,7.0776908 L12.2469855,55.3642637 L12.2469855,55.3642637 L12.2469855,55.3642637 Z M18.5049902,24.620673 L18.5049902,21.8583831 L21.2662412,21.8583831 C23.7532371,21.8583831 25.776908,23.8810151 25.776908,26.3690498 L25.776908,29.1303009 L23.0156569,29.1303009 C20.528661,29.1303009 18.5049902,27.1066301 18.5049902,24.620673 L18.5049902,24.620673 L18.5049902,24.620673 Z M26.4667013,55.9034245 L14.3558417,55.9034245 L14.3558417,7.0776908 L44.4761251,7.0776908 L44.4761251,26.4199533 L41.94342,35.9181167 C41.177791,35.8942233 40.3996958,35.8786406 39.6060179,35.8786406 C32.8556005,35.8786406 20.0902682,37.0276036 20.0902682,41.3782881 L20.0902682,41.4863281 C20.0902682,42.171966 20.1276667,42.8492932 20.1972693,43.516232 C20.2180462,43.7146514 20.2606389,43.9078767 20.2876489,44.1052573 C20.3499796,44.57066 20.4123103,45.0360628 20.5078841,45.4900382 C20.5619041,45.7487107 20.6408563,45.9980336 20.7042259,46.2535896 C20.8008385,46.6358847 20.891218,47.0192186 21.0096464,47.3921641 C21.1041814,47.6892739 21.2226097,47.9759953 21.3306496,48.266872 C21.4480392,48.582681 21.5591956,48.9026453 21.6921678,49.2101436 C21.8282566,49.5249137 21.9861611,49.8292954 22.1388714,50.1367937 C22.2728824,50.4068935 22.4016993,50.6801098 22.5481765,50.9429377 C22.7216636,51.2556302 22.91385,51.5558565 23.1039587,51.8581605 C23.2577079,52.1022892 23.4093793,52.3484955 23.5735169,52.5853523 C23.7750529,52.8751901 23.9900939,53.1536007 24.2072126,53.4330501 C24.392127,53.6709457 24.5770415,53.9078025 24.7723445,54.1363485 C24.9873854,54.387749 25.2128149,54.6308389 25.4413609,54.8728898 C25.6719846,55.1170185 25.9057248,55.3549141 26.1488146,55.5865766 C26.2599711,55.6883835 26.3555448,55.8026565 26.4667013,55.9034245 L26.4667013,55.9034245 L26.4667013,55.9034245 Z M39.6070567,58.9223092 C36.0562832,58.9223092 32.7537936,57.8502208 29.9956591,56.020814 C29.8637257,55.933551 29.7369866,55.8400549 29.6081698,55.7496754 C29.31106,55.5408674 29.0191444,55.3237487 28.7355396,55.0972805 C28.6326939,55.0152117 28.5267317,54.9352206 28.4259637,54.8500352 C28.0561348,54.5404593 27.6987719,54.2163396 27.3569918,53.877676 C27.2936222,53.8143064 27.2323304,53.749898 27.1699996,53.6854896 C26.8323749,53.3416317 26.5061774,52.9873854 26.1986792,52.6165176 C26.17998,52.5947019 26.1602419,52.5728861 26.1425815,52.5510704 C25.810151,52.1469595 25.4974585,51.727266 25.2024264,51.2940675 C25.1671057,51.2421252 25.131785,51.1891441 25.0975031,51.136163 C24.5209439,50.2718436 24.0212592,49.3535042 23.6036434,48.3904946 C23.5693615,48.3105035 23.5340407,48.2305124 23.5007977,48.1505213 C23.3054948,47.682002 23.1278522,47.2030943 22.9741031,46.7148369 C22.954365,46.6535451 22.9387823,46.5901755 22.9200831,46.5288836 C22.7850332,46.0852966 22.6697214,45.63236 22.5710311,45.1742292 C22.551293,45.0828108 22.5284384,44.9924313 22.5097392,44.899974 C22.4619523,44.6620784 22.43702,44.4179498 22.3985827,44.1769376 C26.387749,46.2483954 34.6299484,46.8748191 39.6060179,46.8748191 C44.5831262,46.8748191 52.8242867,46.2483954 56.813453,44.1769376 C55.5128186,52.5157496 48.3042704,58.9223092 39.6070567,58.9223092 L39.6070567,58.9223092 L39.6070567,58.9223092 Z" id="cereals" fill="#2F484D"></path>
            </g>
        </g>
    </g>
</svg>