<svg width="233" height="336" viewBox="0 0 233 336" xmlns="http://www.w3.org/2000/svg" xmlns:xlink="http://www.w3.org/1999/xlink">
    <defs>
        <path id="dudjl14z4a" d="M.307.38h230.512v230.512H.307z"/>
        <path id="ip1xj1kunc" d="M.506.555h65.2v118.831H.507z"/>
    </defs>
    <g fill="none" fill-rule="evenodd">
        <path d="M36.355 51.02c5.895-4.21 18.415-1.317 24.468 10.597 3.677-4.056 9.257-4.518 12.372-1.938 3.07 2.543 2.61 7.103 2.565 7.495.644-.175 3.92-.998 7.212.904 3.905 2.257 4.564 6.46 4.636 6.978 3.031-1.942 6.95-1.444 9.207.993 2.565 2.77 2.438 7.446-.58 10.274 1.18 1.308 2.796 3.57 3.091 6.59.537 5.497-3.518 11.307-10.237 14.15a57.908 57.908 0 0 0-13.457-2.544 57.294 57.294 0 0 0-4.25-.13 17.395 17.395 0 0 1-5.537 3.49 17.366 17.366 0 0 1-7.018 1.17c-2.34.084-4.68.168-7.019.25-3.152 1.479-6.597 1.096-8.628-.904-1.313-1.293-1.682-2.914-1.803-3.747-8.8 1.68-15.313.469-16.418-2.573-.238-.656-.469-2.067 1.158-4.534-9.5.072-16.449-3.391-17.578-8.141-.58-2.446.534-4.585.798-5.092 2.86-5.486 12.036-7.658 22.877-5.82-2.628-1.386-3.763-4.233-2.942-6.404.797-2.106 3.13-2.767 3.413-2.843-2.25-7.54-.684-15.111 3.67-18.22" fill="#2F484D"/>
        <path d="m50.442 147.372 4.199-49.807-8.633-9.945h-8.634c2.754-.368 5.507-.735 8.26-1.104l-5.195-6.445L54.641 93.88l3.588-17.94-2.84-11.744 5.755 11.615-.374 5.421 10.838-5.292c-3.612 3.206-7.225 6.41-10.838 9.615l2.304 12.325 10.553-12.647-3.14 6.065 3.887 4.517-4.186-2.839-7.114 8.002-2.428 49.218-10.204-2.824z" fill="#BE8432"/>
        <path d="M152.656 64.009c6.805-4.842 21.256-1.516 28.242 12.189 4.244-4.666 10.685-5.198 14.282-2.23 3.544 2.926 3.013 8.17 2.961 8.621.742-.201 4.525-1.147 8.324 1.041 4.508 2.596 5.268 7.43 5.35 8.027 3.5-2.235 8.023-1.66 10.629 1.142 2.96 3.185 2.813 8.565-.669 11.817 1.362 1.506 3.227 4.108 3.567 7.582.62 6.323-4.062 13.007-11.817 16.276a67.016 67.016 0 0 0-15.533-2.926 66.037 66.037 0 0 0-4.905-.15 20.093 20.093 0 0 1-6.392 4.014 20.11 20.11 0 0 1-8.1 1.348l-8.102.288c-3.638 1.7-7.614 1.26-9.96-1.041-1.515-1.487-1.941-3.353-2.08-4.31-10.157 1.932-17.676.54-18.951-2.96-.275-.754-.542-2.378 1.337-5.216-10.967.083-18.987-3.9-20.29-9.365-.67-2.813.616-5.273.92-5.857 3.302-6.311 13.894-8.808 26.407-6.695-3.034-1.594-4.344-4.87-3.395-7.366.92-2.422 3.613-3.183 3.938-3.27-2.597-8.673-.788-17.383 4.237-20.959" fill="#2F484D"/>
        <path d="m169.138 174.895 4.815-57.366-9.9-11.454h-9.9l9.472-1.27-5.957-7.426 16.285 15.906 4.114-20.662-3.257-13.527 6.6 13.379-.43 6.242 12.429-6.094-12.428 11.074 2.642 14.196 12.1-14.568-3.6 6.986 4.457 5.203-4.8-3.27-8.157 9.216-2.784 56.688-11.7-3.253z" fill="#BE8432"/>
        <path d="M178.717 18.955c-5.419-4.34-12.62-3.118-14.715-2.686-1.432-11.753-11.976-18-18.943-15.85-5.737 1.772-10.29 9.62-8.817 18.53-8.047-7.576-20.183-7.58-27.279-.97-5.738 5.346-7.46 14.347-4.065 22.276-.426.09-4.32.966-5.757 4.334-1.458 3.418.192 8.046 4.33 10.394-.746-.19-14.397-3.458-20.923 4.175-.776.908-3.356 3.926-3.014 7.925.377 4.42 4.07 7.107 5.365 8.05 7.193 5.232 16.74 1.936 18.048 1.462 1.7 1.527 5.256 4.302 10.569 5.61 6.68 1.645 12.165-.008 14.313-.783.805 1.15 3.911 5.288 9.751 6.799 4.944 1.279 9.001-.061 10.436-.614 8.902 3.253 16.322 3.66 20.945 3.54 6.305-.162 13.793-.355 16.91-5.365 1.441-2.317 1.478-4.91 1.3-6.666 5.932.72 34.141 3.89 37.723-4.716.128-.307.994-2.39.162-4.39-1.458-3.506-7.438-5.087-15.284-4.227.652-1.459 3.25-7.691.489-13.083-3.483-6.803-14.436-10.2-25.365-5.29.73-4.245 2.282-15.885-2.765-24.39-1.348-2.271-2.653-3.455-3.414-4.065" fill="#72978D"/>
        <path d="m154.092 136.606.251-62.97 11.885-11.532 10.787.949-10.198-2.294 7.202-7.519-19.269 15.77-2.502-22.908 4.845-14.427-8.474 13.945-.131 6.844-12.958-7.832 12.48 13.258c-1.412 5.072-2.826 10.144-4.239 15.215l-11.788-17.033 3.253 7.958-5.355 5.242 5.543-3.104 8.005 10.825-2.398 62.036 13.061-2.423z" fill="#BE8432"/>
        <g transform="translate(.832 104.055)">
            <mask id="fqnutf99nb" fill="#fff">
                <use xlink:href="#dudjl14z4a"/>
            </mask>
            <path d="M230.82 115.636c0 63.655-51.603 115.257-115.257 115.257S.307 179.29.307 115.636C.307 51.982 51.909.38 115.563.38s115.256 51.602 115.256 115.256" fill="#9EBABA" mask="url(#fqnutf99nb)"/>
        </g>
        <path d="M45.685 128.67c14.477.708 19.145 4.559 20.715 7.973 2.265 4.922-1.55 9.727 2.05 15.026 2.926 4.31 8.454 5.556 9.562 5.806 4.687 1.057 5.712-.815 10.928 0 2.283.356 8.836 1.38 10.93 6.148 1.273 2.902.766 6.902-1.367 9.561-4.693 5.853-14.806 2.175-16.393 6.148-1.07 2.677 2.493 6.92 5.314 9.037 4.915 3.685 8.525 1.623 12.104 5.307 2.232 2.298 4.024 6.393 2.731 9.22-1.468 3.212-5.679 2.087-8.879 6.49-1.777 2.444-1.41 4.074-3.073 4.78-1.827.778-3.414-.702-7.514-2.39-4.51-1.857-8.06-3.318-10.245-2.05-3.19 1.852-.12 7.567-3.416 11.27-2.686 3.02-6.672 1.41-17.759 2.05-10.148.587-15.222.88-18.1 4.098-4.574 5.118.312 11.926-3.415 17.76-2.439 3.816-8.561 7.211-24.505 5.771-2.74-10.23-9.791-41.862 5.195-76.666 10.323-23.974 26.386-38.496 35.137-45.34M121.214 223.217c-2.455-.203-5.84-.963-8.98.86a2.214 2.214 0 0 0-.241.165c-4.157 3.185-4.037 13.852 1.024 19.466 3.55 3.936 7.618 3.27 9.221 7.428 1.223 3.17-.652 4.831.512 8.709 1.21 4.03 3.9 4.453 5.892 7.428 5.697 8.51-5.107 21.793-.513 26.125 1.778 1.677 4.837 1.047 7.428.513 8.835-1.821 10.348-9.392 19.467-14.344 6.07-3.296 6.782-.706 13.575-3.586 13.385-5.674 19.175-19.36 23.181-28.828 2.586-6.114 6.295-15.163 2.433-19.838-1.4-1.695-2.59-1.355-5.379-3.586-5.241-4.193-4.659-8.292-7.94-12.295-5.447-6.643-17.178-7.696-24.846-5.122-.604.203-4.244 2.525-11.525 7.171-7.85 5.009-10.012 6.576-14.312 7.889-4.448 1.358-6.672 2.038-8.997 1.845" fill="#72978D"/>
        <g transform="translate(166.763 118.177)">
            <mask id="fy6b7iwukd" fill="#fff">
                <use xlink:href="#ip1xj1kunc"/>
            </mask>
            <path d="M6.703 10.013c1.087 3.188 2.066 4.06 1.792 5.891-.561 3.75-5.198 3.618-7.171 7.685-2.268 4.67.45 11.847 4.866 14.855 2.276 1.55 3.194.763 5.844 1.859 7.876 3.255 6.37 12.939 14.647 21.962 5.922 6.456 8.98 3.992 11.27 8.709 4.697 9.67-8.204 19.92-3.33 28.43 2.406 4.201 5.747 2.053 12.551 9.222 3.632 3.827 4.694 6.562 8.709 8.709 3.38 1.808 5.418 2.083 7.662 2.051 1.27-10.895 5.228-45.504-16.432-79.393C33.187 18.208 15.319 6.243 5.27.555c-.05 2.35.152 5.708 1.433 9.458z" fill="#72978D" mask="url(#fy6b7iwukd)"/>
        </g>
    </g>
</svg>
