<svg width="70" height="66" viewBox="0 0 70 66" xmlns="http://www.w3.org/2000/svg" xmlns:xlink="http://www.w3.org/1999/xlink">
    <defs>
        <path id="6zasj9mrxa" d="M.212.007h1.92v8.36H.211z"/>
        <path id="rw9cg6jx0c" d="M.14.007h1.919v8.36H.139z"/>
        <path id="hlht8sqd5e" d="M.038.168h19.92v32.183H.038z"/>
    </defs>
    <g fill="none" fill-rule="evenodd">
        <path d="M17.453 23.492H4.77c-2.02 0-3.659-1.663-3.659-3.714V8.39h20v11.388c0 2.051-1.638 3.714-3.658 3.714M14.456 27.966H7.211C5.99 27.966 5 26.964 5 25.73v-2.237h11.667v2.237c0 1.235-.99 2.237-2.21 2.237" fill="#BE8432"/>
        <path d="M68.634 6.153s-14.095 4.052-19.305 15.269c-5.21 11.216 3.65 18.73 12.61 12.92 8.96-5.812 6.695-28.19 6.695-28.19" fill="#72978D"/>
        <path d="M49.696 34.33s6.701-7.384-4.611-16.06c-7.965-6.11-17.8-4.708-17.8-4.708s-1.321 12.215 8.086 19.722c9.406 7.507 14.325 1.046 14.325 1.046" fill="#9EBABA"/>
        <g transform="translate(3.889)">
            <mask id="k2pgiflg9b" fill="#fff">
                <use xlink:href="#6zasj9mrxa"/>
            </mask>
            <path d="M2.131 8.367H.211V.85c0-.465.43-.843.96-.843s.96.378.96.843v7.517z" fill="#2F484D" mask="url(#k2pgiflg9b)"/>
        </g>
        <g transform="translate(15.556)">
            <mask id="j0n3q0dqod" fill="#fff">
                <use xlink:href="#rw9cg6jx0c"/>
            </mask>
            <path d="M2.059 8.367H.139V.85c0-.465.43-.843.96-.843s.96.378.96.843v7.517z" fill="#2F484D" mask="url(#j0n3q0dqod)"/>
        </g>
        <path d="M1.683 9.537V20.05c0 1.573 1.262 2.853 2.814 2.853H17.17c1.551 0 2.814-1.28 2.814-2.853V9.537H1.683zM17.17 24.61H4.497C2.017 24.61 0 22.565 0 20.05V7.83h21.667v12.22c0 2.515-2.018 4.56-4.497 4.56z" fill="#2F484D"/>
        <path d="M6.137 24.638v1.37c0 .756.61 1.37 1.36 1.37h7.229c.75 0 1.36-.614 1.36-1.37v-1.37h-9.95zm8.589 4.447h-7.23c-1.683 0-3.052-1.38-3.052-3.077v-3.076h13.334v3.076c0 1.697-1.37 3.077-3.052 3.077zM50.698 50.455l-.002-.002c-.454-.273-1.03-.035-1.191.487a19.754 19.754 0 0 1-5.865 9.046.898.898 0 0 0-.259.963l.002.004c.194.57.869.755 1.312.369 2.934-2.558 5.17-5.96 6.375-9.847a.885.885 0 0 0-.372-1.02" fill="#2F484D"/>
        <path d="M11.713 44.885v-16.36H10v16.382c0 10.725 8.015 19.75 18.482 21.086a.854.854 0 0 0 .962-.844.847.847 0 0 0-.738-.84c-9.636-1.228-16.993-9.563-16.993-19.424M51.667 45.13v-5.094c0-.453-.304-.859-.71-.882-.432-.026-.789.358-.789.835v5.14c0 .879-.056 1.743-.161 2.59a.86.86 0 0 0 .369.827l.005.003c.462.297 1.04-.027 1.113-.616.113-.917.173-1.853.173-2.804M31.111 65.118v.001c0 .502.395.901.867.88a19.447 19.447 0 0 0 9.265-2.828.91.91 0 0 0 .375-1.065c-.174-.517-.745-.735-1.194-.463a17.88 17.88 0 0 1-8.525 2.6c-.44.018-.788.406-.788.875" fill="#2F484D"/>
        <g transform="translate(50 5.034)">
            <mask id="ot6gue4g1f" fill="#fff">
                <use xlink:href="#hlht8sqd5e"/>
            </mask>
            <path d="M19.686 1.18 19.584.167l-.96.276C18.079.601 6.19 4.121.174 13.644a.86.86 0 0 0 .073 1.03l.013.014a.828.828 0 0 0 1.329-.111C6.326 7.117 15.16 3.462 18.1 2.414c.302 4.45.954 21.585-6.397 26.358-2.696 1.75-5.492 2.285-7.834 1.604a.83.83 0 0 0-1.033.594v.002c-.117.441.129.907.561 1.031a9.128 9.128 0 0 0 2.523.348c2.17 0 4.49-.713 6.685-2.138 9.291-6.033 7.175-28.098 7.08-29.034" fill="#2F484D" mask="url(#ot6gue4g1f)"/>
        </g>
        <path d="M64.79 12.035a.813.813 0 0 0-1.206-.041c-1.306 1.338-4.403 4.817-7.408 10.424a59.854 59.854 0 0 0-2.287 4.763l.59 3.021v.001a57.542 57.542 0 0 1 3.151-6.96c2.865-5.346 5.904-8.764 7.129-10.034a.877.877 0 0 0 .031-1.174M48.972 35.237c-.024-.062-2.452-6.312-7.616-10.7-3.98-3.382-7.296-5.37-8.694-6.146a.86.86 0 0 1-.354-1.126v-.001a.842.842 0 0 1 1.169-.38c1.472.815 4.858 2.846 8.97 6.34 5.51 4.682 8.005 11.125 8.109 11.397l-1.584.616zM29.278 25.869l-.024.016a.802.802 0 0 0-.276 1.04c.615 1.19 1.371 2.38 2.302 3.53a.85.85 0 0 0 1.265.05l.008-.009a.791.791 0 0 0 .051-1.047 19.144 19.144 0 0 1-2.11-3.265.845.845 0 0 0-1.216-.315" fill="#2F484D"/>
        <path d="M52.183 28.21c-.324-3.603-2.633-7.075-6.865-10.322-8.143-6.247-17.993-4.927-18.408-4.868l-.652.093-.071.656c-.033.307-.47 4.746 1.2 9.914a.852.852 0 0 0 1.289.45l.03-.022a.848.848 0 0 0 .332-.96c-1.212-3.76-1.255-7.122-1.206-8.517 2.313-.17 10.053-.31 16.455 4.601 3.827 2.936 5.914 5.997 6.205 9.097.317 3.385-1.695 5.68-1.715 5.702l-.043.05c-.014.02-1.483 1.872-4.246 2.2-2.663.317-5.642-.824-8.857-3.39a18.595 18.595 0 0 1-.964-.826.848.848 0 0 0-1.195.045.852.852 0 0 0 .048 1.21c.336.306.687.605 1.054.898 3.174 2.534 6.207 3.813 9.033 3.813.378 0 .754-.023 1.125-.07 3.302-.409 5.093-2.525 5.325-2.817.27-.308 2.483-2.97 2.126-6.937" fill="#2F484D"/>
    </g>
</svg>
