<svg width="70" height="68" viewBox="0 0 70 68" xmlns="http://www.w3.org/2000/svg">
    <g fill="none" fill-rule="evenodd">
        <path fill="#72978D" d="M57.192 26.816 45.66 33.282l3.403 6.03.073.13 4.124 7.307h15.18z"/>
        <path fill="#9EBABA" d="M47.77 47.6v-4.862L37.26 54.194 47.77 65.65v-4.862h13.413L68.92 47.6z"/>
        <path fill="#72978D" d="M26.87 1.72 15.017 22.725 26.55 29.19l3.715-6.584.115-.204 4.08-7.231z"/>
        <path fill="#9EBABA" d="m49.117 25.957 4.659-15.111-4.252 2.384L42.54.853H27.36l7.59 13.45 3.043 5.392-4.252 2.384z"/>
        <path fill="#72978D" d="M25.7 47.6h-8.56L9.696 60.788h22.944V47.6z"/>
        <path fill="#9EBABA" d="m3.303 33.565 4.252 2.383L.979 47.6l7.738 13.188L16.16 47.6l2.927-5.186 4.252 2.383-4.864-14.748z"/>
        <path d="m.973 33.23 5.424 3.041L0 47.607l8.233 14.03h.99l10.194-18.065 5.424 3.04-5.795-17.57L.973 33.23zm.996 14.36 6.754-11.968-3.08-1.726 12.268-2.843 3.934 11.926-3.08-1.726L8.709 59.075 1.969 47.59zM26.866 0l-.48.851L36.834 19.37l-5.37 3.01 18.235 4.6 5.525-17.921-5.37 3.01L43.045 0h-16.18zm9.162 21.775 3.133-1.757L28.825 1.703h13.22l7.159 12.684 3.133-1.756-3.793 12.3-12.516-3.156zM36.107 54.192l12.523 13.65v-6.204h13.048l8.232-14.031-.485-.86H48.63v-6.203L36.107 54.192zm2.315 0 8.5-9.264v3.522h20.515l-6.74 11.485H46.923v3.522l-8.5-9.265z" fill="#2F484D"/>
        <g fill="#2F484D">
            <path d="M33.5 46.747H17.232l-.96 1.703h15.52v11.485h-2.655a.853.853 0 0 0-.854.851c0 .47.382.852.854.852H33.5v-14.89zM17.643 60.786c0 .47.382.852.854.852h3.559a.853.853 0 0 0 .854-.852.853.853 0 0 0-.854-.85h-3.559a.853.853 0 0 0-.854.85M11.75 59.935H9.79l-.96 1.703h5.254a.853.853 0 0 0 .855-.852.853.853 0 0 0-.855-.851H11.75zM24.618 60.786c0 .47.382.852.854.852h.57a.853.853 0 0 0 .853-.852.853.853 0 0 0-.854-.85h-.57a.853.853 0 0 0-.853.85M18.683 24.77a.85.85 0 0 0 .323 1.163l2.767 1.551a.855.855 0 0 0 1.171-.34A.85.85 0 0 0 22.61 26l-2.766-1.55a.856.856 0 0 0-1.161.32M16.185 22.398 27.561 2.24l-.98-1.737L13.86 23.047l2.17 1.217c.41.23.928.086 1.16-.321a.85.85 0 0 0-.323-1.163l-.68-.382zM35.151 15.69l-.98-1.737-7.943 14.076-.64-.359a.856.856 0 0 0-1.17.34.85.85 0 0 0 .333 1.144l2.129 1.193L35.15 15.69zM63.325 37.658a.85.85 0 0 0-.333 1.163l.714 1.264a.855.855 0 0 0 1.164.324.85.85 0 0 0 .325-1.158l-.714-1.265a.856.856 0 0 0-1.156-.328M65.706 41.894a.85.85 0 0 0-.325 1.159l.059.104a.856.856 0 0 0 1.103.356.85.85 0 0 0 .385-1.19l-.059-.105a.855.855 0 0 0-1.163-.324M59.994 31.751a.85.85 0 0 0-.334 1.164l1.657 2.938a.856.856 0 0 0 1.156.329.85.85 0 0 0 .333-1.164l-1.658-2.937a.856.856 0 0 0-1.154-.33M57.523 25.656l-13.02 7.3 7.975 14.132h1.96l-7.61-13.483 10.043-5.63 1.114 1.972a.855.855 0 0 0 1.154.33.85.85 0 0 0 .335-1.164l-1.951-3.457zM67.658 47.088h1.96l-1.01-1.788a.855.855 0 0 0-1.103-.355.85.85 0 0 0-.385 1.19l.538.953z"/>
        </g>
    </g>
</svg>
