<svg width="71" height="70" viewBox="0 0 71 70" xmlns="http://www.w3.org/2000/svg" xmlns:xlink="http://www.w3.org/1999/xlink">
    <defs>
        <path id="7qq1jx3fha" d="M.095.06h2.05v6.925H.095z"/>
        <path id="tb1ufiqbzc" d="M0 .078h1.897v6.084H0z"/>
        <path id="gzk6qmum1e" d="M.11.13h33.7v15.933H.11z"/>
        <path id="0idgx2lbfg" d="M0 69.87h69.867V.206H0z"/>
    </defs>
    <g fill="none" fill-rule="evenodd">
        <path d="M47.98 24.113H21.893v-4.459a2.977 2.977 0 0 1 2.981-2.973H45a2.977 2.977 0 0 1 2.982 2.973v4.46z" fill="#BE8432"/>
        <path d="M43.11 45.466c.209 0 .414.014.616.037l1.87-18.12H24.277l2.684 26.013h11.285a5.399 5.399 0 0 1-.604-2.48c0-3.005 2.453-5.45 5.468-5.45" fill="#72978D"/>
        <path d="M43.11 49.33a1.59 1.59 0 0 0-1.592 1.587 1.59 1.59 0 0 0 3.183 0 1.59 1.59 0 0 0-1.591-1.587m0 4.957a3.38 3.38 0 0 1-3.38-3.37 3.38 3.38 0 0 1 3.38-3.37 3.38 3.38 0 0 1 3.38 3.37 3.38 3.38 0 0 1-3.38 3.37M69.375 40.876c.073-.43.135-.862.19-1.295a.895.895 0 0 0-1.772-.235 31.32 31.32 0 0 1-.182 1.233 31.084 31.084 0 0 1-1.305 5.135 35.147 35.147 0 0 1-.9 2.33.887.887 0 0 0 .54 1.187.892.892 0 0 0 1.105-.486c.345-.807.662-1.627.949-2.455a32.87 32.87 0 0 0 1.375-5.414M49.04 64.95c-1.598.768-3.273 1.367-4.975 1.859a31.377 31.377 0 0 1-5.208 1.041c-.44.065-.881.096-1.324.128-.442.03-.883.078-1.327.078l-1.33.03-1.33-.045c-1.775-.048-3.534-.305-5.277-.625a33.69 33.69 0 0 1-9.898-3.757c-.395-.202-.759-.457-1.134-.692-.372-.24-.75-.473-1.117-.719l-1.071-.786-.536-.393c-.177-.134-.34-.283-.512-.423l-1.018-.854c-.342-.282-.646-.605-.97-.906-.315-.31-.654-.6-.95-.929l-.898-.977 2.043-1.81a31.135 31.135 0 0 1-6.918-3.436c.15 2.675.636 5.45 1.495 8.241l2.043-1.81.947 1.03c.312.346.667.651 1 .979.341.317.663.656 1.023.954l1.072.9c.18.148.354.304.54.445l.564.414 1.129.829c.388.26.785.505 1.177.758.395.248.78.515 1.195.729a35.483 35.483 0 0 0 10.436 3.96c1.837.34 3.692.608 5.561.66l1.4.047c.467-.004.934-.021 1.401-.031.467-.002.933-.05 1.399-.083.466-.034.932-.066 1.394-.134a33.19 33.19 0 0 0 5.491-1.098c1.795-.518 3.56-1.152 5.245-1.96a34.511 34.511 0 0 0 6.33-3.843.893.893 0 1 0-1.075-1.425 32.747 32.747 0 0 1-6.017 3.654" fill="#2F484D"/>
        <g transform="translate(67.722 29.811)">
            <mask id="t1p9x7jakb" fill="#fff">
                <use xlink:href="#7qq1jx3fha"/>
            </mask>
            <path d="M1.876.836A.885.885 0 0 0 .854.07a.9.9 0 0 0-.752.993c.209 1.655.286 3.326.24 4.994a.897.897 0 0 0 .787.92.896.896 0 0 0 1.003-.866A34.66 34.66 0 0 0 1.876.836" fill="#2F484D" mask="url(#t1p9x7jakb)"/>
        </g>
        <path d="M63.766 51.352a33.203 33.203 0 0 1-6.069 7.694.886.886 0 0 0-.089 1.184.899.899 0 0 0 1.329.103 35.189 35.189 0 0 0 5.904-7.284c.147-.241.371-.637.578-1.01a.885.885 0 0 0-.494-1.269h-.002a.89.89 0 0 0-1.06.41l-.097.172" fill="#2F484D"/>
        <g transform="translate(0 31.463)">
            <mask id="ogb5ihs54d" fill="#fff">
                <use xlink:href="#tb1ufiqbzc"/>
            </mask>
            <path d="M.108.952C.022 1.83.027 2.71 0 3.59l.063 1.666c.018.484.4.902.885.906a.893.893 0 0 0 .903-.925L1.789 3.59c.027-.835.02-1.672.103-2.504l.003-.052a.896.896 0 0 0-.686-.93.89.89 0 0 0-1.101.85" fill="#2F484D" mask="url(#ogb5ihs54d)"/>
        </g>
        <path d="M20.256 3.43c-1.597.75-3.155 1.591-4.62 2.575a37.546 37.546 0 0 0-4.18 3.24A37.637 37.637 0 0 0 7.82 13.08c-1.122 1.361-2.114 2.824-3.017 4.337-.362.603-.7 1.22-1.016 1.848a.894.894 0 0 0 .372 1.193.892.892 0 0 0 1.22-.38c.301-.597.621-1.184.966-1.757.857-1.435 1.798-2.824 2.863-4.115a35.873 35.873 0 0 1 3.45-3.64 35.778 35.778 0 0 1 3.967-3.075c1.39-.934 2.869-1.732 4.384-2.444a30.358 30.358 0 0 1 4.039-1.552.835.835 0 0 0 .494-1.19v-.001a.98.98 0 0 0-1.162-.47 32.2 32.2 0 0 0-4.124 1.595M2.192 22.882c-.05.132-.097.265-.144.398-.16.453-.311.91-.466 1.365-.24.847-.502 1.69-.683 2.552a21.624 21.624 0 0 0-.317 1.525.895.895 0 0 0 1.762.308c.086-.48.178-.96.299-1.433.17-.818.42-1.617.647-2.42.22-.643.428-1.289.673-1.922a.876.876 0 0 0-.424-1.103.882.882 0 0 0-1.237.448c-.047.118-.087.219-.11.282" fill="#2F484D"/>
        <g transform="translate(29.408 .077)">
            <mask id="7q8p3aqxbf" fill="#fff">
                <use xlink:href="#gzk6qmum1e"/>
            </mask>
            <path d="M33.81 16.063a34.258 34.258 0 0 0-1.805-7.798l-1.921 1.937c-2.517-2.468-5.386-4.592-8.537-6.188-3.14-1.609-6.518-2.782-10.005-3.358L10.233.448C9.798.376 9.355.355 8.917.308 8.477.27 8.038.211 7.597.192L6.274.151l-.662-.02c-.22-.004-.441.008-.662.011-.441.014-.883.017-1.324.04C2.746.247 1.864.3.99.43L.892.442a.891.891 0 1 0 .226 1.77l.102-.013c.83-.124 1.667-.172 2.502-.237.419-.02.838-.023 1.257-.036.21-.004.42-.016.629-.012l.628.02 1.257.04c.419.018.835.074 1.252.108.416.047.836.064 1.25.134l1.24.197c3.31.546 6.51 1.66 9.49 3.185 2.99 1.514 5.713 3.53 8.1 5.873l-1.921 1.937a30.82 30.82 0 0 1 6.905 2.655" fill="#2F484D" mask="url(#7q8p3aqxbf)"/>
        </g>
        <path d="M22.786 23.221h24.3v-3.567A2.086 2.086 0 0 0 45 17.574H24.874c-1.151 0-2.088.933-2.088 2.08v3.567zm26.09 1.784H20.996v-5.35a3.875 3.875 0 0 1 3.877-3.865h20.125a3.875 3.875 0 0 1 3.876 3.864v5.351z" fill="#2F484D"/>
        <mask id="af1y4k5nkh" fill="#fff">
            <use xlink:href="#0idgx2lbfg"/>
        </mask>
        <path fill="#2F484D" mask="url(#af1y4k5nkh)" d="M21.892 21.29H47.98v-1.785H21.89zM23.286 26.492l.531 5.149c.047.454.431.8.89.8.53 0 .944-.457.89-.983l-.329-3.183h19.337l-1.682 16.302c-3.422.098-6.175 2.905-6.175 6.34 0 .541.068 1.072.203 1.587h-9.183l-.201-1.95a.893.893 0 0 0-.89-.8.893.893 0 0 0-.89.983l.367 3.55H39.71l-.669-1.299a4.486 4.486 0 0 1-.505-1.995c-.036-2.222 1.607-4.085 3.787-4.549.424-.09.796-.112 1.301-.055l.899.102 2.063-20H23.286z"/>
        <path d="M25.918 42.396a.893.893 0 0 0-.89.983l.391 3.79c.047.455.431.801.89.801.53 0 .944-.457.89-.983l-.391-3.79a.893.893 0 0 0-.89-.8M25.075 34.225a.893.893 0 0 0-.89.983l.475 4.604c.047.455.431.8.89.8.53 0 .944-.457.89-.983l-.475-4.604a.893.893 0 0 0-.89-.8" fill="#2F484D" mask="url(#af1y4k5nkh)"/>
    </g>
</svg>
