<svg width="65" height="71" viewBox="0 0 65 71" xmlns="http://www.w3.org/2000/svg" xmlns:xlink="http://www.w3.org/1999/xlink">
    <defs>
        <path id="x9y1s8wv6a" d="M.144.192h24.539V12.57H.144z"/>
        <path id="dwcnh4cmcc" d="M0 .156h14.929v23.74H0z"/>
        <path id="949hsgtzqe" d="M.161.119H24.7v12.377H.161z"/>
    </defs>
    <g fill="none" fill-rule="evenodd">
        <path d="M50.317 35.037c0 9.796-7.992 17.736-17.85 17.736s-17.85-7.94-17.85-17.736c0-9.795 7.992-17.736 17.85-17.736s17.85 7.94 17.85 17.736" fill="#BE8432"/>
        <path d="m50.832 53.884.184-.402.17-.42.349-.843c.214-.587.465-1.158.7-1.77a37.314 37.314 0 0 1 1.813-3.834c.152-.298.32-.596.496-.888.248-.44.517-.832.81-1.187.274-.362.588-.679.901-.972.305-.295.632-.559.97-.796.327-.24.655-.458.99-.651.681-.384 1.313-.692 1.895-.917a14.306 14.306 0 0 1 1.404-.468c.38.634 1.107 2.046 1.34 4.134.112 1.039.1 2.243-.166 3.535-.067.322-.143.653-.235.988a17.765 17.765 0 0 1-.551 1.515c-.078.168-.16.337-.245.506-.172.338-.35.682-.559 1.019-.213.333-.442.666-.679.99-.937 1.225-2.032 2.175-3.182 2.836-.287.166-.569.323-.856.459-.292.132-.581.25-.867.357a9.947 9.947 0 0 1-1.688.47c-2.206.422-4.065.09-5.19-.25.934-.91 1.61-2.077 2.196-3.411zm10.889-14.888c-.065.014-.495.12-1.12.35-.642.227-1.48.575-2.356 1.048-.451.233-.911.499-1.356.8-.456.299-.919.628-1.338 1.003-.887.74-1.67 1.633-2.34 2.797-.181.295-.35.597-.505.9-.76 1.396-1.331 2.686-1.837 3.912-.115.316-.254.602-.366.905l-.17.447-.178.428c-.118.283-.222.572-.338.843l-.345.794c-.672 1.492-1.442 2.774-2.549 3.513-.07.044-.142.087-.215.128l-.589.333c-.195.11-.401.204-.601.307.396.235.807.475 1.217.692.146.057 1.979 1.112 4.896 1.164 1.46.033 3.163-.233 4.938-.993a12.57 12.57 0 0 0 5.043-3.992c.274-.375.54-.763.788-1.15a14.085 14.085 0 0 0 1.984-5.547c.243-1.733.073-3.281-.194-4.518a14.83 14.83 0 0 0-.51-1.648c-.188-.476-.39-.878-.564-1.202-.344-.649-.634-1.004-.676-1.058l-.289-.356-.43.1z" fill="#2F484D"/>
        <path d="M61.486 35.063c.424-.117.843.167.921.639l.12.768c.04.294.061.626.091.995l.04.58c.01.201.007.41.009.63-.004.436.011.91-.035 1.408a21.307 21.307 0 0 1-1.703 7.11l-.362.783c-.664 1.363-1.416 2.574-2.22 3.595-.783 1.036-1.616 1.881-2.379 2.591a18.263 18.263 0 0 1-3.695 2.605c-.428.212-.909.036-1.066-.372l-.001-.003c-.148-.378.032-.799.39-1.002.35-.192.85-.454 1.418-.854.288-.197.611-.41.93-.675.322-.263.688-.535 1.03-.869.349-.33.732-.675 1.088-1.08l.557-.62c.183-.217.36-.448.543-.683.377-.465.711-.989 1.067-1.53.174-.273.328-.564.494-.855.165-.292.328-.592.47-.908l.334-.722a19.686 19.686 0 0 0 1.57-6.554c.11-1.855-.053-3.256-.193-4.043a.82.82 0 0 1 .58-.933h.002z" fill="#2F484D"/>
        <g transform="translate(19.266 57.312)">
            <mask id="y8if99huub" fill="#fff">
                <use xlink:href="#x9y1s8wv6a"/>
            </mask>
            <path d="M5.954 2.958c1.175-.111 2.397-.343 3.69-.513.325-.05.654-.092.99-.123.336-.048.68-.089 1.031-.115.176-.01.354-.025.535-.045.18-.017.363-.03.55-.04.37-.01.752-.04 1.148-.05.168-.005.339-.006.51-.004l.514-.011c.254-.003.501.009.742.032.24.018.472.035.7.07.227.034.45.08.666.134.215.043.426.096.632.158.412.125.807.283 1.178.437.373.16.73.348 1.066.542a12.45 12.45 0 0 1 1.745 1.173c.482.373.86.722 1.105.965-.184.32-.484.83-.964 1.386-.238.282-.517.593-.843.906-.33.302-.704.616-1.128.932-.424.312-.903.595-1.429.883-.527.28-1.108.513-1.735.741-.313.105-.64.191-.978.276-.338.079-.686.17-1.046.214-.719.1-1.48.177-2.273.143-.396-.015-.8-.02-1.2-.08a15.65 15.65 0 0 1-1.121-.19c-.364-.07-.715-.187-1.055-.295-.34-.115-.67-.226-.985-.372a14.426 14.426 0 0 1-.906-.455 10.672 10.672 0 0 1-2.833-2.29c-.372-.404-.68-.857-.954-1.27-.136-.21-.263-.414-.376-.62a12.296 12.296 0 0 1-.77-1.739 11.714 11.714 0 0 1-.273-.965c.621.192 1.288.249 1.959.29.685 0 1.377-.013 2.108-.106zM24.38 4.883c-.045-.05-.354-.37-.87-.799a17.303 17.303 0 0 0-.914-.709 16.336 16.336 0 0 0-1.173-.795 20.048 20.048 0 0 0-1.374-.769c-.245-.122-.493-.23-.75-.34a9.69 9.69 0 0 0-.793-.313c-.537-.171-1.11-.36-1.704-.445-.6-.126-1.227-.16-1.907-.173-.174 0-.348.007-.521.013a12.512 12.512 0 0 0-.519.002 35.85 35.85 0 0 0-4.337.393c-1.316.181-2.537.384-3.67.512-1.632.168-3.132.142-4.327-.444a4.746 4.746 0 0 1-.22-.12L.717.56.15.192c-.009.46-.008.925.002 1.395.003.087.02.635.195 1.5.044.217.098.454.165.707.067.252.153.511.252.79.2.552.456 1.181.816 1.799.177.314.376.636.598.963.224.323.477.636.752.959.275.322.576.645.91.943.333.3.69.61 1.079.893 1.55 1.136 3.594 2.037 6.01 2.326.463.069.933.085 1.393.098 2.211.05 4.193-.376 5.815-1.054 1.625-.681 2.901-1.556 3.84-2.433a11.502 11.502 0 0 0 1.955-2.332c.385-.642.555-1.056.582-1.119l.169-.42-.303-.323z" fill="#2F484D" mask="url(#y8if99huub)"/>
        </g>
        <path d="M46.952 60.019c.313.304.278.812-.088 1.125a19.594 19.594 0 0 1-3.711 2.38c-1.799.904-4.213 1.742-7.053 2.075-.283.038-.57.07-.861.083-.38.024-.755.045-1.122.06-.368.005-.73-.004-1.084-.01l-.526-.015c-.173-.01-.345-.027-.515-.042L31 65.578a26.436 26.436 0 0 1-1.835-.322c-.574-.145-1.116-.266-1.614-.433-.498-.17-.963-.314-1.382-.491-.42-.176-.803-.344-1.148-.501-.68-.352-1.216-.634-1.59-.883-.4-.259-.487-.76-.21-1.1l.002-.002c.257-.318.714-.377 1.067-.161a16.947 16.947 0 0 0 3.78 1.707c1.835.575 4.275.98 7.058.778.27-.012.535-.042.796-.077 2.604-.306 4.835-1.079 6.503-1.907a18.724 18.724 0 0 0 3.427-2.19c.332-.263.801-.267 1.097.021l.002.002z" fill="#2F484D"/>
        <g transform="translate(0 34.881)">
            <mask id="wq20hq5k6d" fill="#fff">
                <use xlink:href="#dwcnh4cmcc"/>
            </mask>
            <path d="M6.849 6.541c.709.95 1.477 1.899 2.294 2.919a36.869 36.869 0 0 1 2.441 3.468c.183.28.358.575.523.874.273.424.46.868.638 1.287a6.62 6.62 0 0 1 .314.953c.03.104.059.206.084.31.106.41.163.833.21 1.235.05.4.07.796.07 1.183a13.74 13.74 0 0 1-.441 3.525c-.188.003-.428.002-.715-.014-.281-.022-.607-.061-.974-.122-.743-.115-1.615-.36-2.587-.773-.473-.219-.981-.47-1.485-.785-.249-.16-.5-.332-.755-.517a8.152 8.152 0 0 1-.755-.605 17.49 17.49 0 0 1-.74-.696c-.247-.246-.472-.52-.704-.798-.473-.555-.879-1.198-1.276-1.882a16.582 16.582 0 0 1-.522-1.08 8.272 8.272 0 0 1-.395-1.062 11.58 11.58 0 0 1-.28-1.053 14.587 14.587 0 0 1-.205-1.543c-.007-.169-.01-.336-.01-.502-.005-.66.036-1.29.15-1.892.052-.3.113-.591.181-.872.07-.28.164-.555.254-.818.352-1.049.87-1.943 1.358-2.66a12.042 12.042 0 0 1 1.454-1.675c.34 1.257 1.01 2.422 1.873 3.595zM14.39 23.35c.05-.127.465-1.693.527-3.692.035-1.003-.01-2.107-.225-3.225-.205-1.132-.603-2.25-1.278-3.415-.174-.3-.344-.602-.532-.885a39.21 39.21 0 0 0-2.495-3.528C9.578 7.562 8.763 6.618 8.112 5.7l-.359-.493-.314-.495c-.202-.33-.405-.654-.549-.985-.15-.33-.289-.657-.387-.986a5.614 5.614 0 0 1-.185-1.239L6.356.156c-.399.224-.798.457-1.197.701-.132.098-1.972 1.145-3.477 3.626a8.95 8.95 0 0 0-.535.995c-.166.353-.325.73-.474 1.128-.136.396-.254.813-.36 1.252C.2 8.3.126 8.755.076 9.231c-.218 1.9.004 4.116.966 6.343.19.425.391.85.608 1.255A14.068 14.068 0 0 0 5.498 21.3c.686.541 1.414.949 2.078 1.303.696.328 1.337.598 1.956.78 2.461.747 4.145.461 4.276.453l.453-.065.13-.422z" fill="#2F484D" mask="url(#wq20hq5k6d)"/>
        </g>
        <path d="M17.937 59.993c-.108.42-.57.646-1.027.487-.817-.324-2.243-.896-3.927-2.007-1.68-1.104-3.614-2.757-5.34-5.022l-.498-.704-.32-.465c-.102-.156-.195-.316-.291-.472-.188-.315-.376-.622-.545-.932-.322-.629-.637-1.229-.875-1.834-.122-.3-.248-.591-.352-.882l-.286-.858c-.192-.553-.305-1.101-.432-1.605-.45-2.039-.451-3.6-.42-4.483.008-.47.425-.8.85-.73l.004.001a.827.827 0 0 1 .681.837 26.9 26.9 0 0 0-.017.716c.01.273.026.585.05.932.012.173.021.356.042.546l.082.59c.058.412.128.857.243 1.321l.172.723c.064.247.147.495.226.753.084.256.163.523.263.788l.324.81.174.417.201.415c.137.279.278.563.427.85.328.556.652 1.147 1.06 1.707l.46.651a20.31 20.31 0 0 0 4.925 4.63 18.407 18.407 0 0 0 3.62 1.86c.39.161.63.56.526.958v.002zM14.101 16.19l-.183.403-.17.42c-.114.275-.23.557-.35.843-.213.586-.464 1.158-.7 1.77a37.27 37.27 0 0 1-1.813 3.834c-.152.297-.318.596-.496.887-.247.44-.517.833-.81 1.187a7.697 7.697 0 0 1-.9.972c-.305.296-.632.56-.97.797-.327.24-.655.458-.991.65-.68.384-1.312.692-1.894.918-.578.227-1.077.377-1.404.467-.38-.633-1.107-2.046-1.341-4.134-.111-1.038-.099-2.242.167-3.534.067-.323.143-.653.235-.988a17.765 17.765 0 0 1 .551-1.516c.078-.168.16-.336.245-.505.172-.338.35-.683.559-1.02.213-.332.442-.665.679-.989.937-1.225 2.032-2.175 3.182-2.836.287-.167.569-.323.856-.46.292-.13.581-.25.867-.356a9.947 9.947 0 0 1 1.688-.47 10.983 10.983 0 0 1 5.19.25c-.934.91-1.61 2.077-2.197 3.41zM3.213 31.08c.064-.014.495-.12 1.12-.351.642-.227 1.479-.574 2.356-1.047.451-.234.91-.5 1.356-.8.456-.3.918-.628 1.338-1.004.887-.74 1.67-1.632 2.339-2.796.182-.295.352-.597.505-.9.761-1.396 1.332-2.686 1.838-3.912.114-.316.254-.603.366-.905l.17-.447.178-.428c.118-.283.222-.572.337-.843.12-.273.234-.538.346-.795.671-1.491 1.442-2.774 2.549-3.512.07-.045.141-.087.215-.129l.588-.332c.196-.111.402-.205.602-.308a29.04 29.04 0 0 0-1.217-.691c-.146-.058-1.979-1.112-4.896-1.164-1.46-.034-3.163.232-4.938.993a12.57 12.57 0 0 0-5.043 3.991c-.275.376-.54.764-.788 1.15A14.085 14.085 0 0 0 .55 22.398c-.242 1.732-.072 3.281.194 4.518.156.625.332 1.175.51 1.648.189.476.391.877.565 1.202.344.648.634 1.003.676 1.057l.289.357.43-.1z" fill="#2F484D"/>
        <path d="M3.448 35.011c-.424.118-.843-.167-.922-.638l-.12-.768c-.039-.295-.06-.627-.09-.995l-.04-.58c-.01-.202-.007-.411-.01-.63.005-.436-.01-.91.036-1.409.12-1.996.575-4.497 1.703-7.11l.362-.782c.664-1.364 1.415-2.575 2.22-3.596.783-1.035 1.616-1.88 2.379-2.59a18.263 18.263 0 0 1 3.695-2.605c.427-.212.909-.036 1.066.372l.001.002c.148.379-.032.8-.39 1.002-.35.193-.85.455-1.419.855-.287.196-.61.41-.93.675-.32.263-.687.534-1.03.868-.348.33-.732.675-1.087 1.08l-.558.62c-.182.218-.359.449-.543.684-.376.464-.71.988-1.066 1.53-.175.272-.329.563-.494.855-.166.291-.328.591-.47.907l-.334.723a19.686 19.686 0 0 0-1.571 6.553c-.109 1.856.053 3.257.194 4.044a.82.82 0 0 1-.58.933h-.002z" fill="#2F484D"/>
        <g transform="translate(20.823 .075)">
            <mask id="h8bybkz4nf" fill="#fff">
                <use xlink:href="#949hsgtzqe"/>
            </mask>
            <path d="M18.89 9.73c-1.175.11-2.397.343-3.69.513-.325.05-.654.092-.99.123-.336.048-.68.089-1.031.115-.176.01-.354.024-.535.045-.18.016-.363.03-.55.04-.37.01-.752.039-1.148.05-.168.004-.339.005-.51.003l-.514.012a6.847 6.847 0 0 1-.742-.033 8.448 8.448 0 0 1-.7-.07 7.265 7.265 0 0 1-.666-.133 6.926 6.926 0 0 1-.632-.158A12.893 12.893 0 0 1 6.004 9.8c-.373-.161-.73-.348-1.066-.542a12.436 12.436 0 0 1-1.745-1.174 11.936 11.936 0 0 1-1.105-.964c.184-.32.484-.83.964-1.387.238-.281.517-.592.843-.905.329-.302.704-.616 1.128-.933a12.87 12.87 0 0 1 1.429-.882c.527-.281 1.108-.513 1.735-.741.313-.105.64-.191.978-.276.338-.08.686-.17 1.046-.214.719-.1 1.48-.178 2.273-.144.396.016.8.02 1.2.082.383.05.758.114 1.121.189.364.069.715.187 1.055.295.34.115.67.226.985.372.314.144.617.296.906.455a10.672 10.672 0 0 1 2.833 2.29c.372.404.68.857.954 1.27.136.21.263.414.377.62a12.296 12.296 0 0 1 .769 1.739c.117.355.206.681.273.965-.621-.192-1.288-.249-1.959-.29a16.437 16.437 0 0 0-2.108.105zM.465 7.804c.044.05.353.37.868.799.258.215.564.454.915.709.353.261.747.533 1.173.795.423.254.887.526 1.374.769.244.122.493.23.75.34.259.115.523.22.793.313.537.171 1.11.36 1.704.444.6.127 1.227.16 1.907.174.174-.001.348-.007.521-.013.174.003.347.002.519-.002 1.606-.043 3.016-.2 4.337-.393 1.316-.182 2.537-.384 3.67-.513 1.632-.167 3.132-.142 4.327.445.074.037.147.077.22.119l.584.339.567.367c.009-.46.008-.925-.002-1.396-.003-.086-.021-.634-.195-1.5a12.645 12.645 0 0 0-.165-.707 10.81 10.81 0 0 0-.252-.79c-.2-.551-.456-1.18-.816-1.798a14.187 14.187 0 0 0-.598-.964 12.241 12.241 0 0 0-.752-.958 9.568 9.568 0 0 0-.91-.943c-.333-.301-.69-.61-1.079-.893C18.375 1.41 16.331.51 13.915.22a11.933 11.933 0 0 0-1.394-.098C10.311.074 8.33.5 6.707 1.177c-1.625.681-2.901 1.556-3.84 2.433A11.511 11.511 0 0 0 .913 5.942C.527 6.583.357 6.998.33 7.06l-.169.421.304.323z" fill="#2F484D" mask="url(#h8bybkz4nf)"/>
        </g>
        <path d="M17.982 10.056c-.313-.304-.278-.812.088-1.125a19.594 19.594 0 0 1 3.711-2.38c1.799-.904 4.213-1.742 7.052-2.075.283-.039.57-.07.862-.083.38-.025.754-.045 1.122-.061.368-.004.73.004 1.084.011l.526.015c.173.01.345.027.514.041l.994.098c.646.093 1.259.196 1.835.322.573.145 1.116.265 1.614.433.497.169.962.314 1.382.49.42.177.803.345 1.147.502.68.352 1.216.633 1.59.882.4.26.488.76.21 1.1v.002c-.258.318-.715.377-1.068.162a16.952 16.952 0 0 0-3.78-1.708c-1.836-.575-4.276-.98-7.058-.777a8.94 8.94 0 0 0-.796.077c-2.604.306-4.835 1.078-6.503 1.906a18.711 18.711 0 0 0-3.427 2.191c-.332.263-.801.266-1.097-.022l-.002-.001zM58.085 28.652c-.71-.949-1.477-1.898-2.294-2.918a36.844 36.844 0 0 1-2.441-3.469c-.183-.28-.358-.574-.523-.873-.273-.425-.46-.869-.638-1.288a6.62 6.62 0 0 1-.314-.953 7.54 7.54 0 0 1-.085-.31 9.28 9.28 0 0 1-.21-1.234c-.05-.4-.07-.797-.069-1.183a13.74 13.74 0 0 1 .441-3.526c.187-.003.427-.001.715.015.281.021.607.06.974.122.742.114 1.615.36 2.587.772.472.219.981.47 1.485.785.248.16.5.333.755.518.257.183.512.382.755.604.247.219.494.451.74.697.246.246.471.519.704.798.473.554.878 1.197 1.276 1.881.187.349.359.715.522 1.08.161.35.286.708.394 1.063.108.354.21.703.28 1.052a14.587 14.587 0 0 1 .206 1.543c.007.17.01.337.01.502.004.66-.036 1.29-.15 1.893-.053.3-.113.59-.182.87-.07.282-.163.557-.253.82-.352 1.048-.87 1.942-1.359 2.66a12.042 12.042 0 0 1-1.453 1.675c-.34-1.258-1.01-2.423-1.873-3.596zm-7.542-16.807c-.05.126-.465 1.692-.527 3.692-.036 1.002.009 2.107.225 3.224.205 1.132.603 2.25 1.278 3.415.173.3.344.602.532.886a39.21 39.21 0 0 0 2.495 3.528c.81 1.041 1.625 1.985 2.276 2.902l.359.494.314.495c.202.329.405.654.548.984.151.33.29.657.388.986a5.614 5.614 0 0 1 .185 1.24l-.038 1.346c.399-.223.798-.457 1.197-.701.132-.097 1.971-1.145 3.477-3.626a8.95 8.95 0 0 0 .535-.995c.166-.353.325-.729.474-1.127.136-.396.254-.813.36-1.253a9.66 9.66 0 0 0 .236-1.373c.218-1.9-.005-4.116-.967-6.343-.19-.425-.39-.85-.607-1.255a14.068 14.068 0 0 0-3.848-4.47c-.685-.542-1.413-.95-2.078-1.304-.695-.327-1.336-.598-1.955-.78-2.462-.747-4.145-.461-4.276-.453l-.453.066-.13.422z" fill="#2F484D"/>
        <path d="M46.997 10.082c.108-.42.57-.647 1.026-.487.817.324 2.244.895 3.928 2.007 1.68 1.103 3.614 2.757 5.34 5.022l.497.704.32.464c.103.156.196.316.292.473.188.315.376.621.545.931.321.63.637 1.23.874 1.835.123.3.248.59.353.882l.286.858c.192.553.305 1.101.432 1.604.45 2.04.45 3.6.42 4.484a.742.742 0 0 1-.851.729h-.003a.827.827 0 0 1-.681-.837c.007-.2.014-.439.017-.716-.01-.274-.026-.585-.05-.932-.012-.173-.022-.357-.043-.547l-.081-.59a12.826 12.826 0 0 0-.243-1.32l-.172-.723c-.064-.247-.147-.495-.227-.753-.083-.256-.163-.523-.262-.789l-.324-.81-.174-.416a43.347 43.347 0 0 0-.628-1.265c-.328-.557-.652-1.147-1.06-1.707l-.46-.652a20.31 20.31 0 0 0-4.926-4.63 18.418 18.418 0 0 0-3.619-1.86c-.39-.16-.63-.559-.526-.957v-.002z" fill="#2F484D"/>
        <path d="M25.358 25.316s-.573 1.991 2.266 4.812 4.843 2.252 4.843 2.252.572-1.991-2.267-4.812c-2.838-2.82-4.842-2.252-4.842-2.252M25.358 33.928s-.573 1.99 2.266 4.812c2.839 2.82 4.843 2.252 4.843 2.252S33.039 39 30.2 36.18c-2.838-2.821-4.842-2.252-4.842-2.252" fill="#9EBABA"/>
        <path d="M39.576 25.316s.573 1.991-2.266 4.812c-2.84 2.821-4.843 2.252-4.843 2.252s-.573-1.991 2.266-4.812c2.84-2.82 4.843-2.252 4.843-2.252M39.576 33.928s.573 1.99-2.266 4.812c-2.84 2.82-4.843 2.252-4.843 2.252S31.894 39 34.733 36.18c2.84-2.821 4.843-2.252 4.843-2.252" fill="#9EBABA"/>
        <path d="M32.467 45.72a.838.838 0 0 1-.84-.835v-17.15c0-.461.376-.835.84-.835.464 0 .84.374.84.835v17.15a.838.838 0 0 1-.84.835" fill="#2F484D"/>
        <path d="M26.18 26.053c.099.68.512 1.89 2.038 3.408 1.525 1.515 2.743 1.926 3.428 2.024-.1-.674-.512-1.885-2.04-3.403-1.531-1.522-2.748-1.932-3.425-2.03m5.804 7.136c-.953 0-2.757-.362-4.955-2.546-3.1-3.08-2.553-5.38-2.48-5.632l.128-.446.449-.128c.254-.072 2.57-.614 5.668 2.465 3.099 3.08 2.553 5.38 2.48 5.632l-.128.446-.45.127a2.694 2.694 0 0 1-.712.082M26.18 34.664c.099.68.512 1.891 2.038 3.408 1.525 1.515 2.743 1.926 3.428 2.025-.1-.675-.512-1.886-2.04-3.404-1.531-1.521-2.748-1.931-3.425-2.029m5.805 7.135c-.954 0-2.758-.361-4.956-2.545-3.1-3.08-2.553-5.38-2.48-5.633l.128-.446.449-.127c.254-.072 2.57-.615 5.668 2.464 3.099 3.08 2.553 5.38 2.48 5.632l-.128.446-.45.128a2.697 2.697 0 0 1-.711.081" fill="#2F484D"/>
        <path d="M38.752 26.058c-.685.099-1.901.51-3.424 2.024-1.525 1.515-1.939 2.725-2.038 3.405.68-.098 1.898-.508 3.426-2.026 1.523-1.514 1.937-2.722 2.036-3.403m-5.804 7.13c-.39 0-.638-.06-.712-.082l-.449-.127-.128-.446c-.073-.252-.62-2.553 2.48-5.632 3.099-3.08 5.414-2.536 5.668-2.465l.45.128.128.446c.072.252.618 2.552-2.48 5.632-2.2 2.184-4.003 2.546-4.957 2.546M38.752 34.67c-.685.098-1.901.51-3.424 2.023-1.525 1.516-1.939 2.725-2.038 3.406.68-.1 1.898-.509 3.426-2.027 1.523-1.513 1.937-2.721 2.036-3.403m-5.804 7.13a2.7 2.7 0 0 1-.712-.081l-.449-.128-.128-.446c-.073-.252-.62-2.552 2.48-5.632 3.099-3.079 5.414-2.536 5.668-2.464l.45.127.128.446c.072.253.618 2.553-2.48 5.632-2.2 2.185-4.003 2.546-4.957 2.546" fill="#2F484D"/>
    </g>
</svg>
