<svg width="68" height="70" viewBox="0 0 68 70" xmlns="http://www.w3.org/2000/svg" xmlns:xlink="http://www.w3.org/1999/xlink">
    <defs>
        <path id="q19n0pgdva" d="M0 .069h8.683v14.43H0z"/>
    </defs>
    <g fill="none" fill-rule="evenodd">
        <path d="M52.486 19.439c0 10.219-8.287 18.506-18.506 18.506a18.45 18.45 0 0 1-7.24-1.472h-.005c-6.618-2.82-11.26-9.386-11.26-17.034 0-3.552.998-6.868 2.737-9.684C21.466 4.464 27.309.933 33.98.933c5.22 0 9.938 2.164 13.302 5.646a18.427 18.427 0 0 1 5.204 12.86" fill="#9EBABA"/>
        <path d="M43.651 20.043c-1.165-.232-.583 3.885 1.314 5.2 1.901 1.314-1.366.074-1.949 4.599-.587 4.524-4.6 2.645-5.37.052-.793-2.69-.565-4.507-2.024-4.796-1.458-.293-4.235.727-3.797-2.19.438-2.921 2.19-5.55 4.673-4.967 2.484.587 4.818.293 5.112-.727.29-1.025-2.484-3.066-5.843-2.045-3.355 1.02 0-4.525 2.483-4.236 2.484.293 3.65-1.314 1.897-2.19-1.752-.876.731-2.917 2.777-2.164 2.041.758 4.358 0 4.358 0a18.427 18.427 0 0 1 5.151 11.44c-.36-.297-2.435-1.961-4.327-1.808-2.081.162-.364 2.68.95 3.228s-.219 1.498-1.774 2.374c-1.555.876-2.461-1.533-3.631-1.77zM31.78 6.116c-1.286-1.295-6.524.657-6.45 2.41.072 1.751 2.262 1.313 1.97 2.554-.292 1.241.657 4.891 3.358.95 2.701-3.943 1.122-5.914 1.122-5.914M27.594 30.792c-2.777 2.628-.854 5.681-.854 5.681h-.005c-6.618-2.82-11.26-9.386-11.26-17.034 0-3.552.998-6.868 2.737-9.684 0 0 2.08.74.91 2.93-1.164 2.19 3.216-.96 4.092 1.126.876 2.089-4.53 3.473-3.36 5.628 1.17 2.155-1.533 1.424-1.642 2.882-.11 1.463 4.853 1.314 7.117 3.504 2.265 2.19 5.037 2.339 2.265 4.967" fill="#BE8432"/>
        <path d="M.892 35.73S.884 49.674 8.575 57.365c9.756 9.756 18.127 4.173 18.127 4.173s5.583-8.37-4.173-18.127C14.837 35.721.892 35.73.892 35.73M67.068 35.73s.008 13.945-7.683 21.636c-9.756 9.756-18.127 4.173-18.127 4.173s-5.583-8.37 4.173-18.127c7.691-7.691 21.637-7.683 21.637-7.683" fill="#72978D"/>
        <path d="M48.038 15.215c-1.454.113-1.725 1.106-1.772 1.41-.205 1.275 1.031 2.737 2.102 3.359-.31.232-.818.55-1.522.945-.295.167-.488.095-1.288-.704-.502-.5-1.02-1.017-1.733-1.163-.63-.125-1.213.202-1.48.83-.53 1.248.128 4.325 1.837 5.767-.752.544-1.745 1.59-2.051 3.963-.09.701-.369 1.887-1.216 1.956-.916.074-2.081-.922-2.414-2.043a23.178 23.178 0 0 1-.488-2.075c-.315-1.554-.61-3.023-2.214-3.341a5.038 5.038 0 0 0-1.005-.08c-.152 0-.306.003-.455.006-.577.011-1.365.026-1.564-.2-.038-.047-.166-.252-.068-.91.264-1.771 1.031-3.275 1.998-3.932.496-.336 1.016-.434 1.587-.3 2.61.618 5.657.457 6.178-1.353.175-.63-.075-1.32-.71-1.941-1.163-1.139-3.613-2.001-6.253-1.198-.08.023-.148.041-.205.053.13-.383.497-1.026 1.106-1.63.627-.62 1.293-.974 1.739-.92 1.81.213 3.318-.444 3.663-1.597.205-.693-.018-1.653-1.264-2.277a.244.244 0 0 1-.05-.03c.074-.095.234-.24.493-.371.526-.262 1.133-.31 1.623-.128 1.683.624 3.487.36 4.382.16h.003c.033.036.069.074.098.113.205.226.405.458.595.696.053.065.107.13.157.199.11.14.217.282.324.425.099.134.197.27.289.407a15.454 15.454 0 0 1 .65 1.011 11.004 11.004 0 0 1 .402.71 15.304 15.304 0 0 1 .532 1.083c.054.116.104.232.152.348.047.107.092.214.134.32.015.036.03.072.041.108.039.092.075.184.107.276a8.509 8.509 0 0 1 .178.502c.027.072.051.143.072.212.048.136.09.276.13.416.06.193.114.39.164.585.048.179.093.36.134.541.01.036.015.069.024.101.033.158.065.313.095.47.006.024.012.048.015.075-.93-.506-2.096-.946-3.252-.854m5.285 2.631a19.375 19.375 0 0 0-5.401-11.992l-.232-.238c-.033-.035-.069-.068-.101-.104l-.054-.056h-.003l-.526.17c-.012.002-.71.222-1.629.281-.657.039-1.427-.005-2.143-.27-1.826-.672-3.88.28-4.427 1.546-.315.728-.146 1.71.942 2.25.176.09.265.167.313.214-.16.152-.72.41-1.71.295-1.682-.2-3.522 1.4-4.403 3.002-.793 1.442-.436 2.242-.154 2.59.315.389.957.77 2.232.383 1.332-.407 2.78-.285 3.874.324.482.268.708.526.797.663-.348.256-1.799.583-3.996.062a3.713 3.713 0 0 0-3 .562c-1.385.94-2.416 2.863-2.758 5.14-.155 1.032.006 1.799.493 2.355.744.847 1.96.823 2.935.805.398-.009.805-.015 1.076.039.386.077.523.485.814 1.944.134.651.283 1.392.53 2.233.55 1.852 2.363 3.32 4.042 3.32.075 0 .15-.003.223-.009.726-.056 2.456-.514 2.843-3.505.276-2.134 1.18-2.675 1.72-3.002.322-.19.804-.482.824-1.091.021-.666-.553-1.064-.972-1.353-.978-.68-1.465-2.342-1.528-3.26.122.112.247.237.354.344.701.699 1.873 1.87 3.421.996 1.636-.922 2.786-1.653 2.724-2.711-.018-.318-.179-.904-1.044-1.264-.588-.244-1.257-1.094-1.358-1.498.035-.006.08-.012.136-.018 1.062-.083 2.426.642 3.392 1.376.104.078.203.155.295.232l1.507 1.249a20.42 20.42 0 0 0-.047-2.004M30.413 6.482c-.528 0-1.295.124-2.192.478-1.411.557-1.995 1.235-2 1.423.014.36.157.47.714.75.498.252 1.533.774 1.233 2.046-.124.527.14 1.512.38 1.64-.004-.007.458-.061 1.375-1.4 2.029-2.96 1.357-4.505 1.181-4.814-.115-.073-.355-.123-.691-.123m-1.875 8.122c-.24 0-.477-.051-.71-.154-1.3-.573-1.603-2.568-1.417-3.576-.082-.048-.195-.105-.28-.148-.57-.288-1.632-.824-1.693-2.27-.066-1.593 1.947-2.646 2.815-3.025 1.676-.732 4.033-1.184 5.16-.049l.063.07c.081.102 1.958 2.54-1.082 6.976-.992 1.448-1.95 2.176-2.856 2.176M18.485 10.956a17.545 17.545 0 0 0-2.119 8.377c0 6.38 3.423 12.184 8.872 15.297-.163-1.396.166-3.099 1.742-4.591.898-.852.884-1.157.884-1.17-.016-.19-.735-.675-1.164-.965-.582-.393-1.307-.883-1.99-1.544-.983-.95-2.721-1.432-4.119-1.82-1.737-.482-3.378-.938-3.268-2.391.085-1.144 1.006-1.556 1.556-1.803.114-.051.274-.123.365-.178a1.775 1.775 0 0 0-.174-.41c-.955-1.76.684-3.07 1.881-4.027.716-.573 1.607-1.284 1.44-1.682-.152-.36-1.033-.18-1.924.034-.871.21-1.695.41-2.2-.242-.49-.632-.07-1.421.069-1.68.241-.453.31-.82.203-1.094a.739.739 0 0 0-.054-.111zm9.87 26.303h-1.797l-.172-.072a19.383 19.383 0 0 1-11.804-17.854c0-3.6.993-7.111 2.87-10.153l.38-.613.679.242c.126.045 1.25.473 1.692 1.614.164.424.272 1.065.003 1.888 1.159-.275 3.112-.662 3.83 1.048.688 1.64-.786 2.818-1.971 3.765-1.155.923-1.635 1.4-1.427 1.784.391.72.495 1.328.316 1.857-.241.714-.88 1-1.345 1.209-.12.053-.318.142-.43.215.36.207 1.23.449 1.89.632 1.591.442 3.573.992 4.88 2.257.571.552 1.197.975 1.75 1.348.954.645 1.856 1.254 1.942 2.297.085 1.029-.722 1.935-1.434 2.61-2.22 2.101-.775 4.46-.713 4.559l.861 1.367zM33.98 69.973 8.893 44.886a.892.892 0 0 1 1.261-1.262L33.98 67.45l23.826-23.826a.892.892 0 0 1 1.26 1.262L33.98 69.973z" fill="#2F484D"/>
        <path d="M8.085 48.304a.892.892 0 0 1 .83-.95l4.254-.283.12 1.78-4.255.283a.892.892 0 0 1-.95-.83M8.992 52.706a.892.892 0 0 1 .83-.95l7.53-.503.119 1.78-7.53.503a.892.892 0 0 1-.949-.83M12.893 57.093a.892.892 0 0 1 .83-.95l7.985-.533.12 1.78-7.986.533a.892.892 0 0 1-.95-.83" fill="#2F484D"/>
        <path d="m14.119 48.02-1.78-.12.284-4.254a.892.892 0 0 1 1.78.119l-.284 4.255zM18.301 52.202l-1.78-.119.504-7.529a.892.892 0 1 1 1.78.119l-.504 7.53zM22.658 56.559l-1.78-.12.534-7.984a.892.892 0 1 1 1.78.119l-.534 7.985zM58.926 49.134l-4.255-.284.12-1.78 4.254.285a.892.892 0 1 1-.119 1.78M58.018 53.536l-7.529-.503.12-1.78 7.528.503a.892.892 0 1 1-.119 1.78M54.118 57.923l-7.985-.534.119-1.78 7.985.534a.892.892 0 1 1-.119 1.78" fill="#2F484D"/>
        <path d="m53.841 48.02-.284-4.255a.892.892 0 0 1 1.78-.119l.284 4.255-1.78.119zM49.659 52.202l-.503-7.529a.892.892 0 0 1 1.78-.119l.502 7.53-1.78.118zM45.302 56.559l-.533-7.985a.892.892 0 1 1 1.78-.119l.533 7.985-1.78.119zM53.377 19.333c0 .172-.003.345-.006.517-.277 10.458-8.868 18.88-19.392 18.88a19.222 19.222 0 0 1-7.42-1.472l-.172-.07a19.383 19.383 0 0 1-11.805-17.855c0-3.6.993-7.111 2.871-10.153a19.485 19.485 0 0 1 4.022-4.687.891.891 0 0 1 1.149 1.364 17.801 17.801 0 0 0-3.651 4.26 17.507 17.507 0 0 0-2.608 9.216c0 7.033 4.16 13.362 10.607 16.166l.116.047a17.49 17.49 0 0 0 6.891 1.4c9.712 0 17.614-7.901 17.614-17.613 0-.321-.009-.645-.024-.964-.009-.13-.014-.261-.026-.389a17.136 17.136 0 0 0-.268-1.986c-.03-.157-.062-.312-.095-.47-.009-.032-.015-.065-.024-.1a15.91 15.91 0 0 0-.134-.542 13.21 13.21 0 0 0-.163-.585 11.113 11.113 0 0 0-.202-.628 8.856 8.856 0 0 0-.179-.502 14.884 14.884 0 0 0-.148-.383l-.134-.321a8.746 8.746 0 0 0-.152-.348c-.047-.104-.095-.211-.145-.315a15.668 15.668 0 0 0-.49-.96 21.97 21.97 0 0 0-.514-.874c-.14-.22-.284-.44-.435-.655-.095-.136-.19-.273-.289-.407a23.509 23.509 0 0 0-.481-.624c-.19-.238-.39-.47-.595-.696-.032-.039-.065-.077-.1-.113-.117-.128-.236-.252-.354-.377a17.54 17.54 0 0 0-1.264-1.186 17.398 17.398 0 0 0-9.985-4.128.892.892 0 0 1 .14-1.777 19.18 19.18 0 0 1 12.057 5.51c.033.035.068.067.1.103a18.009 18.009 0 0 1 1.353 1.501A18.746 18.746 0 0 1 50.5 9.168c.146.239.288.48.422.723a19.377 19.377 0 0 1 2.402 7.955c.036.488.054.987.054 1.487" fill="#2F484D"/>
        <path d="M32.787.887V.885A.893.893 0 0 0 31.8.056a19.265 19.265 0 0 0-7.247 2.308.893.893 0 0 0-.334 1.232l.002.002a.889.889 0 0 0 1.198.327A17.492 17.492 0 0 1 32 1.828a.887.887 0 0 0 .787-.941" fill="#2F484D"/>
        <g transform="translate(0 34.663)">
            <mask id="tgv3hx23wb" fill="#fff">
                <use xlink:href="#q19n0pgdva"/>
            </mask>
            <path d="M1.815 1.883c1.147.058 3.267.227 5.799.708a.897.897 0 0 0 .951-.447l.006-.01A.9.9 0 0 0 7.948.816C4.102.089 1.178.069.895.069H0L0 .96c0 .386.036 6.537 2.32 12.936a.902.902 0 0 0 1.107.564l.013-.003a.896.896 0 0 0 .587-1.159c-1.7-4.784-2.113-9.48-2.212-11.415" fill="#2F484D" mask="url(#tgv3hx23wb)"/>
        </g>
        <path d="M23.16 42.676c-3.27-3.27-7.569-5.193-11.518-6.325a.893.893 0 0 0-1.025.43l-.006.011a.896.896 0 0 0 .54 1.297c3.725 1.065 7.75 2.851 10.747 5.848 8.488 8.488 4.845 15.675 4.158 16.845-1.129.647-8.416 4.281-16.85-4.152-1.594-1.594-2.844-3.48-3.826-5.457a.899.899 0 0 0-1.607.806c1.063 2.124 2.425 4.165 4.171 5.912 4.895 4.895 9.49 6.023 12.687 6.023.246 0 .484-.006.713-.018 3.516-.188 5.759-1.659 5.852-1.721l.149-.1.099-.147c.062-.094 1.533-2.337 1.72-5.852.17-3.204-.733-8.128-6.005-13.4M58.754 56.63c-8.487 8.487-15.675 4.845-16.845 4.157-.647-1.129-4.28-8.417 4.153-16.85 6.219-6.219 16.897-7.228 20.083-7.39a43.558 43.558 0 0 1-.706 5.79.904.904 0 0 0 1.775.34c.73-3.86.746-6.792.746-7.054v-.89l-.891-.001h-.004c-.635 0-14.417.097-22.264 7.944-5.273 5.272-6.176 10.196-6.006 13.4.188 3.516 1.659 5.758 1.721 5.852l.1.148.147.099c.094.062 2.337 1.533 5.853 1.72.229.013.466.02.713.02 3.196 0 7.792-1.13 12.686-6.024 3.303-3.303 5.233-7.658 6.36-11.64a.904.904 0 0 0-1.737-.497c-1.06 3.76-2.852 7.844-5.884 10.876" fill="#2F484D"/>
    </g>
</svg>
