<svg width="70" height="68" viewBox="0 0 70 68" xmlns="http://www.w3.org/2000/svg" xmlns:xlink="http://www.w3.org/1999/xlink">
    <defs>
        <path id="dhwi7xl8la" d="M.024.162h11.79v20.776H.023z"/>
        <path id="0k8je17rcc" d="M0 .015h5.362v8.664H0z"/>
        <path id="sydbf19f0e" d="M.17.15H24.67v25.196H.17z"/>
    </defs>
    <g fill="none" fill-rule="evenodd">
        <path d="M49.966 8.246s-7.135-.004-11.07 3.94c-4.99 5-2.134 9.291-2.134 9.291s4.282 2.862 9.273-2.139c3.935-3.943 3.93-11.092 3.93-11.092M16.111 8.246s-.004 7.15 3.93 11.092c4.992 5.002 9.274 2.14 9.274 2.14s2.856-4.292-2.135-9.293c-3.935-3.943-11.069-3.939-11.069-3.939" fill="#72978D"/>
        <path d="M24.237 54.065c0 6.489-5.25 11.75-11.725 11.75-6.476 0-11.726-5.261-11.726-11.75 0-6.49 5.25-11.75 11.726-11.75 6.475 0 11.725 5.26 11.725 11.75M69.038 54.065c0 6.489-5.25 11.75-11.725 11.75-6.476 0-11.726-5.261-11.726-11.75 0-6.49 5.25-11.75 11.726-11.75 6.475 0 11.725 5.26 11.725 11.75M52.054 31.162h-6.882a1.314 1.314 0 0 1-1.313-1.315c0-.727.587-1.316 1.313-1.316h2.544l.677-.679c.204-.203.48-.318.768-.318h2.893c1 0 1.81.812 1.81 1.814s-.81 1.814-1.81 1.814" fill="#BE8432"/>
        <path d="M33.038 1.22s-5.047 5.053-5.047 10.629c0 7.072 5.047 8.083 5.047 8.083s5.048-1.01 5.048-8.083c0-5.576-5.048-10.628-5.048-10.628" fill="#9EBABA"/>
        <path d="M22.848 26.232h-5.115l4.107 7.586.444.818-.7 1.541-8.01 17.642a.846.846 0 0 1-1.123.42.85.85 0 0 1-.42-1.123l8.302-18.285.06-.13-.478-.883-5.027-9.284h7.96a.848.848 0 0 1 0 1.698M58.568 55.089h-19.09V53.39h16.458L47.594 35.02l1.542-.703zM45.11 29.555a.467.467 0 0 0 0 .934h6.884a.966.966 0 0 0 0-1.931H49.1a.237.237 0 0 0-.169.07l-.924.927H45.11zm6.884 2.631H45.11a2.165 2.165 0 0 1 0-4.329h2.194l.429-.43c.365-.365.85-.566 1.366-.566h2.894a2.663 2.663 0 0 1 0 5.325zM32.978 26.584l-12.834-12.86a.85.85 0 0 1 0-1.2.846.846 0 0 1 1.197 0l11.637 11.66 11.636-11.66a.846.846 0 0 1 1.198 0 .85.85 0 0 1 0 1.2l-12.834 12.86z" fill="#2F484D"/>
        <path d="M28.637 21.032c-.734.392-4.108 1.838-8.057-2.119-2.847-2.851-3.493-7.63-3.64-9.6 1.502.11 4.639.513 7.308 1.974.521.285 1.155-.067 1.223-.658l.002-.019a.84.84 0 0 0-.44-.828c-3.987-2.175-8.715-2.209-8.981-2.209h-.848v.848c0 .306.043 7.549 4.178 11.693 2.502 2.507 4.887 3.184 6.736 3.184 2.155 0 3.58-.922 3.606-.94l.141-.093.094-.141c.006-.01.115-.18.256-.48a9.5 9.5 0 0 1-1.39-1.014c-.07.173-.138.308-.188.402M50.751 7.574h-.847c-.267 0-4.995.033-8.981 2.208a.84.84 0 0 0-.439.849c.068.59.702.942 1.223.658 2.667-1.458 5.806-1.863 7.31-1.976-.145 1.97-.788 6.741-3.641 9.6-3.961 3.97-7.31 2.524-8.055 2.121a4.255 4.255 0 0 1-.188-.406 9.5 9.5 0 0 1-1.392 1.015c.14.302.25.472.256.48l.093.142.141.094c.026.017 1.451.94 3.607.94 1.848 0 4.234-.679 6.735-3.186 4.136-4.143 4.179-11.385 4.179-11.692v-.847z" fill="#2F484D"/>
        <g transform="translate(27.059 .035)">
            <mask id="c8540nb04b" fill="#fff">
                <use xlink:href="#dhwi7xl8la"/>
            </mask>
            <path d="M5.919 2.622C4.63 4.12 1.718 7.957 1.718 11.99c0 5.61 3.383 6.962 4.201 7.207.81-.242 4.2-1.592 4.2-7.207 0-4.032-2.913-7.869-4.2-9.367zm0 18.316-.166-.033c-.057-.012-5.729-1.236-5.729-8.916C.024 6.13 5.104.977 5.32.761l.599-.6.598.6c.217.216 5.296 5.368 5.296 11.228 0 7.68-5.671 8.904-5.728 8.916l-.166.033z" fill="#2F484D" mask="url(#c8540nb04b)"/>
        </g>
        <path d="M33.825 25.384H32.13V8.045c0-.469.379-.849.846-.849.468 0 .848.38.848.849v17.339zM24.985 53.244c-.482-6.24-5.573-11.23-11.81-11.581C6.575 41.29.988 46.05.027 52.319a.85.85 0 0 0 .997.967.844.844 0 0 0 .675-.7c.828-5.428 5.665-9.551 11.378-9.229 5.57.314 10.055 4.915 10.246 10.502a10.91 10.91 0 0 1-5.624 9.926.843.843 0 0 0-.43.804v.002a.846.846 0 0 0 1.249.68c4.144-2.298 6.864-6.872 6.467-12.027M12.45 65.14c-1.698 0-3.307-.393-4.74-1.093a.84.84 0 0 0-.99.19l-.002.002a.85.85 0 0 0 .256 1.339 12.47 12.47 0 0 0 5.477 1.26c.869 0 1.717-.09 2.536-.26a.848.848 0 0 0 .669-.898.842.842 0 0 0-1.003-.765 10.82 10.82 0 0 1-2.202.226" fill="#2F484D"/>
        <g transform="translate(0 55.05)">
            <mask id="1cek0y1pgd" fill="#fff">
                <use xlink:href="#0k8je17rcc"/>
            </mask>
            <path d="M.688.03a.845.845 0 0 0-.68.944 12.587 12.587 0 0 0 3.94 7.484.844.844 0 0 0 1.193-.056.853.853 0 0 0-.06-1.205A10.891 10.891 0 0 1 1.686.757.85.85 0 0 0 .688.03" fill="#2F484D" mask="url(#1cek0y1pgd)"/>
        </g>
        <path d="M38.025 34.667a.848.848 0 0 0-.847-.849h-4.376a.848.848 0 0 0 0 1.697h4.376c.468 0 .847-.38.847-.848" fill="#2F484D"/>
        <path d="m49.107 30.987-1.287 2.831h-7.254a.848.848 0 0 0 0 1.697h6.483l-7.814 17.213L23.28 35.515h6.134a.848.848 0 0 0 0-1.697h-9.499l.477.883-.06.13 1.251 1.346L39.11 55.09h.916l10.623-23.4-1.541-.702z" fill="#2F484D"/>
        <g transform="translate(44.51 41.492)">
            <mask id="2jore1pm0f" fill="#fff">
                <use xlink:href="#sydbf19f0e"/>
            </mask>
            <path d="M23.023 16.306c-1.54 4.454-5.882 7.607-10.904 7.325-5.42-.304-9.849-4.676-10.228-10.102C1.446 7.167 6.486 1.847 12.742 1.847c.235 0 .468.009.699.024a.843.843 0 0 0 .842-.536v-.002a.85.85 0 0 0-.738-1.157 12.637 12.637 0 0 0-.803-.026C5.644.15-.099 6.075.18 13.249c.25 6.427 5.406 11.701 11.814 12.075 5.815.34 10.846-3.307 12.628-8.461a.848.848 0 0 0-1.6-.557" fill="#2F484D" mask="url(#2jore1pm0f)"/>
        </g>
        <path d="M68.13 54.24c0 .128-.002.256-.007.382a.843.843 0 0 0 .9.866.844.844 0 0 0 .793-.805 12.537 12.537 0 0 0-.998-5.376.85.85 0 0 0-1.28-.367v.001a.85.85 0 0 0-.281 1.027c.561 1.312.874 2.756.874 4.272M66.75 47.418a.845.845 0 0 0 .167-1.222 12.621 12.621 0 0 0-5.268-3.756.845.845 0 0 0-1.079.49v.001a.853.853 0 0 0 .504 1.106 10.92 10.92 0 0 1 4.528 3.228.848.848 0 0 0 1.148.153" fill="#2F484D"/>
    </g>
</svg>
