<svg width="620" height="267" viewBox="0 0 620 267" xmlns="http://www.w3.org/2000/svg" xmlns:xlink="http://www.w3.org/1999/xlink">
    <defs>
        <path id="vnle9yk8ka" d="M0 .16h23.795v45.646H0z"/>
    </defs>
    <g fill="none" fill-rule="evenodd">
        <rect stroke="#8D4C2E" x=".5" y="61.5" width="619" height="205" rx="6"/>
        <rect fill="#F8F2EA" x="259" y="46" width="102" height="54" rx="6"/>
        <path d="M311.06 68.66c.544 0 1.082.023 1.576.12 2.428.474 2.868 2.628 3.378 5.122.2.986.43 2.103.797 3.33.571 1.89 2.616 3.556 4.18 3.437 1.553-.122 2.05-2.146 2.208-3.342.52-3.978 2.298-5.55 3.496-6.333-2.796-2.06-4.022-7.115-3.168-9.096.387-.9 1.191-1.348 2.101-1.17 1.076.214 1.887 1.011 2.672 1.781 1.334 1.312 1.76 1.518 2.395 1.165 1.411-.783 2.352-1.378 2.809-1.779-1.74-.82-3.939-3.277-3.616-5.266.09-.555.527-1.864 2.627-2.026 2.015-.159 4.067.703 5.604 1.597a28.163 28.163 0 0 0-7.218-14.477c-1.354.316-4.328.796-7.091-.214-1.19-.43-2.449-.054-3.164.4-.508.321-.668.614-.696.71a.95.95 0 0 0 .304.208c1.873.921 2.215 2.32 1.91 3.322-.521 1.716-2.841 2.685-5.646 2.36-.899-.105-2.236.65-3.396 1.921-1.089 1.193-1.518 2.251-1.584 2.709.146-.006.387-.038.755-.15 4.166-1.244 8.031.085 9.859 1.848.955.922 1.339 1.93 1.079 2.84-.76 2.598-5.445 2.958-9.682 1.973-1.003-.233-1.912-.063-2.779.516-1.623 1.083-2.906 3.55-3.346 6.438-.123.805-.06 1.394.175 1.658.402.45 1.693.425 2.73.407.241-.005.487-.01.73-.01M320.835 83c-2.606 0-5.427-2.26-6.288-5.109-.398-1.327-.637-2.498-.848-3.53-.511-2.5-.743-3.149-1.525-3.301-.466-.092-1.113-.08-1.8-.067-1.604.032-3.424.065-4.549-1.196-.733-.822-.974-1.98-.735-3.538.542-3.562 2.17-6.56 4.355-8.018 1.404-.936 3.011-1.233 4.646-.854 3.83.89 6.545.248 6.848-.3-.057-.182-.383-.648-1.138-1.13-1.434-.917-3.98-1.592-6.82-.743-1.922.576-2.874.033-3.333-.525-.717-.87-.619-2.231.276-3.836 1.384-2.478 4.262-4.952 6.87-4.653 2.05.237 3.08-.473 3.11-.722-.005-.046-.144-.296-.705-.572-1.413-.696-1.963-1.973-1.4-3.253.825-1.876 4.057-3.33 6.83-2.324 2.888 1.054 6.246-.004 6.28-.015l.701-.225.514.522c5.04 5.125 8.118 11.853 8.666 18.945l.211 2.732-2.142-1.749c-1.601-1.306-4.178-2.778-6.155-2.618-.276.021-.427.073-.488.105-.063.524 1.129 2.291 2.385 2.806 1.204.494 1.496 1.244 1.529 1.787.092 1.533-1.796 2.706-4.275 4.08-2.333 1.295-4.073-.413-5.224-1.544-.336-.331-.702-.69-1.02-.92-.089 1.324.71 4.68 2.587 5.96.628.427 1.489 1.013 1.459 1.935-.027.83-.708 1.232-1.206 1.527-.916.54-2.448 1.447-2.909 4.968-.603 4.576-3.251 5.274-4.362 5.361-.114.01-.23.014-.345.014M304.049 40.273c-1.01 0-2.441.294-3.917.943-1.982.872-2.88 1.892-2.864 2.306.03.71.348.934 1.25 1.393.77.391 2.204 1.12 1.784 2.918-.21.9.235 2.636.733 2.858.18.08 1.012-.168 2.447-2.28 3.337-4.908 2.078-7.436 1.818-7.859-.23-.182-.671-.279-1.251-.279zM301.118 53c-.34 0-.673-.073-1-.218-1.963-.874-2.36-4.027-2.024-5.473l.004-.013c-.125-.098-.406-.241-.602-.34-.9-.458-2.406-1.224-2.494-3.339-.097-2.339 2.921-3.923 4.223-4.496 2.732-1.202 6.185-1.708 7.74-.13l.08.09c.122.154 2.928 3.827-1.692 10.622-1.49 2.193-2.911 3.297-4.235 3.297z" fill="#8D4C2E"/>
        <g transform="translate(279 44)">
            <mask id="cots80t1lb" fill="#fff">
                <use xlink:href="#vnle9yk8ka"/>
            </mask>
            <path d="M5.997 3.223a28.475 28.475 0 0 0-3.641 13.965 28.604 28.604 0 0 0 14.919 25.13c-.4-2.267-.013-5.171 2.657-7.694 1.445-1.367 1.518-1.948 1.506-2.093-.036-.431-1.075-1.133-1.993-1.751-.931-.628-2.091-1.41-3.178-2.459-1.632-1.576-4.475-2.364-6.758-2.997-2.815-.78-5.246-1.453-5.086-3.58.126-1.687 1.524-2.312 2.359-2.686.256-.115.685-.307.771-.42-.008 0 .01-.246-.34-.89-1.438-2.645 1.11-4.677 2.97-6.161 1.608-1.283 2.722-2.25 2.402-3.013-.295-.7-1.425-.575-3.408-.099-1.381.333-2.574.62-3.283-.295-.688-.885-.091-2.005.134-2.426.427-.798.542-1.464.342-1.979a1.615 1.615 0 0 0-.373-.552zm13.366 42.583h-.24l-.228-.094C7.416 40.83 0 29.633 0 17.188 0 11.435 1.589 5.827 4.595.968l.5-.809.897.319c.193.068 1.904.719 2.575 2.45.392 1.009.336 2.122-.165 3.315l.223-.053c1.872-.45 5.005-1.204 6.132 1.474 1.034 2.46-1.26 4.29-3.104 5.76-2.022 1.613-2.798 2.414-2.37 3.203.596 1.094.757 2.005.493 2.784-.353 1.042-1.322 1.475-2.03 1.792-.728.326-.916.459-.962.639.388.395 2.163.887 3.355 1.217 2.541.704 5.703 1.58 7.767 3.572.938.906 1.958 1.594 2.859 2.2 1.552 1.047 2.893 1.951 3.021 3.506.1 1.207-.589 2.439-2.234 3.995-3.703 3.497-1.293 7.508-1.189 7.677l1.107 1.793-2.107.004z" fill="#8D4C2E" mask="url(#cots80t1lb)"/>
        </g>
        <path d="M311 31h-2V5.16c0-.641.448-1.16 1-1.16s1 .519 1 1.16V31z" fill="#8D4C2E"/>
        <path d="M300.436 2.435c.134 1.008.729 2.828 3.015 5.114 2.288 2.288 4.11 2.882 5.116 3.015-.133-.997-.725-2.82-3.018-5.113-2.286-2.286-4.106-2.882-5.113-3.016M309.02 13c-1.394 0-4.036-.533-7.262-3.758-4.543-4.544-3.744-7.93-3.638-8.3l.182-.64.64-.183c.37-.105 3.757-.904 8.3 3.639 4.543 4.544 3.744 7.93 3.638 8.3l-.182.64-.64.182c-.107.031-.469.12-1.038.12M300.436 14.436c.134 1.007.729 2.827 3.015 5.113 2.288 2.288 4.11 2.883 5.116 3.016-.133-.998-.725-2.822-3.018-5.114-2.286-2.286-4.106-2.881-5.113-3.015M309.02 25c-1.394 0-4.036-.533-7.262-3.759-4.543-4.543-3.744-7.928-3.638-8.3l.182-.639.64-.182c.37-.106 3.756-.905 8.3 3.638 4.543 4.544 3.744 7.93 3.638 8.3l-.182.64-.64.182c-.107.03-.469.12-1.038.12" fill="#8D4C2E"/>
        <path d="M318.564 2.435c-1.007.134-2.827.73-5.113 3.016-2.298 2.298-2.89 4.122-3.022 5.117.996-.132 2.823-.722 5.12-3.02 2.286-2.286 2.881-4.106 3.015-5.113M309.98 13c-.57 0-.93-.089-1.038-.12l-.64-.182-.182-.64c-.106-.371-.905-3.756 3.638-8.3 4.543-4.543 7.93-3.744 8.3-3.639l.64.183.182.64c.106.37.905 3.756-3.638 8.3-3.226 3.225-5.867 3.758-7.262 3.758M318.57 14.435c-1.006.132-2.828.725-5.12 3.016-2.297 2.298-2.889 4.122-3.02 5.117.995-.132 2.822-.722 5.12-3.019 2.295-2.296 2.888-4.118 3.02-5.114M309.98 25c-.57 0-.93-.089-1.038-.12l-.64-.183-.182-.639c-.106-.37-.905-3.756 3.638-8.3 4.544-4.543 7.93-3.744 8.3-3.639l.64.183.182.64c.106.37.905 3.756-3.638 8.3-3.226 3.225-5.867 3.758-7.261 3.758M341 61.227c0-.805-.03-1.61-.088-2.394a31.33 31.33 0 0 0-8.627-19.306C326.393 33.383 318.48 30 310.003 30c-5.954 0-11.613 1.677-16.45 4.73a1.194 1.194 0 0 0-.33 1.703l.001.002a1.165 1.165 0 0 0 1.57.311c4.472-2.825 9.704-4.377 15.209-4.377 7.833 0 15.146 3.127 20.591 8.805a28.95 28.95 0 0 1 7.973 17.837c.054.725.081 1.47.081 2.216 0 11.867-7.149 22.08-17.335 26.508a1.183 1.183 0 0 0-.52 1.73l.002.004c.315.484.93.661 1.459.431C333.268 85.106 341 74.063 341 61.227M309.645 89.815c-1.784 0-3.543-.155-5.27-.455-.54-.094-1.074.186-1.284.657l-.002.005c-.283.638.135 1.361.865 1.488 1.864.323 3.765.49 5.691.49 2.577 0 5.08-.295 7.475-.849.78-.18 1.127-1.03.687-1.653l-.007-.009c-.276-.391-.79-.568-1.279-.456a30.62 30.62 0 0 1-6.876.782M298.672 87.107l-.168-.07c-10.434-4.556-17.166-14.873-17.166-26.335a28.704 28.704 0 0 1 4.212-15.012 28.91 28.91 0 0 1 5.554-6.63 1.179 1.179 0 0 0 .175-1.57h-.001a1.166 1.166 0 0 0-1.72-.199 31.265 31.265 0 0 0-5.998 7.164A31.066 31.066 0 0 0 279 60.702c0 12.466 7.36 23.681 18.75 28.572l.226.094h.003c.482.202.968.39 1.457.564a1.167 1.167 0 0 0 1.475-.66l.001-.003a1.176 1.176 0 0 0-.69-1.552 28.577 28.577 0 0 1-1.55-.61" fill="#8D4C2E"/>
    </g>
</svg>
