<svg width="577" height="188" viewBox="0 0 577 188" xmlns="http://www.w3.org/2000/svg">
    <g fill="none" fill-rule="evenodd">
        <path d="M421.587 77.743a21.334 21.334 0 0 1 15.063 13.54 20.483 20.483 0 0 1 1.286 7.168c0 3.095-.684 6.028-1.909 8.66a21.43 21.43 0 0 1-1.711 3.09c9.504 1.825 16.684 10.17 16.684 20.193 0 11.357-9.222 20.563-20.595 20.563a20.563 20.563 0 0 1-15.68-7.23 20.568 20.568 0 0 1-15.68 7.23 20.538 20.538 0 0 1-14.044-5.526 20.544 20.544 0 0 1-14.048 5.526c-6.28 0-11.9-2.806-15.679-7.23a20.562 20.562 0 0 1-15.677 7.23c-11.377 0-20.597-9.206-20.597-20.563 0-11.207 8.98-20.32 20.147-20.56a21.143 21.143 0 0 1-3.324-11.414c0-11.243 8.738-20.447 19.804-21.215a20.442 20.442 0 0 1-3.194-11.004c0-8.697 5.407-16.132 13.048-19.139a21.236 21.236 0 0 1 6.878-1.775 21.14 21.14 0 0 1-3.105-11.06c0-11.747 9.539-21.27 21.304-21.27 11.767 0 21.304 9.523 21.304 21.27 0 4.261-1.256 8.228-3.416 11.555 2.49.59 4.81 1.615 6.875 2.99 5.804 3.637 9.66 10.083 9.66 17.429 0 2.765-.547 5.402-1.54 7.812a21.182 21.182 0 0 1-1.854 3.73" fill="#2F484D"/>
        <path fill="#664A2E" d="m388.624 48.957 3.884 67L414 87.16l-21.055 36.336 3.737 64.46h-16.114l4.7-81.072L364 70.182l21.708 29.087 2.916-50.312"/>
        <path d="M538.582.96c4.956.24 16.834 16.128 27.055 32.042 16.283 25.359 13.239 43.48 2.325 54.164 47.026 80.685-107.168 83.59-59.805 1.418-11.093-10.237-14.185-28.368 2.584-54.62C521.269 17.48 533.5.713 538.582.96" fill="#72978D"/>
        <path fill="#664A2E" d="m539.624 48.957 3.884 67L565 87.16l-21.055 36.336 3.735 64.46h-16.112l4.7-81.072L515 70.182l21.708 29.087 2.916-50.312"/>
        <path d="M245.3 150.971c-78.062-19.647-53.448-118.4 4.81-122.841 76.299-5.815 51.374 136.982-4.81 122.841" fill="#619C3D"/>
        <path fill="#664A2E" d="m248.084 48.957 3.942 67L271 90.911l-18.53 32.585 3.792 64.46h-16.355l4.42-75.132L226 90.904l18.775 14.306 3.309-56.253"/>
        <path d="M35.946 112.61a21.058 21.058 0 0 1-14.791 6.044C9.471 118.654 0 109.162 0 97.452c0-11.644 9.366-21.094 20.96-21.2 1.434-7.56 8.06-13.275 16.021-13.275.391 0 .78.015 1.164.042a21.167 21.167 0 0 1-1.97-8.945c0-11.71 9.47-21.203 21.154-21.203 5.25 0 10.051 1.918 13.75 5.09 2.843-4.792 8.06-8.004 14.027-8.004 7.811 0 14.34 5.505 15.935 12.855a21.023 21.023 0 0 1 10.55-2.819c11.685 0 21.154 9.49 21.154 21.203 0 2.33-.376 4.571-1.068 6.67 6.58.41 12.102 4.733 14.28 10.673C153.637 81.91 159 89.594 159 98.533c0 12.05-9.747 21.82-21.77 21.82a21.656 21.656 0 0 1-14.775-5.796 21.06 21.06 0 0 1-6.988 1.185c-3.867 0-7.492-1.04-10.61-2.856-2.052 10.305-11.127 18.07-22.012 18.07-10.815 0-19.844-7.666-21.971-17.873a16.252 16.252 0 0 1-12.266 5.571c-5.11 0-9.672-2.357-12.662-6.044" fill="#8CAD1F"/>
        <path fill="#664A2E" d="m78.625 48.957 3.883 67L104 87.16l-21.055 36.336 3.737 64.46H70.569l4.699-81.072L54 70.182 75.709 99.27l2.916-50.312"/>
    </g>
</svg>
