<svg width="550" height="350" viewBox="0 0 550 350" xmlns="http://www.w3.org/2000/svg" xmlns:xlink="http://www.w3.org/1999/xlink">
    <defs>
        <path id="xtxq435a7a" d="M0 .088h549.996V23.81H0z"/>
        <path id="ed15oo16kc" d="M0 349.266h549.996V.001H0z"/>
    </defs>
    <g fill="none" fill-rule="evenodd">
        <g transform="translate(0 325.455)">
            <mask id="1alkh8316b" fill="#fff">
                <use xlink:href="#xtxq435a7a"/>
            </mask>
            <path d="M549.996 11.95c0 6.55-123.12 11.86-274.998 11.86C123.12 23.81 0 18.5 0 11.95 0 5.397 123.12.087 274.998.087c151.877 0 274.998 5.31 274.998 11.861" fill="#E4E8FB" mask="url(#1alkh8316b)"/>
        </g>
        <path d="M502.057 80.607c-.996 8.701-7.978 15.786-15.962 19.393-7.98 3.607-16.911 4.36-25.642 5.062 13.655 9.4 20.683 27.47 14.16 42.712-2.919 6.814-8.107 12.782-14.821 15.924-6.717 3.14-14.966 3.213-21.398-.476 7.934 8.36 6.106 24.213-.72 33.503-6.826 9.286-18.22 14.248-29.575 16.217-8.208 1.426-16.785 1.476-24.722-1.046-7.937-2.522-15.183-7.817-19.002-15.216-.456 5.03-3.383 8.164-7.355 11.286-3.968 3.124-8.695 5.106-13.357 7.049-9.922 4.139-19.943 8.31-30.525 10.206-10.583 1.893-21.924 1.355-31.478-3.577-9.55-4.933-16.926-14.804-16.97-25.554-4.697 2.416-10.044 4.53-15.23 5.54-5.185 1.012-10.93.41-15.112-2.815-4.186-3.222-6.22-9.445-3.687-14.081-3.83 4.18-7.343 4.286-12.813 5.79-11.582 3.187-20.62 14.45-32.203 17.64-12.825 3.527-27.868 2.22-39.93-3.385l-1.146 2.493c-7.037 7.993-19.492 10.624-29.16 6.158-9.67-4.465-15.742-15.653-14.22-26.194-10.315-.368-20.877-2.152-29.66-7.573-8.784-5.418-15.486-15.045-15.186-25.363.297-10.315 9.092-20.327 19.407-19.969l.076-12.705c.08-13.145 12.685-28.12 24.69-33.47 12.006-5.35 26.527-4.668 37.98 1.784 9.774-23.925 30.707-43.012 55.432-50.543 24.725-7.528 52.745-3.348 74.196 11.068 6.152-11.653 17.235-20.204 29.446-25.149 12.214-4.944 25.542-6.546 38.717-6.776 13.584-.235 27.427.997 40.023 6.082 12.599 5.086 23.908 14.41 29.181 26.933 23.923-13.208 56.211-13.043 79.302 1.573 9.648 6.105 18.564 16.132 17.264 27.48M475.995 179.772a7.154 7.154 0 1 1-14.31 0 7.154 7.154 0 0 1 14.31 0" fill="#E6E6E6"/>
        <path d="M200.679 54.665a5.059 5.059 0 1 1-10.118 0 5.059 5.059 0 0 1 10.118 0M398.105 58.97a5.059 5.059 0 1 1-10.118 0 5.059 5.059 0 0 1 10.118 0M378.927 142.699a5.059 5.059 0 1 1-10.118 0 5.059 5.059 0 0 1 10.118 0" fill="#CCC"/>
        <path d="M257.943 27.45a4.464 4.464 0 1 1-8.928-.001 4.464 4.464 0 0 1 8.928 0M500.134 121.057a4.464 4.464 0 1 1-8.929 0 4.464 4.464 0 0 1 8.929 0" fill="#E6E6E6"/>
        <path d="M188.802 68.06a3.157 3.157 0 1 1-6.314 0 3.157 3.157 0 0 1 6.314 0M447.666 131.38a3.157 3.157 0 1 1-6.314 0 3.157 3.157 0 0 1 6.314 0M90.717 117.949a3.157 3.157 0 1 1-6.314 0 3.157 3.157 0 0 1 6.314 0M369.628 104.547a3.157 3.157 0 1 1-6.314 0 3.157 3.157 0 0 1 6.314 0M191.958 169.03a3.157 3.157 0 1 1-6.313 0 3.157 3.157 0 0 1 6.313 0M301.916 190.084a3.157 3.157 0 1 1-6.314 0 3.157 3.157 0 0 1 6.314 0" fill="#CCC"/>
        <path d="M423.251 27.45a7.997 7.997 0 1 1-15.994 0 7.997 7.997 0 0 1 15.994 0" fill="#E6E6E6"/>
        <mask id="c5091372qd" fill="#fff">
            <use xlink:href="#ed15oo16kc"/>
        </mask>
        <path fill="#BE8432" mask="url(#c5091372qd)" d="M415.254 337.452h115.067v-87.646H415.254z"/>
        <path d="M504.684 281.123a8.632 8.632 0 0 1-8.631-8.632 8.632 8.632 0 1 1 8.631 8.632z" fill="#FFF" mask="url(#c5091372qd)"/>
        <path d="M530.322 249.805v87.647H445.66l.103-.846c.038-.3.073-.6.109-.9.708-5.944 1.508-12.681 10.535-19.836 2.558-2.029 9.213-5.048 17.059-5.048 2.775 0 5.438.388 7.945 1.153 1.882-2.66 4.936-5.236 8.74-7.314 5.109-2.793 10.853-4.33 16.168-4.33 2.348 0 4.603.303 6.7.897.649.185 1.275.385 1.872.602 11.008-20.695 6.564-44.123-.841-52.025h16.27z" fill="#8D4C2E" mask="url(#c5091372qd)"/>
        <path fill="#000" mask="url(#c5091372qd)" d="M459.075 337.452h22.656v-48.05h-22.656z"/>
        <path d="M378.8 337.452h-60.693L330.7 161.017c0-4.198 8.307-7.602 18.555-7.602 10.25 0 18.558 3.404 18.558 7.602L378.8 337.452z" fill="#D9845F" mask="url(#c5091372qd)"/>
        <path d="M378.8 337.452h-60.694l1.966-27.55.435-6.094 3.27-45.81.428-5.994.882-12.379h.003c19.687 9.507 30.363-10.11 36.125-32.12a165.79 165.79 0 0 0 1.464-6.1c4.448-20.22 5.132-40.388 5.132-40.388l2.429 39.003.37 5.944 2.884 46.278.373 5.99 2.866 46.04.38 6.071 1.687 27.11z" fill="#8D4C2E" mask="url(#c5091372qd)"/>
        <path d="M366.47 161.978c0 3.894-7.707 7.052-17.214 7.052-9.508 0-17.216-3.158-17.216-7.052 0-3.895 7.708-7.052 17.216-7.052 9.507 0 17.215 3.157 17.215 7.052" fill="#000" mask="url(#c5091372qd)"/>
        <path d="M370.611 205.964c-6.508 1.435-13.798 2.2-21.356 2.2-7.714 0-15.148-.795-21.756-2.29l.423-5.936c6.382 1.532 13.693 2.346 21.333 2.346 7.502 0 14.689-.785 20.986-2.264l.37 5.944zM373.868 258.233c-7.287 1.95-15.768 2.996-24.613 2.996-9.198 0-18-1.132-25.478-3.23l.43-5.995c7.18 2.17 15.876 3.346 25.048 3.346 8.827 0 17.217-1.088 24.24-3.108l.373 5.991zM377.113 310.344c-7.957 2.563-17.667 3.95-27.858 3.95-10.765 0-20.989-1.549-29.182-4.391l.435-6.094c7.79 2.975 17.938 4.606 28.747 4.606 10.233 0 19.875-1.46 27.48-4.142l.378 6.07z" fill="#FFF" mask="url(#c5091372qd)"/>
        <path d="M201.586 337.452H39.872c11.78-23.105 20.192-46.446 26.024-65.967.336-1.126.665-2.24.985-3.34 7.678-26.456 10.474-45.102 10.474-45.102 0-8.32 19.42-15.063 43.374-15.063 23.955 0 43.374 6.744 43.374 15.063 0 0 8.677 57.907 37.483 114.41" fill="#A2A183" mask="url(#c5091372qd)"/>
        <path d="M161.344 223.82c0 7.79-18.183 14.104-40.614 14.104-22.43 0-40.613-6.314-40.613-14.104 0-7.79 18.183-14.104 40.613-14.104s40.614 6.315 40.614 14.104" fill="#000" mask="url(#c5091372qd)"/>
        <path d="M94.011 337.452h107.575c-28.806-56.502-37.483-114.41-37.483-114.41-2.126 8.537-5.307 28.513-12.177 49.457l-85.045-4.354c-.32 1.1-.65 2.214-.985 3.34 39.94 16.68 83.914 6.906 84.01 6.89-9.922 27.535-26.585 55.057-55.895 59.077" fill="#686230" mask="url(#c5091372qd)"/>
        <path d="M175.175 270.177c-15.045 4.695-34.208 7.261-54.444 7.261-20.236 0-39.4-2.566-54.445-7.26a453.86 453.86 0 0 0 2.417-8.482c14.227 4.474 32.556 6.923 52.028 6.923 19.475 0 37.803-2.451 52.028-6.923.75 2.728 1.552 5.56 2.416 8.481" fill="#FFF" mask="url(#c5091372qd)"/>
        <path d="M324.632 337.452H127.884c21.344-31.721 35.063-67.587 43.459-95.634v-.003a450.623 450.623 0 0 0 1.752-6c7.16-25.183 9.789-42.715 9.789-42.715 0-8.319 19.419-15.063 43.374-15.063 23.955 0 43.374 6.744 43.374 15.063 0 0 2.69 17.943 10.041 43.597 8.225 28.706 22.291 67.07 44.959 100.755" fill="#A2A183" mask="url(#c5091372qd)"/>
        <path d="M266.872 193.877c0 7.79-18.183 14.104-40.614 14.104-22.43 0-40.613-6.315-40.613-14.104 0-7.79 18.183-14.104 40.613-14.104s40.614 6.314 40.614 14.104" fill="#000" mask="url(#c5091372qd)"/>
        <path d="M171.343 241.815v.003c35.649 14.748 80.563 10.186 80.563 10.186s-5.585 80.68-25.648 85.448h98.374c-22.668-33.685-36.734-72.05-44.959-100.755l-7.099 1.985-62.602 3.774-36.877-6.64-1.752 6z" fill="#686230" mask="url(#c5091372qd)"/>
        <path d="M280.703 240.234c-15.045 4.694-34.208 7.26-54.444 7.26-20.236 0-39.4-2.566-54.445-7.26a453.87 453.87 0 0 0 2.417-8.481c14.227 4.474 32.556 6.923 52.028 6.923 19.475 0 37.803-2.452 52.028-6.923a453.87 453.87 0 0 0 2.416 8.48" fill="#FFF" mask="url(#c5091372qd)"/>
        <path d="M364.787 271.994v65.458H257.74v-65.458c0-14.31 23.963-25.912 53.524-25.912 29.56 0 53.523 11.602 53.523 25.912" fill="#BE8432" mask="url(#c5091372qd)"/>
        <path d="M279.882 279.719a5.505 5.505 0 1 1-11.011 0 5.505 5.505 0 0 1 11.01 0" fill="#725061" mask="url(#c5091372qd)"/>
        <path d="M280.508 279.181a5.505 5.505 0 1 1-11.01 0 5.505 5.505 0 0 1 11.01 0" fill="#FFF" mask="url(#c5091372qd)"/>
        <path d="M280.508 279.18c0 1.82-.88 3.431-2.237 4.43a5.506 5.506 0 0 0-7.155-8.328 5.506 5.506 0 0 1 9.392 3.898" fill="#CCC" mask="url(#c5091372qd)"/>
        <path d="M304.264 279.719a5.505 5.505 0 1 1-11.01 0 5.505 5.505 0 0 1 11.01 0" fill="#725061" mask="url(#c5091372qd)"/>
        <path d="M304.89 279.181a5.505 5.505 0 1 1-11.01 0 5.505 5.505 0 0 1 11.01 0" fill="#FFF" mask="url(#c5091372qd)"/>
        <path d="M304.89 279.18c0 1.82-.879 3.431-2.237 4.43a5.506 5.506 0 0 0-7.155-8.328 5.506 5.506 0 0 1 9.392 3.898" fill="#CCC" mask="url(#c5091372qd)"/>
        <path d="M364.787 271.993v65.46H257.74v-9.225c96.057 21.78 107.046-56.235 107.046-56.235" fill="#8D4C2E" mask="url(#c5091372qd)"/>
        <path d="M328.646 279.719a5.505 5.505 0 1 1-11.01 0 5.505 5.505 0 0 1 11.01 0" fill="#725061" mask="url(#c5091372qd)"/>
        <path d="M329.273 279.181a5.505 5.505 0 1 1-11.01 0 5.505 5.505 0 0 1 11.01 0" fill="#FFF" mask="url(#c5091372qd)"/>
        <path d="M329.272 279.18c0 1.82-.879 3.431-2.237 4.43a5.506 5.506 0 0 0-7.155-8.328 5.506 5.506 0 0 1 9.392 3.898" fill="#CCC" mask="url(#c5091372qd)"/>
        <path d="M353.029 279.719a5.505 5.505 0 1 1-11.011 0 5.505 5.505 0 0 1 11.01 0" fill="#725061" mask="url(#c5091372qd)"/>
        <path d="M353.655 279.181a5.505 5.505 0 1 1-11.01 0 5.505 5.505 0 0 1 11.01 0" fill="#FFF" mask="url(#c5091372qd)"/>
        <path d="M353.655 279.18c0 1.82-.88 3.431-2.237 4.43a5.506 5.506 0 0 0-7.155-8.328 5.506 5.506 0 0 1 9.392 3.898" fill="#CCC" mask="url(#c5091372qd)"/>
        <path d="M146.23 337.452c-1.044-8.497-1.491-17.29-13.713-26.98-4.336-3.436-20.42-9.986-35.176-3.725-4.174-9.987-25.488-21.315-42.33-16.545-12.193 3.453-17.738 12.222-19.079 20.42-6.558-.15-18.78 5.4-20.867 14.607-2.245 9.907 7.75 12.223 7.75 12.223H146.23z" fill="#E6E6E6" mask="url(#c5091372qd)"/>
        <path d="M52.378 314.348a1.714 1.714 0 1 1-3.428 0 1.714 1.714 0 0 1 3.428 0M44.325 316.062a2.265 2.265 0 1 1-4.53 0 2.265 2.265 0 0 1 4.53 0M128.834 314.942a1.714 1.714 0 1 1-3.084-1.498 1.714 1.714 0 0 1 3.084 1.498M121.59 311.423a2.264 2.264 0 1 1-4.074-1.978 2.264 2.264 0 0 1 4.074 1.978M48.95 306.083a3.445 3.445 0 1 1-6.89 0 3.445 3.445 0 0 1 6.89 0" fill="#CCC" mask="url(#c5091372qd)"/>
        <path d="M106.68 291.842a5.841 5.841 0 1 1-11.682 0 5.841 5.841 0 0 1 11.682 0M92.236 286.634a3.145 3.145 0 1 1-6.29 0 3.145 3.145 0 0 1 6.29 0" fill="#E6E6E6" mask="url(#c5091372qd)"/>
        <path d="M71.257 337.452c-11.179-3.727-6.26-21.017 10.433-15.055-6.558-12.222 25.786-18.631 27.426-3.726 14.16-2.236 15.352 10.284 11.924 12.669 8.496-1.341 20.27 2.832 13.265 6.112H71.257z" fill="#CCC" mask="url(#c5091372qd)"/>
        <path d="M82.197 325.99a1.714 1.714 0 1 1-3.429 0 1.714 1.714 0 0 1 3.429 0M90.805 327.704a1.714 1.714 0 1 1-3.428 0 1.714 1.714 0 0 1 3.428 0M89.642 319.86a2.265 2.265 0 1 1-4.53 0 2.265 2.265 0 0 1 4.53 0" fill="#B3B3B3" mask="url(#c5091372qd)"/>
        <path d="M442.085 337.452h-65.583l15.204-212.995c0-4.197 8.307-7.601 18.554-7.601 10.25 0 18.558 3.404 18.558 7.601l13.267 212.995z" fill="#D9845F" mask="url(#c5091372qd)"/>
        <path d="M442.084 337.452H376.5l1.314-18.393c.323.22.653.444.985.676 51.766 36.125 50.017-195.278 50.017-195.278l13.267 212.995z" fill="#8D4C2E" mask="url(#c5091372qd)"/>
        <path d="M427.476 125.417c0 3.895-7.707 7.052-17.215 7.052s-17.215-3.157-17.215-7.052c0-3.894 7.707-7.052 17.215-7.052s17.215 3.158 17.215 7.052" fill="#000" mask="url(#c5091372qd)"/>
        <path d="M431.617 169.404c-6.509 1.434-13.799 2.199-21.357 2.199-7.713 0-15.147-.794-21.756-2.29l.424-5.935c6.382 1.531 13.692 2.345 21.332 2.345 7.502 0 14.69-.784 20.986-2.263l.37 5.944zM434.874 221.673c-7.288 1.949-15.768 2.995-24.614 2.995-9.198 0-17.999-1.131-25.477-3.23l.43-5.994c7.18 2.17 15.876 3.345 25.047 3.345 8.828 0 17.218-1.087 24.24-3.107l.374 5.991zM438.12 273.783c-7.958 2.564-17.668 3.951-27.86 3.951-10.764 0-20.988-1.549-29.181-4.392l.435-6.093c7.79 2.974 17.938 4.606 28.746 4.606 10.233 0 19.875-1.461 27.48-4.142l.38 6.07zM441.353 325.709c-8.484 3.286-19.475 5.09-31.093 5.09-12.058 0-23.437-1.942-32.047-5.47-.276-.114-.55-.229-.82-.344l.447-6.27c.814.406 1.684.8 2.601 1.176 7.92 3.242 18.508 5.03 29.82 5.03 11.311 0 21.902-1.788 29.819-5.03.3-.123.597-.25.888-.376l.385 6.194z" fill="#FFF" mask="url(#c5091372qd)"/>
        <path d="M173.663 132.394c10.793-3.266 18.887-13.949 19.11-25.223.224-11.274-7.439-22.269-18.094-25.96-10.654-3.693-23.478.204-30.277 9.199-10.904-2.457-22.881.425-31.475 7.571-8.593 7.147-13.61 18.399-13.181 29.567-13.654.649-25.524 13.559-25.027 27.22.487 13.356 11.71 23.124 24.117 25.714-.036.448-.06.9-.06 1.357 0 9.086 7.367 16.453 16.453 16.453l.056-.001a8.228 8.228 0 0 0 16.401-.947 8.208 8.208 0 0 0-2.863-6.236 16.359 16.359 0 0 0 2.568-6.187c6.59.733 13.182 1.185 19.725.98 7.734-.24 16.122-1.781 21.239-7.586 4.83-5.479 4.323-15.668-1.908-18.897 7.728 2.894 17.688-2.532 19.052-10.784 1.433-8.673-7.13-17.454-15.836-16.24" fill="#CCC" mask="url(#c5091372qd)"/>
        <path d="M122.802 113.273a4.676 4.676 0 1 1-9.352 0 4.676 4.676 0 0 1 9.352 0M118.126 181.268a4.676 4.676 0 1 1-9.353 0 4.676 4.676 0 0 1 9.353 0M130.186 122.527a2.918 2.918 0 1 1-5.836 0 2.918 2.918 0 0 1 5.836 0M174.732 142.699a2.918 2.918 0 1 1-5.836 0 2.918 2.918 0 0 1 5.836 0M114.732 128.363a4.2 4.2 0 1 1-8.402 0 4.2 4.2 0 0 1 8.402 0" fill="#B3B3B3" mask="url(#c5091372qd)"/>
        <path d="M219.034 163.597c-5.232 1.656-11.183 1.534-15.96-1.165-4.779-2.699-8.074-8.215-7.356-13.655.718-5.44 5.965-10.132 11.416-9.501-5.27-15.482-4.68-33.755 1.834-48.757 6.513-15.002 18.765-27.425 33.675-34.146 8.064-3.634 17.234-5.635 25.801-3.435 8.567 2.201 16.21 9.356 17.029 18.163 15.447-19.55 40.128-32.993 64.825-29.688 6.183.827 12.447 2.553 17.322 6.445 9.227 7.366 11.253 21.586 6.134 32.225-5.119 10.64-16.14 17.658-27.716 19.984 7.862 6.073 16.343 12.94 16.584 22.87.133 5.456-2.462 10.746-6.267 14.658-3.805 3.912-8.733 6.566-13.832 8.511-12.214 4.659-25.863 5.474-38.545 2.305 3.567 1.272 4.856 5.863 4.356 9.617-.5 3.754-3.07 6.991-6.206 9.113-3.136 2.123-6.814 3.28-10.465 4.286-7.417 2.043-15.203 3.581-22.775 2.218-7.571-1.364-14.928-6.177-17.395-13.464-4.855 6.627-11.558 11.6-19.603 13.26-3.634.75-7.7.807-10.735-1.327-3.035-2.135-4.852-6.006-2.121-8.517" fill="#CCC" mask="url(#c5091372qd)"/>
        <path d="M229.176 89.223a2.918 2.918 0 1 1-5.836 0 2.918 2.918 0 0 1 5.836 0M275.316 121.057a4.2 4.2 0 1 1-8.401 0 4.2 4.2 0 0 1 8.401 0M223.34 135.58a4.2 4.2 0 1 1-8.402 0 4.2 4.2 0 0 1 8.402 0M313.011 64.331a4.676 4.676 0 1 1-3.496 8.675 4.676 4.676 0 0 1 3.496-8.675M281.006 155.266a4.676 4.676 0 1 1-3.495 8.675 4.676 4.676 0 0 1 3.495-8.675M360.78 56.264a2.918 2.918 0 1 1-2.182 5.413 2.918 2.918 0 0 1 2.181-5.413M350.826 112.96a4.2 4.2 0 1 1-3.14 7.792 4.2 4.2 0 0 1 3.14-7.793" fill="#B3B3B3" mask="url(#c5091372qd)"/>
        <path d="M431.692 69.619c-7.009-2.209-14.489-3.268-21.746-2.11-7.257 1.157-14.279 4.674-18.854 10.425-3.786 4.76-5.758 11.053-4.816 17.061.943 6.008 4.965 11.57 10.596 13.868 5.63 2.298 12.688.974 16.747-3.555 6.999 4.695 15.293 9.034 23.55 10.724 6.755 1.383 14.044 1.623 20.282-1.313 6.238-2.937 11.025-9.71 9.935-16.517 8.26 3.098 18.158 5.632 26.95 6.36 8.791.728 18.192-1.244 24.67-7.232 6.48-5.988 9.07-16.514 4.411-24.005-4.08-6.561-12.194-9.257-19.769-10.779 5.034-4.262 6.057-12.635 3.221-18.59-2.836-5.955-9.128-9.875-15.676-10.671-6.547-.797-13.237 1.269-18.765 4.867-5.528 3.598-9.984 8.645-13.725 14.077-2.38-2.874-5.92-3.66-9.5-2.608-8.97 2.636-16.391 10.716-17.51 19.998" fill="#CCC" mask="url(#c5091372qd)"/>
        <path d="M501.882 81.905a4.676 4.676 0 1 1-3.496 8.675 4.676 4.676 0 0 1 3.496-8.675M452.6 95.764a2.918 2.918 0 1 1-2.18 5.413 2.918 2.918 0 0 1 2.18-5.413M405.547 85.837a2.827 2.827 0 1 1-5.596.811 2.827 2.827 0 0 1 5.596-.811M454.308 61.483a2.828 2.828 0 1 1-5.597.812 2.828 2.828 0 0 1 5.597-.812M410.768 90.734a1.765 1.765 0 1 1-3.493.506 1.765 1.765 0 0 1 3.493-.506M402.027 95.567a2.54 2.54 0 1 1-5.028.728 2.54 2.54 0 0 1 5.028-.728" fill="#B3B3B3" mask="url(#c5091372qd)"/>
        <path d="M90.486 48.272c-4.528-1.46-9.967 1.04-11.81 5.426-2.2 5.24 1.19 11.894 6.584 13.682 5.394 1.788 11.762-1.111 14.454-6.116 3.85 3.212 8.208 6.317 13.174 7.007 2.398.333 4.94.321 7.12-.732 2.18-1.054 3.888-3.359 3.633-5.767 3.555 1.212 7.19.533 10.507-1.23 3.84-2.04 6.615-6.043 7.005-10.374.39-4.332-1.693-8.841-5.34-11.21-3.648-2.367-8.721-2.4-12.307.062 3.568-2.463 6.252-6.349 8.532-10.035 2.28-3.687 2.807-8.825.068-12.184-2.683-3.291-7.713-3.866-11.689-2.375-3.976 1.492-7.093 4.626-9.858 7.85-2.766 3.222-5.367 6.671-8.82 9.144 1.188-2.336.139-4.987-1.418-7.093-1.558-2.107-4.205-3.306-6.825-3.273-3.521.045-6.812 2.22-8.712 5.185-1.9 2.965-2.524 6.616-2.3 10.13.152 2.363.698 4.769 2.068 6.7s3.576 5.42 5.934 5.203M109.768 9.183a4.464 4.464 0 1 1-8.929 0 4.464 4.464 0 0 1 8.929 0M140.903 4.465a4.464 4.464 0 1 1-8.929 0 4.464 4.464 0 0 1 8.929 0" fill="#E6E6E6" mask="url(#c5091372qd)"/>
        <path d="M96.913 54.665a4.676 4.676 0 1 1-9.353 0 4.676 4.676 0 0 1 9.353 0M134.892 49.989a2.918 2.918 0 1 1-5.836 0 2.918 2.918 0 0 1 5.836 0M96.437 33.114a4.2 4.2 0 1 1-8.401 0 4.2 4.2 0 0 1 8.401 0" fill="#CCC" mask="url(#c5091372qd)"/>
        <path d="M157.194 31.913a7.997 7.997 0 1 1-15.994 0 7.997 7.997 0 0 1 15.994 0" fill="#E6E6E6" mask="url(#c5091372qd)"/>
        <path d="M382.474 337.405c7.786-2.597 4.36-14.64-7.267-10.487 4.568-8.513-17.96-12.977-19.102-2.595-9.863-1.557-10.693 7.163-8.305 8.824-5.918-.934-14.12 1.973-9.24 4.258h43.914z" fill="#CCC" mask="url(#c5091372qd)"/>
        <path d="M374.854 329.421a1.194 1.194 0 1 0 2.388 0 1.194 1.194 0 0 0-2.388 0M368.859 330.615a1.194 1.194 0 1 0 2.387 0 1.194 1.194 0 0 0-2.387 0M369.669 325.15a1.577 1.577 0 1 0 3.155 0 1.577 1.577 0 0 0-3.155 0" fill="#B3B3B3" mask="url(#c5091372qd)"/>
        <path d="M352.24 320.31a1.565 1.565 0 1 1-3.13 0 1.565 1.565 0 0 1 3.13 0M343.583 329.05a1.565 1.565 0 1 1-3.13 0 1.565 1.565 0 0 1 3.13 0M341.199 323.573a1.565 1.565 0 1 1-3.13 0 1.565 1.565 0 0 1 3.13 0M380.366 321.3a1.565 1.565 0 1 1-3.13 0 1.565 1.565 0 0 1 3.13 0" fill="#CCC" mask="url(#c5091372qd)"/>
        <path d="M448.682 337.405c.727-5.919 1.038-12.044 9.551-18.792 3.02-2.394 14.223-6.956 24.5-2.595 2.908-6.956 17.753-14.846 29.485-11.524 8.492 2.405 12.354 8.513 13.288 14.223 4.568-.104 13.081 3.76 14.534 10.174 1.564 6.9-5.398 8.514-5.398 8.514h-85.96z" fill="#E6E6E6" mask="url(#c5091372qd)"/>
        <path d="M514.051 321.312a1.194 1.194 0 1 0 2.387 0 1.194 1.194 0 0 0-2.387 0M519.66 322.506a1.577 1.577 0 1 0 3.155 0 1.577 1.577 0 0 0-3.154 0M460.798 321.726a1.194 1.194 0 1 0 2.148-1.043 1.194 1.194 0 0 0-2.148 1.043M465.844 319.275a1.577 1.577 0 1 0 2.837-1.378 1.577 1.577 0 0 0-2.837 1.378M516.439 315.555a2.4 2.4 0 1 0 4.8 0 2.4 2.4 0 0 0-4.8 0M500.902 337.405c7.786-2.597 4.36-14.64-7.268-10.487 4.569-8.513-17.96-12.977-19.102-2.595-9.862-1.557-10.693 7.163-8.305 8.824-5.917-.934-14.12 1.973-9.24 4.258h43.915z" fill="#CCC" mask="url(#c5091372qd)"/>
        <path d="M493.282 329.421a1.194 1.194 0 1 0 2.387 0 1.194 1.194 0 0 0-2.387 0M487.286 330.615a1.194 1.194 0 1 0 2.387 0 1.194 1.194 0 0 0-2.387 0M488.096 325.15a1.577 1.577 0 1 0 3.155 0 1.577 1.577 0 0 0-3.155 0" fill="#B3B3B3" mask="url(#c5091372qd)"/>
        <path d="M532.22 311.616a2.484 2.484 0 1 1-4.97 0 2.484 2.484 0 0 1 4.97 0M482.781 309.727a2.484 2.484 0 1 1-4.968 0 2.484 2.484 0 0 1 4.968 0M534.107 316.5a.944.944 0 1 1-1.888 0 .944.944 0 0 1 1.888 0M474.239 309.727a.944.944 0 1 1-1.888 0 .944.944 0 0 1 1.888 0M450.57 319.066a.944.944 0 1 1-1.888 0 .944.944 0 0 1 1.888 0" fill="#E6E6E6" mask="url(#c5091372qd)"/>
    </g>
</svg>
