<svg width="887" height="542" viewBox="0 0 887 542" xmlns="http://www.w3.org/2000/svg">
    <g fill="none" fill-rule="evenodd">
        <path d="M831.199 541.607H55.383c-5.096 0-9.267-4.169-9.267-9.26 0-5.096 4.17-9.264 9.267-9.264H831.2c5.097 0 9.267 4.168 9.267 9.263 0 5.092-4.17 9.26-9.267 9.26M93.367 215.422c-1.137-8.392-8.332-14.862-17.04-14.862-3.417 0-6.6.997-9.278 2.714-3.913-7.797-11.983-13.148-21.304-13.148-8.26 0-15.537 4.202-19.81 10.584a11.59 11.59 0 0 0-1.855-.15c-6.356 0-11.51 5.152-11.51 11.506 0 .833.09 1.645.258 2.428-6.795 1.012-12.052 6.908-12.052 13.97 0 7.77 6.359 14.126 14.13 14.126H87.96c7.772 0 14.13-6.357 14.13-14.126 0-5.857-3.614-10.908-8.723-13.042M874.819 149.528h-.538c.003-.12.005-.239.005-.36 0-11.768-9.544-21.31-21.32-21.31-8.148 0-15.229 4.571-18.816 11.287a11.435 11.435 0 0 0-4.864-1.081c-4.36 0-8.148 2.43-10.089 6.008a11.374 11.374 0 0 0-5.57-1.45c-6.305 0-11.42 5.111-11.42 11.416 0 4.796 2.96 8.898 7.15 10.588.735 5.723 5.66 10.184 11.579 10.184h53.883c6.417 0 11.67-5.25 11.67-11.666v-1.95c0-6.416-5.253-11.666-11.67-11.666M646.019 47.36h-84.007a11.53 11.53 0 0 1-1.638-5.947c0-6.413 5.2-11.61 11.614-11.61 2.059 0 3.989.535 5.666 1.472a11.658 11.658 0 0 1 10.26-6.11c1.77 0 3.446.396 4.946 1.1 3.65-6.83 10.85-11.48 19.139-11.48 11.975 0 21.685 9.704 21.685 21.677 0 .121-.005.243-.005.365h.546c6.08 0 11.128 4.626 11.794 10.533" fill="#FFFFFE"/>
        <path d="M212.198 246.886s41.677-26.52 39.852-55.473c-1.823-28.951-44.636-59.977-44.636-59.977s52.869 11.222 76.403-18.034c23.534-29.256 4.531-78.804 4.531-78.804s43.072 45.07 72.96 32.007C391.198 53.542 416.876.268 416.876.268s-10.868 59.3 24.747 72.13c35.615 12.83 76.575-17.632 76.575-17.632s-23.488 40.558-9.155 68.958c14.334 28.399 51.717 31.992 51.717 31.992s-38.22 12.328-35.486 51.275c2.734 38.948 45.522 55.358 45.522 55.358s-46.439-17.231-75.096 18.9c-28.659 36.132.996 80.72.996 80.72s-38.853-44.017-70.83-34.79c-31.98 9.225-46.94 65.533-46.94 65.533s.783-54.11-38.48-67.762c-39.265-13.652-68.11 25.39-68.11 25.39s25.64-37.69 5.967-70.918c-19.674-33.227-66.105-32.536-66.105-32.536" fill="#8D4C2E"/>
        <path d="M510.397 196.49c0 66.481-53.918 120.374-120.43 120.374-66.508 0-120.427-53.893-120.427-120.374 0-66.482 53.919-120.376 120.427-120.376 66.512 0 120.43 53.894 120.43 120.376" fill="#D9845F"/>
        <path d="M703.616 274.059c0 38.007-10.875 73.473-29.68 103.466-34.51 55.032-95.73 91.624-165.497 91.624-107.791 0-195.177-87.345-195.177-195.09 0-69.06 35.899-129.737 90.06-164.407A194.428 194.428 0 0 1 439.7 91.41c21.382-8.044 44.544-12.443 68.739-12.443 20.8 0 40.84 3.253 59.638 9.276 41.86 13.414 77.57 40.57 101.811 76.158a194.005 194.005 0 0 1 7.452 11.833c16.71 28.758 26.276 62.174 26.276 97.825" fill="#9EBABA"/>
        <path d="M547.845 387.564c-33.065 46.702-43.845 30.893-53.192 40.594-9.344 9.7-4.7 33.107-13.296 30.535-16.313-4.882-24.438-17.244-24.799-39.517-.358-22.272 5.391-30.893-7.905-38.437-13.3-7.543-37.379-38.44-35.94-49.934 1.436-11.497 10.78-10.06 12.577-19.4 1.797-9.342 6.83-18.679-3.952-15.808-10.783 2.874-20.127-8.263-21.563-16.884-1.439-8.62-9.703-3.95-14.377-10.059-4.672-6.105-31.985-15.087-29.11-25.865 2.875-10.775-8.627-71.847 3.233-79.75 11.86-7.904 40.612-37.72 43.848-49.217a7.26 7.26 0 0 0-.046-4.17A194.428 194.428 0 0 1 439.7 91.41c.226 2.594.251 4.898-.033 6.607-1.439 8.62 28.752-.72 37.018 6.824 8.266 7.545 12.221 14.37 10.424 22.274-1.8 7.903-26.596-19.4-48.52 5.389-21.923 24.787 24.797-2.875 39.532 2.874 14.735 5.747 24.082 19.04 20.127 25.506-3.953 6.466-26.235-1.438-25.874 7.184.358 8.623-20.846 22.992-27.676 25.506-6.828 2.514-23 22.63-16.172 40.594 0 0-7.908 8.621-13.658-17.602 0 0-31.859-11.444-36.298 16.525s13.658 7.185 21.205 10.778c7.547 3.59-6.111 15.806-1.439 18.32 4.675 2.515 13.3 0 13.3 6.826 0 6.825 12.937 21.193 23.36 17.961 10.421-3.234 29.47-.358 37.378 3.954 7.905 4.309 37.376 39.514 55.705 40.952 18.33 1.436 52.831 8.982 19.766 55.682" fill="#72978D"/>
        <path d="M411.876 243.892s2.767 6.223 17.298 10.604c14.53 4.378 16.834 13.37 25.139 10.834 8.302-2.535-29.522-28.815-42.437-21.438M517.86 137.487s-18.448-8.861-17.969-18.92c.479-10.058-4.313-13.411-9.103-14.609-4.792-1.197 11.02-17.722 28.032-12.693 17.011 5.03 25.157 17.244 14.136 28.26-11.023 11.016-12.572 19.303-15.096 17.962M669.888 164.401c-.03.026-.064.05-.095.072-10.03 7.161-11.82 1.074-21.847-6.8-10.03-7.877-14.684 7.158-15.76 20.047-1.072 12.887-16.117 11.455-27.22-1.791-11.102-13.245 2.15-6.086 8.238-8.95 6.09-2.864-5.37-10.74-9.669-15.036-4.298-4.296-21.488-2.864-26.503-14.314-5.015-11.45 10.744-5.376 20.055 2.143 9.313 7.518 10.388-5.728 7.165-9.308-3.225-3.58-6.446-1.79-14.328-5.012-7.877-3.223-4.657-11.456-15.399-16.111-7.756-3.359-7.3-14.922-6.448-21.097 41.863 13.413 77.57 40.57 101.811 76.157" fill="#72978D"/>
        <path d="M703.616 274.059c0 38.007-10.875 73.473-29.68 103.466-.666-6.292-.441-13.859 2.216-21.494 6.536-18.785 12.665-27.363 4.086-60.032-8.581-32.672-27.074 2.467-36.362-2.452-9.687-5.13-22.587-11.433-22.938-20.42-.35-8.984 1.692-17.38-4.03-30.537-5.718-13.16 1.637-21.736 8.582-31.129s-5.72-15.11 6.129-22.053c11.847-6.942 15.526-16.335 25.33-8.984 6.577 4.931 14.076 3.247 20.394-4.19 16.706 28.758 26.273 62.174 26.273 97.825" fill="#72978D"/>
        <path d="M756.242 341.934c0 23.94-19.418 43.35-43.369 43.35-23.954 0-43.369-19.41-43.369-43.35 0-23.941 19.415-43.35 43.369-43.35 23.951 0 43.369 19.409 43.369 43.35" fill="#FFFFFE"/>
        <path d="M712.873 358.894c-12.972 0-23.585-10.61-23.585-23.575v-143.27c0-12.966 10.613-23.573 23.585-23.573 12.969 0 23.583 10.607 23.583 23.573v143.27c0 12.966-10.614 23.575-23.583 23.575" fill="#FFFFFE"/>
        <path d="M727.721 191.87v50.479h-29.699v-50.478c0-8.163 6.685-14.842 14.851-14.842 4.083 0 7.795 1.67 10.486 4.36 2.69 2.69 4.362 6.4 4.362 10.482" fill="#8D4C2E"/>
        <path fill="#BE8432" d="M698.022 307.67h29.699v-65.321h-29.699z"/>
        <path d="M743.941 341.934c0 17.152-13.91 31.054-31.068 31.054-17.16 0-31.07-13.902-31.07-31.054 0-11.776 6.555-22.022 16.22-27.286v-6.978h29.698v6.978c9.664 5.264 16.22 15.51 16.22 27.286" fill-opacity=".7" fill="#BE8432"/>
        <path d="M301.425 441.684c0 7.974-6.47 14.44-14.446 14.44-7.977 0-14.444-6.466-14.444-14.44 0-7.973 6.467-14.437 14.444-14.437 7.977 0 14.446 6.464 14.446 14.437" fill="#EEEEEA"/>
        <path d="M299.018 421.282c0 6.316-5.12 11.433-11.435 11.433-6.318 0-11.438-5.117-11.438-11.433 0-6.312 5.12-11.43 11.438-11.43 6.315 0 11.435 5.118 11.435 11.43" fill="#EEEEEA"/>
        <path d="M305.505 408.644c0 4.67-3.789 8.457-8.46 8.457a8.458 8.458 0 1 1 0-16.914c4.671 0 8.46 3.787 8.46 8.457" fill="#EEEEEA"/>
        <path d="M326.198 405.054c0 6.84-5.545 12.382-12.388 12.382-6.84 0-12.385-5.542-12.385-12.382 0-6.838 5.545-12.383 12.385-12.383 6.843 0 12.388 5.545 12.388 12.383" fill="#EEEEEA"/>
        <path d="M315.94 423.585c0 5.471-4.437 9.906-9.91 9.906s-9.91-4.435-9.91-9.906c0-5.47 4.437-9.905 9.91-9.905s9.91 4.434 9.91 9.905M308.851 400.706a7.94 7.94 0 0 1-7.94 7.938 7.94 7.94 0 0 1-7.942-7.938 7.94 7.94 0 0 1 7.941-7.937 7.94 7.94 0 0 1 7.941 7.937" fill="#EEEEEA"/>
        <path d="M310.024 435.927c0 5.919-4.8 10.717-10.722 10.717-5.92 0-10.718-4.798-10.718-10.717 0-5.916 4.797-10.714 10.718-10.714 5.922 0 10.722 4.798 10.722 10.714M313.577 389.573c0 5.279-4.283 9.56-9.567 9.56-5.281 0-9.564-4.281-9.564-9.56 0-5.28 4.283-9.56 9.564-9.56 5.284 0 9.567 4.28 9.567 9.56" fill="#EEEEEA"/>
        <path d="M327.795 373.047c0 7.421-6.018 13.437-13.442 13.437s-13.443-6.016-13.443-13.437c0-7.42 6.019-13.437 13.443-13.437 7.424 0 13.442 6.016 13.442 13.437" fill="#EEEEEA"/>
        <path d="M326.372 384.378c0 4.836-3.922 8.756-8.76 8.756-4.839 0-8.76-3.92-8.76-8.756s3.921-8.757 8.76-8.757c4.838 0 8.76 3.92 8.76 8.757M319.8 364.424c0 5.734-4.651 10.386-10.39 10.386-5.74 0-10.392-4.652-10.392-10.386 0-5.737 4.652-10.39 10.391-10.39 5.74 0 10.391 4.653 10.391 10.39" fill="#EEEEEA"/>
        <path d="M333.325 362.594c0 7.2-5.842 13.04-13.046 13.04s-13.046-5.84-13.046-13.04c0-7.2 5.842-13.04 13.046-13.04s13.046 5.84 13.046 13.04" fill="#EEEEEA"/>
        <path d="M350.47 377.55c0 7.038-5.71 12.742-12.75 12.742s-12.746-5.704-12.746-12.741 5.706-12.743 12.746-12.743 12.75 5.706 12.75 12.743" fill="#EEEEEA"/>
        <path d="M335.014 391.952c0 4.803-3.896 8.695-8.701 8.695-4.805 0-8.701-3.892-8.701-8.695 0-4.805 3.896-8.697 8.701-8.697 4.805 0 8.701 3.892 8.701 8.697" fill="#EEEEEA"/>
        <path d="M324.974 392.264a7.535 7.535 0 0 1-7.537 7.534 7.535 7.535 0 0 1-7.536-7.534 7.535 7.535 0 0 1 7.536-7.533 7.535 7.535 0 0 1 7.537 7.533M367.37 380.087c0 6.067-4.918 10.982-10.985 10.982-6.07 0-10.987-4.915-10.987-10.982 0-6.065 4.918-10.983 10.987-10.983 6.067 0 10.985 4.918 10.985 10.983" fill="#EEEEEA"/>
        <path d="M377.997 368.403c0 5.965-4.839 10.8-10.806 10.8-5.97 0-10.806-4.835-10.806-10.8 0-5.965 4.836-10.801 10.806-10.801 5.967 0 10.806 4.836 10.806 10.8M404.05 361.174a7.231 7.231 0 0 1-7.232 7.229 7.231 7.231 0 0 1-7.232-7.23 7.229 7.229 0 0 1 7.232-7.225 7.229 7.229 0 0 1 7.232 7.226M389.586 340.864a4.345 4.345 0 0 1-8.691 0 4.344 4.344 0 0 1 4.344-4.343 4.345 4.345 0 0 1 4.347 4.343M369.303 340.383a4.828 4.828 0 0 1-4.83 4.826 4.827 4.827 0 1 1 0-9.655 4.83 4.83 0 0 1 4.83 4.829M288.013 386.018a5.934 5.934 0 1 1-11.868 0 5.934 5.934 0 0 1 11.868 0" fill="#EEEEEA"/>
        <path d="M316.24 533.124h-61.113a401.216 401.216 0 0 0 2.867-14.389 391.416 391.416 0 0 0 4.155-29.34 384.821 384.821 0 0 0 1.78-25.704c.022-.658.045-1.313.066-1.97.02-.66.038-1.32.054-1.981.012-.484.025-.967.035-1.45a395.508 395.508 0 0 0 .072-11.698h43.054a350.803 350.803 0 0 0-.08 11.592c.009.52.014 1.037.021 1.556.01.66.02 1.32.036 1.98.013.658.028 1.313.046 1.97.016.549.031 1.099.049 1.649.56 17.812 2.532 35.612 5.914 53.396.125.658.25 1.313.381 1.968.12.624.246 1.251.371 1.876a363.76 363.76 0 0 0 2.291 10.545" fill="#FFFFFE"/>
        <path d="M307.151 459.74H264.05c.012-.484.025-.967.035-1.45.041-1.928.067-3.855.08-5.784h42.957c-.013 1.894-.008 3.785.01 5.678.005.52.013 1.037.02 1.556M316.24 533.124h-61.113a401.216 401.216 0 0 0 2.156-10.545h56.665a363.76 363.76 0 0 0 2.291 10.545M307.233 463.688h-43.305c.026-.655.046-1.31.067-1.967h43.192c.013.657.028 1.312.046 1.967M313.577 520.703h-55.944c.123-.655.243-1.31.361-1.968h55.202c.125.658.25 1.313.381 1.968" fill="#E5703B"/>
        <path d="M316.24 533.124" fill="#F1F0ED"/>
        <path d="M313.948 522.579c-.125-.625-.25-1.252-.371-1.876-.113-.573-.225-1.146-.333-1.72a405.122 405.122 0 0 0 .704 3.595M309.967 498.571a340.02 340.02 0 0 1-2.685-33.232c-.018-.55-.033-1.1-.049-1.648v-.003c.016.55.031 1.1.049 1.65a340.02 340.02 0 0 0 2.685 33.233M307.187 461.72c-.015-.66-.025-1.32-.036-1.98.01.66.02 1.32.036 1.98" fill="#EFEAC7"/>
        <path d="m307.151 459.74-.007-.576.007.576M307.233 463.688" fill="#DA6D3C"/>
        <path d="M307.113 454.635" fill="#EFEAC7"/>
        <path d="M307.13 458.192v-.008.008" fill="#DA6D3C"/>
        <path d="M307.164 448.924" fill="#EFEAC7"/>
        <path d="M285.683 522.579h-15.995l-.473-1.876h16.468v1.876m0-3.844h-16.98a359.685 359.685 0 0 1-1.907-7.482 378.397 378.397 0 0 1-4.647-21.858 384.821 384.821 0 0 0 1.78-25.704v-.003h21.754v55.047m-21.737-55.556c.018-.486.034-.972.049-1.458-.015.486-.03.972-.049 1.458m21.737-1.458h-21.688c.02-.66.038-1.32.054-1.981h21.634v1.98M285.683 452.506h-21.52a375.883 375.883 0 0 0-.007-5.914h21.527v5.914" fill="#F1F0ED"/>
        <path d="M285.683 459.74H264.05c.012-.484.025-.967.035-1.45a406.6 406.6 0 0 0 .08-5.592v-.192h21.52v7.234M285.683 533.124h-13.148c-.266-.875-.532-1.75-.796-2.625-.361-1.362-.72-2.72-1.078-4.08-.322-1.279-.648-2.56-.973-3.84h15.995v10.545M285.683 463.688h-21.755c.008-.169.013-.337.018-.509.018-.486.034-.972.049-1.458h21.688v1.967M285.683 520.703h-16.468c-.08-.31-.159-.622-.236-.931-.095-.346-.187-.691-.276-1.037h16.98v1.968" fill="#D9845F"/>
        <path d="M316.101 532.52" fill="#DA6D3C"/>
        <path d="m307.144 459.165-.013-.973.013.972M307.133 450.98" fill="#F1F0ED"/>
        <path d="M313.948 522.579h-28.265v-1.876h27.894c.12.624.246 1.251.371 1.876m-.752-3.844h-27.513v-55.047h21.55v.003c.016.548.031 1.098.049 1.648a340.02 340.02 0 0 0 2.685 33.232 349.614 349.614 0 0 0 3.229 20.164m-6.009-57.014h-21.504v-1.981h21.468c.01.66.02 1.32.036 1.98M307.12 452.506h-21.437v-5.914h21.527c-.018.778-.033 1.556-.046 2.332a275.66 275.66 0 0 0-.043 3.582" fill="#E4E2DF"/>
        <path d="M307.151 459.74h-21.468v-7.234h21.438c-.013 1.894-.008 3.785.01 5.678v.008l.013.972.007.576M316.24 533.124h-30.557v-10.545h28.265a363.76 363.76 0 0 0 2.291 10.545M307.233 463.688h-21.55v-1.967h21.504c.013.657.028 1.312.046 1.967M313.577 520.703h-27.894v-1.968h27.513c.125.658.25 1.313.381 1.968" fill="#8D4C2E"/>
        <path d="M269.688 522.579h-5.668c-.13-.625-.258-1.249-.384-1.876h5.579l.473 1.876m-.985-3.844h-5.463c-.072-.36-.144-.719-.213-1.08-.161-.818-.317-1.635-.473-2.451a438.21 438.21 0 0 1-2.092-11.894 395.031 395.031 0 0 0 1.687-13.915 378.397 378.397 0 0 0 4.647 21.858c.609 2.5 1.244 4.995 1.907 7.482" fill="#DDDAD6"/>
        <path d="M272.535 533.124h-6.19c-.32-1.374-.635-2.75-.942-4.125a487.47 487.47 0 0 1-1.383-6.42h5.668c.325 1.28.65 2.561.973 3.84.359 1.36.717 2.718 1.078 4.08.264.875.53 1.75.796 2.625M269.215 520.703h-5.579l-.145-.714c-.085-.417-.167-.837-.251-1.254h5.463c.09.346.181.691.276 1.037.077.31.156.621.236.931" fill="#D9845F"/>
        <path d="M266.345 533.124h-76.117a516.641 516.641 0 0 0 2.685-13.135l.439-2.334c.15-.816.302-1.635.448-2.451 3.99-22.137 6.428-44.305 7.314-66.508.028-.683.053-1.37.079-2.052.028-.817.054-1.636.08-2.452.025-.824.048-1.645.068-2.467a482.386 482.386 0 0 0 .133-16.377H255.1a415.852 415.852 0 0 0-.074 16.377c.012.822.028 1.643.043 2.467.018.816.036 1.635.059 2.452.018.683.038 1.369.059 2.052.699 22.188 3.156 44.356 7.368 66.508.156.816.312 1.633.473 2.451A474.718 474.718 0 0 0 265.403 529c.307 1.374.622 2.75.942 4.125" fill="#FFFFFE"/>
        <path d="M255.025 441.725H201.34a482.386 482.386 0 0 0 .143-9.01h53.502c-.015 2.357-.01 4.714.016 7.07.005.646.012 1.293.023 1.94M266.345 533.124h-76.117a516.641 516.641 0 0 0 2.685-13.135h70.578a474.718 474.718 0 0 0 1.912 9.01c.307 1.374.622 2.75.942 4.125M255.127 446.644h-53.934c.028-.817.054-1.636.08-2.452h53.795c.018.816.036 1.635.059 2.452M263.027 517.655h-69.675c.15-.816.302-1.635.448-2.451h68.754c.156.816.312 1.633.473 2.451" fill="#D9845F"/>
        <path d="M263.49 519.99h-35.202v-2.335h34.74c.15.778.306 1.556.463 2.334" fill="#F1F0ED"/>
        <path d="M266.345 533.124h-38.057v-13.135h35.203a474.718 474.718 0 0 0 1.912 9.01c.307 1.374.622 2.75.942 4.125" fill="#8D4C2E"/>
        <path d="M262.554 515.204h-34.266v-68.56h26.839c.018.683.038 1.369.059 2.052.699 22.188 3.156 44.356 7.368 66.508M255.068 444.192h-26.78v-2.467h26.737c.012.822.028 1.643.043 2.467m-.082-11.477h-26.698v-7.367h26.81c-.058 2.457-.096 4.91-.112 7.367" fill="#F1F0ED"/>
        <path d="M255.025 441.725h-26.737v-9.01h26.698a457.551 457.551 0 0 0 .039 9.01M255.127 446.644h-26.839v-2.452h26.78c.018.816.036 1.635.059 2.452M263.027 517.655h-34.739v-2.451h34.266c.156.816.312 1.633.473 2.451" fill="#8D4C2E"/>
        <path d="M244.844 417.436c0 8.409-6.818 15.223-15.23 15.223-8.41 0-15.23-6.814-15.23-15.223 0-8.408 6.82-15.223 15.23-15.223 8.412 0 15.23 6.815 15.23 15.223" fill="#FFFFFE"/>
        <path d="M247.316 400.187c0 6.336-5.14 11.474-11.479 11.474-6.338 0-11.479-5.138-11.479-11.474s5.14-11.474 11.48-11.474c6.338 0 11.478 5.138 11.478 11.474" fill="#FFFFFE"/>
        <path d="M247.316 385.156c0 6.026-4.887 10.911-10.915 10.911-6.03 0-10.916-4.885-10.916-10.911s4.887-10.911 10.916-10.911c6.028 0 10.915 4.885 10.915 10.91" fill="#FFFFFE"/>
        <path d="M263.831 371.312c0 7.57-6.141 13.708-13.716 13.708-7.575 0-13.714-6.139-13.714-13.708 0-7.572 6.139-13.71 13.714-13.71s13.716 6.138 13.716 13.71" fill="#FFFFFE"/>
        <path d="M287.416 357.348c0 9.333-7.567 16.897-16.903 16.897-9.337 0-16.904-7.564-16.904-16.897 0-9.332 7.567-16.896 16.904-16.896 9.336 0 16.903 7.564 16.903 16.896" fill="#FFFFFE"/>
        <path d="M306.652 333.213c0 9.977-8.09 18.063-18.068 18.063-9.982 0-18.071-8.086-18.071-18.063 0-9.975 8.09-18.063 18.07-18.063s18.07 8.088 18.07 18.063" fill="#FFFFFE"/>
        <path d="M322.598 346.793c0 7.011-5.685 12.692-12.697 12.692s-12.698-5.68-12.698-12.692c0-7.009 5.686-12.692 12.698-12.692 7.012 0 12.697 5.683 12.697 12.692" fill="#FFFFFE"/>
        <path d="M331.899 327.8c0 8.542-6.925 15.464-15.468 15.464-8.542 0-15.47-6.922-15.47-15.463 0-8.54 6.928-15.461 15.47-15.461 8.543 0 15.468 6.922 15.468 15.46M303.11 353.948c0 6.985-5.666 12.65-12.658 12.65-6.988 0-12.656-5.665-12.656-12.65 0-6.989 5.668-12.652 12.656-12.652 6.992 0 12.657 5.663 12.657 12.652M278.922 383.255c0 6.594-5.35 11.942-11.95 11.942-6.597 0-11.947-5.348-11.947-11.942 0-6.597 5.35-11.943 11.947-11.943 6.6 0 11.95 5.346 11.95 11.943" fill="#FFFFFE"/>
        <path d="M260.639 392.671c0 6.267-5.08 11.344-11.346 11.344-6.27 0-11.349-5.077-11.349-11.344 0-6.264 5.08-11.343 11.349-11.343 6.267 0 11.346 5.08 11.346 11.343M304.824 380.012c0 4.806-3.896 8.7-8.704 8.7-4.807 0-8.704-3.894-8.704-8.7 0-4.805 3.897-8.7 8.704-8.7 4.808 0 8.704 3.895 8.704 8.7M353.454 354.035c0 5.949-4.826 10.773-10.778 10.773-5.952 0-10.777-4.824-10.777-10.773 0-5.947 4.825-10.77 10.777-10.77 5.952 0 10.778 4.823 10.778 10.77M234.202 334.1c0 5.436-4.406 9.84-9.844 9.84-5.437 0-9.843-4.404-9.843-9.84 0-5.434 4.406-9.838 9.843-9.838 5.438 0 9.844 4.404 9.844 9.839M237.944 353.948a5.665 5.665 0 0 1-5.665 5.662 5.663 5.663 0 1 1 0-11.325 5.665 5.665 0 0 1 5.665 5.663M260.792 320.892a5.665 5.665 0 0 1-5.665 5.663 5.665 5.665 0 0 1-5.665-5.663 5.665 5.665 0 0 1 5.665-5.663 5.665 5.665 0 0 1 5.665 5.663M253.609 417.275c0 6.623-5.37 11.994-11.996 11.994-6.628 0-11.999-5.371-11.999-11.994 0-6.622 5.371-11.99 11.999-11.99 6.625 0 11.996 5.368 11.996 11.99M326.372 374.777a8.17 8.17 0 0 1-8.174 8.17 8.17 8.17 0 1 1 0-16.34 8.17 8.17 0 0 1 8.174 8.17M301.19 404.015c0 5.929-4.806 10.734-10.738 10.734-5.928 0-10.736-4.805-10.736-10.734 0-5.926 4.808-10.732 10.736-10.732 5.932 0 10.737 4.806 10.737 10.732" fill="#FFFFFE"/>
        <path d="M538.299 501.186s.497 14.975-2.54 17.672c-2.741 2.436-13.885 8.314-21.232 10.17-.55.14-.533.923.023 1.036 3.993.806 13.26 1.642 26.944-3.286 0 0 8.645 4.214 14.27 3.201 0 0 7.608 6.456 14.171 8.457 1.012.307 2-.545 1.861-1.591-.353-2.685-1.246-7.26-3.325-9.225 0 0 4.552.506 8.765-2.19 0 0 8.187 1.893 15.97 3.879.724.184 1.129-.806.481-1.18-2.26-1.31-5.32-3.147-9.011-5.525a12.258 12.258 0 0 1-5.156-6.921l-4.178-14.497H538.3" fill="#995C2D"/>
        <path d="M575.342 501.186c0 2.045-8.292 3.703-18.522 3.703-10.23 0-18.521-1.658-18.521-3.703 0-2.044 8.292-3.702 18.521-3.702 10.23 0 18.522 1.658 18.522 3.702" fill="#C17334"/>
        <path d="M571.922 500.705c0 1.4-6.761 2.536-15.102 2.536-8.34 0-15.101-1.136-15.101-2.536 0-1.402 6.761-2.538 15.101-2.538 8.341 0 15.102 1.136 15.102 2.538" fill="#D07A39"/>
        <path d="M565.737 500.411c0 .827-3.991 1.497-8.917 1.497-4.925 0-8.919-.67-8.919-1.497 0-.829 3.994-1.5 8.92-1.5 4.925 0 8.916.671 8.916 1.5" fill="#E3853C"/>
        <path d="M664.896 491.77s-.497 23.29 2.54 25.988c2.741 2.438 8.289 7.43 15.636 9.286.548.14.532.924-.023 1.036-3.994.806-7.54 1.81-21.222-3.119 0 0-9.437 2.856-15.06 1.845 0 0 2.257 10.494-4.31 12.495-1.008.307-1.999-.545-1.858-1.591.353-2.685-2.637-7.393-5.873-11.188 0 0-2.644.612-5.634-.716 0 0-11.32.42-19.103 2.402-.724.187-1.129-.803-.481-1.177 2.26-1.31 8.576-3.493 12.27-5.867a12.286 12.286 0 0 0 5.156-6.922l1.262-19.548 36.7-2.924" fill="#AB6631"/>
        <path d="M628.196 494.694c0 2.045 8.292 3.703 18.521 3.703 10.23 0 18.179-4.583 18.179-6.627 0-2.047-7.949-.778-18.179-.778-10.23 0-18.521 1.658-18.521 3.702" fill="#D27C37"/>
        <path d="M631.616 494.213c0 1.4 6.761 2.536 15.101 2.536s14.759-4.06 14.759-5.463c0-1.4-6.418.389-14.759.389-8.34 0-15.101 1.136-15.101 2.538" fill="#E3833C"/>
        <path d="M637.801 493.92c0 .826 3.991 1.496 8.916 1.496 4.926 0 9.196-2.444 9.196-3.27 0-.83-4.27.274-9.196.274-4.925 0-8.916.673-8.916 1.5" fill="#EB8D44"/>
        <path d="M417.636 534.107c-16.087 0-29.13-1.213-29.13-2.708 0-1.497 13.043-2.71 29.13-2.71s29.128 1.213 29.128 2.71c0 1.495-13.041 2.708-29.128 2.708" fill="#D4D1CC"/>
        <path d="M393.07 515.363s-3.487 2.4-2.98 4.073c.51 1.674 6.48 8.808 8.192 9.747 1.715.942 5.018 1.702 5.909 1.195.888-.509-4.76-5.294-6.761-12.42l-4.36-2.595" fill="#784325"/>
        <path d="M415.867 448.353s-3.185 8.705-3.69 13.23c-.5 4.523-3.52 21.809-3.52 21.809s-5.864 4.997-6.704 9.186c-.837 4.187-5.865 18.094-8.883 22.785 0 0 2.514 3.011 4.36 2.594 0 0 18.102-29.222 19.778-32.16 1.675-2.937 13.294-35.535 13.294-35.535l-14.635-1.91" fill="#393A37"/>
        <path d="M424.527 524.452s-1.405 5.04-.427 6.704c0 0 3.617-.343 5.112.402 1.493.747 12.35 1.837 13.67.69 0 0-.46-1.092-2.987-1.665s-8.433-4.627-8.84-6.131h-6.528" fill="#784325"/>
        <path d="M437.235 450.47s-1.945 31.133-2.345 39.488c-.402 8.355-3.835 34.494-3.835 34.494s-3.55.962-6.528 0c0 0 .917-14.353 0-16.87-.914-2.519-1.602-14.19.804-18.082 0 0-9.869-30.886-5.64-40.556l17.544 1.525" fill="#434340"/>
        <path d="M459.584 380.233s2.985 4.6-3.346 6.955c0 0-10.578 12.845-11.62 13.567-.425.294-1.892 1.82-3.632 3.63-1.078-3.33-2.783-4.802-3.866-5.426 1.316-1.132 2.35-2.042 2.747-2.531 1.628-2.001 13.657-10.228 13.929-11.224.271-.992-.361-3.434 1.81-4.61 2.17-1.175 5.878-5.152 6.42-4.79.543.36-2.442 4.429-2.442 4.429" fill="#F9DAB5"/>
        <path d="M440.986 404.386c-2.537 2.64-5.658 5.89-6.997 6.858-2.263 1.627-5.537.36-6.748-1.628-.965-1.584 5.809-7.162 9.879-10.657 1.083.624 2.788 2.095 3.866 5.427" fill="#E27B78"/>
        <path fill="#F9DAB5" d="m432.182 400.484-.5 1.973-1.052 4.17-6.604-.918.312-3.17.502-3.13 7.342 1.075"/>
        <path d="M425.943 405.276c2.76.497 9.93.896 12.009 15.484 2.081 14.586-.717 29.71-.717 29.71s-11.256.966-21.368-2.117c0 0 1.257-17.667.573-23.76-.68-6.092 2.117-20.642 9.503-19.317" fill="#DF5654"/>
        <path d="M436.104 448.225c-.062 1.804-1.867 5.1-2.676 5.161-.808.064-4.352-2.052-2.641-7.15 0 0-12.411-11.688-12.411-14.923 0-1.197.527-3.083 1.316-5.202 1.69.693 4.551 1.988 5.775 3.275 0 0 6.075 12.685 7.608 13.43 1.536.747 3.09 3.607 3.029 5.409" fill="#F9DAB5"/>
        <path d="M431.127 420.182c-1.74 3.173-5.66 9.204-5.66 9.204-1.224-1.287-4.086-2.582-5.775-3.275 1.341-3.606 3.438-7.89 4.966-10.591 2.427-4.292 3.546-6.218 6.469-4.292 2.957 1.95 1.743 5.784 0 8.954" fill="#E27B78"/>
        <path d="M431.194 404.394c-.932-.392-3.2-1.477-3.28-2.78l3.769.843-.49 1.937" fill="#D2B99B"/>
        <path d="M427.192 389.355c3.582-.696 4.898.197 5.812 2.09.913 1.892 2.416 10.704 1.697 11.815-.717 1.108-8.684.456-9.861-3.851-1.175-4.31-2.35-9.138 2.352-10.054" fill="#F9DAB5"/>
        <path d="M429.34 396.128s1.047-2.05.586-5.036c0 0 3.6.154 3.103-3.902 0 0-5.86.804-9.075.305-3.218-.497-5.438 6.01-2.376 10.22 3.065 4.21 2.757 4.823 2.757 4.823s5.07-.033 5.005-6.41" fill="#723D23"/>
        <path d="M430.349 395.42s-1.226-1.991-2.337-.806c-1.109 1.187.768 3.37 2.337 3.408v-2.602" fill="#F9DAB5"/>
        <path d="M765.35 532.986c-23.088 0-41.802-1.139-41.802-2.544s18.714-2.543 41.802-2.543c23.086 0 41.8 1.138 41.8 2.543 0 1.405-18.714 2.544-41.8 2.544" fill="#D4D1CC"/>
        <path d="M741.174 517.318s1.165 1.842.865 3.928c-.297 2.085-.694 5.16-.645 8.09 0 0-.197.249-.794 0 0 0 0-4.963-.793-4.963-.796 0-6.06 5.708-8.791 6.005-2.732.3-6.357-.496-6.206-1.686.149-1.192 1.695-1.205 4.227-2.298 2.534-1.093 5.281-4.777 6.436-7.147l5.7-1.93M797.624 499.27s1.841-.4 3.052 0c1.213.396 6.738 2.62 6.738 2.62s.235.236 0 .607l-5.187-.574s-.15 2.29.346 3.434c.496 1.144 4.336 5.824 1.876 11.178 0 0-.1.304-.842 0-.74-.302-.589-7.398-6.71-10.804l.727-6.461" fill="#491526"/>
        <path d="M727.836 484.953c.17 3.646 5.097 20.96 6.956 29.627 2.652-.077 4.428-1.006 5.516-1.876a88.775 88.775 0 0 1-.64-4.207c-.43-3.549-.663-18.493-2.859-21.502 0 0 18.455-11.075 22.863-16.449 4.411-5.376 3.039-11.993 3.039-11.993l-12.774 1.338s-22.316 20.438-22.1 25.062" fill="#56162C"/>
        <path d="M735.473 519.247s4.303.873 5.7-1.93c0 0-.437-2.141-.865-4.613-1.088.87-2.864 1.799-5.516 1.876.494 2.313.773 4.01.68 4.667" fill="#F9D3A5"/>
        <path d="M758.856 433.337c1.712 1.22 12.165 6.784 12.165 6.784s-.663 2.984-1.485 6.34c2.445-.12 4.48.963 5.612 1.74 1.87-4.05 3.379-8.203 2.598-9.792-1.71-3.483-15.772-12.771-17.178-13.567-1.408-.794-3.474.627-3.901 1.486-1.388 2.802.476 5.786 2.189 7.01" fill="#159993"/>
        <path d="M765.885 464.694c2.507-.68 3.241-5.386 3.241-5.386s.855-.428 1.04-1.59c0 0 2.75-4.682 4.982-9.516-1.132-.778-3.167-1.86-5.612-1.74-.983 4.007-2.194 8.547-2.77 9.179-1.062 1.161-2.716 2.2-3.236 3.912-.517 1.71-.15 5.822 2.355 5.141" fill="#F9D3A5"/>
        <path d="M751.967 460.352c.333 5.96 9.866 33 11.778 35.184 1.531 1.748 21.814 7.222 29.878 9.343 1.132-2.661 1.021-4.89.809-6.116-5.778-1.53-12.38-6.082-14.748-7.694-2.824-1.92-9.016-1.904-9.016-1.904s.545-12.654 0-19.389c-.546-6.738-3.597-11.953-3.597-11.953l-15.104 2.529" fill="#491526"/>
        <path d="M758.287 403.447s3.349-2.303 5.937 1.717c2.59 4.022 1.219 14.16 2.542 17.574 1.321 3.416 2.417 6.771 8.479 13.104 0 0-9.83-1.63-13.576-11.985 0 0-.83-5.525-.169-10.152.663-4.626-2.383-7.108-2.383-7.108l-.83-3.15" fill="#723D23"/>
        <path d="m756.006 404.232 2.281-.785s1.12 1.407.83 3.15l-1.531.87s-.625-2.861-1.58-3.235" fill="#EA8A2F"/>
        <path d="M747.264 418.148c.325.258.617.527.883.796.394.399.725.806 1.001 1.21 1.846 2.692 1.303 5.271 1.303 5.271 2.94-1.082 6.216-4.782 6.216-4.782-1.623-2.372-2.37-7.24-2.37-7.24-2.371 1.457-7.033 4.745-7.033 4.745" fill="#F9D3A5"/>
        <path d="M756.67 420.643s5.998 3.917 5.44 11.005c-.559 7.089.294 18.86 4.96 26.175 0 0-6.791 4.852-17.133 2.068 0 0 .637-11.61-1.352-15.666-1.99-4.055-4.859-11.993 1.866-18.8l6.218-4.782" fill="#138681"/>
        <path d="M734.753 447.33c2.499 1.412 4.834 2.417 6.098 2.162 3.6-.732 9.938-9.98 11.466-13.65 1.529-3.672.292-9.293-2.296-7.157-2.588 2.137-8.438 14.565-10.69 14.678-.495.023-1.406-.271-2.522-.747-.246 1.35-.804 3.183-2.056 4.713" fill="#159993"/>
        <path d="M724.93 440.697s5.195 4.015 9.823 6.632c1.252-1.53 1.81-3.362 2.056-4.713-3.945-1.674-10.47-5.591-10.47-5.591s-1.183-4.686-2.983-3.841c0 0-.732.169-.901 1.07 0 0-1.239-.901-1.912-.338-.676.56-2.757 5.803 4.388 6.78M793.623 504.879c2.02.532 3.274.852 3.274.852 2.458-2.457.727-6.461.727-6.461-1.008-.028-2.086-.213-3.192-.507.212 1.226.323 3.455-.809 6.116" fill="#F9D3A5"/>
        <path d="M749.148 420.154a8.755 8.755 0 0 0-1-1.21l3.696-.377c-.535.835-1.761 1.323-2.696 1.587" fill="#D0B28E"/>
        <path d="M751.199 402.996c-1.77.01-3.779 0-4.782 1.81-1.006 1.806-3.459 11.65 0 14.703 0 0 4.728.415 6.108-1.607 1.308-1.911 4.905-6.507 3.376-10.445-1.525-3.939-4.06-4.463-4.702-4.46" fill="#F9D3A5"/>
        <path d="M751.442 411.717s-.958-.248-1.595-1.382c-.64-1.136-2.079-2.341-2.583-3.19-.504-.853-1.321-3.23-.86-3.939.46-.709 4.152-2.41 7.7-.709 3.548 1.702 4.293 3.547 3.618 7.165-.674 3.616-2.765 3.619-2.801 6.648 0 0-2.522-2.712-3.48-4.593" fill="#723D23"/>
        <path d="M750.748 411.894s.062-2.598 1.808-2.557c.37.01.719.19.944.484.466.612.932 1.899-1.298 3.582l-1.454-1.51" fill="#F9D3A5"/>
        <path d="M124.228 533.943c-24.573 0-44.493-1.213-44.493-2.707 0-1.497 19.92-2.708 44.493-2.708 24.574 0 44.494 1.21 44.494 2.707 0 1.495-19.92 2.708-44.494 2.708" fill="#D4D1CC"/>
        <path d="M85.656 514.152s-4.173 2.677-4.3 4.322c-.126 1.646 4.938 11.58 6.14 12.275 1.203.696 6.9 1.707 8.671 1.328 1.773-.378-4.202-4.414-4.645-5.235-.443-.822-1.389-7.06-1.389-7.06l-4.477-5.63" fill="#643B23"/>
        <path d="M131.46 461.39s-8.765 23.47-16.159 34.658c-7.394 11.19-25.168 23.734-25.168 23.734s-4.613-1.561-4.477-5.63c0 0 8.819-8.746 10.719-12.067 1.899-3.324 2.374-7.257 9.022-11.121 0 0 4.816-25.65 7.801-31.27 2.985-5.62 3.528-6.66 3.528-6.66l14.734 8.356" fill="#292927"/>
        <path d="M162.601 409.02c-2.572 3.094-7.671 9.153-9.006 10.164-1.806 1.366-14.227 8.585-14.227 8.585s-1.646 20.205-7.158 32.099a33.994 33.994 0 0 1-.75 1.522s-10.382-1.668-20.983-6.834c0 0 .151-.614.398-1.661 1.271-5.4 5.07-22.342 3.65-26.329-1.696-4.757-9.03-15.916-9.85-18.431-.62-1.899-1.238-9.553-1.505-13.207-.088-1.192-.137-1.96-.137-1.96s3.12.126 4.16-.312c0 0 .253.65.623 1.689 1.108 3.114 3.26 9.713 2.77 12.75 0 0 6.018 8.205 9.3 9.354 3.285 1.149 5.118 3.226 9.591 3.063 0 0 8.25.49 9.727 0 1.477-.494 10.342-5.323 10.342-5.323l9.55-8.56c.533.804 1.603 2.12 3.505 3.391" fill="#DAF0F6"/>
        <path d="M154.041 514.541s.406 5.17 1.697 5.827c0 0 1.501.315 5.952-2.16 0 0 4.873-.632 6.558-1.893 1.686-1.265 3.925-3.291 3.582-3.688-.342-.394-6.747 1.482-11.657-.14l-6.132 2.054" fill="#784325"/>
        <path d="M110.477 454.556s-6.052 10.632 4.295 16.558c10.347 5.927 27.954 10.525 27.954 10.525s.303 6.41 2.118 10.282c1.815 3.871 7.866 16.814 9.197 22.62 0 0 4.115-.726 6.233-2.118 0 0-8.774-33.87-11.92-37.255-3.147-3.388-21.904-15.474-21.904-15.474l-15.973-5.138" fill="#373835"/>
        <path d="M164.102 407.203s-.592.724-1.5 1.817c-1.903-1.272-2.973-2.587-3.505-3.39l1.722-1.543s1.258 2.407 3.283 3.116M107.816 394.345c-2.168.568-3.744.627-4.646.583-.088-1.192-.137-1.96-.137-1.96s3.12.126 4.16-.312c0 0 .253.65.623 1.689" fill="#EBF6F9"/>
        <path d="M107.192 392.656s3.983-3.595 3.447-5.599c0 0-.537-.79-2.823 1.326 0 0 .903-5.924-2.907-5.333-3.81.594-3.018 6.407-1.876 9.918 0 0 2.293.433 4.16-.312M160.819 404.087s-.045-6.08 1.105-6.16c1.15-.079 1.07 2.656 1.07 2.656s2.498-4.122 2.736-5.033c.238-.91 1.506.397 1.982 1.108.476.714 1.823 2.592.317 6.766 0 0-1.988 3.508-3.927 3.78 0 0-2.287-.681-3.283-3.117" fill="#F9D3A5"/>
        <path d="M132.21 459.868a33.72 33.72 0 0 1-.75 1.522s-.965-.156-2.605-.516a84.142 84.142 0 0 1-4.097-1.014c-3.9-1.067-9.063-2.763-14.28-5.304 0 0 .15-.614.397-1.661 2.035 1.008 8.066 3.861 14.387 5.62 1.38.383 2.773.716 4.14.964.953.174 1.893.307 2.808.389" fill="#643B23"/>
        <path d="m129.403 459.479-.548 1.395a84.142 84.142 0 0 1-4.097-1.014l.504-1.346c1.38.384 2.773.717 4.14.965" fill="#DADAD5"/>
        <path d="M134.132 416.658c-.485.3-.903.835-1.255 1.454-.906 1.589-1.364 3.723-1.364 3.723-3.473.458-5.21-2.405-5.21-2.405l.436-3.793.418-5.16 6.244.188.725 5.945.006.048" fill="#F9D3A5"/>
        <path d="m130.794 421.461.85-.16s.822.703 1.135 1.399l-.278 1.213-2.096.25-1.152-1.253 1.541-1.449" fill="#9E2435"/>
        <path d="M130.405 424.164s-.616 7.234 1.055 10.778c1.667 3.541 3.778 8.38.326 14.54l.78 3.413s2.338-1.743 3.229-2.559c0 0 1.538-8.429-.652-12.585-2.19-4.155-3.65-9.122-2.642-13.838l-2.096.25" fill="#C72940"/>
        <path d="M131.644 421.3s1.285 1.346 1.721 2.444c0 0 .856-2.546-.86-4.9 0 0-.478 1.018-.86 2.456M126.303 417.774s2.197 3.191 4.491 3.687l-1.844 2.956s-3.501-3.145-3.762-5.673l1.115-.97" fill="#EBF6F9"/>
        <path d="M132.877 418.112c-1.019-.31-2.822-1.277-3.575-2.707l4.824 1.205.006.048c-.485.3-.903.835-1.255 1.454" fill="#D0B28E"/>
        <path d="M131.54 403.81c2.391 0 4.539.392 5.27 2.342.733 1.952.928 9.32-1.61 11.758 0 0-8.395-.295-7.76-8.488.634-8.196 4.1-5.612 4.1-5.612" fill="#F9D3A5"/>
        <path d="M128.434 411.418s1.279-.896 1.279-2.142-.576-3.132 1.47-3.23c2.047-.094 2.015.96 4.382.576 2.366-.383 2.526-2.172 2.078-2.653-.447-.479-6.683-3.995-11.256-.926-4.573 3.068-3.326 10.58.352 12.594l1.695-4.22" fill="#343534"/>
        <path d="M129.477 411.19s-1.742-2.697-2.782-.696c-1.038 1.999 2.782 3.695 2.782 3.695v-2.999" fill="#F9D3A5"/>
        <path d="M608.14 535.803c-18.736 0-33.924-1.528-33.924-3.41 0-1.35 7.774-2.516 19.061-3.072a.559.559 0 0 0 .266-.013c4.422-.212 9.373-.33 14.598-.33 12.848 0 24.028.72 29.785 1.779a25.182 25.182 0 0 1 1.675 2.915c-5.03 1.25-17.221 2.131-31.46 2.131" fill="#D4D1CC"/>
        <path d="M593.382 529.332a.503.503 0 0 1-.105-.01c.09-.003.177-.008.267-.013a.559.559 0 0 1-.162.023" fill="#85532C"/>
        <path d="M639.6 533.672a25.182 25.182 0 0 0-1.674-2.915c2.64.486 4.137 1.041 4.137 1.635 0 .45-.875.883-2.462 1.28" fill="#955C31"/>
        <path d="M622.495 517.108s2.754-2.037 3.737-1.52c.983.517 2.898 3.672 2.742 12.62 0 0-1.298 4.52-3.236 4.665-1.938.146-4.526.092-4.214-.476.31-.568 2.64-3.465 2.586-5.844-.015-.694-.46-2.536-.658-3.731-.476-2.917-.957-5.714-.957-5.714M633.756 517.648s3.167-2.536 4.803-1.408c1.636 1.129 3.215 8.404 2.652 10.717-.566 2.313-2.596 5.809-4.4 5.809-1.808 0-4.348.396-3.95-.338.393-.732 1.579-1.579 1.748-2.482.169-.9 1.354-4.343.847-6.543-.51-2.198-1.7-5.755-1.7-5.755" fill="#222323"/>
        <path d="M600.63 500.222s-6.63 10.698-8.156 15.266c-1.524 4.57-4.908 14.102-3.103 16.019 1.807 1.916 7.109 3.27 10.158 1.975 3.046-1.297 23.923-10.66 23.923-10.66s1.242-3.7-.957-5.714c0 0-3.33 1.71-6.603 1.481-3.274-.225-9.423-.112-14.108 4.458 0 0 15.181-14.834 14.277-30.12l-15.431 7.295" fill="#313238"/>
        <path d="M618.757 488.842s3.802 5.837 3.041 11.978c-.757 6.142-4.997 22.9-4.997 22.9s1.265-3.163 4.43-3.48c3.163-.315 7.336-.125 12.525-2.592 0 0 2.783 2.341 1.518 6.072 0 0-22.459 12.331-26.951 10.56-4.49-1.77-5.187-4.237-5.123-8.981.064-4.742 1.917-24.543 1.917-24.543l13.64-11.914" fill="#3E3E47"/>
        <path d="m577.797 495.503-.29 2.482s-3.09 2.966-3.988 4.895c-.896 1.932-5.243 8.621-5.243 8.621s-4.759 5.103-4.759 6.551c0 1.448.07 6.208.69 6.62.621.414.69-3.035 1.036-3.654.343-.622 1.792-3.38 1.792-3.38s-.481 2.758-.277 3.93c.208 1.175 2.002-1.845 4.486-7.748 0 0 9.024-8.923 11.1-13 2.076-4.076 1.38-8.352 1.38-8.352l-5.927 3.035" fill="#F9D3A5"/>
        <path d="M580.964 471.053s-2.862 5.182-3.1 10.512-.617 14.516-.617 14.516 2.542 1.95 6.84.809c0 0 1.441-10.9 2.204-16.372.763-5.473-2.322-9.028-5.327-9.465" fill="#348CC0"/>
        <path d="M585.82 465.695c2.325-1.54 6.188-5.098 15.032-.228 8.843 4.87 15.806 15.53 17.905 23.375 0 0-7.57 15.136-18.127 11.38 0 0-4.365-7.956-6.743-9.558-2.376-1.602-14.628-5.965-12.923-19.611 0 0 2.893-4.056 4.856-5.358" fill="#217FB6"/>
        <path d="m603.512 488.192.548 1.385s-9.418 12.208-10.053 12.784c-.635.576-5.473 1.438-6.395 2.36-.921.923-3.801 2.305-3.225 3.167.576.865 3.512-.806 4.492-.345 0 0-1.556 2.533-2.65 2.937-1.095.402-4.891 2.073-3.885 2.534 1.006.46 6.94.98 8.092.75 1.152-.23 4.667-5.932 6.395-7.314 1.728-1.384 13.711-12.037 14.574-15.03.865-2.995-2.36-8.699-2.36-8.699s-1.672 4.609-5.533 5.471M579.054 468.55s3.556.591 5.717 3.102c0 0 4.879-.174 4.948-8.048l-2.916-1.99-4.055-2.332-3.694 9.268" fill="#F9D3A5"/>
        <path d="M575.913 454.883c-3.502 1.958-5.53 3.885-4.856 6.497.673 2.615 5.53 10.233 9.339 9.335 3.811-.896 4.559-10.678 2.764-12.843-1.792-2.167-4.856-4.325-7.247-2.989" fill="#F9D3A5"/>
        <path d="M582.344 460.976s-2.279-.709-2.678-1.909c-.4-1.198-.799-1.535-1.784-1.689-.986-.156-2.061-.217-4.493 2.981-2.43 3.199-7.752-.368-4.862-3.536 2.893-3.168 3.2-.921 5.878-3.045 2.678-2.122 4.77-2.981 6.707-1.784 1.938 1.2 4.091 3.276 5.691 9.62 0 0-2.916.068-4.46-.638" fill="#75584B"/>
        <path d="M581.112 461.037s-.686-2.39.894-2.4c1.577-.008 1.907 1.968 1.628 3.444l-2.522-1.044" fill="#F9D3A5"/>
        <path d="M598.39 466.214c3.356-.9 5.588 1.072 7.273 4.575 1.682 3.503 6.06 15.08 6.06 15.08s-2.02 3.096-8.554 3.027c0 0-4.51-10.161-6.126-15.21-1.615-5.049.174-7.157 1.347-7.472" fill="#348CC0"/>
    </g>
</svg>
